<svg width="620" height="620" viewBox="0 0 620 620" fill="none" xmlns="http://www.w3.org/2000/svg">
<path d="M201.801 401.985C201.649 402.209 201.499 402.436 201.349 402.664L201.504 402.716L201.801 401.985ZM349.311 384.504C349.281 384.501 349.252 384.501 349.223 384.504L349.289 384.736L349.311 384.504ZM416.73 505.606C419.115 500.659 421.707 495.668 423.022 490.364C424.107 485.903 423.504 480.935 423.653 476.183L423.539 476.13L423.478 476.102C423.376 476.052 423.27 476.011 423.162 475.966L422.74 475.805C422.123 475.572 421.459 475.36 420.915 475.104L420.734 475.015C420.641 474.969 420.55 474.917 420.462 474.86C420.409 474.832 420.359 474.799 420.312 474.763L420.181 474.662C420.129 474.621 420.082 474.576 420.036 474.528C419.995 474.479 419.959 474.425 419.928 474.369C419.881 474.304 419.845 474.232 419.818 474.157C414.764 460.293 409.88 446.375 405.166 432.401C404.476 430.355 404.926 427.954 404.849 425.72C405.373 425.539 405.9 425.362 406.421 425.184L411.182 430.603C410.518 427.018 410.749 422.938 409.039 419.935C401.588 406.825 393.855 393.848 385.685 381.171C374.765 364.229 361.344 349.934 342.835 341.309C339.066 339.552 335.803 336.585 332.302 334.177C334.676 333.209 336.533 333.405 338.385 333.654C351.058 335.355 363.711 337.336 376.411 338.578C381.001 339.037 383.718 340.863 386.34 344.619C390.861 351.079 395.991 357.11 400.865 363.321C396.872 355.652 393.279 347.81 387.97 341.419C384.981 337.823 385.854 336.702 389.217 334.174C385.656 333.687 383.196 333.058 380.778 333.095C377.023 333.149 373.227 334.35 369.564 333.836C358.1 332.249 346.7 330.211 335.324 327.983C333.331 327.598 331.599 325.453 328.362 323.136L334.482 322.402C332.453 320.83 329.368 319.571 329.125 317.979C328.784 315.784 330.501 313.301 331.479 311.01C333.648 305.967 335.903 300.968 338.34 295.432C340.668 296.005 343.589 296.715 346.53 297.464L331.725 289.889C332.513 289.028 333.269 288.204 334.019 287.385C334.143 287.256 334.261 287.126 334.379 286.996C334.456 286.525 334.525 286.053 334.605 285.58L334.746 284.691L329.746 285.355L329.461 285.469L329.13 285.599C327.498 286.243 325.863 286.883 323.943 287.637L324.342 297.488L321.098 296.044L325.981 303.152L320.579 308.802L325.762 313.808C325.593 314.137 325.418 314.463 325.246 314.787L316.904 312.007C319.555 305.296 319.555 305.296 309.833 305.49C309.79 308.931 310.419 312.578 309.348 315.52C308.951 316.618 304.581 316.078 300.938 316.355L304.254 321.181C303.172 322.272 302.195 323.259 300.993 324.475L298.978 320.515C291.498 328.223 283.417 326.018 275.087 321.551C274.682 316.673 276.831 311.02 271.384 306.511C268.107 310.311 264.953 313.972 262.304 317.047L261.157 308.258C254.49 309.547 258.829 313.492 259.684 316.608C255.368 315.022 255.581 312.637 256.438 309.392C257.366 305.881 257.376 302.083 257.786 298.406L255.971 298.143L254.095 306.059L252.318 305.623L253.043 300.269L245.291 305.595C247.575 302.721 248.6 300.197 250.436 299.343C256.993 296.278 251.341 293.111 250.331 289.611C252.556 288.506 254.844 287.368 256.022 286.787C255.306 284.455 254.239 282.743 254.41 281.225C255.27 273.637 255.368 266.296 247.273 262.102C244.496 260.658 240.896 261.05 238.033 259.699C219.9 251.206 202.15 241.7 183.742 233.955C146.543 218.316 108.19 208.765 68.2117 209.577C59.6841 209.765 55.2809 212.589 53.4185 220.909C52.5649 224.754 52.1778 229.257 53.2912 233.006C60.1646 256.14 75.046 272.017 96.9832 282.052C93.7137 287.78 97.2885 293.293 101.38 298.673C102.705 300.414 104.093 302.117 105.553 303.743C112.188 311.135 119.402 317.694 129.821 317.723C137.709 317.736 145.79 318.196 153.416 316.787C180.47 311.779 207.686 307.166 233.304 296.974C236.25 295.803 238.443 295.296 240.206 299.349C242.283 304.109 245.24 308.503 247.82 313.059L249.192 312.79L249.347 306.523C252.495 310.298 251.269 315.361 246.516 316.807C235.949 319.998 225.282 322.894 214.655 325.916C221.354 324.855 228.058 323.792 234.768 322.727C233.252 323.541 231.743 324.447 230.238 325.345C229.903 325.543 229.569 325.745 229.233 325.943C229.001 326.103 228.748 326.233 228.496 326.379C228.11 326.611 227.724 326.833 227.334 327.052C227.137 327.188 226.917 327.29 226.71 327.405C226.204 327.687 225.697 327.96 225.195 328.218C225.027 328.306 224.853 328.393 224.683 328.477C224.338 328.649 223.995 328.814 223.654 328.972C223.481 329.053 223.305 329.13 223.134 329.205C222.789 329.36 222.437 329.504 222.086 329.642C221.814 329.753 221.541 329.854 221.262 329.953L220.88 330.085C220.751 330.13 220.625 330.174 220.493 330.216C220.259 330.289 220.022 330.36 219.786 330.424C219.483 330.512 219.179 330.591 218.87 330.662C214.255 331.736 208.773 329.555 202.64 328.662L213.698 326.04C213.148 325.995 212.554 326.006 211.984 325.925C201.623 324.494 192.449 325.175 185.646 334.851C179.764 343.238 172.458 350.572 165.608 358.206C160.69 363.687 155.481 368.895 149.27 375.406C152.389 373.741 154.073 372.84 155.76 371.942C149.094 381.627 137.342 386.66 133.979 399.128C137.128 396.976 140.043 394.499 142.68 391.732C149.719 384.614 155.998 376.488 163.877 370.493C176.357 360.995 188.111 351.128 196.332 337.395C197.312 335.756 200.179 334.78 202.324 334.55C207.072 334.047 211.995 334.668 216.707 334.028C228.439 332.426 240.093 330.319 251.79 328.583C253.061 328.395 254.522 329.238 255.892 329.6C255.184 330.782 254.663 332.161 253.72 333.091C252.777 334.021 251.49 334.526 250.285 335.082C242.006 338.885 233.899 343.146 225.358 346.304C216.217 349.683 211.148 356.234 208.246 365.811C210.229 364.84 211.846 364 213.521 363.274C214.175 362.988 215.482 362.655 215.558 362.803C216.012 363.692 216.663 364.918 216.383 365.659C213.959 372.05 211.341 378.357 208.788 384.696L201.789 401.998C202.984 400.205 204.263 398.457 205.269 396.554C210.449 386.782 215.473 376.919 220.698 367.175C221.54 365.608 222.855 363.89 224.393 363.23C230.243 360.721 236.27 358.622 241.624 356.601L237.924 379.557L239.4 379.922L243.655 373.614L248.662 361.484L247.444 353.928C246.98 354.008 246.498 354.099 246.026 354.19C246.207 347.395 251.096 346.41 256.465 345.519C260.238 352.943 265.589 349.06 269.913 347.019C272.175 345.948 273.088 342.121 274.788 339.242L281.683 340.051C279.635 342.838 277.743 345.415 275.848 347.987L277.975 350.041C280.213 347.964 282.45 345.884 284.684 343.801L291.218 344.56C291.705 344.447 292.19 344.337 292.681 344.228C292.977 344.025 293.302 343.856 293.613 343.675C293.637 343.658 293.662 343.641 293.687 343.624L293.711 343.494L294.023 341.834C294.284 341.655 294.567 341.509 294.839 341.339C297.882 340.481 300.984 339.539 300.148 344.905L300.114 346.667L307.998 350.012L308.286 340.216C311.161 345.155 312.948 349.794 318.384 348.58C320.376 348.135 322.122 346.734 324.285 345.611L328.234 349.961L327.604 341.05L331.628 345.744L330.32 339.152C333.598 344.504 336.287 348.334 338.275 352.497C338.86 353.725 337.513 357.366 336.934 357.34C333.409 357.35 331.695 360.706 328.373 361.224C326.489 361.502 325.02 364.157 324.02 365.111C318.479 366.234 313.021 367.04 307.766 368.51C304.456 369.437 301.451 371.36 298.295 372.844L297.161 381.657C297.999 382.07 298.905 382.898 299.667 382.814C302.013 382.544 304.381 381.205 306.59 381.567C316.648 383.19 325.404 378.88 334.691 376.987C335.918 376.736 337.243 376.928 338.371 376.908L337.597 374.393C345.477 376.258 345.473 376.26 346.339 380.413C346.557 381.768 346.872 383.109 347.281 384.427C347.356 384.641 348.48 384.51 349.184 384.516C348.791 383.226 347.868 381.536 348.331 380.897C351.591 376.37 348.443 372.074 347.635 367.735C347.178 365.289 346.318 362.904 345.581 360.276C352.576 364.161 359.318 367.769 365.867 371.684C367.433 372.619 368.584 374.522 369.621 376.167C378.122 389.604 386.642 403.04 394.955 416.581C398.047 421.626 401.325 426.751 403.306 432.245C409.201 448.603 414.535 465.146 419.953 481.647C420.386 482.979 420.174 484.754 419.751 486.132C417.572 493.257 415.226 500.322 412.939 507.412C412.986 507.71 412.962 508.011 412.869 508.291C414.219 507.402 416.125 506.847 416.73 505.606ZM248.167 272.591L218.148 270.195L218.255 268.366L222.865 268.832C222.992 268.495 223.119 268.159 223.248 267.826L217.936 265.5C220.451 261.914 243.902 267.335 248.167 272.591ZM55.1862 224.523C55.8187 219.797 56.1346 214.844 62.2371 213.964L64.1743 215.485L56.9238 225.807L55.1862 224.523ZM102.164 277.46C86.9967 277.37 77.5184 268.639 71.1413 254.02L97.2686 261.095L97.5547 260.235C93.3871 258.639 89.2575 256.924 85.0442 255.495C84.1789 255.233 83.3573 254.826 82.6143 254.291L82.427 254.131L82.2965 254.009C82.1381 253.852 81.9993 253.675 81.8835 253.484L81.7871 253.343C81.7382 253.239 81.6968 253.131 81.6639 253.021L81.6314 252.891L81.6122 252.757L81.5967 252.621L81.5919 252.478C81.592 252.362 81.5994 252.246 81.6133 252.132C81.6268 252.03 81.6457 251.93 81.6688 251.828C81.6918 251.725 81.724 251.621 81.7577 251.511C81.791 251.401 81.7935 251.405 81.818 251.35C81.904 251.134 82.0046 250.925 82.1198 250.725C82.3406 250.335 82.5929 249.965 82.8748 249.619C82.8913 249.605 82.9089 249.593 82.9277 249.583C82.5572 249.897 82.1991 250.252 81.8454 250.62C81.7257 250.74 81.6085 250.864 81.4888 250.984C81.369 251.105 81.1874 251.3 81.0135 251.463C80.9397 251.514 80.8868 251.588 80.8206 251.65C80.6946 251.769 80.5654 251.89 80.4347 252.002C79.925 252.475 79.317 252.828 78.6511 253.037C75.3251 253.926 72.6964 253.06 73.2752 248.066L69.4803 252.863C67.4231 250.186 67.4231 250.186 74.7749 245.282C70.9265 246.225 66.9818 248.403 65.5983 247.273C62.7598 244.954 61.298 240.863 58.9404 236.964C63.326 236.167 67.1591 235.473 70.9934 234.772C67.9259 234.565 64.8003 234.681 61.7987 234.028C59.4715 233.524 57.3057 232.063 54.9368 230.963C58.4516 227.592 60.7543 225.38 62.9998 223.251C68.4673 226.724 74.0288 226.597 79.6695 225.378L79.4868 225.346C79.28 225.309 79.0753 225.276 78.8598 225.234C78.5393 225.182 78.2151 225.133 77.8902 225.09C77.4438 225.035 76.9869 224.974 76.5196 224.908C76.0931 224.853 75.6665 224.798 75.2386 224.734C75.027 224.705 74.8154 224.677 74.5936 224.634C73.9527 224.531 73.3187 224.423 72.7057 224.301C72.496 224.261 72.2911 224.211 72.0996 224.174C71.7114 224.077 71.3303 223.975 70.9655 223.867C70.7513 223.797 70.537 223.727 70.3301 223.652C70.1228 223.577 69.9105 223.495 69.7055 223.408C67.7704 222.591 65.613 220.01 65.3147 218.021C65.1177 216.722 68.0896 213.702 69.6109 213.787C82.0251 214.492 94.4253 215.751 106.824 216.825L106.97 216.856L107.024 216.867C110.575 217.607 114.152 218.331 117.754 219.039C121.356 219.747 124.918 220.464 128.438 221.189L131.235 221.771C133.008 222.143 134.78 222.524 136.55 222.916C141.046 223.912 145.527 224.983 149.985 226.179C152.842 226.933 154.674 232.513 156.978 235.867C156.542 236.282 156.111 236.697 155.675 237.11L146.41 236.007L146.296 235.993C149.343 237.159 152.497 238.126 155.43 239.571C158.28 240.97 160.914 242.865 163.646 244.546L163.112 246.298C157.053 245.67 150.999 245.163 145.014 244.424C140.481 243.867 137.134 245.139 134.937 250.457C144.709 244.101 154.623 248.807 164.194 249.194C170.919 249.462 177.656 251.423 184.629 252.097C174.804 249.069 164.601 246.638 158.567 236.949C156.96 234.369 156.216 231.263 155.094 228.384L156.275 226.758L206.306 247.546L199.931 251.503L200.381 252.345C203.106 251.397 205.821 250.449 209.4 249.196C208.22 250.724 207.68 251.426 207.288 251.935C219.742 251.738 228.779 260.06 238.841 265.744L210.025 257.654L209.548 258.758L215.122 262.061L216.69 271.848L217.411 272.981C221.198 273.389 224.984 273.781 228.772 274.205C234.585 274.86 240.402 275.526 246.223 276.202L246.225 278.107C235.762 278.119 225.298 278.126 214.834 278.131C181.142 278.048 147.445 277.947 113.744 277.826C109.873 277.802 106.012 277.483 102.164 277.46ZM192.707 300.879L192.451 300.892C192.468 300.883 192.483 300.872 192.497 300.86C181.787 300.673 171.076 300.514 160.363 300.27C157.386 300.202 154.39 299.881 150.159 299.567C156.929 293.671 163.031 289.333 170.995 290.189C185.048 291.702 197.323 286.164 209.936 282.273C214.346 280.916 217.363 280.875 220.63 284.513C222.252 286.316 224.577 287.472 227.665 289.702C215.416 293.593 203.961 297.237 192.507 300.875L192.707 300.879ZM135.795 288.255C142.516 279.76 142.527 279.828 153.164 279.788C168.926 279.741 184.67 279.593 200.446 279.521C203.098 279.508 205.772 279.723 208.418 279.845C190.094 287.948 161.381 290.911 135.791 288.242L135.795 288.255ZM219.245 280.549L237.462 280.641C235.44 288.396 227.543 288.716 219.245 280.549ZM102.202 294.268C100.972 292.848 101.252 290.092 100.752 287.274L100.711 287.274L100.664 287.275L100.458 287.275L100.338 287.276L100.081 287.278L99.3439 287.285C99.5408 280.566 100.939 279.633 109.212 280.88L106.7 282.606C117.057 280.113 127.341 278.555 137.929 280.934L138.509 283.077C132.885 285.936 127.354 288.977 121.616 291.588C117.312 293.545 112.85 295.324 108.256 296.421C106.461 296.845 103.466 295.731 102.202 294.268ZM109.812 304.07L109.143 302.015C113.26 304.498 114.399 303.151 113.459 299.593C111.752 299.94 109.629 300.367 107.504 300.8L106.981 299.421C115.077 296.384 122.917 292.106 131.343 290.646C140.031 289.143 149.289 290.387 158.93 291.412C154.539 293.559 150.369 296.467 145.709 297.702C135.411 300.432 124.878 302.367 114.41 304.48C112.996 304.778 111.359 304.23 109.812 304.07ZM122.757 312.016C120.073 312.518 116.708 310.007 113.663 308.844C113.833 308.185 114.018 307.541 114.195 306.893L132.161 302.089C130.751 308.001 127.19 311.176 122.749 312.005L122.757 312.016ZM124.527 315.536C128.709 310.828 130.963 306.09 134.558 304.761C140.087 302.716 146.554 302.375 152.591 302.774C154.032 302.87 155.347 308.74 157.449 313.619L124.527 315.536ZM158.906 309.995C159.758 308.926 160.381 308.139 160.579 307.9L155.028 303.12L157.779 302.957L160.082 302.82L166.499 302.452L168.587 302.327L183.732 301.428L185.896 301.294L192.448 300.91C192.419 300.924 192.388 300.935 192.356 300.941L196.619 302.873L196.539 305.384L158.906 309.995ZM231.657 294.516C221.422 298.152 210.906 301.064 200.498 304.277L199.565 301.892L239.85 285.785C239.801 285.645 239.955 285.87 239.904 285.954C239.659 286.242 239.481 286.584 239.383 286.956C239.284 287.327 239.268 287.72 239.334 288.106C240.898 287.177 242.463 286.246 244.029 285.314L245.163 287.252C240.684 289.693 236.435 292.803 231.649 294.504L231.657 294.516ZM180.322 349.341C176.125 353.365 171.541 356.944 167.107 360.729L166.359 360.183C175.358 350.068 184.359 339.954 193.363 329.842L194.843 330.803C194.777 332.043 195.197 333.749 194.559 334.453C189.947 339.539 185.271 344.594 180.316 349.334L180.322 349.341ZM237.661 324.613C237.64 324.62 237.619 324.624 237.597 324.624L237.563 324.621C237.506 324.61 237.451 324.589 237.401 324.558L237.344 324.521L237.271 324.468L237.187 324.406L237.083 324.315C236.981 324.227 236.873 324.122 236.752 323.999L236.642 323.884L236.476 323.71L236.305 323.529L235.76 322.947L235.447 322.62C235.914 322.493 236.38 322.363 236.852 322.235C237.515 322.051 238.185 321.868 238.865 321.683C240.126 321.36 241.401 320.989 242.772 320.629C243.277 320.488 243.794 320.35 244.322 320.204C244.338 320.195 244.353 320.185 244.367 320.173L246.917 319.475L247.835 319.225C245.397 324.366 240.756 323.138 237.643 324.587L237.661 324.613ZM235.571 350.259C230.875 352.747 226.429 355.698 222.333 358.17C221.394 346.989 231.282 346.508 238.279 342.755C240.405 347.926 240.291 347.722 235.553 350.233L235.571 350.259ZM349.175 358.622C344.793 353.484 341.332 347.502 338.442 341.008L367.357 360.845C363.946 363.981 352.771 362.837 349.175 358.622ZM390.429 402.111C389.643 400.968 389.058 399.566 388.039 398.723C384.64 395.92 373.062 380.049 372.946 376.876C372.877 374.973 374.117 373.077 374.826 371.021C382.97 375.649 403.369 408.904 401.293 417.924L390.429 402.111Z" fill="white"/>
<path d="M374.304 221.465C374.201 221.579 374.122 221.677 374.015 221.799C374.173 221.691 374.335 221.579 374.494 221.47L374.304 221.465ZM332.266 259.18C332.502 259.017 332.727 258.824 332.961 258.637C333.092 258.547 333.204 258.432 333.325 258.328C329.584 255.971 332.299 254.736 334.03 253.443C345.458 244.912 356.961 236.477 368.308 227.839C370.473 226.188 372.135 223.873 373.99 221.817C373.421 222.181 372.848 222.547 372.281 222.915C371.253 223.578 370.23 224.248 369.202 224.911C368.322 225.488 367.434 226.06 366.544 226.622C366.21 226.852 365.857 227.056 365.516 227.269C365.101 227.527 364.691 227.782 364.274 228.036C363.857 228.29 363.399 228.567 362.955 228.828C362.924 228.852 362.891 228.875 362.857 228.895C362.566 229.068 362.272 229.237 361.982 229.404C361.395 229.742 360.806 230.07 360.213 230.391C360.128 230.449 360.025 230.488 359.926 230.534L359.877 230.568C359.852 230.587 359.827 230.605 359.799 230.621C359.712 230.659 359.622 230.694 359.529 230.725C359.47 230.75 359.409 230.77 359.347 230.785C359.159 230.847 358.968 230.899 358.774 230.94C358.735 230.967 358.676 230.964 358.621 230.974L358.385 231.023L358.018 231.079C357.896 231.097 357.772 231.112 357.651 231.125C356.655 231.238 355.601 231.251 354.581 231.322C354.457 231.331 354.334 231.34 354.213 231.352C354.091 231.365 353.933 231.376 353.799 231.392C353.665 231.408 353.62 231.411 353.534 231.422L353.649 231.522C347.059 236.229 340.316 240.743 333.938 245.722C330.317 248.552 327.362 247.866 324.119 245.102C322.358 243.596 320.537 242.191 318.831 240.81C318.839 240.132 318.909 239.46 319.043 238.801C319.506 237.331 320.064 235.894 320.573 234.437C323.105 227.167 320.024 213.655 315.028 210.331C311.598 208.049 308.278 205.473 304.611 203.739C300.305 201.705 300.56 199.352 302.36 195.887C312.962 175.366 326.226 157.339 346.271 145.338C347.883 144.372 348.32 141.458 349.306 139.45C347.242 139.656 344.714 139.161 343.194 140.173C328.811 149.74 316.666 161.626 307.668 176.651L294.278 199.018C289.724 198.936 285.832 198.481 282.082 198.918C278.646 199.323 276.734 198.133 274.994 195.2C272.052 190.246 269.206 185.129 265.562 180.717C254.836 167.71 243.841 154.9 232.693 142.276C230.022 139.382 226.826 137.042 223.298 135.395C221.941 134.741 219.465 136.665 217.496 137.415C218.566 139.146 219.274 141.414 220.779 142.487C223.313 144.288 226.832 144.76 229.1 146.776C245.352 161.244 259.241 177.759 270.263 196.657C271.893 199.444 271.823 201.018 268.928 203.289C264.122 207.031 259.302 211.331 256.135 216.484C251.384 224.207 253.885 232.99 256.385 241.43C256.746 242.649 256.566 244.131 256.246 245.372C255.898 246.73 255.096 247.949 254.255 249.743C252.46 249.01 250.158 248.522 248.369 247.269C240.696 241.877 233.195 236.221 225.592 230.727C212.581 221.317 201.869 209.985 194.186 195.539C188.384 184.626 180.679 174.943 170.253 167.983C168.806 167.016 166.826 166.899 165.098 166.391L164.354 167.989C165.506 169.196 166.504 170.635 167.848 171.564C175.454 176.898 180.942 183.828 185.682 191.942C192.27 203.2 199.263 214.458 207.622 224.404C216.796 235.325 229.218 242.626 241.2 250.152C244.455 252.196 248.139 254.076 247.197 259.199C247.03 260.096 248.593 261.396 249.959 263.385L253.149 254.175L258.508 257.837L258.949 249.17L261.53 250.579C262.507 248.49 262.974 246.187 264.362 244.885C265.886 243.458 268.255 242.949 270.097 242.113L271.555 248.319L273.96 240.692L278.57 244.902C283.001 237.853 286.397 241.392 289.945 247.228C290.169 244.624 290.297 243.211 290.419 241.802L291.35 243.406C294.021 242.161 296.694 240.914 299.368 239.667L300.25 238.279C303.912 241.717 307.573 245.158 311.234 248.604C311.516 248.872 311.735 249.499 311.963 249.499C319.674 249.466 317.66 256.824 320.344 260.58L320.347 260.35C320.351 260.212 320.348 260.073 320.347 259.927L320.35 259.669C320.351 259.571 320.358 259.468 320.368 259.369C320.374 259.309 320.382 259.248 320.394 259.188C320.408 259.103 320.428 259.018 320.454 258.935C320.605 258.446 321.007 258.05 321.455 257.373C321.85 257.899 322.282 258.396 322.746 258.86L323.115 259.209C323.282 259.365 323.457 259.511 323.64 259.647L323.784 259.76C323.909 259.859 324.04 259.951 324.175 260.034C324.274 260.102 324.376 260.168 324.48 260.227C324.577 260.289 324.678 260.344 324.781 260.395C324.882 260.451 324.983 260.501 325.088 260.547L325.372 260.673C325.493 260.721 325.611 260.765 325.73 260.802C325.849 260.84 325.968 260.877 326.089 260.909L326.385 260.977L326.527 261.004C326.576 261.014 326.625 261.018 326.671 261.025C326.874 261.057 327.078 261.076 327.282 261.083C327.501 261.088 327.719 261.081 327.937 261.062C328.07 261.052 328.204 261.036 328.336 261.017C328.467 260.996 328.6 260.97 328.73 260.941C328.86 260.911 328.99 260.882 329.119 260.842C329.247 260.803 329.395 260.761 329.542 260.704C329.574 260.682 329.609 260.658 329.662 260.659C329.793 260.608 329.92 260.558 330.065 260.491C330.211 260.424 330.325 260.378 330.46 260.311C330.597 260.245 330.597 260.245 330.665 260.209C330.734 260.173 330.833 260.121 330.915 260.075C331.07 259.968 331.243 259.888 331.407 259.786C331.57 259.685 331.724 259.568 331.886 259.457C332.048 259.345 332.128 259.274 332.263 259.182L332.266 259.18ZM257.55 173.38L257.815 173.133L273.641 196.167C273.542 196.235 273.444 196.303 273.345 196.371L257.55 173.38ZM263.219 229.678C263.219 229.678 262.811 228.329 262.742 222.945C262.407 213.397 273.442 209.075 273.442 209.075C264.688 216.718 269.295 221.158 269.154 223.972C269.011 226.785 263.219 229.678 263.219 229.678ZM196.524 206.726L188.179 192.496L189.47 191.854L198.037 205.833C197.521 206.117 197.007 206.432 196.524 206.726ZM333.45 258.231C333.404 258.262 333.359 258.293 333.316 258.322L333.339 258.355L333.45 258.231Z" fill="white"/>
<path d="M349.311 384.504L349.291 384.74L349.931 382.698C350.257 382.697 350.586 382.699 350.915 382.702C351.552 388.989 352.653 395.288 352.73 401.553C352.913 416.42 349.716 430.702 346.287 444.895C345.952 446.211 344.664 447.281 343.824 448.467C343.215 448.885 342.605 449.304 341.999 449.721C341.422 449.818 340.843 449.911 340.271 450.006L340.089 449.621L339.688 449.717C339.724 449.626 339.741 449.528 339.737 449.429C339.733 449.33 339.709 449.232 339.666 449.141C339.623 449.051 339.563 448.969 339.488 448.902C339.414 448.835 339.327 448.784 339.233 448.753C336.878 445.422 335.013 444.514 331.078 447.294C328.064 449.43 324.502 452.898 318.917 449.978C316.562 448.739 312.205 451.645 308.778 452.728C304.306 454.139 296.204 451.791 293.564 447.548L297.154 448.613C298.117 445.734 299.076 442.887 300.034 440.039L303.886 444.785C306.086 441.607 319.68 438.91 323.056 441.658L324.727 436.54C325.019 436.588 325.315 436.641 325.601 436.695L326.044 440.926C328.475 437.164 330.859 434.744 335.743 434.507C339.319 434.33 343.315 431.939 345.852 429.305C347.827 427.258 348.855 423.205 348.512 420.177C348.11 416.617 345.784 413.186 344.249 409.661L336.586 420.054L335.029 414.98C333.929 414.692 332.068 413.689 331.563 414.162C327.697 417.747 322.106 416.373 317.755 418.759C316.573 419.409 313.476 416.631 311.257 415.424L311.874 406.553C312.987 405.674 314.097 404.798 315.464 403.716C316.659 402.896 317.245 409.864 319.302 404.545L319.482 404.966L319.678 404.548L320.981 407.488L321.968 410.743L322.869 410.591L322.755 406.166L322.742 402.373L338.496 396.274L336.96 387.492L341.006 391.389C341.939 389.471 342.874 387.547 344.256 384.696L347.24 390.648L348.782 390.854L349.311 384.504Z" fill="white"/>
<path d="M284.584 490.563C281.385 488.927 278.878 485.792 276.043 483.334L276.049 483.162L276.054 483.094L276.374 476.296L288.557 483.792L289.736 479.837C290.692 480.919 291.706 481.95 292.576 483.095C293.446 484.241 294.027 485.472 295.548 488.017L295.205 483.456C296.928 484.636 298.636 486.737 300.003 486.581C306.901 485.796 313.687 484.311 320.562 483.287C327.436 482.264 326.2 473.775 331.773 471.483C330.267 471.215 329.106 471.512 327.933 471.759C320.88 473.236 313.829 474.708 306.778 476.173C303.036 476.947 299.698 476.241 297.139 472.893C298.484 472.066 299.829 471.246 301.176 470.419L302.047 470.744C309.078 469.389 316.041 467.647 323.174 466.766C332.902 465.553 337.075 458.785 340.248 450.69L340.827 451.427L340.492 450.517C340.492 450.517 340.531 450.256 340.538 450.252C341.037 450.072 341.533 449.888 342.029 449.711C342.638 449.292 343.248 448.873 343.857 448.454C343.525 451.942 344.222 456.059 342.69 458.834C338.168 467.035 333.442 475.286 327.573 482.463C317.16 495.163 299.571 498.199 284.584 490.563Z" fill="white"/>
<path d="M269.262 469.123L269.432 469.371L269.189 469.282L269.262 469.123Z" fill="white"/>
<path d="M276.259 483.346L276.036 483.34L276.042 483.167L276.047 483.099L276.259 483.346Z" fill="white"/>
<path d="M328.523 285.001C321.888 281.906 321.714 280.928 326.255 272.642L318.838 269.758C325.788 268.036 323.543 265.879 321.098 263.724C324.71 265.349 327.28 264.735 329.367 263.083C329.454 263.024 329.537 262.956 329.616 262.88C329.659 262.85 329.704 262.819 329.75 262.788C329.863 262.71 329.958 262.607 330.072 262.502C330.187 262.396 330.308 262.279 330.425 262.161L330.481 262.123C330.59 262.01 330.697 261.893 330.803 261.776C331.003 261.563 331.191 261.347 331.369 261.127C331.451 261.027 331.536 260.925 331.619 260.819C331.702 260.714 331.764 260.638 331.836 260.546C331.907 260.453 332.014 260.315 332.109 260.189C332.205 260.064 332.285 259.954 332.38 259.829C332.541 259.61 332.699 259.387 332.855 259.161L332.973 258.993C333.112 258.794 333.248 258.592 333.385 258.384C333.394 258.379 333.402 258.374 333.409 258.367L335.395 263.016L339.043 265.268C354.466 258.273 370.129 251.135 385.839 244.106C386.788 243.682 388.134 244.094 389.289 244.115C388.365 244.891 387.439 245.664 386.511 246.442C378.519 250.303 370.461 254.036 362.527 258.032C356.853 260.886 351.322 264.018 345.792 267.134C341.78 269.396 334.7 269.11 337.527 277.369C337.719 277.927 336.024 279.076 335.205 279.953L338.796 283.836C335.658 283.488 332.521 283.09 329.38 282.897C329.074 282.867 328.799 284.256 328.523 285.001Z" fill="white"/>
<path d="M255.75 440.571C250.786 442.896 246.103 440.768 244.596 435.54C240.722 422.101 238.245 408.517 238.227 394.607C238.225 391.099 237.482 387.557 237.076 384.029C237.847 383.922 238.621 383.809 239.393 383.703L241.837 394.81C242.981 394.209 244.194 393.582 244.324 393.515L254.988 404.114L253.87 410.037C249.253 412.519 246.759 405.998 241.727 406.782C242.505 412.685 239.699 418.589 246.563 423.749C250.394 426.63 249.973 433.997 256.256 435.781C257.047 436.003 257.412 438.045 257.975 439.249L255.75 440.571Z" fill="white"/>
<path d="M474.07 287.925L473.967 287.935C474.01 287.906 474.027 287.84 474.054 287.789L474.07 287.925Z" fill="white"/>
<path d="M460.887 313.001C444.693 323.676 427.076 326.572 408.186 320.419C389.834 314.455 371.758 307.487 353.561 300.956C359.336 302.045 365.155 304.023 370.878 303.98C376.931 303.933 380.454 308.857 385.647 310.173C391.298 311.603 396.796 313.92 402.467 315.266C411.908 317.507 421.399 319.471 430.94 321.158C433.611 321.632 436.461 320.738 439.924 320.418L437.39 313.967C439.173 315.611 440.897 318.391 442.89 318.695C444.696 318.969 446.757 316.495 448.776 315.357C449.342 315.033 450.182 315.228 450.85 315.046C459.623 312.663 465.817 307.137 469.359 298.787C471.055 294.792 470.112 291.11 465.743 288.881L473.968 287.935C473.041 289.5 471.433 291.04 471.454 292.633C471.555 301.576 468.24 308.15 460.887 313.001Z" fill="white"/>
<path d="M506.249 221.865C501.487 221.947 496.69 221.767 491.961 222.207C487.635 222.6 483.398 223.658 478.702 224.5C477.901 224.317 476.099 223.339 474.619 223.661C453.917 228.106 433.191 232.449 412.653 237.482C403.698 239.675 395.17 243.404 386.445 246.438C387.373 245.659 388.3 244.887 389.224 244.111C391.587 242.673 393.778 240.819 396.327 239.855C427.763 227.932 460.63 221.804 494.301 219.014C497.279 218.766 500.367 219.426 503.402 219.66L506.249 221.865Z" fill="white"/>
<path d="M442.6 403.841C435.592 392.833 427.804 382.267 419.77 371.963C412.1 362.121 403.747 352.818 395.632 343.331C394.171 341.619 392.413 340.192 390.788 338.636C392.188 341.996 394.05 345.154 396.316 348.01C402.704 356.04 409.234 363.96 415.709 371.918C416.13 372.347 416.526 372.801 416.896 373.276C417.818 374.717 418.74 376.164 419.655 377.61C420.139 377.196 420.636 376.773 421.107 376.363C427.982 380.331 429.768 387.822 432.741 394.481L420.544 378.993C423.367 383.458 426.172 387.94 429.121 392.324C435.223 401.446 441.488 410.445 447.693 419.506C446.092 414.208 445.459 408.32 442.6 403.841ZM447.659 419.508L447.738 419.775C447.743 419.769 447.749 419.765 447.755 419.762L447.824 419.78L447.659 419.508ZM419.631 377.605C419.585 377.636 419.536 377.67 419.49 377.702L420.499 378.981L419.631 377.605Z" fill="white"/>
<path d="M172.963 503.523C171.089 501.172 169.164 499.208 171.908 495.948C172.77 494.937 170.671 491.474 170.116 489.096C169.032 484.409 166.421 479.234 167.329 475.03C170.339 461.071 174.608 447.453 178.472 433.728C178.705 432.889 179.601 432.268 180.188 431.544L172.013 461.697L173.819 462.325L175.73 457.987C175.967 459.932 176.942 462.211 176.317 463.771C171.857 474.983 173.135 486.598 174.751 498.297C174.94 499.666 174.308 501.117 174.037 502.541C173.698 502.872 173.33 503.196 172.963 503.523Z" fill="white"/>
<path d="M474.054 287.789C474.126 287.788 474.192 287.786 474.267 287.789C474.204 287.838 474.138 287.884 474.069 287.925L474.054 287.789Z" fill="white"/>
<path d="M478.519 287.665C477.167 287.964 475.691 287.778 474.267 287.789C474.341 287.738 474.415 287.687 474.489 287.636L474.893 287.326C475.016 287.241 475.14 287.157 475.245 287.084C475.298 287.048 475.351 287.011 475.404 286.975C475.438 286.946 475.474 286.921 475.513 286.9C475.653 286.83 475.799 286.775 475.95 286.736C495.867 281.955 509.552 269.207 519.786 252.061C523.538 245.768 525.403 238.766 522.915 231.317C522.098 228.859 519.825 226.117 517.543 225.008C514.098 223.284 510.065 222.85 506.25 221.865L503.397 219.653C508.482 220.645 513.83 220.931 518.556 222.91C521.173 224.002 523.676 227.66 524.615 230.627C527.075 238.383 525.067 245.705 521.493 252.507C512.1 270.341 498.675 283.203 478.519 287.665Z" fill="white"/>
<path d="M201.504 402.716C201.393 402.841 201.276 402.965 201.165 403.09L201.35 402.664L201.504 402.716Z" fill="white"/>
<path d="M183.475 442.344L184.608 429.121L184.539 429.119L180.615 430.805L186.421 408.597L187.989 409.068L185.732 417.485L187.083 418.621C191.779 413.442 196.473 408.265 201.165 403.09C198.068 410.193 195.019 417.329 191.846 424.398C189.139 430.424 186.278 436.377 183.475 442.344Z" fill="white"/>
<path d="M353.504 231.393C354.263 230.807 355.019 230.216 355.778 229.63C355.105 230.206 354.436 230.78 353.769 231.363C353.716 231.4 353.66 231.438 353.619 231.493L353.504 231.393Z" fill="white"/>
<path d="M374.439 221.269C374.087 220.169 373.936 218.817 373.202 218.224C372.612 217.749 370.908 218.024 370.156 218.584C365.312 222.194 360.55 225.923 355.779 229.63C359.767 226.217 363.822 222.871 367.565 219.207C371.831 215.027 375.755 210.479 379.639 205.925C384.146 200.656 388.291 195.054 392.878 189.855C395.869 186.463 399.271 183.425 402.682 180.457C404.01 179.301 405.875 178.769 407.826 178.552C401.609 185.493 395.392 192.433 389.177 199.371C388.254 199.039 386.664 198.22 386.505 198.448C383.415 202.929 380.495 207.526 377.535 212.103L378.457 212.691L384.818 206.495C381.363 211.422 377.903 216.347 374.439 221.269Z" fill="white"/>
<path d="M374.504 221.47L374.296 221.455C374.34 221.391 374.389 221.325 374.432 221.258L374.504 221.47Z" fill="white"/>
<path d="M311.894 406.545L311.277 415.416C310.463 416.338 309.038 418.143 308.94 418.053C305.263 415.322 302.234 418.983 298.995 418.482C297.72 418.271 296.688 415.954 295.545 414.6L295.247 406.156C300.733 403.458 306.274 403.122 311.894 406.545Z" fill="white"/>
<path d="M253.851 410.039L254.969 404.116L256.412 400.245L261.019 406.95L261.483 402.341C262.071 406.972 264.278 407.482 267.364 406.719L278.207 409.591C277.465 415.494 275.845 417.085 268.825 415.564C263.692 414.473 258.833 411.929 253.851 410.039Z" fill="white"/>
<path d="M423.597 476.374L423.474 476.105L423.535 476.133L423.649 476.185L423.597 476.374Z" fill="white"/>
<path d="M293.167 474.911C291.079 475.058 288.693 473.873 286.834 474.443C279.979 476.546 274.906 472.28 269.418 469.38L269.189 469.281L265.445 463.831L292.566 470.549C292.59 470.5 292.917 469.662 293.408 468.4L295.747 472.725C294.901 473.486 294.104 474.848 293.167 474.911Z" fill="white"/>
<path d="M276.258 483.345L276.042 483.167C272.517 480.211 268.923 477.335 265.49 474.278C256.987 466.757 253.094 456.477 249.082 446.229L258.369 459.746L261.068 457.891C261.312 463.531 265.19 466.157 268.919 468.88L269.255 469.128L269.424 469.375L271.033 472.116L266.971 470.393C266.659 470.694 266.349 470.999 266.038 471.3L276.044 483.101L276.258 483.345Z" fill="white"/>
<path d="M243.681 373.592L248.684 361.463L251.899 367.011C252.519 366.124 253.558 364.632 255.004 362.569C255.966 370.296 254.013 374.988 249.854 375.185C247.856 375.297 245.746 374.166 243.681 373.592Z" fill="white"/>
<path d="M255.751 440.571L257.956 439.251C261.564 436.718 264.791 437.233 268.051 440.545C269.558 442.073 271.721 442.912 273.465 444.234C274.389 444.937 275.046 446.006 275.82 446.908L275.079 448.183C271.016 446.754 266.816 444.017 262.933 444.268C259.049 444.519 256.863 444.734 255.751 440.571Z" fill="white"/>
<path d="M235.252 322.661C235.094 322.688 234.937 322.709 234.783 322.733C234.948 322.619 235.137 322.539 235.315 322.444L235.252 322.661Z" fill="white"/>
<path d="M298.331 372.836L297.197 381.649C294.042 383.197 291.151 383.277 288.88 379.79L289.325 374.254L291.306 375.869C292.798 373.563 294.268 371.287 296.325 368.075L298.331 372.836Z" fill="white"/>
<path d="M423.597 476.373L423.474 476.104C422.383 473.693 420.982 471.352 420.318 468.837C417.363 457.629 414.62 446.374 411.877 435.118C411.726 434.483 412.276 433.698 412.49 432.991L423.525 476.14L423.597 476.373Z" fill="white"/>
<path d="M289.325 374.254L288.88 379.79C286.89 380.539 284.905 381.289 282.422 382.228L281.061 375.483L281.914 373.538C283.701 372.176 285.493 370.814 287.901 368.98L289.325 374.254Z" fill="white"/>
<path d="M259.602 362.979L264.456 377.836C254.979 376.824 253.659 373.287 259.602 362.979Z" fill="white"/>
<path d="M284.729 343.814L291.26 344.569L292.673 351.345C290.25 351.51 288.53 351.632 286.736 351.762L284.729 343.814Z" fill="white"/>
<path d="M282.051 402.186C287.14 409.298 287.111 412.653 281.813 418.395L282.051 402.186Z" fill="white"/>
<path d="M320.337 260.374L320.334 260.604L320.319 260.582L320.337 260.374Z" fill="white"/>
<path d="M333.445 258.223L333.358 258.354L333.335 258.321C333.361 258.298 333.402 258.258 333.445 258.223Z" fill="white"/>
<path d="M447.94 419.919L447.75 419.771C447.756 419.766 447.761 419.762 447.768 419.759L447.838 419.777L447.85 419.795L447.94 419.919Z" fill="white"/>
<path d="M295.233 406.166L295.53 414.609L292.074 416.984L291.715 403.167L295.233 406.166Z" fill="white"/>
<path d="M272.116 302.776L263.479 308.71C265.674 300.157 267.076 299.079 272.116 302.776Z" fill="white"/>
<path d="M300.193 344.911L300.159 346.673L297.724 349.569L297.247 346.941L297.519 345.239L297.843 344.321L296.876 344.378C297.98 344.558 299.086 344.733 300.193 344.911Z" fill="white"/>
<path d="M281.914 373.538L281.06 375.483L280.311 371.289C280.551 371.216 280.789 371.139 281.033 371.064L281.914 373.538Z" fill="white"/>
<path d="M322.788 406.176L322.902 410.601L322.001 410.753L321.014 407.498C321.606 407.053 322.197 406.614 322.788 406.176Z" fill="white"/>
<path d="M297.247 346.942L297.724 349.569L297.863 349.538C297.69 349.467 297.416 349.302 297.36 349.341C297.166 349.579 296.995 349.836 296.85 350.109L294.759 347.201C295.101 347.004 295.437 346.806 295.779 346.609L295.61 346.589L297.427 346.97L297.247 346.942Z" fill="white"/>
<path d="M319.323 404.537C319.323 404.537 319.721 404.589 319.717 404.576C319.713 404.562 319.514 404.975 319.514 404.975L319.323 404.537Z" fill="white"/>
<path d="M295.789 346.601C295.447 346.798 295.111 346.996 294.769 347.193L293.797 345.537L294.405 344.549L295.789 346.601Z" fill="white"/>
<path d="M294.405 344.549L293.797 345.536L292.723 344.238C293.059 344.04 293.396 343.835 293.732 343.637L293.602 343.607L294.362 344.714L294.405 344.549Z" fill="white"/>
<path d="M296.863 350.105C297.008 349.833 297.179 349.575 297.373 349.337C297.43 349.298 297.701 349.459 297.877 349.534C297.532 349.728 297.195 349.916 296.863 350.105Z" fill="white"/>
<path d="M341.996 449.717C341.5 449.901 341.001 450.08 340.502 450.26L340.266 449.999C340.851 449.922 341.406 449.824 341.996 449.717Z" fill="white"/>
<path d="M339.231 448.749C339.324 448.781 339.411 448.832 339.486 448.899C339.561 448.965 339.621 449.047 339.664 449.138C339.707 449.228 339.731 449.327 339.735 449.426C339.738 449.525 339.722 449.622 339.686 449.713C339.454 449.435 339.297 449.102 339.231 448.749Z" fill="white"/>
<path d="M340.462 450.527L340.791 451.436L340.212 450.698L340.462 450.527Z" fill="white"/>
<path d="M81.8867 253.481C82.0013 253.674 82.1402 253.85 82.2997 254.007C82.1417 253.849 82.0029 253.672 81.8867 253.481ZM146.291 235.985L146.542 236.041C146.435 236.022 146.363 236.006 146.291 235.985Z" fill="white"/>
<path d="M192.509 300.879C192.495 300.891 192.48 300.902 192.463 300.91C192.434 300.925 192.402 300.935 192.37 300.942L192.736 300.891L192.509 300.879Z" fill="white"/>
<path d="M106.911 216.853L106.764 216.823L106.844 216.643L106.911 216.853Z" fill="white"/>
<path d="M106.965 216.865L106.911 216.853L106.764 216.823L106.844 216.643L106.965 216.865Z" fill="white"/>
<path d="M111.667 222.689C110.038 221.332 108.643 219.705 107.546 217.883C108.644 219.704 110.039 221.331 111.667 222.689Z" fill="white"/>
<path d="M146.515 236.039L146.242 235.975L146.356 235.99L146.515 236.039Z" fill="white"/>
<path d="M81.8352 250.605C82.1893 250.237 82.5473 249.882 82.9175 249.568C82.9175 249.568 82.8929 249.585 82.8822 249.593C82.5222 249.921 82.1792 250.26 81.8352 250.605Z" fill="white"/>
<path d="M192.708 300.879L192.341 300.929C192.373 300.923 192.405 300.912 192.434 300.898L192.708 300.879Z" fill="white"/>
<path d="M64.1741 215.485L56.9236 225.806L55.1859 224.523C55.8189 219.797 56.1369 214.847 62.2399 213.968L64.1741 215.485Z" fill="white"/>
<path d="M217.399 272.963C210.974 272.489 204.557 272.187 198.147 271.524C194.196 271.185 190.313 270.075 186.714 268.254L216.661 271.829L217.399 272.963Z" fill="white"/>
<path d="M235.287 322.463L235.439 322.609C235.39 322.643 235.314 322.646 235.252 322.662L235.287 322.463Z" fill="white"/>
<path d="M295.789 346.601L294.405 344.549L294.365 344.701L294.661 342.868L294.612 343.038L294.89 341.352C297.93 340.491 301.039 339.551 300.196 344.915C299.088 344.737 297.983 344.562 296.878 344.381L296.923 344.204L296.626 346.037L296.667 345.863C296.314 346.105 295.962 346.347 295.61 346.589L295.789 346.601Z" fill="white"/>
<path d="M294.89 341.352L294.614 343.064L294.074 341.848L294.89 341.352Z" fill="white"/>
<path d="M294.071 341.844L294.611 343.059L294.66 342.89C294.308 343.132 293.955 343.374 293.603 343.616L293.733 343.646L294.071 341.844Z" fill="white"/>
<path d="M355.778 229.63C355.105 230.206 354.436 230.78 353.769 231.363C353.68 231.37 353.59 231.383 353.504 231.393C354.263 230.807 355.019 230.216 355.778 229.63Z" fill="white"/>
<path d="M374.504 221.469C374.345 221.578 374.183 221.69 374.025 221.798C374.125 221.681 374.203 221.583 374.313 221.464C374.358 221.401 374.406 221.335 374.448 221.268L374.504 221.469Z" fill="white"/>
<path d="M257.815 173.133L273.641 196.167L273.344 196.371L257.549 173.381L257.815 173.133Z" fill="white"/>
<path d="M189.457 191.835L198.024 205.815C197.524 206.121 197.024 206.42 196.524 206.726L188.179 192.497L189.457 191.835Z" fill="white"/>
<path d="M474.054 287.789C474.026 287.84 473.997 287.888 473.967 287.935L474.069 287.925C474.138 287.884 474.204 287.838 474.267 287.789C474.192 287.786 474.126 287.788 474.054 287.789Z" fill="white"/>
<path d="M430.844 295.53C428.403 295.578 425.681 295.656 422.954 295.725L422.807 295.142C424.402 294.752 425.993 294.365 427.639 293.968C427.155 289.58 424.765 288.185 420.898 288.338C419.056 288.414 417.16 287.821 415.287 287.533L432.584 287.425C431.505 287.743 430.429 288.064 428.754 288.563L430.844 295.53Z" fill="white"/>
<path d="M420.527 378.983L419.518 377.704C419.564 377.673 419.613 377.639 419.659 377.607L420.527 378.983Z" fill="white"/>
<path d="M296.875 344.378L297.843 344.321L297.519 345.239L297.702 345.309L296.942 344.202L296.875 344.378Z" fill="white"/>
<path d="M297.519 345.239L297.247 346.942L297.44 346.966L296.68 345.859L296.639 346.034L297.711 345.33L297.519 345.239Z" fill="white"/>
<path d="M296.667 345.841L297.427 346.948L295.61 346.567C295.97 346.336 296.317 346.087 296.667 345.841Z" fill="white"/>
<path d="M293.602 343.607C293.954 343.364 294.307 343.122 294.659 342.88L294.363 344.714L293.602 343.607Z" fill="white"/>
<path d="M146.514 236.038C146.435 236.022 146.363 236.006 146.291 235.985C142.12 235.048 137.916 234.199 133.776 233.095C129.635 231.991 125.572 230.621 121.507 229.34C107.286 224.829 98.7213 227.417 89.5862 239.049C87.7286 241.412 85.9607 243.843 84.1563 246.245L82.9746 239.995L70.8153 234.905C71.7698 234.89 72.9024 234.509 73.6518 234.912C85.4122 241.249 93.0099 234.165 101.02 227.184C96.9668 226.84 92.99 226.504 89.0534 226.172L84.8295 225.814L84.8086 225.829L79.901 225.398L79.527 225.367C83.4805 225.208 87.4345 225.059 91.3887 224.92C95.3429 224.782 99.304 224.633 103.272 224.475L109.341 224.249L106.91 216.853L106.844 216.643L106.965 216.864L107.251 217.379L107.545 217.883C108.203 218.967 108.964 219.986 109.816 220.924C110.119 221.259 110.411 221.547 110.714 221.839C111.018 222.13 111.341 222.418 111.667 222.689L111.88 222.863C112.082 223.029 112.287 223.192 112.497 223.346C112.814 223.581 113.14 223.803 113.473 224.012C113.765 224.202 114.055 224.383 114.366 224.556C114.611 224.702 114.864 224.843 115.118 224.979C115.535 225.208 115.952 225.438 116.406 225.631L117.177 225.997C117.508 226.14 117.84 226.275 118.174 226.399C119.574 226.933 120.999 227.386 122.442 227.758C123.969 228.16 125.491 228.602 126.985 229.085C127.983 229.399 128.979 229.724 129.973 230.059C132.997 231.077 135.996 232.189 139.004 233.305L141.603 234.273C143.197 234.857 144.788 235.437 146.383 235.998L146.514 236.038Z" fill="white"/>
<path d="M137.119 257.296C136.33 257.74 135.538 258.181 134.749 258.625C135.482 258.089 136.277 257.643 137.119 257.296Z" fill="white"/>
<path d="M135.041 265.399C124.916 268.955 115.26 272.341 105.603 275.733L105.346 275.155L134.762 258.644C132.543 260.299 132.39 262.44 135.041 265.399Z" fill="white"/>
<path d="M133.424 254.832L106.293 246.04C106.445 245.506 106.595 244.969 106.747 244.435L133.923 253.104L133.424 254.832Z" fill="white"/>
<path d="M219.007 286.356C215.108 288.568 211.209 290.783 207.312 293.001L206.583 292.258C208.637 289.57 210.679 286.896 213.002 283.86L218.46 284.669L219.007 286.356Z" fill="white"/>
<path d="M158.136 282.435L144.757 286.238C145.074 282.516 145.299 279.673 150.305 282.474C152.052 283.447 155.215 281.671 157.742 281.167L158.136 282.435Z" fill="white"/>
<path d="M297.702 345.309L296.63 346.013L296.927 344.18L297.702 345.309Z" fill="white"/>
<path d="M410.598 275.522C402.274 275.57 394.586 275.621 386.403 275.67C387.47 271.031 380.015 268.07 383.15 261.799C384.779 266.058 385.259 269.633 387.247 271.749C388.725 273.319 392.168 273.257 394.731 273.469C399.697 273.902 404.657 274.047 409.623 274.329C409.716 274.336 409.795 274.558 410.598 275.522Z" fill="white"/>
<path d="M409.896 258.019C415.038 251.771 419.425 246.447 423.698 241.258L425.094 244.573C418.463 246.262 418.133 255.951 409.896 258.019Z" fill="white"/>
<path d="M465.811 273.391L448.198 278.104L447.344 276.377C453.277 274.67 459.208 272.965 465.138 271.262L465.811 273.391Z" fill="white"/>
<path d="M375.771 267.01C369.908 268.141 364.038 269.266 358.161 270.385L357.668 269.208L375.228 265.014L375.771 267.01Z" fill="white"/>
<path d="M468.797 288.532L329.052 285.485L330.32 287.33L469.84 290.337L485.847 285.58L468.797 288.532Z" fill="white"/>
<path d="M336.314 269.631L351.139 267.05L343.529 269.563C343.529 269.563 338.131 270.012 335.665 271.707C335.412 271.338 336.314 269.631 336.314 269.631Z" fill="white"/>
<path d="M334.212 274.878L341.582 275.789C341.582 275.789 346.33 277.416 352.883 275.63C350.065 277.566 342.906 279.226 338.918 278.706C334.93 278.187 332.661 278.659 332.661 278.659L334.212 274.878Z" fill="white"/>
<path d="M346.313 287.205L365.053 293.343L408.919 299.056L418.785 292.278C418.785 292.278 410.947 302.008 407.466 302.227C403.986 302.446 369.857 296.56 367.588 297.033C365.319 297.505 359.768 296.974 359.768 296.974L342.579 287.055L346.313 287.205Z" fill="white"/>
<path d="M481.064 222.872C481.064 222.872 461.924 232.763 457.653 237.87C453.382 242.978 440.851 252.673 431.466 252.602C439.441 253.641 450.013 246.378 453.184 244.2C456.355 242.021 461.331 236.429 461.331 236.429C461.331 236.429 482.529 223.495 486.306 221.443L481.064 222.872Z" fill="white"/>
<path d="M458.285 245.584L482.413 233.896C482.413 233.896 493.393 227.982 503.581 226.957C513.77 225.933 518.166 227.801 518.166 227.801C510.982 227.649 503.888 228.84 497.238 231.315C486.556 235.395 478.142 239.003 478.142 239.003L458.285 245.584Z" fill="white"/>
<path d="M433.576 309.276L419.894 306.726L401.489 310.136L433.576 309.276Z" fill="white"/>
<path d="M406.198 255.839C406.198 255.839 400.294 255.55 395.292 253.554C390.29 251.559 383.329 251.996 378.34 253.794C373.351 255.592 361.413 261.621 361.413 261.621L377.184 255.131C377.184 255.131 388.627 252.158 396.56 255.399C402.872 257.038 406.198 255.839 406.198 255.839Z" fill="white"/>
<path d="M342.257 281.301C342.257 281.301 352.05 282.721 360.761 277.279C356.941 281.534 348.471 283.55 342.257 281.301Z" fill="white"/>
<path d="M398.868 266.308L422.485 267.464L445.767 259.073L423.048 269.794L398.868 266.308Z" fill="white"/>
<path d="M458.903 294.047C458.903 294.047 444.869 291.739 442.854 292.581C440.838 293.422 433.692 298.875 433.692 298.875C433.692 298.875 440.74 294.034 444.121 294.426C447.503 294.819 458.903 294.047 458.903 294.047Z" fill="white"/>
<path d="M476.208 249.023L457.309 255.489L439.691 267.594L461.297 256.008L476.208 249.023Z" fill="white"/>
<path d="M524.139 236.495C524.139 236.495 518.329 246.158 513.649 249.916C508.97 253.674 495.863 257.247 495.863 257.247L512.197 253.087C516.755 248.021 520.758 242.46 524.139 236.495Z" fill="white"/>
<path d="M512.36 262.921C512.36 262.921 499.537 269.39 487.574 267.831C482.022 267.3 471.988 269.305 471.988 269.305L489.25 271.026L509.755 266.036L512.36 262.921Z" fill="white"/>
<path d="M464.172 300.206L451.882 306.477L435.27 302.681L452.544 308.195L464.172 300.206Z" fill="white"/>
<path d="M396.938 307.288L380.875 302.027L394.824 308.74L396.938 307.288Z" fill="white"/>
<path d="M359.518 283.022C360.477 282.906 384.447 283.821 384.447 283.821L378.43 280.349L359.518 283.022Z" fill="white"/>
<path d="M418.643 295.091L421.432 299.15L431.17 298.979L420.628 300.246C420.628 300.246 418.445 296.313 418.643 295.091Z" fill="white"/>
<path d="M466.394 270.976L473.355 270.539L467.408 272.452L466.394 270.976Z" fill="white"/>
<path d="M262.647 254.515L259.996 261.226L255.192 258.008L261.517 263.44L262.647 254.515Z" fill="white"/>
<path d="M309.603 248.872L311.377 251.455L314.914 252.828L310.827 252.92L309.603 248.872Z" fill="white"/>
</svg>
