<svg width="866" height="816" viewBox="0 0 866 816" fill="none" xmlns="http://www.w3.org/2000/svg">
<path d="M383.55 572.273C383.527 572.665 383.509 573.058 383.491 573.454L383.723 573.403L383.55 572.273ZM554.231 441.116C554.191 441.135 554.155 441.156 554.121 441.181L554.376 441.421L554.231 441.116ZM727.975 541.886C727.275 533.958 726.801 525.822 724.505 518.244C722.547 511.885 718.112 506.148 714.773 500.121L714.592 500.14L714.495 500.15C714.331 500.163 714.169 500.191 714.001 500.215L713.356 500.327C712.415 500.495 711.432 500.723 710.565 500.808L710.273 500.832C710.123 500.843 709.971 500.846 709.82 500.84C709.733 500.845 709.646 500.841 709.561 500.831L709.323 500.802C709.228 500.79 709.136 500.769 709.043 500.743C708.956 500.712 708.871 500.672 708.791 500.625C708.684 500.579 708.586 500.516 708.496 500.443C691.923 486.931 675.521 473.225 659.289 459.324C656.913 457.288 655.692 453.966 653.94 451.241C654.458 450.628 654.983 450.016 655.499 449.408L665.445 452.624C661.96 448.653 659.222 443.403 654.866 440.932C635.867 430.136 616.616 419.715 597.044 409.992C570.884 396.998 543.575 389.154 514.135 392.143C508.14 392.75 501.877 391.476 495.733 391.075C497.971 388.109 500.428 386.976 502.918 385.912C519.957 378.632 537.179 371.715 553.911 363.843C559.966 361.01 564.702 361.268 570.752 364C581.171 368.69 592.031 372.394 602.705 376.512C592.046 369.925 581.757 362.827 570.408 358.807C564.02 356.547 564.276 354.504 566.588 348.863C561.793 350.897 558.264 351.939 555.281 353.778C550.647 356.63 546.811 360.94 541.87 363.017C526.421 369.543 510.717 375.46 494.902 381.122C492.135 382.121 488.388 380.735 482.64 380.251L489.715 374.799C486.023 374.346 481.248 375.067 479.765 373.265C477.713 370.785 478.009 366.421 477.528 362.843C476.488 354.956 475.588 347.06 474.517 338.361C477.84 337.348 482.003 336.065 486.22 334.817L462.171 336.366C462.513 334.709 462.843 333.123 463.169 331.547C463.228 331.295 463.279 331.045 463.329 330.796C463.076 330.152 462.812 329.514 462.56 328.865L462.077 327.654L456.344 332.189L456.074 332.542L455.758 332.949C454.204 334.961 452.643 336.971 450.812 339.333L458.614 351.301L453.505 351.909L464.855 357.137L462.32 368.178L472.485 370.566C472.519 371.101 472.543 371.637 472.569 372.168L460.122 374.893C458.445 364.572 458.445 364.572 446.485 372.024C448.984 376.339 452.471 380.413 453.32 384.87C453.64 386.532 447.799 389.1 443.469 392.147L451.176 395.696C450.638 397.856 450.154 399.81 449.559 402.215L444.114 398.779C440.518 413.923 428.822 417.17 415.139 417.787C411.017 412.014 409.5 403.382 399.375 401.808C398.113 408.97 396.902 415.866 395.884 421.659L387.938 411.568C380.594 418.117 388.922 419.81 392.297 423.056C385.747 424.282 384.244 421.155 382.904 416.479C381.456 411.42 378.652 406.684 376.435 401.802L373.981 402.821L377.516 414.067L374.98 414.842L371.912 407.639L366.211 420.019C366.923 414.747 366.327 410.844 367.98 408.42C373.87 399.741 364.485 399.99 360.632 396.382C362.582 393.356 364.587 390.242 365.623 388.645C363.002 386.273 360.404 384.933 359.491 382.916C354.934 372.832 349.612 363.62 336.424 364.402C331.896 364.663 327.705 367.821 323.138 368.262C294.265 371.136 265.117 372.465 236.456 376.474C178.547 384.591 123.716 401.143 74.5465 431.802C64.0694 438.36 60.6819 445.141 64.5334 456.881C66.3221 462.301 69.1796 468.194 73.3461 472.035C99.0594 495.739 129.361 504.469 164.114 500.694C164.291 510.25 172.83 514.462 181.914 518.126C184.854 519.311 187.845 520.401 190.869 521.343C204.611 525.625 218.456 528.441 231.449 520.75C241.279 514.917 251.681 509.497 260.13 502.087C290.097 475.789 320.559 449.862 344.894 418.175C347.693 414.533 350.048 412.275 355.248 416.014C361.364 420.399 368.304 423.677 374.895 427.436L376.403 426.083L371.949 418.166C378.667 420.531 380.896 427.744 376.051 433.069C365.262 444.878 354.129 456.394 343.14 468.037C350.693 461.748 358.251 455.453 365.815 449.151C364.532 451.289 363.325 453.536 362.117 455.77C361.847 456.265 361.581 456.764 361.309 457.26C361.139 457.631 360.921 457.981 360.715 458.349C360.407 458.924 360.091 459.487 359.768 460.049C359.623 460.364 359.425 460.654 359.253 460.951C358.832 461.677 358.403 462.393 357.969 463.087C357.825 463.321 357.673 463.558 357.524 463.789C357.222 464.259 356.917 464.719 356.61 465.168C356.455 465.397 356.293 465.624 356.135 465.844C355.821 466.293 355.489 466.733 355.155 467.165C354.899 467.505 354.634 467.833 354.36 468.163L353.982 468.611C353.855 468.763 353.73 468.911 353.597 469.061C353.36 469.326 353.118 469.59 352.871 469.844C352.559 470.179 352.239 470.503 351.907 470.82C346.958 475.58 338.516 476.93 330.218 480.366L342.041 468.901C341.323 469.253 340.591 469.707 339.822 470.029C325.861 475.932 314.945 483.583 313.651 500.674C312.548 515.478 308.891 530.026 306.025 544.611C303.967 555.081 301.344 565.428 298.44 578.14C301.089 573.754 302.517 571.384 303.951 569.015C302.835 586.016 291.936 600.997 296.996 619.013C299.32 613.999 301.112 608.753 302.343 603.353C305.828 589.271 307.619 574.498 312.982 561.191C321.475 540.111 328.791 519.11 328.842 495.917C328.846 493.149 331.692 489.808 334.192 487.931C339.73 483.784 346.319 480.906 351.711 476.615C365.129 465.92 378.075 454.654 391.35 443.818C392.793 442.642 395.237 442.608 397.211 442.042C397.206 444.039 397.58 446.142 397.096 447.999C396.611 449.856 395.384 451.44 394.296 453.025C386.809 463.9 379.876 475.217 371.585 485.482C362.711 496.468 361.258 508.383 364.748 522.458C366.496 519.779 367.886 517.534 369.433 515.388C370.035 514.547 371.416 513.163 371.62 513.291C372.844 514.061 374.564 515.104 374.765 516.234C376.487 525.989 377.905 535.782 379.427 545.567L383.545 572.298C383.703 569.18 383.999 566.055 383.84 562.94C383.042 546.932 381.983 530.928 381.261 514.922C381.148 512.346 381.511 509.232 382.936 507.27C388.358 499.808 394.305 492.725 399.472 486.239L411.89 517.562L413.998 516.922L414.617 505.913L411.855 487.099L404.735 478.595C404.217 479.039 403.684 479.509 403.164 479.973C398.35 471.379 403.706 466.527 409.73 461.436C419.933 467.881 423.715 459.078 427.585 453.33C429.606 450.32 427.905 444.878 427.886 440.033L437.07 435.927C436.587 440.915 436.143 445.527 435.691 450.134L439.863 451.114C441.108 446.868 442.351 442.62 443.587 438.37L452.285 434.469C452.807 433.967 453.33 433.471 453.86 432.971C454.078 432.499 454.357 432.047 454.61 431.591C454.627 431.552 454.646 431.513 454.665 431.473L454.598 431.293L453.755 428.995C453.948 428.579 454.192 428.187 454.404 427.774C457.556 424.449 460.72 420.976 463.658 428.276L464.923 430.495L477.219 428.813L470.312 416.403C477.554 420.42 483.219 424.87 489.087 419.328C491.237 417.296 492.371 414.257 494.231 411.255L502.374 413.742L494.981 403.115L503.472 405.975L496.955 398.738C505.005 402.97 511.193 405.744 516.755 409.453C518.394 410.548 519.417 416.08 518.677 416.477C514.296 419.103 514.651 424.553 510.9 427.661C508.76 429.404 508.9 433.799 508.363 435.728C502.297 441.236 496.1 446.287 490.648 452.014C487.214 455.623 484.899 460.245 482.071 464.433L487.195 476.246C488.544 476.139 490.286 476.498 491.173 475.828C493.893 473.752 495.848 470.329 498.867 469.142C512.592 463.703 520.297 451.844 530.455 442.6C531.797 441.378 533.588 440.634 534.978 439.772L532.149 437.215C543.343 433.693 543.339 433.699 547.497 438.227C548.773 439.752 550.16 441.188 551.647 442.526C551.899 442.737 553.201 441.74 554.082 441.225C552.636 439.911 550.233 438.491 550.336 437.352C551.037 429.299 543.932 426.285 539.709 421.482C537.326 418.776 534.486 416.445 531.62 413.719C543.209 413.368 554.279 412.86 565.335 412.878C567.978 412.88 570.823 414.396 573.334 415.675C593.882 426.099 614.453 436.508 634.844 447.201C642.435 451.189 650.317 455.138 656.858 460.509C676.328 476.502 695.237 493.142 714.219 509.667C715.746 511.005 716.798 513.372 717.294 515.401C719.865 525.887 722.184 536.423 724.594 546.945C724.874 547.282 725.067 547.674 725.159 548.092C726.18 545.984 728.142 543.879 727.975 541.886ZM345.316 376.797L306.166 396.076L304.943 393.72L311.028 390.881C310.936 390.368 310.845 389.855 310.759 389.345L302.42 390.388C302.892 384.059 336.108 373.416 345.316 376.797ZM69.4143 460.069C66.6969 453.716 63.417 447.316 70.3618 441.695L73.9015 442.151L72.5297 460.379L69.4143 460.069ZM167.158 491.135C148.209 502.271 129.934 498.43 111.153 484.959L148.927 474.391L148.646 473.109C142.273 474.212 135.86 475.14 129.555 476.485C128.284 476.801 126.959 476.903 125.637 476.788L125.285 476.728L125.032 476.673C124.719 476.595 124.415 476.478 124.129 476.326L123.904 476.222C123.766 476.128 123.635 476.025 123.512 475.912L123.375 475.774L123.252 475.622L123.132 475.464L123.02 475.289C122.934 475.145 122.857 474.995 122.79 474.843C122.731 474.706 122.68 474.567 122.634 474.423C122.586 474.278 122.549 474.125 122.509 473.963C122.469 473.801 122.475 473.804 122.465 473.718C122.412 473.385 122.382 473.05 122.377 472.716C122.363 472.066 122.402 471.419 122.497 470.779C122.507 470.749 122.52 470.721 122.536 470.695C122.308 471.36 122.125 472.068 121.958 472.788C121.898 473.027 121.844 473.268 121.784 473.506C121.724 473.745 121.643 474.123 121.547 474.455C121.493 474.573 121.482 474.704 121.446 474.831C121.377 475.072 121.306 475.319 121.226 475.555C120.942 476.522 120.447 477.412 119.773 478.166C116.292 481.74 112.377 482.611 109.394 475.964L108.227 484.751C103.68 482.944 103.68 482.944 109.196 471.386C105.105 475.414 101.809 481.051 99.2484 480.67C93.9948 479.888 89.141 475.879 83.3144 472.774C88.1832 468.529 92.4406 464.822 96.6943 461.106C92.7219 463.123 88.9166 465.586 84.6955 466.999C81.4245 468.097 77.6446 467.884 73.8797 468.272C75.7555 461.468 76.9819 457.007 78.1986 452.691C87.581 452.96 94.4107 448.677 100.529 442.977L100.278 443.072C99.9931 443.18 99.7137 443.29 99.4143 443.398C98.9767 443.571 98.5368 443.75 98.1004 443.938C97.5039 444.2 96.8898 444.463 96.2591 444.727C95.6873 444.975 95.1154 445.223 94.5352 445.461C94.2503 445.582 93.9661 445.704 93.6581 445.815C92.7838 446.162 91.9144 446.497 91.0608 446.8C90.77 446.906 90.4779 446.996 90.212 447.092C89.6568 447.259 89.1067 447.414 88.5724 447.55C88.2538 447.622 87.9351 447.694 87.6219 447.754C87.3082 447.814 86.9831 447.87 86.6634 447.913C83.6484 448.331 79.0484 446.718 77.202 444.463C75.9934 442.992 77.4537 437.028 79.4106 436.006C95.3887 427.677 111.76 420.048 127.993 412.191L128.197 412.121L128.273 412.095C133.242 410.382 138.233 408.631 143.242 406.841C148.251 405.051 153.218 403.303 158.138 401.595L162.051 400.245C164.535 399.393 167.023 398.553 169.517 397.729C175.853 395.635 182.226 393.645 188.663 391.828C192.779 390.648 199.198 396.236 204.554 398.703C204.319 399.543 204.09 400.379 203.854 401.217L191.501 406.715L191.349 406.782C196.007 405.974 200.651 404.838 205.374 404.462C209.959 404.09 214.644 404.496 219.292 404.563L219.926 407.14C211.917 410.852 204.004 414.71 196.005 418.229C189.949 420.897 186.725 424.963 187.934 433.213C195.386 418.053 211.218 416.559 223.421 409.943C231.992 405.29 241.834 402.735 251.015 398.403C236.537 401.919 222.032 406.459 207.335 398.872C203.421 396.851 200.191 393.536 196.659 390.784L196.924 387.884L274.627 376.661L269.625 386.315L270.809 387.03C273.499 383.829 276.176 380.635 279.702 376.421C279.366 379.198 279.215 380.473 279.104 381.397C294.463 371.916 311.885 375.575 328.627 375.189L286.753 386.487L286.978 388.215L296.367 388.194L305.577 399.215L307.315 400.091C312.332 397.791 317.336 395.471 322.366 393.19C330.089 389.694 337.825 386.21 345.573 382.734L346.989 385.104C333.971 392.879 320.949 400.648 307.926 408.414C265.919 433.297 223.892 458.161 181.846 483.003C177.009 485.844 171.966 488.31 167.158 491.135ZM297.248 453.144L296.939 453.35C296.954 453.326 296.964 453.301 296.973 453.276C283.501 460.986 270.048 468.731 256.53 476.372C252.773 478.495 248.805 480.317 243.305 483.064C247.361 470.703 251.74 460.777 262.29 455.937C280.907 447.399 292.082 431.401 304.9 417.203C309.384 412.243 313.109 409.955 319.874 412.061C323.231 413.103 326.983 412.818 332.481 413.304C320.117 427.232 308.558 440.264 296.996 453.287L297.248 453.144ZM217.033 479.633C219.101 464.073 219.165 464.15 232.378 456.211C251.966 444.464 271.457 432.604 291.044 420.815C294.336 418.832 297.824 417.116 301.209 415.306C284.406 438.983 250.856 463.965 217.018 479.62L217.033 479.633ZM315.21 408.153L337.958 394.758C341.192 405.912 331.598 412.167 315.21 408.153ZM179.67 512.032C177.086 511.176 175.391 507.538 172.678 504.4L172.627 504.43L172.569 504.467L172.313 504.619L172.164 504.71L171.846 504.903L170.933 505.458C166.196 496.947 167.244 494.749 178.469 490.166L176.621 494.178C187.667 483.393 199.315 473.827 214.261 468.936L216.572 471.174C211.69 478.904 207.06 486.792 201.852 494.298C197.945 499.926 193.71 505.45 188.804 510.223C186.884 512.082 182.329 512.916 179.67 512.032ZM196.414 518.592L194.057 516.529C201.024 516.567 201.443 514.046 197.634 510.313C195.766 512.011 193.44 514.117 191.115 516.232L189.441 514.903C197.268 505.118 203.856 493.978 213.264 485.912C222.965 477.598 235.414 472.281 248.176 466.407C244.302 472.336 241.267 479.049 236.381 484.042C225.585 495.078 213.907 505.298 202.442 515.692C200.903 517.112 198.458 517.644 196.414 518.592ZM218.422 518.884C215.453 521.499 209.402 520.869 204.748 521.679C204.471 520.733 204.224 519.794 203.964 518.856L222.768 499.551C225.397 507.957 223.318 514.551 218.404 518.876L218.422 518.884ZM223.236 521.954C224.951 512.991 224.244 505.421 227.734 501.1C233.101 494.454 240.899 489.233 248.711 485.253C250.576 484.304 256.566 490.637 262.801 495.152L223.236 521.954ZM261.928 489.56C262.196 487.597 262.388 486.155 262.457 485.711L252.001 483.877L255.305 481.634L258.071 479.755L265.787 474.538L268.294 472.834L286.482 460.483L289.077 458.712L296.949 453.375C296.923 453.413 296.893 453.45 296.857 453.481L303.597 452.725L305.36 455.911L261.928 489.56ZM341.021 416.337C330.975 428.454 320.043 439.878 309.468 451.596L306.538 449.319L344.746 399.391C344.581 399.253 344.94 399.419 344.939 399.561C344.847 400.102 344.879 400.659 345.033 401.195C345.185 401.731 345.456 402.232 345.825 402.663C347.083 400.347 348.341 398.027 349.599 395.705L352.448 397.277C348.682 403.638 345.699 410.661 341.002 416.328L341.021 416.337ZM317.769 522.662C315.528 530.784 312.475 538.639 309.762 546.64L308.426 546.515C312.128 527.248 315.834 507.982 319.544 488.715L322.099 488.814C322.937 490.407 324.725 492.219 324.453 493.569C322.483 503.321 320.41 513.082 317.756 522.658L317.769 522.662ZM370.816 449.354C370.795 449.378 370.771 449.399 370.744 449.415L370.7 449.436C370.62 449.465 370.536 449.48 370.451 449.478L370.353 449.474L370.223 449.463L370.072 449.448L369.875 449.411C369.683 449.378 369.47 449.327 369.229 449.264L369.006 449.202L368.671 449.108L368.324 449.01L367.213 448.69L366.581 448.515C367.068 448.01 367.552 447.503 368.045 446.993C368.734 446.272 369.432 445.548 370.142 444.813C371.472 443.476 372.784 442.068 374.224 440.604C374.748 440.054 375.29 439.498 375.839 438.925C375.852 438.902 375.863 438.878 375.872 438.853L378.529 436.093L379.486 435.101C380.263 443.309 373.575 445.222 370.774 449.335L370.816 449.354ZM387.233 482.832C383.232 489.412 379.885 496.383 376.619 502.498C367.158 489.275 379.111 481.343 385.039 471.482C391.521 476.343 391.228 476.173 387.191 482.813L387.233 482.832ZM534.868 408.995C525.602 405.848 516.857 400.967 508.443 395.026L559.152 398.279C557.231 404.712 542.47 411.576 534.868 408.995ZM618.479 432.543C616.653 431.703 614.885 430.391 612.991 430.097C606.68 429.129 580.496 417.956 577.999 414.092C576.502 411.774 576.639 408.494 575.997 405.408C589.568 405.13 639.626 431.404 643.731 444.173L618.479 432.543Z" fill="black"/>
<path d="M464.433 219.597C464.389 219.816 464.363 219.996 464.321 220.228C464.437 219.976 464.556 219.716 464.673 219.463L464.433 219.597ZM440.066 297.727C440.239 297.349 440.376 296.942 440.529 296.535C440.625 296.326 440.679 296.1 440.753 295.881C434.348 295.721 436.812 292.17 438.008 289.276C445.909 270.18 453.974 251.148 461.695 231.979C463.166 228.318 463.518 224.204 464.303 220.268C463.864 221.144 463.422 222.024 462.989 222.903C462.201 224.491 461.425 226.083 460.636 227.671C459.969 229.042 459.287 230.413 458.596 231.772C458.351 232.307 458.063 232.822 457.796 233.34C457.471 233.969 457.15 234.591 456.819 235.216C456.488 235.842 456.123 236.526 455.764 237.181C455.743 237.233 455.719 237.286 455.692 237.337C455.458 237.768 455.217 238.196 454.98 238.619C454.5 239.475 454.01 240.32 453.509 241.16C453.447 241.295 453.347 241.42 453.258 241.551L453.222 241.629C453.205 241.672 453.188 241.713 453.165 241.753C453.084 241.865 452.998 241.975 452.906 242.083C452.851 242.158 452.79 242.228 452.723 242.293C452.535 242.509 452.336 242.716 452.125 242.911C452.097 242.973 452.021 243.013 451.96 243.066L451.702 243.302L451.287 243.644C451.148 243.757 451.005 243.868 450.864 243.974C449.708 244.853 448.405 245.651 447.188 246.496C447.041 246.599 446.894 246.701 446.752 246.806C446.61 246.913 446.422 247.043 446.267 247.163C446.112 247.282 446.058 247.319 445.959 247.397L446.176 247.436C441.463 258.183 436.415 268.803 432.167 279.732C429.758 285.941 425.571 287.278 419.483 286.242C416.174 285.673 412.865 285.274 409.717 284.82C409.224 283.97 408.813 283.082 408.491 282.162C407.977 279.988 407.606 277.785 407.16 275.594C404.92 264.665 391.064 250.128 382.379 249.695C376.417 249.398 370.373 248.653 364.522 249.214C357.653 249.875 356.225 246.756 355.896 241.108C353.877 207.697 357.021 175.418 373.077 145.611C374.367 143.213 372.75 139.261 372.489 136.03C370.072 137.817 366.557 139.076 365.416 141.463C354.604 164.04 348.299 187.844 348.239 213.223L348.157 250.999C342.426 254.274 337.243 256.594 332.899 259.919C328.921 262.972 325.659 262.908 321.317 260.547C313.981 256.561 306.643 252.301 298.834 249.511C275.835 241.272 252.646 233.478 229.405 226.029C223.934 224.407 218.22 223.864 212.606 224.43C210.432 224.622 208.776 228.853 206.881 231.247C209.497 232.609 212.06 234.907 214.729 235.127C219.22 235.49 223.951 233.468 228.27 234.296C259.232 240.255 288.771 250.516 316.508 265.869C320.604 268.13 321.684 270.142 319.764 275.116C316.556 283.339 313.744 292.267 313.623 301.031C313.435 314.169 323.062 323.249 332.434 331.902C333.787 333.152 334.662 335.13 335.184 336.913C335.758 338.861 335.664 340.974 335.947 343.831C333.169 344.25 329.941 345.349 326.784 345.116C313.233 344.093 299.7 342.615 286.16 341.413C262.984 339.347 241.244 333.183 220.966 320.896C205.649 311.613 188.876 305.272 170.734 304.339C168.216 304.208 165.664 305.531 163.136 306.18L163.395 308.721C165.724 309.369 168.034 310.421 170.396 310.581C183.821 311.581 195.792 316.138 207.711 322.725C224.262 331.855 241.317 340.685 259.099 346.868C278.62 353.661 299.499 353.538 319.997 354.022C325.566 354.153 331.546 353.761 334.173 360.838C334.63 362.078 337.54 362.538 340.716 364.001L337.857 350.169L347.244 350.754L341.366 339.637L345.624 339.477C345.291 336.151 344.165 332.938 344.927 330.288C345.766 327.381 348.338 324.99 350.011 322.583L356.429 329.228L353.767 317.95L362.628 319.772C362.917 307.71 369.77 309.598 378.515 314.232C376.862 310.824 375.974 308.97 375.081 307.125L377.429 308.432C379.831 304.901 382.234 301.366 384.639 297.831L384.707 295.449C391.816 297.013 398.926 298.582 406.039 300.157C406.589 300.282 407.327 300.9 407.61 300.731C417.186 294.971 420.135 305.625 426.262 308.311L426.095 308.022C425.998 307.848 425.891 307.677 425.782 307.496L425.594 307.172C425.523 307.05 425.455 306.916 425.394 306.785C425.357 306.706 425.322 306.624 425.292 306.541C425.247 306.425 425.208 306.304 425.179 306.181C425.005 305.461 425.211 304.67 425.267 303.494C426.149 303.856 427.055 304.155 427.977 304.388L428.695 304.549C429.019 304.62 429.345 304.671 429.674 304.705L429.937 304.739C430.166 304.77 430.397 304.787 430.627 304.79C430.8 304.801 430.976 304.808 431.15 304.804C431.316 304.809 431.483 304.803 431.649 304.79C431.816 304.785 431.979 304.772 432.144 304.752L432.591 304.698C432.777 304.668 432.957 304.635 433.132 304.593C433.309 304.552 433.484 304.51 433.658 304.46L434.077 304.325L434.274 304.253C434.343 304.23 434.407 304.198 434.469 304.173C434.746 304.062 435.014 303.935 435.273 303.792C435.549 303.636 435.815 303.465 436.073 303.28C436.231 303.169 436.386 303.05 436.536 302.928C436.684 302.805 436.83 302.674 436.97 302.541C437.11 302.408 437.25 302.275 437.381 302.13C437.511 301.986 437.665 301.824 437.805 301.644C437.829 301.593 437.855 301.537 437.921 301.499C438.047 301.338 438.168 301.182 438.298 300.991C438.431 300.799 438.538 300.658 438.657 300.474C438.778 300.29 438.778 300.29 438.836 300.195C438.896 300.099 438.98 299.961 439.048 299.843C439.162 299.595 439.318 299.367 439.446 299.118C439.574 298.872 439.679 298.612 439.799 298.353C439.917 298.094 439.964 297.946 440.064 297.731L440.066 297.727ZM283.418 246.318L283.565 245.814L320.35 262.754C320.277 262.912 320.205 263.07 320.133 263.228L283.418 246.318ZM332.227 312.203C332.227 312.203 330.718 310.826 326.64 304.175C319.142 292.536 329.675 278.972 329.675 278.972C324.444 294.979 333.473 297.09 335.384 300.698C337.292 304.306 332.227 312.203 332.227 312.203ZM232.173 333.09L211.23 321.563L212.362 319.806L233.394 330.856C232.962 331.592 232.556 332.366 232.173 333.09ZM440.837 295.667C440.802 295.74 440.769 295.812 440.737 295.88L440.79 295.904L440.837 295.667Z" fill="black"/>
<path d="M554.224 441.106L554.375 441.415L553.657 438.398C554.062 438.155 554.473 437.913 554.885 437.673C560.341 445.028 566.383 452.053 571.125 459.796C582.378 478.169 588.989 498.32 595.246 518.533C595.805 520.42 594.995 522.707 594.828 524.807C594.38 525.779 593.932 526.753 593.486 527.721C592.84 528.27 592.188 528.815 591.546 529.358L591.034 529.013L590.606 529.43C590.584 529.29 590.532 529.155 590.454 529.035C590.375 528.915 590.273 528.811 590.152 528.729C590.031 528.649 589.896 528.592 589.753 528.564C589.611 528.535 589.465 528.536 589.325 528.567C583.923 526.167 580.927 526.42 578.09 532.799C575.922 537.693 574.059 544.652 564.941 545.159C561.09 545.363 557.821 552.212 554.357 556.102C549.836 561.175 538.008 564.26 531.575 560.935L536.834 559.599C535.898 555.301 534.981 551.045 534.061 546.789L542.376 549.841C542.759 544.253 557.682 530.814 563.923 531.731L562.208 524.12C562.607 523.964 563.015 523.81 563.411 523.665L567.101 528.604C567.337 522.118 568.51 517.337 574.415 513.42C578.736 510.547 581.937 504.607 583.143 499.447C584.083 495.434 582.357 489.625 579.685 486.11C576.544 481.976 571.104 479.43 566.579 476.179L564.746 494.801L559.045 489.639C557.462 490.096 554.401 490.228 554.123 491.191C551.969 498.521 543.989 500.957 540.342 507.154C539.352 508.84 533.437 507.678 529.779 507.821L523.968 496.319C524.702 494.4 525.434 492.486 526.334 490.125C527.213 488.218 533.11 496.458 531.727 488.311L532.263 488.702L532.197 488.036L536 490.73L539.642 494.05L540.651 493.193L537.228 487.768L534.399 483.056L549.489 463.779L541.064 453.985L548.991 455.836C548.73 452.757 548.467 449.668 548.074 445.094L556.203 450.291L558.275 449.404L554.224 441.106Z" fill="black"/>
<path d="M552.303 621.155C547.107 621.49 541.661 619.446 536.308 618.489L536.188 618.27L536.144 618.182L531.501 609.481L552.227 609.779L550.762 603.98C552.755 604.618 554.782 605.15 556.714 605.93C558.647 606.712 560.283 607.814 564.064 609.854L560.255 604.43C563.275 604.621 566.959 605.97 568.546 604.762C576.551 598.67 583.898 591.788 591.698 585.415C599.497 579.044 591.663 569.392 596.901 562.405C594.828 563.188 593.603 564.419 592.325 565.597C584.64 572.666 576.953 579.728 569.262 586.78C565.177 590.519 560.498 592.116 554.829 589.845C555.89 587.818 556.956 585.8 558.02 583.771L559.345 583.53C567.094 576.629 574.471 569.296 582.698 562.91C593.909 554.185 594.085 542.665 592.032 530.234L593.3 530.722L592.208 529.837C592.208 529.837 592.063 529.483 592.068 529.473C592.556 528.879 593.037 528.282 593.523 527.694C593.971 526.721 594.42 525.747 594.867 524.773C597.04 529.362 600.961 533.971 601.112 538.562C601.564 552.125 601.799 565.902 599.815 579.19C596.27 602.723 576.624 619.547 552.303 621.155Z" fill="black"/>
<path d="M517.322 605.823L517.718 606.006L517.349 606.075L517.322 605.823Z" fill="black"/>
<path d="M536.579 618.338L536.296 618.496L536.175 618.276L536.131 618.187L536.579 618.338Z" fill="black"/>
<path d="M454.557 332.652C444.001 333.719 443.06 332.63 442.568 318.947L431.195 320.857C438.571 313.559 434.176 312.538 429.534 311.669C435.236 311.013 437.98 308.343 439.353 304.738C439.418 304.601 439.471 304.454 439.513 304.301C439.544 304.232 439.577 304.16 439.611 304.087C439.694 303.906 439.736 303.708 439.8 303.492C439.865 303.275 439.929 303.04 439.987 302.806L440.028 302.717C440.08 302.496 440.127 302.271 440.172 302.046C440.263 301.633 440.337 301.225 440.395 300.819C440.423 300.633 440.453 300.443 440.478 300.25C440.503 300.058 440.524 299.917 440.546 299.749C440.565 299.581 440.596 299.329 440.621 299.102C440.648 298.875 440.666 298.679 440.691 298.453C440.729 298.061 440.761 297.666 440.787 297.269L440.81 296.972C440.835 296.622 440.855 296.269 440.871 295.909C440.878 295.896 440.885 295.884 440.888 295.87L446.808 300.185L453.02 300.283C467.034 280.137 481.24 259.635 495.586 239.233C496.453 238.001 498.434 237.516 499.887 236.686C499.312 238.337 498.733 239.986 498.155 241.643C491.068 252.377 483.805 263 476.891 273.859C471.943 281.62 467.38 289.621 462.806 297.601C459.489 303.392 450.462 308.287 460.107 316.473C460.76 317.025 459.501 319.712 459.132 321.412L466.483 323.583C462.318 325.477 458.117 327.307 454.064 329.397C453.66 329.586 454.348 331.519 454.557 332.652Z" fill="black"/>
<path d="M479.327 580.303C474.871 586.879 467.463 587.703 461.71 582.312C446.92 568.454 433.763 553.379 423.425 536.075C420.821 531.709 417.269 527.851 414.147 523.759C415.028 523.054 415.907 522.34 416.79 521.635L428.07 533.651C429.048 532.054 430.093 530.374 430.205 530.194L451.342 535.481L454.343 543.684C450.435 550.198 442.494 543.929 436.811 548.637C442.157 555.409 443.042 564.84 455.414 566.174C462.32 566.919 467.26 576.403 476.405 573.965C477.554 573.655 479.523 575.926 481.117 577.008L479.327 580.303Z" fill="black"/>
<path d="M637.927 228.355L637.806 228.444C637.838 228.376 637.81 228.281 637.806 228.197L637.927 228.355Z" fill="black"/>
<path d="M640.115 269.355C627.87 294.655 608.085 311.325 580.005 317.674C552.735 323.859 525.063 328.589 497.565 333.953C505.562 331.026 514.274 329.173 521.367 324.875C528.868 320.328 536.905 323.845 544.346 321.633C552.442 319.222 561.005 318.029 569.064 315.5C582.479 311.288 595.752 306.695 608.881 301.719C612.558 300.329 615.443 297.102 619.517 294.135L611.578 287.983C615.017 288.708 619.225 290.89 621.932 289.791C624.383 288.793 625.114 284.184 626.784 281.27C627.248 280.447 628.439 280.067 629.135 279.345C638.29 269.872 641.903 258.399 640.121 245.377C639.27 239.145 635.365 235.261 628.273 235.726L637.811 228.448C637.817 231.084 636.958 234.194 638.165 236.161C644.923 247.22 645.671 257.863 640.115 269.355Z" fill="black"/>
<path d="M628.991 122.236C623.123 125.869 617.018 129.203 611.456 133.257C606.362 136.955 601.872 141.414 596.65 145.945C595.517 146.311 592.548 146.43 590.945 147.928C568.468 168.815 545.885 189.592 524.049 211.089C514.527 220.46 506.675 231.427 498.063 241.675C498.64 240.017 499.222 238.368 499.797 236.717C501.672 233.174 503.025 229.241 505.483 226.151C535.778 187.994 572.152 155.991 612.002 127.547C615.525 125.03 619.859 123.561 623.811 121.602L628.991 122.236Z" fill="black"/>
<path d="M684.704 395.996C667.816 387.489 650.284 380.11 632.641 373.24C615.793 366.675 598.495 361.288 581.356 355.495C578.268 354.447 575.021 353.974 571.844 353.242C576.079 356.387 580.739 358.938 585.678 360.813C599.586 366.073 613.589 371.09 627.552 376.196C628.394 376.417 629.224 376.689 630.037 377.006C632.253 378.116 634.474 379.234 636.686 380.356C636.981 379.481 637.286 378.586 637.568 377.726C649.07 377.568 656.849 385.569 665.489 391.655L638.818 381.418C645.644 384.883 652.46 388.383 659.382 391.654C673.744 398.485 688.217 405.043 702.662 411.722C696.74 406.313 691.585 399.452 684.704 395.996ZM702.621 411.749L702.917 412.023C702.919 412.012 702.924 412.002 702.929 411.994L703.028 411.966L702.621 411.749ZM636.652 380.367C636.618 380.44 636.582 380.519 636.548 380.593L638.753 381.437L636.652 380.367Z" fill="black"/>
<path d="M422.938 720.057C418.861 718.52 415.008 717.502 416.006 711.409C416.33 709.511 411.148 706.756 408.694 704.207C403.869 699.176 396.78 694.67 394.793 688.762C388.188 669.152 383.404 649.032 378.036 629.079C377.704 627.862 378.359 626.424 378.553 625.088L390.737 668.69L393.451 668.132L392.613 661.314C394.35 663.56 397.254 665.674 397.633 668.08C400.395 685.346 410.6 698.858 421.288 712.225C422.538 713.789 422.828 716.064 423.546 718.038C423.37 718.701 423.152 719.378 422.938 720.057Z" fill="black"/>
<path d="M637.807 228.201C637.896 228.146 637.977 228.095 638.073 228.043C638.031 228.151 637.983 228.257 637.927 228.36L637.807 228.201Z" fill="black"/>
<path d="M643.273 224.734C641.812 226.109 639.836 226.972 638.072 228.042C638.126 227.923 638.18 227.805 638.234 227.687L638.507 227.001C638.598 226.804 638.69 226.607 638.766 226.439C638.806 226.355 638.844 226.269 638.883 226.185C638.904 226.124 638.93 226.066 638.963 226.011C639.086 225.82 639.227 225.643 639.386 225.483C660.636 204.76 668.22 178.74 668.245 149.805C668.249 139.188 665.378 129.087 656.757 121.659C653.917 119.204 649.054 117.476 645.39 117.788C639.823 118.197 634.48 120.647 629 122.25L623.808 121.612C630.874 119.076 637.744 115.466 645.095 114.425C649.163 113.844 654.992 116.541 658.361 119.539C667.176 127.371 670.106 137.975 670.701 149.094C672.233 178.263 665.058 204.231 643.273 224.734Z" fill="black"/>
<path d="M383.723 573.405C383.677 573.643 383.624 573.885 383.578 574.124L383.492 573.454L383.723 573.405Z" fill="black"/>
<path d="M390.661 636.102L382.266 618.8L382.178 618.849L378.543 623.858L369.302 591.904L371.603 591.327L375.036 603.48L377.56 603.892C379.566 593.962 381.57 584.036 383.574 574.114C384.986 585.253 386.482 596.399 387.774 607.552C388.873 617.062 389.726 626.595 390.661 636.102Z" fill="black"/>
<path d="M445.906 247.392C446.416 246.1 446.919 244.803 447.429 243.511C447.019 244.727 446.612 245.938 446.214 247.158C446.175 247.244 446.133 247.332 446.123 247.431L445.906 247.392Z" fill="black"/>
<path d="M464.454 219.253C463.2 218.145 462.01 216.573 460.656 216.379C459.569 216.226 457.652 217.832 457.131 219.087C453.778 227.173 450.615 235.347 447.424 243.5C449.858 236.294 452.425 229.121 454.367 221.784C456.579 213.416 458.091 204.844 459.549 196.294C461.253 186.392 462.259 176.344 464.114 166.469C465.322 160.028 467.304 153.723 469.35 147.498C470.146 145.074 472.073 143.029 474.341 141.312C471.749 154.564 469.155 167.814 466.563 181.061C465.168 181.332 462.581 181.492 462.552 181.893C462.028 189.764 461.802 197.652 461.511 205.546L463.095 205.594L466.419 193.163C465.772 201.859 465.117 210.556 464.454 219.253Z" fill="black"/>
<path d="M464.684 219.454L464.413 219.59C464.42 219.477 464.433 219.358 464.436 219.243L464.684 219.454Z" fill="black"/>
<path d="M523.985 496.293L529.796 507.795C529.466 509.547 529.03 512.851 528.842 512.811C522.239 512.138 521.183 518.942 516.779 520.721C515.035 521.403 512.032 519.284 509.605 518.446L502.972 508.155C507.801 500.727 514.45 496.2 523.985 496.293Z" fill="black"/>
<path d="M454.321 543.693L451.32 535.49L450.246 529.601L460.954 534.532L458.114 528.45C462.28 533.779 465.406 532.777 468.682 529.539L484.311 525.073C487.765 532.972 486.928 536.154 477.061 539.467C469.861 541.915 461.925 542.352 454.321 543.693Z" fill="black"/>
<path d="M714.838 500.393L714.484 500.148L714.581 500.138L714.762 500.118L714.838 500.393Z" fill="black"/>
<path d="M551.379 595.302C548.889 597.033 545.039 597.328 543.148 599.416C536.173 607.118 526.694 605.569 517.711 606.028L517.352 606.075L508.649 602.066L547.396 590.317C547.389 590.238 547.175 588.953 546.85 587.017L552.97 590.667C552.481 592.242 552.499 594.529 551.379 595.302Z" fill="black"/>
<path d="M536.577 618.341L536.176 618.28C529.596 617.214 522.989 616.299 516.448 615.039C500.284 611.981 487.814 602.07 475.219 592.287L496.805 602.228L498.79 597.917C503.276 604.758 510.052 605.151 516.713 605.776L517.316 605.835L517.709 606.017L521.745 608.237L515.41 609.104C515.245 609.71 515.085 610.32 514.921 610.925L536.13 618.196L536.577 618.341Z" fill="black"/>
<path d="M414.624 505.856L411.857 487.046L419.974 491.568C420.088 490.004 420.275 487.376 420.546 483.736C427.474 492.642 428.522 499.932 423.49 503.261C421.086 504.882 417.62 505.039 414.624 505.856Z" fill="black"/>
<path d="M479.332 580.304L481.099 577.025C483.712 571.196 488.111 569.444 494.626 571.15C497.635 571.934 500.951 571.375 504.102 571.727C505.774 571.917 507.385 572.761 509.017 573.31L509.04 575.447C502.922 576.681 495.663 576.388 491.015 579.58C486.366 582.773 483.804 584.662 479.332 580.304Z" fill="black"/>
<path d="M366.362 448.696C366.185 448.847 366.005 448.99 365.83 449.134C365.951 448.869 366.128 448.629 366.279 448.378L366.362 448.696Z" fill="black"/>
<path d="M482.112 464.401L487.236 476.214C484.456 480.481 480.917 482.724 475.503 480.067L471.952 472.845L475.616 473.387C475.763 469.409 475.905 465.485 476.084 459.961L482.112 464.401Z" fill="black"/>
<path d="M714.841 500.396L714.488 500.152C711.342 497.96 707.862 496.084 705.17 493.446C693.179 481.683 681.417 469.706 669.655 457.727C668.996 457.048 669.099 455.663 668.841 454.624L714.578 500.159L714.841 500.396Z" fill="black"/>
<path d="M471.948 472.84L475.5 480.062C473.578 482.47 471.663 484.876 469.268 487.886L462.571 480.498L462.191 477.444C463.406 474.423 464.627 471.399 466.264 467.33L471.948 472.84Z" fill="black"/>
<path d="M426.582 480.843L443.643 495.74C431.094 501.508 426.827 498.083 426.582 480.843Z" fill="black"/>
<path d="M443.646 438.34L452.337 434.436L459.121 441.824C456.227 443.827 454.176 445.254 452.039 446.746L443.646 438.34Z" fill="black"/>
<path d="M483.6 512.997C495.209 518.077 497.661 522.276 495.324 533.353L483.6 512.997Z" fill="black"/>
<path d="M426.1 308.059L426.268 308.348L426.233 308.332L426.1 308.059Z" fill="black"/>
<path d="M440.83 295.664L440.819 295.893L440.766 295.868C440.781 295.82 440.802 295.74 440.83 295.664Z" fill="black"/>
<path d="M703.276 412.055L702.929 412.011C702.933 412 702.936 411.992 702.943 411.983L703.043 411.953L703.072 411.967L703.276 412.055Z" fill="black"/>
<path d="M502.964 508.179L509.595 518.47L507.054 523.99L496.36 507.055L502.964 508.179Z" fill="black"/>
<path d="M397.514 396.613L391.162 410.405C387.552 398.129 388.498 395.748 397.514 396.613Z" fill="black"/>
<path d="M463.712 428.243L464.977 430.462L464.093 435.873L461.55 432.955L460.627 430.635L460.349 429.252L459.188 430.04C460.695 429.445 462.202 428.843 463.712 428.243Z" fill="black"/>
<path d="M462.181 477.428L462.56 480.483L458.517 475.817C458.762 475.548 459.001 475.276 459.249 475.002L462.181 477.428Z" fill="black"/>
<path d="M537.277 487.757L540.701 493.181L539.692 494.038L536.049 490.718C536.456 489.725 536.866 488.74 537.277 487.757Z" fill="black"/>
<path d="M461.551 432.954L464.093 435.871L464.243 435.729C463.975 435.769 463.511 435.767 463.47 435.857C463.405 436.297 463.383 436.744 463.405 437.191L458.645 435.121C458.925 434.622 459.196 434.127 459.476 433.628L459.251 433.728L461.796 432.855L461.551 432.954Z" fill="black"/>
<path d="M531.746 488.281C531.746 488.281 532.281 488.05 532.267 488.037C532.251 488.022 532.31 488.686 532.31 488.686L531.746 488.281Z" fill="black"/>
<path d="M459.487 433.616C459.207 434.115 458.936 434.611 458.656 435.11L456.218 433.769L456.242 432.088L459.487 433.616Z" fill="black"/>
<path d="M456.236 432.076L456.211 433.755L453.911 432.936C454.182 432.44 454.45 431.935 454.721 431.439L454.537 431.499L456.304 432.313L456.236 432.076Z" fill="black"/>
<path d="M463.42 437.182C463.399 436.736 463.421 436.288 463.486 435.848C463.528 435.757 463.985 435.757 464.259 435.719C463.974 436.217 463.694 436.701 463.42 437.182Z" fill="black"/>
<path d="M593.484 527.725C593.003 528.322 592.514 528.915 592.027 529.509L591.539 529.359C592.21 528.829 592.829 528.296 593.484 527.725Z" fill="black"/>
<path d="M589.323 528.57C589.463 528.541 589.609 528.54 589.752 528.568C589.894 528.594 590.03 528.652 590.151 528.733C590.271 528.814 590.374 528.919 590.453 529.039C590.53 529.16 590.582 529.293 590.604 529.433C590.109 529.259 589.667 528.961 589.323 528.57Z" fill="black"/>
<path d="M592.168 529.861L593.252 530.749L591.983 530.26L592.168 529.861Z" fill="black"/>
<path d="M124.122 476.305C124.408 476.461 124.711 476.577 125.026 476.654C124.712 476.574 124.408 476.457 124.122 476.305ZM191.328 406.761L191.682 406.645C191.534 406.7 191.433 406.734 191.328 406.761Z" fill="black"/>
<path d="M296.997 453.285C296.989 453.311 296.978 453.336 296.963 453.358C296.938 453.399 296.905 453.435 296.871 453.467L297.29 453.131L296.997 453.285Z" fill="black"/>
<path d="M128.11 412.145L127.904 412.217L127.87 411.933L128.11 412.145Z" fill="black"/>
<path d="M128.186 412.12L128.11 412.145L127.904 412.217L127.87 411.933L128.186 412.12Z" fill="black"/>
<path d="M138.37 415.898C135.335 415.417 132.392 414.425 129.675 412.971C132.392 414.424 135.336 415.415 138.37 415.898Z" fill="black"/>
<path d="M191.648 406.666L191.26 406.789L191.413 406.723L191.648 406.666Z" fill="black"/>
<path d="M121.928 472.771C122.096 472.051 122.279 471.343 122.507 470.678C122.507 470.678 122.489 470.717 122.481 470.735C122.277 471.41 122.101 472.087 121.928 472.771Z" fill="black"/>
<path d="M297.247 453.137L296.826 453.473C296.861 453.441 296.893 453.404 296.919 453.365L297.247 453.137Z" fill="black"/>
<path d="M73.8997 442.147L72.5272 460.373L69.4123 460.064C66.6956 453.711 63.4205 447.313 70.3667 441.693L73.8997 442.147Z" fill="black"/>
<path d="M307.281 400.069C298.931 404.244 290.718 408.627 282.246 412.555C277.076 415.063 271.418 416.561 265.587 416.963L305.521 399.205L307.281 400.069Z" fill="black"/>
<path d="M366.264 448.439L366.562 448.508C366.526 448.587 366.434 448.647 366.368 448.713L366.264 448.439Z" fill="black"/>
<path d="M459.491 433.624L456.246 432.095L456.309 432.314L455.318 429.813L455.383 430.061L454.479 427.756C457.625 424.429 460.798 420.953 463.727 428.256C462.215 428.857 460.71 429.458 459.2 430.052L459.125 429.799L460.114 432.301L460.036 432.054C459.776 432.617 459.518 433.179 459.259 433.742L459.491 433.624Z" fill="black"/>
<path d="M454.471 427.741L455.397 430.077L453.823 428.963L454.471 427.741Z" fill="black"/>
<path d="M453.819 428.963L455.392 430.076L455.328 429.829C455.069 430.391 454.809 430.954 454.55 431.517L454.734 431.458L453.819 428.963Z" fill="black"/>
<path d="M447.429 243.511C447.019 244.727 446.612 245.938 446.214 247.158C446.108 247.233 446.005 247.316 445.906 247.392C446.416 246.1 446.919 244.803 447.429 243.511Z" fill="black"/>
<path d="M464.685 219.447C464.567 219.702 464.448 219.962 464.331 220.214C464.369 219.994 464.394 219.814 464.443 219.583C464.452 219.471 464.463 219.353 464.465 219.238L464.685 219.447Z" fill="black"/>
<path d="M283.566 245.814L320.351 262.754L320.132 263.229L283.419 246.32L283.566 245.814Z" fill="black"/>
<path d="M212.33 319.789L233.363 330.84C232.967 331.592 232.566 332.335 232.171 333.086L211.229 321.56L212.33 319.789Z" fill="black"/>
<path d="M637.807 228.199C637.81 228.284 637.81 228.365 637.807 228.446L637.927 228.358C637.983 228.255 638.031 228.149 638.073 228.041C637.977 228.093 637.896 228.144 637.807 228.199Z" fill="black"/>
<path d="M589.75 269.876C586.746 271.746 583.415 273.861 580.072 275.97L579.456 275.353C581.153 273.684 582.846 272.023 584.601 270.308C580.744 265.204 576.735 265.24 572.034 268.298C569.797 269.758 566.997 270.426 564.451 271.457L585.905 258.495C584.798 259.691 583.696 260.888 581.981 262.752L589.75 269.876Z" fill="black"/>
<path d="M638.8 381.43L636.595 380.586C636.629 380.513 636.665 380.434 636.699 380.36L638.8 381.43Z" fill="black"/>
<path d="M459.187 430.037L460.35 429.249L460.627 430.632L460.907 430.583L459.14 429.769L459.187 430.037Z" fill="black"/>
<path d="M460.623 430.631L461.548 432.952L461.806 432.839L460.039 432.025L460.117 432.273L460.93 430.601L460.623 430.631Z" fill="black"/>
<path d="M460.017 432.017L461.784 432.831L459.239 433.705C459.516 433.15 459.764 432.583 460.017 432.017Z" fill="black"/>
<path d="M454.547 431.514C454.805 430.951 455.065 430.388 455.324 429.825L456.316 432.328L454.547 431.514Z" fill="black"/>
<path d="M191.643 406.658C191.533 406.697 191.431 406.73 191.326 406.758C185.439 408.684 179.575 410.745 173.602 412.441C167.628 414.137 161.554 415.445 155.543 416.865C134.493 421.795 125.75 431.368 123.003 452.625C122.443 456.944 122.045 461.282 121.58 465.61L115.473 458.705L96.5607 461.386C97.7379 460.659 98.8654 459.345 100.097 459.291C119.438 458.459 123.643 444.005 128.439 429.374C123.137 431.951 117.937 434.482 112.79 436.988L107.266 439.675L107.251 439.709L100.822 442.812L100.333 443.051C105.137 439.921 109.949 436.803 114.769 433.698C119.589 430.593 124.41 427.47 129.233 424.331L136.621 419.549L128.11 412.144L127.872 411.931L128.187 412.117L128.925 412.546L129.664 412.955C131.287 413.817 132.99 414.521 134.747 415.057C135.372 415.249 135.95 415.391 136.543 415.53C137.138 415.667 137.753 415.786 138.36 415.882L138.754 415.94C139.129 415.997 139.505 416.048 139.881 416.084C140.45 416.142 141.02 416.176 141.59 416.189C142.094 416.209 142.589 416.22 143.105 416.205C143.518 416.205 143.938 416.193 144.355 416.173C145.044 416.149 145.734 416.126 146.442 416.03L147.673 415.914C148.191 415.846 148.705 415.768 149.213 415.675C151.351 415.302 153.461 414.809 155.534 414.202C157.733 413.57 159.956 412.991 162.174 412.485C163.649 412.135 165.13 411.801 166.616 411.481C171.136 410.506 175.694 409.666 180.267 408.825L184.22 408.103C186.638 407.648 189.049 407.19 191.45 406.706L191.643 406.658Z" fill="black"/>
<path d="M195.713 440.096C195.06 441.234 194.401 442.37 193.748 443.508C194.263 442.297 194.922 441.152 195.713 440.096Z" fill="black"/>
<path d="M199.136 451.728C189.168 463.663 179.657 475.04 170.15 486.424L169.402 485.895L193.779 443.525C192.244 447.231 193.641 450.01 199.136 451.728Z" fill="black"/>
<path d="M189.291 439.777L148.994 448.951C148.787 448.174 148.575 447.394 148.369 446.616L188.631 437.255L189.291 439.777Z" fill="black"/>
<path d="M319.212 415.544C315.998 421.19 312.786 426.839 309.58 432.49L308.121 432.106C308.685 427.236 309.244 422.392 309.884 416.89L317.279 413.85L319.212 415.544Z" fill="black"/>
<path d="M240.52 455.805L226.684 470.462C224.318 465.593 222.49 461.887 230.799 461.661C233.696 461.577 236.316 457.02 239.089 454.519L240.52 455.805Z" fill="black"/>
<path d="M460.906 430.583L460.093 432.255L459.104 429.752L460.906 430.583Z" fill="black"/>
<path d="M549.707 259.98C539.379 266.213 529.846 271.978 519.695 278.108C517.583 271.541 506.106 273.383 505.358 263.251C510.545 267.345 513.793 271.44 517.838 272.6C520.842 273.459 525.082 270.828 528.431 269.191C534.934 266.048 541.217 262.55 547.608 259.218C547.729 259.158 547.992 259.376 549.707 259.98Z" fill="black"/>
<path d="M535.855 238.715C537.623 227.123 539.136 217.241 540.608 207.612L544.804 210.704C537.801 217.724 544.576 230.031 535.855 238.715Z" fill="black"/>
<path d="M616.858 216.371L598.425 235.301L596.081 233.784C602.202 227.259 608.321 220.738 614.441 214.22L616.858 216.371Z" fill="black"/>
<path d="M500.034 275.206C493.573 280.962 487.1 286.716 480.613 292.468L479.126 291.368L497.877 273.124L500.034 275.206Z" fill="black"/>
<path d="M631.806 233.014L455.569 332.855L458.515 334.212L634.443 234.487L650.843 216.694L631.806 233.014Z" fill="black"/>
<path d="M452.856 307.74L469.398 293.532L461.788 302.304C461.788 302.304 455.401 306.867 453.588 310.806C452.999 310.534 452.856 307.74 452.856 307.74Z" fill="black"/>
<path d="M454.132 315.826L463.983 311.495C463.983 311.495 471.101 309.999 477.935 302.916C475.862 307.416 468.181 314.792 462.83 317.102C457.48 319.413 455.005 321.684 455.005 321.684L454.132 315.826Z" fill="black"/>
<path d="M478.339 322.203L506.221 315.947L565.069 290.528L572.326 274.773C572.326 274.773 569.783 292.699 565.612 295.553C561.442 298.407 514.588 316.389 512.114 318.661C509.639 320.931 502.334 324.387 502.334 324.387L473.579 324.785L478.339 322.203Z" fill="black"/>
<path d="M598.381 142.167C598.381 142.167 581.888 168.675 580.358 178.201C578.829 187.727 570.418 209.09 558.681 215.962C569.38 211.341 577.156 194.459 579.488 189.395C581.82 184.331 583.868 173.679 583.868 173.679C583.868 173.679 600.667 141.856 603.848 136.501L598.381 142.167Z" fill="black"/>
<path d="M586.872 187.345L608.243 154.901C608.243 154.901 617.527 139.395 629.45 130.564C641.376 121.733 648.234 120.798 648.234 120.798C639.178 125.937 631.229 132.68 624.785 140.693C614.513 153.694 606.713 164.426 606.713 164.426L586.872 187.345Z" fill="black"/>
<path d="M603.345 284.961L584.42 291.933L564.035 309.827L603.345 284.961Z" fill="black"/>
<path d="M529.63 238.738C529.63 238.738 522.065 242.757 514.357 243.981C506.651 245.207 498.308 250.914 493.431 256.852C488.553 262.79 478.162 279.149 478.162 279.149L492.983 259.374C492.983 259.374 505.024 247.186 517.304 245.338C526.378 242.697 529.63 238.738 529.63 238.738Z" fill="black"/>
<path d="M468.914 317.869C468.914 317.869 482.159 312.374 488.968 299.139C487.368 307.269 478.318 316.06 468.914 317.869Z" fill="black"/>
<path d="M528.272 257.21L558.532 241.135L581.294 213.423L560.96 243.618L528.272 257.21Z" fill="black"/>
<path d="M623.579 247.216C623.579 247.216 604.395 254.75 602.511 257.293C600.625 259.835 595.772 271.923 595.772 271.923C595.772 271.923 600.957 260.67 605.457 258.65C609.959 256.631 623.579 247.216 623.579 247.216Z" fill="black"/>
<path d="M611.734 178.331L593 200.397L580.044 228.532L598.35 198.085L611.734 178.331Z" fill="black"/>
<path d="M662.118 127.193C662.118 127.193 662.051 143.531 659.012 151.681C655.973 159.829 642.305 173.998 642.305 173.998L659.556 156.705C661.473 147.018 662.333 137.126 662.118 127.193Z" fill="black"/>
<path d="M667.05 168.82C667.05 168.82 655.883 186.383 639.833 193.314C632.528 196.77 621.522 206.708 621.522 206.708L644.289 196.049L666.117 174.63L667.05 168.82Z" fill="black"/>
<path d="M634.707 250.978L624.057 267.9L600.56 275.493L626.155 269.548L634.707 250.978Z" fill="black"/>
<path d="M556.253 309.649L532.353 315.012L554.698 313.025L556.253 309.649Z" fill="black"/>
<path d="M491.68 307.209C492.788 306.353 523.308 289.716 523.308 289.716L513.242 289.856L491.68 307.209Z" fill="black"/>
<path d="M574.235 278.381L580.717 281.366L592.714 273.932L580.529 283.327C580.529 283.327 574.895 280.049 574.235 278.381Z" fill="black"/>
<path d="M615.799 212.946L624.141 207.24L618.156 214.032L615.799 212.946Z" fill="black"/>
<path d="M349.931 343.546L351.608 353.867L343.24 353.423L355.143 355.495L349.931 343.546Z" fill="black"/>
<path d="M404.207 301.697L408.331 303.597L413.752 302.684L408.732 305.829L404.207 301.697Z" fill="black"/>
</svg>
