<svg width="894" height="894" viewBox="0 0 894 894" fill="none" xmlns="http://www.w3.org/2000/svg">
<path d="M477.376 730.515C477.573 731.021 477.78 731.528 477.987 732.035L478.248 731.837L477.376 730.515ZM616.205 466.448C616.167 466.494 616.134 466.543 616.106 466.594L616.565 466.749L616.205 466.448ZM893.353 492.577C887.876 483.003 882.562 473.034 875.278 464.825C869.128 457.956 860.217 453.303 852.519 447.653L852.303 447.781L852.187 447.85C851.989 447.962 851.8 448.091 851.602 448.219L850.856 448.735C849.768 449.49 848.662 450.349 847.619 450.958L847.268 451.156C847.085 451.258 846.895 451.349 846.701 451.431C846.595 451.486 846.483 451.532 846.369 451.568L846.054 451.671C845.927 451.709 845.798 451.737 845.667 451.757C845.539 451.769 845.409 451.769 845.281 451.757C845.12 451.759 844.959 451.738 844.804 451.697C816.107 444.295 787.512 436.55 759.019 428.462C754.846 427.277 751.384 423.8 747.599 421.387C747.896 420.314 748.201 419.24 748.498 418.176L762.885 416.458C756.195 413.479 749.703 408.456 742.788 407.872C712.61 405.296 682.334 403.338 652.057 402.445C611.592 401.252 572.665 407.211 537.335 428.041C530.141 432.283 521.518 434.309 513.551 437.366C514.648 432.335 517.085 429.484 519.603 426.702C536.832 407.657 554.501 388.965 571.002 369.353C576.982 362.278 583.096 359.857 592.295 359.788C608.13 359.651 623.948 358.019 639.774 357.015C622.536 354.902 605.469 351.931 588.851 353.451C579.499 354.31 578.636 351.588 578.277 343.147C573.421 348.488 569.581 351.845 566.892 355.89C562.711 362.166 560.382 369.817 555.364 375.295C539.7 392.468 523.361 409.022 506.735 425.319C503.83 428.179 498.309 428.608 490.792 431.33L496.538 420.365C491.628 421.936 486.035 425.611 483.122 424.203C479.102 422.271 476.944 416.604 474.264 412.38C468.383 403.055 462.673 393.636 456.28 383.306C459.877 380.103 464.373 376.076 468.959 372.058L439.581 387.951C439.051 385.667 438.547 383.478 438.044 381.305C437.972 380.953 437.891 380.61 437.81 380.267C437.118 379.605 436.416 378.953 435.724 378.283L434.411 377.038L429.825 386.071L429.69 386.672L429.528 387.367C428.737 390.802 427.937 394.237 427.001 398.272L443.763 408.816L437.684 412.543H455.003L458.213 427.912L472.394 425.027C472.745 425.68 473.086 426.341 473.428 426.994L459.337 437.641C451.244 425.62 451.244 425.62 440.508 441.934C446.155 445.918 452.908 449.026 456.559 454.144C457.925 456.05 452.063 462.67 448.376 469.016H460.138C460.713 472.047 461.235 474.786 461.882 478.16L453.034 476.992C457.287 498.141 444.446 509.011 427.577 517.718C419.043 512.841 412.128 502.855 398.469 506.744C401.032 516.49 403.505 525.875 405.582 533.757L389.729 525.66C384.28 538.162 395.745 535.466 401.877 537.595C394.342 542.936 390.637 539.871 386.24 534.762C381.483 529.232 375.207 524.896 369.587 520.036L367.087 522.741L378.057 534.848L375.315 537.295L367.276 530.005V548.895C365.117 541.846 362.105 537.278 362.779 533.268C365.162 518.928 353.491 524.681 346.549 522.372C347.25 517.434 347.969 512.351 348.347 509.741C343.671 508.273 339.625 508.092 337.305 506.083C325.723 496.029 313.682 487.519 297.532 496.149C291.984 499.102 288.54 505.508 283.046 508.711C248.363 529.069 212.44 547.641 178.683 569.305C110.487 613.096 51.0575 665.722 6.93295 732.825C-2.45486 747.155 -2.78757 757.656 8.86627 770.201C14.2616 775.988 21.2754 781.75 28.7479 784.171C74.8597 799.103 118.067 792.526 159.629 767.625C165.393 779.552 178.584 779.904 192.144 779.251C196.533 779.037 200.93 778.676 205.282 778.109C225.065 775.533 244.128 771.051 256.025 753.836C265.017 740.793 274.971 727.939 281.311 713.711C303.791 663.232 327.108 612.933 339.373 558.933C340.785 552.725 342.439 548.517 351.153 550.209C361.395 552.184 372.032 552.287 382.508 553.197L383.623 550.621L373.426 543.237C383.255 542.318 390.242 550.106 387.229 559.619C380.494 580.742 373.156 601.693 366.071 622.721C371.934 610.425 377.799 598.118 383.668 585.799C383.291 589.234 383.075 592.763 382.85 596.275C382.796 597.056 382.751 597.838 382.697 598.619C382.697 599.186 382.625 599.752 382.58 600.336C382.526 601.238 382.454 602.131 382.373 603.024C382.373 603.505 382.292 603.985 382.247 604.458C382.14 605.617 382.014 606.767 381.87 607.892C381.825 608.27 381.771 608.656 381.717 609.034C381.609 609.801 381.492 610.557 381.366 611.301C381.303 611.679 381.231 612.057 381.159 612.426C381.025 613.173 380.863 613.92 380.692 614.658C380.566 615.234 380.422 615.8 380.269 616.376L380.053 617.157C379.981 617.423 379.91 617.681 379.829 617.947C379.685 618.419 379.532 618.891 379.37 619.355C379.172 619.956 378.956 620.549 378.723 621.141C375.252 630.002 365.405 636.597 356.953 645.733L365.189 624.447C364.488 625.306 363.832 626.302 363.049 627.152C348.896 642.676 339.589 658.638 347.87 680.903C355.064 700.179 358.895 720.615 363.742 740.638C367.222 755.012 369.919 769.557 373.633 787.245C374.424 780.187 374.847 776.375 375.279 772.562C383.731 794.612 378.696 819.788 395.511 839.536C395.531 831.876 394.745 824.233 393.164 816.722C389.387 796.974 383.075 777.337 382.113 757.476C380.584 726.016 377.617 695.336 364.236 666.108C362.636 662.622 364.281 656.766 366.34 652.954C370.908 644.522 377.536 637.078 381.834 628.551C392.526 607.308 402.291 585.619 412.722 564.282C413.855 561.964 416.912 560.504 419.07 558.649C420.221 561.165 421.912 563.595 422.379 566.214C422.847 568.833 422.218 571.537 421.768 574.165C418.648 592.196 416.481 610.46 411.994 628.191C407.192 647.167 412.272 663.008 424.825 678.704C425.473 674.317 425.922 670.685 426.624 667.087C426.894 665.679 427.829 663.137 428.161 663.18C430.149 663.438 432.918 663.755 433.827 665.061C441.65 676.343 449.113 687.849 456.703 699.286L477.385 730.549C475.775 726.531 474.336 722.426 472.331 718.597C462.044 698.908 451.433 679.374 441.245 659.643C439.608 656.466 438.26 652.336 438.916 649.038C441.416 636.502 444.797 624.138 447.54 612.975L481.332 645.209L483.616 643.182L478.014 628.963L463.627 606.879L449.734 600.302C449.338 601.161 448.942 602.062 448.556 602.947C437.513 594.918 441.443 585.705 446.074 575.805C462.655 578.003 462.314 564.728 463.851 555.249C464.652 550.286 459.355 544.422 456.523 538.334L465.704 527.841C467.988 534.401 470.101 540.463 472.205 546.525L478.023 545.34C477.13 539.273 476.231 533.205 475.325 527.137L484.012 517.185C484.38 516.25 484.749 515.322 485.127 514.386C485.127 513.665 485.217 512.935 485.271 512.214C485.271 512.154 485.271 512.094 485.271 512.034L485.082 511.845L482.69 509.44C482.69 508.805 482.771 508.17 482.798 507.526C484.839 501.515 486.808 495.307 494.739 502.795L497.617 504.855L512.121 495.608L496.232 483.99C507.679 484.849 517.391 487.167 521.563 476.786C523.092 472.983 522.759 468.5 523.361 463.641L535.051 462.052L519.585 452.959L531.931 451.637L519.531 446.305C532.12 446.966 541.517 446.871 550.671 448.314C553.368 448.743 557.864 455.114 557.163 456.042C553.17 461.889 556.776 468.543 553.854 474.631C552.172 478.066 554.897 483.518 555.338 486.257C550.895 496.707 546.022 506.659 542.479 517.031C540.249 523.565 540.015 530.726 538.882 537.638L552.181 549.539C553.818 548.62 556.219 548.062 556.947 546.706C559.168 542.515 559.645 537.072 562.756 533.826C576.883 519.023 579.706 499.626 587.134 482.101C588.114 479.783 589.939 477.808 591.189 475.919L586.145 474.339C598.194 463.417 598.194 463.426 606.053 466.714C608.545 467.895 611.123 468.899 613.769 469.72C614.209 469.84 615.27 467.831 616.08 466.672C613.499 465.856 609.65 465.461 609.12 463.967C605.334 453.423 594.642 453.749 586.54 450.151C581.972 448.125 577.045 446.837 571.856 445.068C586.244 437.907 599.885 430.849 613.813 424.461C617.141 422.932 621.601 423.19 625.503 423.345C657.416 424.555 689.348 425.732 721.216 427.372C733.085 427.99 745.297 428.393 756.645 431.364C790.428 440.208 823.879 450.194 857.357 459.991C860.055 460.79 862.752 463.16 864.551 465.427C873.867 477.138 882.895 489.056 892.031 500.906C892.577 501.167 893.049 501.549 893.407 502.022C893.469 498.776 894.719 494.99 893.353 492.577ZM315.912 506.598L277.804 553.566L274.899 551.308L280.915 544.207C280.501 543.614 280.088 543.022 279.683 542.429L269.792 548.577C266.716 540.334 302.361 507.68 315.912 506.598ZM16.8603 771.386C9.75649 764.964 1.91533 758.807 7.40054 747.705L12.1214 746.228L20.9607 769.969L16.8603 771.386ZM157.92 753.827C140.52 778.831 115.288 784.592 83.8339 778.521L125.261 743.317L124.164 741.866C116.781 746.949 109.246 751.835 102.088 757.184C100.671 758.319 99.0624 759.216 97.3311 759.837L96.8545 759.966L96.5038 760.043C96.0628 760.126 95.6126 760.155 95.164 760.129H94.8223C94.5935 760.091 94.3681 760.037 94.1479 759.966L93.8961 759.872L93.6533 759.752L93.4105 759.623L93.1677 759.468C92.976 759.336 92.7928 759.192 92.6192 759.039C92.4663 758.901 92.3225 758.756 92.1786 758.601C92.0347 758.446 91.8998 758.275 91.7559 758.094C91.6121 757.914 91.6211 757.914 91.5581 757.811C91.2983 757.423 91.0669 757.019 90.8657 756.6C90.4712 755.791 90.1464 754.953 89.8946 754.093C89.8905 754.05 89.8905 754.007 89.8946 753.964C89.9935 754.935 90.1733 755.931 90.3801 756.935C90.4431 757.27 90.515 757.605 90.578 757.94C90.6409 758.275 90.7578 758.798 90.8298 759.271C90.8298 759.451 90.8927 759.623 90.9197 759.803C90.9736 760.147 91.0276 760.499 91.0635 760.842C91.2672 762.224 91.1599 763.632 90.7488 764.972C88.4378 771.489 84.0137 774.855 76.4063 768.218L80.0302 779.955C73.2591 780.316 73.2591 780.316 73.5019 762.568C70.6873 770.012 69.8061 779.019 66.3621 780.024C59.2943 782.085 50.8596 779.852 41.7236 779.32C45.3924 771.154 48.6026 764.019 51.8038 756.875C47.9731 761.718 44.6101 767.024 40.114 771.249C36.634 774.529 31.7513 776.452 27.2372 779.123C25.6546 769.471 24.6115 763.143 23.6404 757.004C35.6089 751.904 41.7236 742.553 46.1208 731.829L45.86 732.095C45.5632 732.395 45.2755 732.696 44.9608 733.005C44.5112 733.477 44.0616 733.958 43.6209 734.447C43.0215 735.123 42.401 735.81 41.7596 736.508C41.1841 737.152 40.6086 737.796 40.0151 738.431C39.7273 738.749 39.4396 739.067 39.1159 739.385C38.2167 740.329 37.3174 741.256 36.4182 742.132C36.1125 742.433 35.7978 742.716 35.519 742.991C34.9165 743.523 34.3141 744.038 33.7206 744.519C33.3609 744.794 33.0012 745.069 32.6415 745.326C32.2818 745.584 31.9042 745.842 31.5265 746.082C27.9746 748.357 21.2485 748.993 17.6156 747.224C15.2417 746.073 13.6231 737.719 15.4935 735.297C30.7801 715.549 46.966 696.453 62.8462 677.15L63.062 676.944L63.1429 676.867C68.4063 671.83 73.6727 666.732 78.9421 661.575C84.2115 656.417 89.448 651.337 94.6514 646.334L98.7968 642.367C101.429 639.854 104.075 637.355 106.737 634.871C113.499 628.56 120.369 622.36 127.419 616.341C131.915 612.469 143.236 615.783 151.41 615.783C151.599 616.977 151.797 618.162 151.985 619.355L139.621 633.437L139.468 633.609C144.864 629.891 150.052 625.769 155.78 622.558C161.337 619.432 167.47 617.226 173.36 614.615L175.653 617.492C167.722 626.808 159.997 636.253 151.967 645.32C145.889 652.19 144.189 659.179 150.493 668.864C151.086 645.458 170.15 634.399 181.677 618.995C189.77 608.167 200.678 599.246 209.724 588.47C193.538 601.289 177.91 615.414 155.007 614.384C148.91 614.109 142.921 611.808 136.879 610.391L135.53 606.587L226.845 547.41L226.144 562.462L228.05 562.676C229.579 557.086 231.098 551.514 233.095 544.164C234.282 547.856 234.83 549.548 235.226 550.775C249.065 529.936 273.119 524.441 293.972 514.249L247.806 552.75L249.092 554.794L260.898 549.324L278.883 557.859L281.58 557.954C286.562 552.149 291.517 546.328 296.525 540.54C304.223 531.662 311.941 522.79 319.68 513.923L322.836 516.086C310.955 533.419 299.067 550.75 287.173 568.077C248.717 623.757 210.225 679.423 171.696 735.074C167.254 741.454 162.335 747.482 157.92 753.827ZM299.664 630.578L299.394 631.016C299.398 630.978 299.398 630.941 299.394 630.904C286.904 648.42 274.459 665.971 261.87 683.427C258.372 688.278 254.433 692.872 249.101 699.518C247.041 681.607 246.799 666.572 257.275 654.362C275.762 632.819 280.555 606.201 288.459 580.897C291.229 572.053 294.592 567.012 304.33 565.742C309.159 565.106 313.718 562.573 320.921 559.997C313.431 584.7 306.435 607.806 299.43 630.904L299.664 630.578ZM214.04 710.431C207.62 689.644 207.746 689.704 219.777 672.05C237.627 645.904 255.287 619.673 273.11 593.476C276.104 589.071 279.503 584.889 282.713 580.648C275.286 620.197 247.536 671.097 214.013 710.423L214.04 710.431ZM296.193 563.526L317.063 533.474C327.602 545.641 319.15 559.079 296.193 563.526ZM185.787 772.88C182.037 773.301 177.793 769.703 172.559 767.325L172.514 767.393L172.461 767.471L172.227 767.814L172.092 768.012L171.804 768.441L170.977 769.669C160.078 761.701 160.123 758.326 171.597 746.048V752.17C179.25 732.189 188.368 713.394 204.347 698.573L208.555 700.05C206.891 712.612 205.633 725.226 203.43 737.693C201.775 747.044 199.644 756.454 196.236 765.307C194.896 768.759 189.645 772.451 185.787 772.88ZM210.668 771.429L206.505 770.201C215.299 766.209 214.364 762.791 207.404 760.301C206.037 763.521 204.329 767.522 202.629 771.532L199.752 770.828C203.933 753.973 205.767 736.13 212.934 720.52C220.326 704.429 232.915 690.519 245.576 675.725C244.137 685.436 244.209 695.645 240.954 704.764C233.76 724.916 224.984 744.554 216.576 764.285C215.461 766.964 212.691 769.051 210.668 771.429ZM238.544 759.039C236.323 764.053 228.338 766.767 222.951 770.485C222.052 769.454 221.198 768.415 220.326 767.385L232.807 732.181C240.99 741.239 242.195 750.744 238.517 759.039H238.544ZM246.385 760.112C243.346 747.834 238.067 738.715 239.956 731.253C242.86 719.773 249.649 708.68 257.176 699.14C258.974 696.865 270.187 701.364 280.654 703.433L246.385 760.112ZM276.311 696.899C275.511 694.272 274.917 692.348 274.746 691.747L260.521 695.499L263.38 690.76L265.772 686.793L272.462 675.751L274.629 672.153L290.366 646.059L292.605 642.324L299.421 631.041C299.411 631.106 299.393 631.17 299.367 631.23L307.415 626.37L311.479 629.358L276.311 696.899ZM333.429 558.864C327.809 579.943 320.669 600.663 314.15 621.545L309.141 620.377L328.295 535.371C328.007 535.294 328.555 535.294 328.636 535.474C328.835 536.208 329.199 536.891 329.702 537.477C330.205 538.062 330.835 538.536 331.55 538.866C331.79 535.22 332.029 531.571 332.269 527.918L336.765 528.245C335.713 538.437 336.028 549.007 333.402 558.864H333.429ZM365.801 706.198C367.689 717.721 368.4 729.381 369.623 741.025L367.869 741.643C361.359 715.242 354.854 688.839 348.356 662.433L351.629 661.076C353.607 662.596 356.908 663.841 357.348 665.696C360.522 679.117 363.571 692.606 365.783 706.198H365.801ZM390.08 583.155C390.069 583.198 390.051 583.238 390.026 583.275L389.981 583.327C389.899 583.409 389.801 583.476 389.693 583.524L389.567 583.576L389.396 583.636L389.198 583.704L388.929 583.773C388.668 583.842 388.371 583.902 388.029 583.962L387.715 584.013L387.238 584.091L386.744 584.168L385.161 584.408L384.262 584.554C384.585 583.636 384.9 582.717 385.224 581.79C385.674 580.484 386.132 579.165 386.6 577.831C387.499 575.376 388.335 572.843 389.297 570.164C389.639 569.168 389.999 568.154 390.358 567.115C390.361 567.078 390.361 567.041 390.358 567.004L392.103 561.989L392.732 560.186C398.469 570.069 391.159 576.354 390.017 583.155H390.08ZM430.158 615.783C428.935 626.387 428.764 637.103 428.197 646.694C408.621 635.532 419.07 618.617 420.815 602.766C431.794 605.127 431.327 605.084 430.095 615.783H430.158ZM573.205 437.237C559.717 438.646 545.878 437.572 531.841 434.971L597.565 409.666C598.878 418.88 584.274 436.078 573.205 437.237ZM692.117 418.407C689.33 418.407 686.344 417.781 683.79 418.51C675.284 420.949 635.844 422.065 630.458 418.648C627.23 416.596 625.503 412.388 622.905 408.876C639.828 400.659 718.078 404.712 730.649 418.407H692.117Z" fill="#D9CDA6"/>
<path d="M374.739 239.647C374.811 239.947 374.883 240.188 374.964 240.505C374.964 240.119 374.964 239.724 374.964 239.338L374.739 239.647ZM389.36 352.129C389.36 351.553 389.297 350.961 389.252 350.36C389.252 350.042 389.189 349.725 389.154 349.407C380.998 352.919 382.041 347.02 381.87 342.684C380.746 314.065 379.865 285.43 378.471 256.82C378.201 251.359 376.259 245.975 374.964 240.566C374.919 241.922 374.874 243.287 374.838 244.644C374.766 247.1 374.712 249.555 374.64 252.011C374.595 254.123 374.532 256.244 374.451 258.357C374.451 259.172 374.388 259.988 374.352 260.795C374.307 261.774 374.263 262.744 374.209 263.723C374.155 264.702 374.092 265.775 374.02 266.806C374.025 266.886 374.025 266.966 374.02 267.046C373.975 267.724 373.921 268.403 373.867 269.072C373.759 270.429 373.633 271.777 373.489 273.125C373.489 273.331 373.435 273.546 373.399 273.761V273.881C373.404 273.944 373.404 274.007 373.399 274.07C373.363 274.259 373.318 274.447 373.264 274.636C373.238 274.762 373.202 274.885 373.156 275.006C373.046 275.387 372.914 275.763 372.761 276.13C372.761 276.225 372.689 276.319 372.644 276.422L372.455 276.869L372.131 277.539C372.023 277.762 371.907 277.985 371.79 278.2C370.845 279.977 369.668 281.737 368.624 283.506C368.499 283.721 368.373 283.935 368.256 284.15C368.139 284.365 367.977 284.64 367.851 284.88C367.725 285.12 367.68 285.198 367.599 285.352L367.896 285.275C368.193 301.538 367.995 317.835 368.984 334.054C369.551 343.268 365.055 347.38 356.791 349.604C352.295 350.806 347.898 352.223 343.671 353.477C342.558 352.693 341.525 351.811 340.587 350.841C338.681 348.402 336.936 345.844 335.102 343.345C325.948 330.886 300.077 320.617 288.891 325.107C281.212 328.19 273.173 330.757 266.132 334.853C257.868 339.67 254.262 336.57 250.575 329.65C228.662 288.761 213.905 246.301 216.837 199.471C217.071 195.702 212.745 191.666 210.542 187.75C208.537 191.4 204.841 195.023 204.787 198.69C204.266 233.379 210.129 267.003 224.768 298.987L246.565 346.591C241.251 354.035 236.071 359.96 232.528 366.666C229.291 372.813 225.146 374.625 218.312 374.17C206.766 373.406 195.058 372.298 183.611 373.311C149.881 376.274 116.17 379.906 82.593 384.002C74.765 385.133 67.2566 387.762 60.5173 391.729C57.8916 393.232 58.2602 399.517 57.2621 403.63C61.3445 403.828 65.9036 405.236 69.3925 403.965C75.2554 401.818 80.0392 396.529 85.9561 395.069C128.39 384.62 171.525 380.412 215.344 383.658C221.81 384.13 224.336 386.036 224.804 393.412C225.532 405.622 227.169 418.493 232.097 429.595C239.479 446.244 256.861 452.092 273.676 457.553C276.104 458.343 278.352 460.326 280.043 462.267C281.895 464.388 283.001 467.101 285.015 470.535C281.76 472.673 278.334 475.928 274.225 477.465C256.573 484.033 238.679 490.018 220.937 496.355C190.562 507.191 159.62 512.034 126.969 508.324C102.304 505.516 77.5124 507.259 54.1328 516.602C50.8867 517.898 48.4408 521.041 45.6353 523.325L47.4337 526.373C50.7428 525.84 54.2587 525.823 57.3251 524.656C74.8058 518.13 92.5203 516.928 111.341 518.31C137.472 520.208 164.062 521.436 190.031 518.911C218.545 516.146 244.758 503.885 270.844 492.611C277.93 489.546 285.231 485.587 292.641 492.972C293.936 494.268 297.865 493.161 302.712 493.161L291.094 477.405L303.251 472.699L289.404 462.112L294.673 459.442C292.326 455.449 289.044 452.057 288.468 448.279C287.839 444.132 289.691 439.633 290.402 435.632L302.334 440.277L292.443 427.62L304.654 424.778C298.027 409.426 307.748 407.829 321.443 408.593C317.387 405.261 315.193 403.441 312.999 401.638L316.713 401.921C317.69 396.083 318.667 390.241 319.644 384.396L318.349 381.357C328.205 379.205 338.066 377.058 347.933 374.917C348.698 374.754 349.984 375.106 350.244 374.728C358.958 361.926 368.849 373.629 378.12 373.457L377.742 373.191C377.518 373.028 377.284 372.874 377.041 372.71L376.618 372.41C376.457 372.298 376.295 372.169 376.142 372.041C376.048 371.962 375.958 371.879 375.872 371.792C375.746 371.671 375.629 371.542 375.521 371.405C374.883 370.598 374.685 369.482 374.074 367.971C375.393 367.915 376.707 367.765 378.003 367.524L379.001 367.31C379.449 367.211 379.89 367.088 380.323 366.94L380.674 366.829C380.981 366.735 381.281 366.623 381.573 366.494C381.798 366.408 382.023 366.314 382.239 366.21C382.451 366.118 382.658 366.015 382.859 365.901C383.066 365.798 383.264 365.687 383.461 365.566L383.992 365.24C384.208 365.094 384.415 364.948 384.612 364.794C384.81 364.639 385.008 364.485 385.197 364.321L385.647 363.909L385.853 363.703C385.925 363.635 385.988 363.557 386.051 363.489C386.335 363.19 386.599 362.874 386.843 362.544C387.1 362.187 387.337 361.818 387.553 361.436C387.688 361.205 387.814 360.964 387.931 360.724C388.047 360.483 388.155 360.234 388.254 359.985C388.353 359.736 388.452 359.487 388.533 359.23C388.614 358.972 388.713 358.68 388.785 358.371C388.785 358.294 388.785 358.208 388.848 358.122C388.911 357.847 388.974 357.581 389.028 357.263C389.082 356.946 389.136 356.705 389.18 356.405C389.225 356.104 389.225 356.104 389.243 355.95C389.261 355.795 389.288 355.572 389.306 355.383C389.306 355.005 389.369 354.627 389.387 354.241C389.405 353.855 389.387 353.468 389.387 353.073C389.387 352.678 389.36 352.464 389.36 352.137V352.129ZM162.353 378.231L162.246 377.51H218.375C218.375 377.751 218.375 377.991 218.375 378.231H162.353ZM261.995 432.875C261.995 432.875 259.298 432.017 250.306 426.006C234.12 415.703 239.515 392.519 239.515 392.519C242.213 415.703 254.802 413.127 259.298 416.561C263.794 419.996 261.995 432.875 261.995 432.875ZM148.146 517.177L115.1 514.807L115.504 511.939L148.389 513.656C148.272 514.833 148.209 516.043 148.146 517.177ZM389.136 349.089C389.136 349.201 389.136 349.312 389.136 349.415H389.216L389.136 349.089Z" fill="#D9CDA6"/>
<path d="M616.206 466.448L616.574 466.749L613.921 463.366C614.29 462.825 614.668 462.284 615.046 461.743C626.178 467.839 637.859 473.18 648.316 480.178C673.135 496.784 693.142 518.319 712.736 540.137C714.535 542.189 714.84 545.537 715.848 548.276C715.848 549.762 715.848 551.247 715.848 552.724C715.353 553.789 714.849 554.854 714.355 555.91L713.51 555.772L713.213 556.545C713.104 556.383 712.961 556.244 712.793 556.137C712.625 556.031 712.435 555.959 712.236 555.927C712.037 555.895 711.833 555.902 711.637 555.95C711.442 555.997 711.259 556.083 711.1 556.202C702.908 556.313 699.284 558.366 699.41 568.042C699.518 575.461 701.208 585.301 690.022 591.226C685.292 593.716 685.148 604.234 683.044 611.138C680.293 620.145 667.191 630.886 657.165 630.431L663.01 625.7C659.341 620.832 655.717 616.006 652.093 611.181L664.331 610.202C661.571 602.946 672.568 577.376 680.958 574.912L674.385 566.325C674.798 565.896 675.221 565.467 675.635 565.054L683.143 569.133C679.681 560.83 678.386 554.132 683.548 545.778C687.324 539.656 687.909 530.322 686.434 523.127C685.292 517.529 679.753 511.218 674.349 508.341C668 504.958 659.674 504.907 652.093 503.438L660.582 527.944L650.412 524.75C648.685 526.244 644.908 528.184 645.115 529.558C646.653 540.034 638.02 547.727 637.022 557.644C636.753 560.34 628.633 562.307 624.11 564.608L610.127 553.497C609.938 550.655 609.749 547.821 609.515 544.327C609.515 541.416 621.718 548.371 615.252 538.917L616.152 539.098L615.684 538.299L622.032 539.484L628.543 541.553L629.316 539.888L621.862 535.045L615.567 530.752L623.39 497.737L607.105 490.292L618.157 488.026C616.044 484.299 613.921 480.564 610.774 475.034L624.02 476.863L626.115 474.545L616.206 466.448Z" fill="#D9CDA6"/>
<path d="M718.158 694.22C711.81 697.654 703.771 698.238 696.478 700.136L696.2 699.93L696.092 699.844L685.202 691.584L711.468 679.941L706.262 673.492C709.139 673.14 711.999 672.634 714.885 672.496C717.772 672.359 720.469 672.797 726.413 673.175L718.473 668.555C722.385 667.044 727.807 666.606 729.102 664.167C735.648 651.855 740.909 638.932 747.032 626.387C753.156 613.843 737.698 606.235 740.243 594.403C738.085 596.592 737.258 598.851 736.332 601.075C730.756 614.429 725.172 627.775 719.579 641.113C716.603 648.188 711.639 652.911 703.186 653.34C703.348 650.172 703.519 647.012 703.681 643.843L705.21 642.77C710.965 629.59 716 616.084 722.654 603.273C731.71 585.791 725.253 571.185 715.461 556.726L717.34 556.605L715.452 556.125C715.452 556.125 715.065 555.764 715.065 555.747C715.335 554.716 715.596 553.686 715.865 552.664C715.865 551.179 715.865 549.693 715.865 548.208C721.261 552.724 728.868 556.253 731.719 561.946C740.153 578.758 748.435 595.966 753.641 613.843C762.822 645.526 747.842 678.095 718.158 694.22Z" fill="#D9CDA6"/>
<path d="M665.24 695.199H665.842L665.42 695.499L665.24 695.199Z" fill="#D9CDA6"/>
<path d="M696.739 699.792L696.478 700.153L696.2 699.947L696.092 699.861L696.739 699.792Z" fill="#D9CDA6"/>
<path d="M427.847 387.693C415.177 395.155 413.36 394.331 404.809 377.39L391.599 386.388C396.653 372.925 390.529 374.187 384.181 375.784C390.979 371.654 392.885 366.7 392.525 361.367C392.525 361.156 392.507 360.941 392.471 360.724C392.471 360.62 392.471 360.509 392.471 360.397C392.471 360.122 392.408 359.848 392.364 359.539C392.319 359.229 392.265 358.895 392.202 358.568V358.431C392.139 358.122 392.067 357.813 391.995 357.504C391.869 356.931 391.725 356.373 391.563 355.829C391.491 355.58 391.419 355.323 391.338 355.065C391.258 354.807 391.204 354.619 391.132 354.395C391.06 354.172 390.952 353.837 390.853 353.537C390.754 353.236 390.664 352.979 390.565 352.678C390.385 352.163 390.196 351.648 389.999 351.133L389.855 350.746C389.684 350.291 389.504 349.836 389.315 349.372C389.318 349.352 389.318 349.332 389.315 349.312L399.269 351.313L407.147 347.835C413.108 314.348 419.106 280.303 425.338 246.301C425.715 244.249 427.928 242.489 429.276 240.6C429.51 243.012 429.735 245.425 429.969 247.847C427.271 265.466 424.286 283.051 421.876 300.73C420.149 313.369 419.043 326.086 417.91 338.785C417.092 347.998 408.567 359.393 425.455 364.107C426.597 364.424 426.57 368.537 427.091 370.89L437.603 369.361C433.458 374.161 429.231 378.901 425.338 383.881C424.942 384.353 426.929 386.388 427.847 387.693Z" fill="#D9CDA6"/>
<path d="M602.609 685.093C600.811 695.955 591.963 701.287 581.595 697.835C554.942 688.965 529.638 677.614 506.591 661.824C500.782 657.839 494.074 655.04 487.771 651.7C488.472 650.301 489.164 648.892 489.866 647.493L511.033 656.079C511.339 653.503 511.681 650.781 511.717 650.489L541.391 644.891L549.924 653.478C548.782 663.944 535.15 660.656 530.726 669.878C541.382 675.304 547.964 686.664 564.312 681.169C573.439 678.103 585.156 687.179 595.254 678.807C596.522 677.751 600.316 679.469 602.951 679.907L602.609 685.093Z" fill="#D9CDA6"/>
<path d="M598.221 150.082L598.122 150.262C598.122 150.159 598.032 150.056 597.979 149.953L598.221 150.082Z" fill="#D9CDA6"/>
<path d="M624.739 200.424C623.993 239.372 608.751 271.829 577.081 296.102C546.336 319.698 514.243 341.696 482.735 364.39C491.107 356.07 500.998 348.686 507.436 339.163C514.243 329.091 526.401 328.86 534.485 321.759C543.279 314.031 553.368 307.565 562.046 299.709C576.493 286.629 590.539 273.151 604.183 259.275C608.005 255.394 609.767 249.659 613.175 243.562L599.615 240.42C604.363 239.338 610.927 239.647 613.697 236.693C616.205 234.014 614.452 227.789 614.866 223.152C614.973 221.847 616.25 220.679 616.709 219.366C622.743 202.133 620.639 185.595 610.846 170.234C606.161 162.884 598.994 160.257 590.335 164.954L598.122 150.262C599.66 153.577 600.379 157.99 603.041 159.767C617.959 169.771 625.072 182.736 624.739 200.424Z" fill="#D9CDA6"/>
<path d="M525.466 21.6807C520.187 29.6574 514.432 37.3938 509.783 45.7226C505.512 53.3302 502.446 61.5474 498.498 70.2798C497.284 71.396 493.616 73.2678 492.465 76.0842C476.279 115.41 459.895 154.658 444.869 194.379C438.314 211.698 434.789 230.056 429.888 247.95C429.654 245.528 429.43 243.116 429.196 240.703C429.502 235.156 428.926 229.42 430.23 224.105C446.245 158.505 473.482 97.1295 507.158 38.2181C510.134 33.0061 514.738 28.6442 518.578 23.8874L525.466 21.6807Z" fill="#D9CDA6"/>
<path d="M754.316 334.011C728.122 333.093 701.775 333.968 675.581 335.548C650.565 337.051 625.665 340.297 600.73 342.941C596.234 343.413 591.873 344.701 587.449 345.62C594.603 347.125 601.948 347.634 609.255 347.131C629.811 345.689 650.349 343.886 670.887 342.22C672.076 342.011 673.277 341.871 674.484 341.799C677.919 341.911 681.363 342.031 684.798 342.16C684.663 340.889 684.528 339.584 684.384 338.339C698.772 331.47 713.204 337.034 727.609 339.687L688.098 342.263C698.7 342.666 709.31 343.121 719.921 343.225C741.961 343.499 763.983 343.362 786.04 343.396C775.448 340.022 764.981 334.372 754.316 334.011ZM786.004 343.456L786.535 343.628C786.532 343.614 786.532 343.599 786.535 343.585L786.643 343.491L786.004 343.456ZM684.762 342.194C684.762 342.306 684.762 342.426 684.762 342.538L688.026 342.323L684.762 342.194Z" fill="#D9CDA6"/>
<path d="M612.663 893.734C606.638 894.163 601.198 895.116 598.923 886.865C598.23 884.289 590.11 883.825 585.542 882.039C576.55 878.502 565.013 876.939 559.087 870.654C539.404 849.797 521.716 827.241 503.39 805.234C502.266 803.894 502.257 801.705 501.727 799.91L542.344 847.736L545.437 845.461L540.429 837.364C543.918 839.184 548.8 840.163 550.671 842.971C564.159 863.106 584.841 874.2 606.044 884.83C608.526 886.075 610.208 888.771 612.258 890.84C612.42 891.776 612.537 892.755 612.663 893.734Z" fill="#D9CDA6"/>
<path d="M597.979 149.953C598.059 149.833 598.131 149.721 598.221 149.601C598.23 149.761 598.23 149.922 598.221 150.082L597.979 149.953Z" fill="#D9CDA6"/>
<path d="M602.852 142.423C601.809 144.999 599.822 147.231 598.221 149.601C598.221 149.421 598.221 149.24 598.221 149.06L598.167 148.038C598.167 147.738 598.167 147.437 598.167 147.18C598.167 147.051 598.167 146.922 598.167 146.793C598.158 146.705 598.158 146.616 598.167 146.527C598.21 146.217 598.285 145.912 598.392 145.617C613.13 107.21 607.591 70.0565 590.848 33.6158C584.697 20.2467 575.228 9.196 560.067 4.84269C555.068 3.40017 547.946 4.04415 543.513 6.55997C536.742 10.3036 531.436 16.4859 525.466 21.6806L518.56 23.8873C525.987 16.5975 532.542 8.07118 541.193 2.4986C545.977 -0.592511 554.879 -0.575338 560.859 1.24498C576.496 5.99327 586.333 17.645 593.527 31.2974C612.366 67.1285 618.39 103.981 602.852 142.423Z" fill="#D9CDA6"/>
<path d="M478.248 731.837C478.329 732.163 478.401 732.498 478.482 732.824L477.987 732.034L478.248 731.837Z" fill="#D9CDA6"/>
<path d="M523.343 806.753L502.742 789.838L502.661 789.95L500.989 798.364L470.829 763.495L473.392 761.434L484.758 774.743L488.175 773.799C484.944 760.135 481.713 746.477 478.481 732.824C486.718 746.03 495.063 759.193 503.156 772.485C510.053 783.819 516.653 795.325 523.343 806.753Z" fill="#D9CDA6"/>
<path d="M367.518 285.369C367.41 283.446 367.293 281.522 367.186 279.599C367.374 281.368 367.563 283.128 367.77 284.897C367.77 285.026 367.77 285.163 367.815 285.292L367.518 285.369Z" fill="#D9CDA6"/>
<path d="M374.568 239.2C372.347 238.531 369.937 237.243 368.121 237.784C366.664 238.221 365.181 241.355 365.253 243.236C365.72 255.36 366.475 267.484 367.186 279.599C366.071 269.115 365.145 258.597 363.337 248.233C361.269 236.418 358.203 224.749 355.082 213.141C351.486 199.686 346.927 186.454 343.537 172.948C341.324 164.138 340.164 155.053 339.13 146.029C338.726 142.517 339.967 138.825 341.828 135.348C346.246 153.534 350.664 171.717 355.082 189.897C353.482 191.048 350.317 192.748 350.514 193.272C354.417 203.481 358.706 213.544 362.915 223.65L364.938 222.792L361.916 205.215C366.143 216.538 370.36 227.866 374.568 239.2Z" fill="#D9CDA6"/>
<path d="M374.973 239.32L374.712 239.647C374.658 239.501 374.604 239.346 374.542 239.2L374.973 239.32Z" fill="#D9CDA6"/>
<path d="M610.136 553.454L624.119 564.565C624.721 566.961 626.088 571.374 625.827 571.434C617.123 574.414 619.74 583.592 615.226 588.384C613.427 590.255 608.418 589.328 604.876 589.68L590.56 580.57C592.332 568.42 598.078 558.864 610.136 553.454Z" fill="#D9CDA6"/>
<path d="M549.906 653.511L541.373 644.925L536.607 638.133H552.946L545.842 632.123C554.178 636.416 557.532 633.342 559.78 627.366L576.865 612.683C585.794 620.626 586.585 625.116 576.083 635.008C568.439 642.263 558.701 647.415 549.906 653.511Z" fill="#D9CDA6"/>
<path d="M852.771 447.962L852.187 447.859L852.303 447.79L852.519 447.661L852.771 447.962Z" fill="#D9CDA6"/>
<path d="M702.009 662.21C699.878 665.833 695.202 668.435 694.033 672.161C689.716 685.9 676.885 689.446 665.842 695.233L665.42 695.499H652.138L694.105 658.243C694.051 658.148 693.035 656.654 691.506 654.405L701.325 655.452C701.622 657.719 702.971 660.587 702.009 662.21Z" fill="#D9CDA6"/>
<path d="M696.739 699.792L696.2 699.947C687.297 702.42 678.449 705.099 669.484 707.306C647.363 712.827 625.917 707.58 604.39 702.566H637.328V695.989C646.941 701.999 655.699 698.565 664.448 695.491L665.24 695.216H665.842L672.208 695.671L664.736 700.436C664.88 701.295 665.033 702.154 665.177 703.012L696.092 699.87L696.739 699.792Z" fill="#D9CDA6"/>
<path d="M478.005 628.895L463.618 606.819L476.458 607.806C475.694 605.771 474.408 602.354 472.637 597.614C486.521 604.81 492.069 613.379 487.663 620.488C485.577 623.923 481.305 626.13 478.005 628.895Z" fill="#D9CDA6"/>
<path d="M602.609 685.092L602.933 679.941C602.843 671.088 607.366 666.331 616.556 664.7C620.8 663.944 624.649 661.317 628.821 659.934C631.034 659.204 633.551 659.333 635.925 659.076L637.193 661.755C630.206 666.855 620.899 670.693 616.898 677.408C612.896 684.122 610.765 687.986 602.609 685.092Z" fill="#D9CDA6"/>
<path d="M384.109 584.923C383.974 585.215 383.83 585.499 383.695 585.782C383.695 585.378 383.776 584.975 383.821 584.571L384.109 584.923Z" fill="#D9CDA6"/>
<path d="M538.909 537.569L552.209 549.47C551.183 556.451 548.027 561.328 539.673 561.122L531.014 554.089L535.942 552.647C533.82 547.555 531.724 542.532 528.748 535.474L538.909 537.569Z" fill="#D9CDA6"/>
<path d="M852.771 447.962L852.187 447.859C846.953 446.923 841.486 446.579 836.567 444.819C814.653 436.963 792.901 428.703 771.149 420.442C769.926 419.97 769.252 418.167 768.326 417.008L852.303 447.816L852.771 447.962Z" fill="#D9CDA6"/>
<path d="M531.014 554.09L539.673 561.122C538.648 565.269 537.632 569.408 536.364 574.586L523.649 569.168L521.401 565.544C521.177 561.036 520.961 556.52 520.664 550.449L531.014 554.09Z" fill="#D9CDA6"/>
<path d="M478.545 590.47L508.66 599.331C496.206 613.868 488.85 612.031 478.545 590.47Z" fill="#D9CDA6"/>
<path d="M475.397 527.077L484.075 517.125L496.898 522.492C494.416 526.69 492.662 529.678 490.837 532.795L475.397 527.077Z" fill="#D9CDA6"/>
<path d="M568.979 597.898C586.54 597.563 592.061 601.427 595.541 616.728L568.979 597.898Z" fill="#D9CDA6"/>
<path d="M377.77 373.234L378.147 373.5H378.093L377.77 373.234Z" fill="#D9CDA6"/>
<path d="M389.118 349.089L389.235 349.381H389.154C389.145 349.312 389.127 349.2 389.118 349.089Z" fill="#D9CDA6"/>
<path d="M787.002 343.457L786.544 343.603C786.541 343.588 786.541 343.574 786.544 343.56L786.652 343.465H786.697L787.002 343.457Z" fill="#D9CDA6"/>
<path d="M590.56 580.604L604.875 589.715V598.138L581.595 583.017L590.56 580.604Z" fill="#D9CDA6"/>
<path d="M393.119 501.283V522.329C381.456 508.968 381.267 505.422 393.119 501.283Z" fill="#D9CDA6"/>
<path d="M494.802 502.726L497.68 504.786L499.703 512.111L494.811 509.912L492.303 507.525L491.152 505.945L490.145 507.611C491.7 505.988 493.247 504.357 494.802 502.726Z" fill="#D9CDA6"/>
<path d="M521.401 565.544L523.649 569.168L515.853 565.639C516.006 565.158 516.15 564.677 516.303 564.188L521.401 565.544Z" fill="#D9CDA6"/>
<path d="M621.916 535.002L629.37 539.845L628.597 541.51L622.086 539.441C622.023 537.956 621.969 536.479 621.916 535.002Z" fill="#D9CDA6"/>
<path d="M494.812 509.913L499.703 512.111L499.811 511.845C499.497 512.051 498.912 512.317 498.912 512.454C499.085 513.046 499.317 513.621 499.604 514.172L492.411 514.326C492.474 513.536 492.528 512.755 492.591 511.965L492.366 512.222L495.063 509.646L494.812 509.913Z" fill="#D9CDA6"/>
<path d="M615.261 538.874C615.261 538.874 615.801 538.273 615.774 538.265C615.747 538.256 616.205 539.055 616.205 539.055L615.261 538.874Z" fill="#D9CDA6"/>
<path d="M492.59 511.939C492.527 512.729 492.473 513.51 492.41 514.3L488.562 514.025L487.618 511.896L492.59 511.939Z" fill="#D9CDA6"/>
<path d="M487.618 511.896L488.562 514.025L485.19 514.326C485.244 513.545 485.289 512.755 485.343 511.973L485.145 512.154H487.843L487.618 511.896Z" fill="#D9CDA6"/>
<path d="M499.613 514.146C499.326 513.596 499.094 513.02 498.921 512.428C498.921 512.291 499.496 512.025 499.82 511.819C499.748 512.609 499.676 513.382 499.613 514.146Z" fill="#D9CDA6"/>
<path d="M715.839 552.725C715.578 553.755 715.308 554.785 715.038 555.816L714.337 555.91C714.876 554.854 715.344 553.824 715.839 552.725Z" fill="#D9CDA6"/>
<path d="M711.091 556.202C711.25 556.083 711.433 555.997 711.629 555.95C711.824 555.902 712.028 555.894 712.227 555.927C712.426 555.959 712.616 556.031 712.784 556.137C712.952 556.244 713.095 556.383 713.204 556.545C712.48 556.613 711.75 556.494 711.091 556.202Z" fill="#D9CDA6"/>
<path d="M715.434 556.185L717.313 556.674L715.434 556.794V556.185Z" fill="#D9CDA6"/>
<path d="M95.1641 760.121C95.6127 760.15 96.0634 760.121 96.5039 760.035C96.0629 760.117 95.6127 760.146 95.1641 760.121ZM139.45 633.608L139.828 633.256C139.675 633.411 139.567 633.514 139.45 633.608Z" fill="#D9CDA6"/>
<path d="M299.439 630.904C299.443 630.941 299.443 630.978 299.439 631.015C299.429 631.08 299.411 631.144 299.385 631.204L299.717 630.543L299.439 630.904Z" fill="#D9CDA6"/>
<path d="M62.99 677.038L62.7742 677.245L62.5674 676.91L62.99 677.038Z" fill="#D9CDA6"/>
<path d="M63.0709 676.961L62.99 677.038L62.7742 677.245L62.5674 676.91L63.0709 676.961Z" fill="#D9CDA6"/>
<path d="M78.0609 675.802C73.962 676.956 69.6829 677.415 65.418 677.158C69.6828 677.411 73.9611 676.952 78.0609 675.802Z" fill="#D9CDA6"/>
<path d="M139.792 633.299L139.378 633.677L139.531 633.505L139.792 633.299Z" fill="#D9CDA6"/>
<path d="M90.3445 756.935C90.1376 755.93 89.9578 754.934 89.8589 753.964C89.8589 753.964 89.8589 754.024 89.8589 754.05C89.9938 755.02 90.1646 755.973 90.3445 756.935Z" fill="#D9CDA6"/>
<path d="M299.664 630.577L299.331 631.238C299.357 631.178 299.375 631.114 299.385 631.049L299.664 630.577Z" fill="#D9CDA6"/>
<path d="M12.1213 746.228L20.9606 769.969L16.8602 771.386C9.75636 764.963 1.9242 758.807 7.40941 747.704L12.1213 746.228Z" fill="#D9CDA6"/>
<path d="M281.536 557.953C273.443 568.051 265.646 578.329 257.257 588.186C252.203 594.342 245.949 599.506 238.841 603.393L278.82 557.885L281.536 557.953Z" fill="#D9CDA6"/>
<path d="M383.821 584.64L384.235 584.554C384.235 584.674 384.154 584.803 384.109 584.923L383.821 584.64Z" fill="#D9CDA6"/>
<path d="M492.59 511.939L487.618 511.896L487.825 512.136L485.127 509.56L485.352 509.835L482.879 507.457C484.911 501.446 486.889 495.23 494.812 502.726C493.256 504.357 491.709 505.988 490.154 507.611L489.911 507.336L492.608 509.912L492.366 509.646C492.366 510.505 492.366 511.364 492.366 512.222L492.59 511.939Z" fill="#D9CDA6"/>
<path d="M482.879 507.457L485.397 509.861L482.771 509.372L482.879 507.457Z" fill="#D9CDA6"/>
<path d="M482.762 509.372L485.387 509.861L485.163 509.586C485.163 510.445 485.163 511.304 485.163 512.162L485.36 511.982L482.762 509.372Z" fill="#D9CDA6"/>
<path d="M367.186 279.599C367.374 281.368 367.563 283.128 367.77 284.897C367.68 285.051 367.599 285.215 367.518 285.369C367.41 283.446 367.293 281.522 367.186 279.599Z" fill="#D9CDA6"/>
<path d="M374.973 239.32C374.973 239.707 374.973 240.102 374.973 240.488C374.892 240.188 374.82 239.947 374.748 239.63C374.694 239.484 374.64 239.329 374.577 239.183L374.973 239.32Z" fill="#D9CDA6"/>
<path d="M162.246 377.51H218.375V378.232H162.354L162.246 377.51Z" fill="#D9CDA6"/>
<path d="M115.459 511.939L148.344 513.656C148.281 514.833 148.209 516 148.146 517.177L115.1 514.807L115.459 511.939Z" fill="#D9CDA6"/>
<path d="M597.979 149.953C598.032 150.056 598.077 150.159 598.122 150.262L598.221 150.082C598.23 149.922 598.23 149.761 598.221 149.601C598.131 149.721 598.059 149.833 597.979 149.953Z" fill="#D9CDA6"/>
<path d="M561.65 230.287C558.952 234.383 555.985 238.977 552.999 243.57L551.866 243.15C553.035 240.067 554.204 236.993 555.418 233.816C547.604 229.626 542.577 231.996 538.432 238.573C536.463 241.707 533.325 244.171 530.717 246.945L550.212 218.189C549.51 220.336 548.818 222.482 547.739 225.822L561.65 230.287Z" fill="#D9CDA6"/>
<path d="M688.062 342.28L684.798 342.495C684.798 342.383 684.798 342.263 684.798 342.151L688.062 342.28Z" fill="#D9CDA6"/>
<path d="M490.145 507.612L491.152 505.946L492.303 507.526L492.626 507.302H489.929L490.145 507.612Z" fill="#D9CDA6"/>
<path d="M492.303 507.526L494.812 509.913L495.072 509.621H492.375L492.617 509.887L492.671 507.311L492.303 507.526Z" fill="#D9CDA6"/>
<path d="M492.33 509.621H495.027L492.33 512.197C492.357 511.338 492.339 510.479 492.33 509.621Z" fill="#D9CDA6"/>
<path d="M485.145 512.154C485.145 511.295 485.145 510.436 485.145 509.578L487.843 512.154H485.145Z" fill="#D9CDA6"/>
<path d="M139.792 633.299C139.675 633.411 139.567 633.514 139.45 633.608C133.156 639.447 126.969 645.44 120.432 651.039C113.895 656.637 107.007 661.806 100.263 667.078C76.6221 685.488 71.1639 702.609 80.0302 730.961C81.8286 736.723 83.8428 742.415 85.7672 748.134L74.0774 742.982L51.8218 757.321C52.8829 755.724 53.5393 753.415 55.059 752.633C78.9241 740.372 75.8398 719.739 73.394 698.539C68.2145 704.858 63.1339 711.058 58.1073 717.197L52.712 723.783V723.834L46.4175 731.468L45.9409 732.052C50.1732 725.326 54.4235 718.611 58.6918 711.908C62.9601 705.205 67.2194 698.479 71.4696 691.73L77.9979 681.426L62.99 677.038L62.5674 676.91L63.071 676.961L64.2489 677.073L65.4179 677.159C67.9608 677.303 70.5125 677.202 73.0343 676.858C73.9335 676.738 74.7428 676.583 75.5701 676.412C76.3973 676.24 77.2426 676.034 78.0609 675.802L78.5914 675.648C79.095 675.502 79.5985 675.347 80.0931 675.175C80.8425 674.918 81.5798 674.631 82.3052 674.317C82.9526 674.05 83.5821 673.776 84.2205 673.458C84.7421 673.218 85.2636 672.96 85.7762 672.694C86.6304 672.264 87.4847 671.835 88.3209 671.303L89.8046 670.444C90.4161 670.058 91.0186 669.663 91.6031 669.251C94.0785 667.54 96.4503 665.697 98.7069 663.73C101.108 661.66 103.572 659.642 106.071 657.719C107.726 656.425 109.396 655.146 111.08 653.881C116.206 650.034 121.457 646.333 126.726 642.624L131.285 639.421C134.064 637.447 136.834 635.472 139.576 633.471L139.792 633.299Z" fill="#D9CDA6"/>
<path d="M164.296 673.029C164.134 674.841 163.963 676.652 163.801 678.464C163.748 676.64 163.914 674.817 164.296 673.029Z" fill="#D9CDA6"/>
<path d="M175.347 685.685C169.718 706.49 164.341 726.325 158.973 746.168L157.723 745.936L163.846 678.464C164.062 684.019 167.434 686.707 175.347 685.685Z" fill="#D9CDA6"/>
<path d="M156.014 676.343L110.604 711.255C109.893 710.397 109.174 709.538 108.463 708.679L153.721 673.552L156.014 676.343Z" fill="#D9CDA6"/>
<path d="M305.536 570.524C304.762 579.494 303.995 588.467 303.234 597.442L301.174 597.803C299.061 591.346 296.957 584.923 294.574 577.625L302.119 569.511L305.536 570.524Z" fill="#D9CDA6"/>
<path d="M229.813 666.829L220.893 693.301C215.093 688.544 210.641 684.938 220.973 679.837C224.57 678.051 225.227 670.796 227.268 666.039L229.813 666.829Z" fill="#D9CDA6"/>
<path d="M492.627 507.302L492.573 509.878L489.875 507.302H492.627Z" fill="#D9CDA6"/>
<path d="M505.503 241.046C496.115 254.879 487.456 267.664 478.23 281.265C471.765 274.224 458.384 283.197 451.568 270.876C460.471 273.022 466.936 276.294 472.7 275.409C476.98 274.748 480.793 268.978 484.057 264.977C490.423 257.249 496.304 249.203 502.419 241.304C502.536 241.158 502.994 241.278 505.503 241.046Z" fill="#D9CDA6"/>
<path d="M475.73 222.302C471.234 206.683 467.412 193.366 463.681 180.392L470.757 181.851C466.01 194.748 481.674 206.314 475.73 222.302Z" fill="#D9CDA6"/>
<path d="M564.77 147.223L552.541 181.74L548.71 181.19C552.631 169.427 556.555 157.669 560.481 145.917L564.77 147.223Z" fill="#D9CDA6"/>
<path d="M451.802 289.018C447.006 300.009 442.192 311.005 437.36 322.007L434.852 321.484L447.881 287.645L451.802 289.018Z" fill="#D9CDA6"/>
<path d="M593.23 159.501L429.25 387.367H433.746L597.403 159.828L607.735 127.92L593.23 159.501Z" fill="#D9CDA6"/>
<path d="M411.265 357.315L423.854 329.838L419.358 345.294C419.358 345.294 413.963 354.739 413.963 360.749C413.064 360.749 411.265 357.315 411.265 357.315Z" fill="#D9CDA6"/>
<path d="M417.56 366.76L427.451 355.598C427.451 355.598 435.544 349.587 440.04 336.708C440.04 343.577 434.645 357.315 429.249 363.325C423.854 369.336 422.056 373.629 422.056 373.629L417.56 366.76Z" fill="#D9CDA6"/>
<path d="M451.73 360.75L483.203 336.708L542.551 270.592V246.55C542.551 246.55 549.744 270.592 546.148 276.603C542.551 282.613 493.993 332.414 492.195 336.708C490.396 341.001 483.203 349.587 483.203 349.587L447.234 366.76L451.73 360.75Z" fill="#D9CDA6"/>
<path d="M498.489 64.518C498.489 64.518 493.094 107.45 496.691 120.33C500.288 133.209 502.086 164.979 491.295 180.435C502.086 168.414 502.086 142.654 502.086 134.927C502.086 127.199 498.489 112.602 498.489 112.602C498.489 112.602 501.187 62.8008 502.086 54.2144L498.489 64.518Z" fill="#D9CDA6"/>
<path d="M510.179 128.058L518.272 74.8219C518.272 74.8219 520.97 49.9213 530.861 31.8899C540.753 13.8584 548.845 8.70654 548.845 8.70654C540.424 20.4262 534.328 33.523 530.861 47.3454C525.466 69.6701 521.869 87.7015 521.869 87.7015L510.179 128.058Z" fill="#D9CDA6"/>
<path d="M587.512 241.398L567.729 261.147L552.442 295.493L587.512 241.398Z" fill="#D9CDA6"/>
<path d="M467.916 225.943C467.916 225.943 460.722 235.388 451.73 241.398C442.738 247.409 435.544 259.43 432.846 269.734C430.149 280.037 426.552 306.655 426.552 306.655L433.745 273.168C433.745 273.168 441.838 250.843 456.226 241.398C466.117 232.812 467.916 225.943 467.916 225.943Z" fill="#D9CDA6"/>
<path d="M437.343 360.749C437.343 360.749 450.831 346.152 451.73 325.545C454.428 336.707 448.133 353.021 437.343 360.749Z" fill="#D9CDA6"/>
<path d="M476.908 249.985L505.683 212.205L518.272 164.121L510.179 213.922L476.908 249.985Z" fill="#D9CDA6"/>
<path d="M591.108 182.152C591.108 182.152 571.326 202.759 570.427 207.052C569.527 211.346 570.427 229.377 570.427 229.377C570.427 229.377 570.427 212.204 574.923 207.052C579.419 201.901 591.108 182.152 591.108 182.152Z" fill="#D9CDA6"/>
<path d="M536.256 102.298L525.466 140.937V183.869L530.861 134.927L536.256 102.298Z" fill="#D9CDA6"/>
<path d="M570.031 8.70654C570.031 8.70654 579.419 29.3139 580.318 41.3349C581.217 53.3559 572.225 79.1151 572.225 79.1151L583.915 47.3454C580.713 34.0381 576.059 21.0878 570.031 8.70654Z" fill="#D9CDA6"/>
<path d="M600.379 58.2588C600.379 58.2588 596.504 86.843 580.318 104.874C573.124 113.461 565.031 132.351 565.031 132.351L587.512 105.733L602.573 66.1154L600.379 58.2588Z" fill="#D9CDA6"/>
<path d="M607.294 180.435L603.698 207.911L578.52 231.094L607.294 208.77V180.435Z" fill="#D9CDA6"/>
<path d="M542.551 299.786L515.574 320.394L542.551 304.938V299.786Z" fill="#D9CDA6"/>
<path d="M459.823 334.132C460.722 332.414 489.497 293.775 489.497 293.775L476.908 299.786L459.823 334.132Z" fill="#D9CDA6"/>
<path d="M547.047 249.985H556.938L567.729 233.67L557.837 252.561C557.837 252.561 548.845 251.702 547.047 249.985Z" fill="#D9CDA6"/>
<path d="M561.435 143.513L568.628 131.492L565.031 143.513H561.435Z" fill="#D9CDA6"/>
<path d="M302.46 462.069L310.553 474.09L299.763 478.383L315.949 474.09L302.46 462.069Z" fill="#D9CDA6"/>
<path d="M346.522 377.922H352.816L359.111 373.629L354.615 380.498L346.522 377.922Z" fill="#D9CDA6"/>
</svg>
