<svg width="759" height="729" viewBox="0 0 759 729" fill="none" xmlns="http://www.w3.org/2000/svg">
<g opacity="0.4">
<path d="M351.156 390.242L283.754 641.79C463.268 689.891 645.174 586.659 691.44 413.994L758.833 162.478C580.21 114.616 397.693 216.564 351.156 390.242ZM651.007 403.193C614.075 541.024 477.833 627.058 335.751 609.432L391.572 401.105C428.496 263.305 564.746 177.24 706.82 194.897L651.007 403.193Z" fill="url(#paint0_linear_570_156)"/>
<path d="M152.148 1.06901L98.2771 202.117C36.8836 431.24 286.984 468.163 286.984 468.163L340.855 267.115C402.216 38.1144 152.148 1.06901 152.148 1.06901ZM257.211 417.582C211.266 402.407 100.033 357.26 138.693 212.979L181.897 51.7416C227.749 66.892 339 112.34 300.422 256.314L257.211 417.582Z" fill="url(#paint1_linear_570_156)"/>
</g>
<defs>
<linearGradient id="paint0_linear_570_156" x1="521.438" y1="54.2685" x2="783.78" y2="1323.97" gradientUnits="userSpaceOnUse">
<stop stop-color="#D9CDA6" stop-opacity="0.2"/>
<stop offset="1" stop-color="#D9CDA6"/>
</linearGradient>
<linearGradient id="paint1_linear_570_156" x1="216.563" y1="-14.6805" x2="388.021" y2="904.338" gradientUnits="userSpaceOnUse">
<stop stop-color="#D9CDA6" stop-opacity="0.2"/>
<stop offset="1" stop-color="#D9CDA6"/>
</linearGradient>
</defs>
</svg>
