<svg width="889" height="855" viewBox="0 0 889 855" fill="none" xmlns="http://www.w3.org/2000/svg">
<path d="M410.889 457.655L331.845 752.65C542.365 809.058 755.69 687.996 809.946 485.509L888.98 190.55C679.505 134.421 465.464 253.979 410.889 457.655ZM762.53 472.843C719.22 634.479 559.445 735.373 392.823 714.704L458.286 470.393C501.587 308.793 661.371 207.863 827.983 228.569L762.53 472.843Z" fill="#D9CDA6"/>
<path d="M177.508 1.26224L114.333 237.035C42.336 505.733 335.634 549.033 335.634 549.033L398.81 313.26C470.768 44.7062 177.508 1.26224 177.508 1.26224ZM300.718 489.716C246.838 471.92 116.393 418.975 161.73 249.774L212.396 60.6871C266.168 78.4542 396.634 131.752 351.393 300.594L300.718 489.716Z" fill="#D9CDA6"/>
</svg>
