<svg width="842" height="842" viewBox="0 0 842 842" fill="none" xmlns="http://www.w3.org/2000/svg">
<path d="M404.627 450.679L326.788 741.178C534.1 796.727 744.173 677.51 797.603 478.109L875.432 187.645C669.149 132.372 458.37 250.107 404.627 450.679ZM750.909 465.636C708.259 624.809 550.919 724.165 386.837 703.81L451.302 463.223C493.942 304.086 651.292 204.694 815.365 225.084L750.909 465.636Z" fill="#D9CDA6"/>
<path d="M174.803 1.243L112.59 233.422C41.6903 498.025 330.519 540.665 330.519 540.665L392.731 308.486C463.593 44.0248 174.803 1.243 174.803 1.243ZM296.134 482.252C243.076 464.728 114.619 412.59 159.265 245.967L209.158 59.7622C262.111 77.2585 390.589 129.744 346.037 296.012L296.134 482.252Z" fill="#D9CDA6"/>
</svg>
