<svg xmlns="http://www.w3.org/2000/svg" viewBox="0 0 88.56 88.58"><defs><style>.cls-1{font-size:10.8px;fill:#fff;font-family:Lato-Bold, Lato;font-weight:700;}</style></defs><title>change_lang_circl-text_1</title><g id="Layer_2" data-name="Layer 2"><g id="change_language_circle-text"><text class="cls-1" transform="translate(34.08 10.61) rotate(-10.89)">C</text><text class="cls-1" transform="translate(40.83 9.23) rotate(1)">H</text><text class="cls-1" transform="matrix(0.97, 0.23, -0.23, 0.97, 48.65, 9.35)">A</text><text class="cls-1" transform="translate(55.79 10.98) rotate(25.73)">N</text><text class="cls-1" transform="translate(62.83 14.35) rotate(38.16)">G</text><text class="cls-1" transform="translate(68.68 19) rotate(48.97)">E</text><text class="cls-1" transform="matrix(0.57, 0.82, -0.82, 0.57, 72.53, 23.59)"> </text><text class="cls-1" transform="translate(73.69 25.09) rotate(61.36)">L</text><text class="cls-1" transform="matrix(0.31, 0.95, -0.95, 0.31, 76.34, 29.69)">A</text><text class="cls-1" transform="translate(78.69 36.6) rotate(84.11)">N</text><text class="cls-1" transform="translate(79.51 44.38) rotate(96.43)">G</text><text class="cls-1" transform="matrix(-0.32, 0.95, -0.95, -0.32, 78.71, 51.8)">U</text><text class="cls-1" transform="matrix(-0.51, 0.86, -0.86, -0.51, 76.45, 58.66)">A</text><text class="cls-1" transform="translate(72.93 64.79) rotate(131.97)">G</text><text class="cls-1" transform="matrix(-0.8, 0.6, -0.6, -0.8, 67.91, 70.32)">E</text><text class="cls-1" transform="matrix(-0.86, 0.51, -0.51, -0.86, 63.06, 73.86)"> </text><text class="cls-1" transform="translate(61.5 74.94) rotate(155.76)">•</text><text class="cls-1" transform="matrix(-0.95, 0.3, -0.3, -0.95, 55.95, 77.33)"> </text><text class="cls-1" transform="matrix(-0.98, 0.18, -0.18, -0.98, 54.21, 78.07)">C</text><text class="cls-1" transform="translate(47.44 79.39) rotate(-178.5)">H</text><text class="cls-1" transform="translate(39.63 79.2) rotate(-166.2)">A</text><text class="cls-1" transform="translate(32.52 77.52) rotate(-153.79)">N</text><text class="cls-1" transform="matrix(-0.78, -0.62, 0.62, -0.78, 25.51, 74.09)">G</text><text class="cls-1" transform="matrix(-0.65, -0.76, 0.76, -0.65, 19.68, 69.37)">E</text><text class="cls-1" transform="translate(15.88 64.77) rotate(-124.13)"> </text><text class="cls-1" transform="translate(14.73 63.26) rotate(-118.17)">L</text><text class="cls-1" transform="translate(12.13 58.64) rotate(-107.76)">A</text><text class="cls-1" transform="translate(9.83 51.69) rotate(-95.39)">N</text><text class="cls-1" transform="translate(9.08 43.93) rotate(-83.11)">G</text><text class="cls-1" transform="translate(9.93 36.53) rotate(-70.86)">U</text><text class="cls-1" transform="matrix(0.51, -0.86, 0.86, 0.51, 12.26, 29.67)">A</text><text class="cls-1" transform="matrix(0.67, -0.74, 0.74, 0.67, 15.82, 23.57)">G</text><text class="cls-1" transform="translate(20.91 18.07) rotate(-36.7)">E</text><text class="cls-1" transform="matrix(0.86, -0.5, 0.5, 0.86, 25.76, 14.58)"> </text><text class="cls-1" transform="translate(27.34 13.51) rotate(-23.76)">•</text><text class="cls-1" transform="translate(32.91 11.17) rotate(-17.23)"> </text></g></g></svg>