<svg width="42" height="52" viewBox="0 0 42 52" fill="none" xmlns="http://www.w3.org/2000/svg">
<path d="M16.5204 1.89888C20.0575 -0.682109 22.5145 -0.338686 25.4222 3.08493C29.131 1.56961 30.9084 2.02279 33.4191 5.04987C34.2596 4.7808 35.075 4.39135 35.9226 4.26743C36.6656 4.17105 37.4209 4.23121 38.1388 4.44396C38.8567 4.65672 39.5211 5.01727 40.0884 5.50198C40.6557 5.9867 41.1131 6.58463 41.4307 7.25658C41.7482 7.92853 41.9187 8.65933 41.931 9.40108C42.1635 16.7015 41.9096 23.9382 39.5741 30.9978C38.281 35.0465 37.7192 39.2892 37.9147 43.531C37.9862 45.6021 37.9147 47.6804 37.9147 49.7551C37.9147 50.757 37.4676 51.366 36.4162 51.3766C34.4992 51.3979 32.5822 51.3766 30.6652 51.3766C29.8355 51.3766 29.2847 50.9518 29.2669 50.1021C29.2454 49.1815 29.8141 48.7461 30.6974 48.7354C32.1602 48.7354 33.6194 48.7354 35.4147 48.7354C34.2846 39.6754 36.4591 31.1394 39.0627 22.352C35.7331 23.2655 33.3869 22.5043 31.9456 20.2278L26.4164 20.8438L21.9924 25.1773C23.7284 27.4216 24.9202 30.0308 25.4758 32.8034C25.6715 33.976 25.8064 35.1577 25.88 36.3439C25.9587 37.2679 25.5652 37.9548 24.5638 37.9654C23.5624 37.976 23.2227 37.2998 23.2012 36.3722C23.1674 32.7658 21.8791 29.281 19.5533 26.505C19.1309 26.0415 18.5441 25.7574 17.9152 25.7119C15.0112 25.673 12.6436 24.2037 10.2009 22.9716C9.84322 22.791 9.5893 21.7006 9.80388 21.3324C10.0185 20.9642 10.9805 20.6243 11.449 20.7872C12.7509 21.2085 13.9526 21.9201 15.2258 22.4512C18.162 23.6832 21.3057 22.8619 23.1368 20.3588C22.7792 20.1747 22.4537 19.9764 22.1033 19.8171C18.2335 18.0327 14.3674 16.2271 10.4906 14.4533C8.5414 13.5611 7.27176 14.0178 6.34547 15.9049C5.51931 17.6149 4.70388 19.332 3.92422 21.0633C2.64386 23.8957 3.15529 26.636 5.42632 28.8134C7.89049 31.1784 10.4333 33.4513 12.8689 35.8553C13.4261 36.4439 13.7587 37.2063 13.8095 38.0114C13.9096 41.5306 13.856 45.0534 13.856 48.7177C15.3331 48.7177 16.7171 48.7177 18.069 48.7177C19.0275 48.7177 19.8179 48.9549 19.8108 50.056C19.8036 51.1571 19.0096 51.3943 18.0547 51.3837C16.3595 51.366 14.6678 51.3837 12.9726 51.3837C11.5921 51.3837 11.1844 50.9447 11.1844 49.525C11.1844 46.0836 11.1522 42.6388 11.1844 39.1975C11.2146 38.7877 11.1468 38.3767 10.9865 37.9978C10.8262 37.6189 10.5778 37.2827 10.2617 37.0166C8.02639 34.995 5.83404 32.9203 3.65599 30.8349C0.437194 27.7583 -0.306705 23.8461 1.53158 19.8206C2.28264 18.1779 2.96216 16.4714 3.88846 14.9348C4.59659 13.7842 5.66952 12.9203 6.53502 11.8971C6.84561 11.5844 7.05268 11.1855 7.12871 10.7535C7.19666 9.16741 7.17878 7.56713 7.15374 5.98809C7.1144 3.65494 8.03355 1.84577 10.1651 0.801338C12.2967 -0.243093 14.3138 0.142815 16.1342 1.63334C16.2343 1.71477 16.3488 1.78204 16.5204 1.89888ZM23.3979 17.4591C23.3264 16.397 23.2227 15.5261 23.2155 14.6516C23.1941 11.6563 23.2155 8.65759 23.2155 5.65883C23.1976 4.05147 22.0675 2.91498 20.5833 2.90082C20.2254 2.89538 19.8701 2.96186 19.5389 3.09624C19.2077 3.23061 18.9075 3.43009 18.6565 3.68261C18.4054 3.93513 18.2087 4.23545 18.0782 4.56539C17.9477 4.89533 17.8862 5.24804 17.8974 5.60218C17.8521 8.4605 17.8521 11.3259 17.8974 14.1984C17.9177 14.3961 17.9829 14.5867 18.0882 14.756C18.1935 14.9252 18.3361 15.0686 18.5054 15.1756C20.0861 15.9722 21.7134 16.6838 23.3979 17.4591ZM33.9234 13.377V17.3246C33.9913 18.9284 35.0678 20.0614 36.5485 20.0862C36.9054 20.0934 37.2601 20.0291 37.5912 19.8971C37.9224 19.7651 38.2231 19.5682 38.4754 19.3181C38.7277 19.0681 38.9262 18.7701 39.0591 18.4421C39.192 18.1141 39.2565 17.7629 39.2487 17.4096C39.2916 14.7708 39.2916 12.1319 39.2487 9.49313C39.2459 9.14699 39.1742 8.80478 39.0378 8.48605C38.9014 8.16732 38.7029 7.87831 38.4536 7.63552C38.2044 7.39273 37.9093 7.20092 37.5852 7.07103C37.261 6.94114 36.9142 6.87573 36.5646 6.87852C36.2149 6.8813 35.8692 6.95224 35.5473 7.08729C35.2253 7.22233 34.9333 7.41883 34.6881 7.66556C34.4428 7.9123 34.2491 8.20444 34.1178 8.5253C33.9866 8.84617 33.9206 9.18947 33.9234 9.53562C33.8876 10.8243 33.9234 12.1024 33.9234 13.377ZM25.8943 11.4085V15.2499C25.8943 15.3384 25.8943 15.4269 25.8943 15.5154C26.0016 17.0414 27.0995 18.0964 28.5694 18.0929C28.917 18.101 29.2626 18.0396 29.5855 17.9124C29.9085 17.7851 30.2022 17.5946 30.449 17.3523C30.6958 17.1099 30.8906 16.8208 31.0218 16.5021C31.153 16.1834 31.2178 15.8418 31.2124 15.4977C31.2625 12.8495 31.2589 10.1871 31.2124 7.55297C31.2225 7.20922 31.1628 6.86697 31.0368 6.54648C30.9108 6.226 30.7211 5.9338 30.479 5.68719C30.2369 5.44058 29.9473 5.24457 29.6272 5.11078C29.3072 4.97698 28.9633 4.90811 28.6159 4.90826C27.0924 4.87993 25.9515 5.97039 25.8979 7.57067C25.8621 8.84877 25.8943 10.1304 25.8943 11.4085ZM15.165 13.5894C15.165 10.6792 15.2329 7.92472 15.1328 5.17379C15.0863 3.84258 13.7952 2.87604 12.4719 2.90082C11.7964 2.90675 11.1493 3.17021 10.665 3.63641C10.1807 4.10261 9.89666 4.73567 9.87183 5.40392C9.80388 7.17414 9.83965 8.91958 9.87183 10.6792C9.87183 10.9412 10.0006 11.3519 10.1901 11.4368C11.7709 12.1662 13.391 12.8353 15.1578 13.5894H15.165Z" fill="white"/>
<path d="M26.0803 50.1198C26.0759 50.2091 26.0511 50.2964 26.0077 50.3749C25.9644 50.4534 25.9036 50.5211 25.8299 50.573C25.3578 50.9022 24.8607 51.3519 24.4709 51.281C23.9845 51.1855 23.3693 50.4313 23.3193 49.9144C23.2871 49.5604 24.1311 48.824 24.5853 48.824C25.0395 48.824 25.4437 49.2913 25.8764 49.6524C25.9452 49.7105 25.9994 49.7835 26.0348 49.8659C26.0702 49.9482 26.0858 50.0375 26.0803 50.1269V50.1198Z" fill="white"/>
</svg>
