<svg width="43" height="60" viewBox="0 0 43 60" fill="none" xmlns="http://www.w3.org/2000/svg">
<path d="M28.1649 53.7116C26.8913 58.4542 25.2545 59.9825 21.4294 60C17.4905 60 15.8886 58.5286 14.5582 53.7029C12.5887 53.3 12.5843 53.3 12.5843 51.255C12.5843 48.8596 12.1729 46.3635 12.7244 44.0996C13.2758 41.8356 12.046 40.8766 10.7681 39.7205C10.5274 39.5015 10.186 39.4008 9.94528 39.1819C8.12025 37.5134 6.00638 36.064 4.54461 34.1153C-0.663496 27.1087 -1.46878 19.4059 2.50951 11.6068C6.4878 3.80765 13.2102 -0.107243 21.937 0.00223397C30.9703 0.0941946 39.4433 7.03941 41.9029 15.9377C44.2925 24.6565 40.6206 34.0802 32.8916 39.1468C32.019 39.6875 31.2277 40.3495 30.5413 41.113C29.9111 41.8531 29.2284 42.7289 30.0599 43.8456C30.2481 44.0952 30.1431 44.5725 30.1431 44.9491C30.1431 47.0117 30.1431 49.0786 30.1431 51.1455C30.1562 53.2869 30.1562 53.2869 28.1649 53.7116ZM27.1189 42.961C28.6813 39.3045 28.6813 39.3045 32.1913 36.8522C38.9487 32.1622 41.9729 23.5135 39.5264 15.8808C36.9486 7.82765 29.1102 2.04288 21.0092 2.21805C17.0052 2.29045 13.1267 3.62875 9.92917 6.04129C6.73166 8.45384 4.37912 11.8169 3.20842 15.6489C2.03773 19.4809 2.10892 23.5852 3.41181 27.3743C4.7147 31.1633 7.18246 34.4426 10.4617 36.7427C12.8163 38.3586 14.8383 40.0664 15.5035 42.961H27.1189ZM27.771 51.22V45.3651H14.9477V51.22H27.771ZM25.5827 53.6503H17.136C17.0397 56.3172 18.6371 57.7667 21.5125 57.7316C24.1866 57.6966 25.7403 56.1595 25.5783 53.6503H25.5827Z" fill="white"/>
<path d="M22.1778 34.3079C22.1778 35.8319 22.1778 37.3208 22.1778 38.8096C22.1778 39.6242 22.0203 40.408 21.0399 40.4168C20.0596 40.4255 19.902 39.6548 19.9107 38.8315C19.9107 37.3383 19.9107 35.8494 19.9107 34.3167C18.7116 34.1722 17.6349 34.1065 16.5889 33.9051C11.3677 32.9198 8.5317 29.4603 8.17282 23.6755C7.96275 20.3212 8.24723 19.9884 11.604 20.2117C15.3591 20.4657 18.6809 21.613 20.6854 25.1075C20.8298 25.0593 20.9611 25.0506 20.983 25.0024C23.4339 18.644 30.0294 17.5098 34.8961 17.7813C35.8677 17.8382 36.371 18.3725 36.2878 19.3359C36.104 21.4291 36.1171 23.5748 35.6182 25.5892C34.3928 30.5025 30.699 33.4102 25.3771 33.997C24.3617 34.1065 23.342 34.1941 22.1778 34.3079ZM33.9683 20.1197C26.7382 19.7431 21.6307 23.5398 22.3704 31.8163C30.2263 32.1622 34.279 27.9451 33.9683 20.1197ZM19.7357 31.86C20.4447 26.084 15.648 21.3853 10.4618 22.664C10.2298 28.6064 13.8273 32.206 19.7357 31.86Z" fill="white"/>
<path d="M35.1628 14.4576C35.2538 14.6603 35.2857 14.8847 35.2547 15.1047C35.2237 15.3248 35.1311 15.5316 34.9877 15.7013C34.9202 15.7862 34.8287 15.8488 34.7251 15.8808C34.4918 15.931 34.2505 15.9308 34.0172 15.8802C33.784 15.8297 33.5643 15.7298 33.3727 15.5874C32.1386 14.2737 30.9788 12.8768 29.8715 11.4535C29.7519 11.2721 29.6758 11.0654 29.6493 10.8497C29.6227 10.6339 29.6463 10.415 29.7183 10.2099C29.846 10.033 30.0136 9.88884 30.2076 9.78914C30.4015 9.68945 30.6163 9.63705 30.8343 9.63623C31.7228 9.69754 34.4187 12.7673 35.1628 14.4576Z" fill="white"/>
<path d="M26.7597 7.11819L27.762 8.04655C27.8846 8.15818 27.9774 8.29874 28.0318 8.45543C28.0863 8.61212 28.1007 8.77996 28.0737 8.94364C28.0467 9.10732 27.9793 9.26165 27.8774 9.39255C27.7756 9.52346 27.6426 9.62677 27.4906 9.69309C27.401 9.7325 27.304 9.75193 27.2061 9.75002C25.5649 9.63178 24.4533 8.74283 24.7334 7.90642C24.8883 7.5813 25.1251 7.30211 25.4205 7.09629C25.6067 6.9331 25.8468 6.84496 26.0943 6.84901C26.3418 6.85306 26.579 6.94899 26.7597 7.11819Z" fill="white"/>
</svg>
