<svg width="35" height="33" viewBox="0 0 35 33" fill="none" xmlns="http://www.w3.org/2000/svg">
<path d="M16.333 18.1486V32.6677C26.6945 32.6677 35.001 24.4835 35.001 14.5174V6.10352e-05C24.691 6.10352e-05 16.333 8.12398 16.333 18.1486ZM32.6677 14.5192C32.6677 22.4747 26.5721 29.0738 18.6663 30.1749V18.1503C18.6663 10.1966 24.7619 3.59572 32.6677 2.49646V14.5192Z" fill="url(#paint0_linear_1_340)"/>
<path d="M0 0.0621252V11.6665C0 24.8913 14.0014 23.2708 14.0014 23.2708V11.6665C14.0014 -1.55131 0 0.0621252 0 0.0621252ZM11.6682 20.9765C8.97496 20.8223 2.33328 19.9961 2.33328 11.6682V2.36172C5.02116 2.51597 11.6682 3.35815 11.6682 11.6682V20.9765Z" fill="url(#paint1_linear_1_340)"/>
<defs>
<linearGradient id="paint0_linear_1_340" x1="16.7064" y1="35.7009" x2="47.6252" y2="11.6437" gradientUnits="userSpaceOnUse">
<stop stop-color="#005635"/>
<stop offset="0.56" stop-color="#48B037"/>
<stop offset="1" stop-color="#DDDF00"/>
</linearGradient>
<linearGradient id="paint1_linear_1_340" x1="0.280028" y1="25.5001" x2="22.6059" y2="7.25935" gradientUnits="userSpaceOnUse">
<stop stop-color="#005635"/>
<stop offset="0.56" stop-color="#48B037"/>
<stop offset="1" stop-color="#DDDF00"/>
</linearGradient>
</defs>
</svg>
