<?xml version="1.0" encoding="utf-8"?>
<!-- Generator: Adobe Illustrator 24.0.2, SVG Export Plug-In . SVG Version: 6.00 Build 0)  -->
<svg version="1.1" id="Layer_1" xmlns="http://www.w3.org/2000/svg" xmlns:xlink="http://www.w3.org/1999/xlink" x="0px" y="0px"
	 viewBox="0 0 98 91" style="enable-background:new 0 0 98 91;" xml:space="preserve">
<path d="M46.2,50.3v40.2c28.7,0,51.7-22.7,51.7-50.3V0.1C69.3,0.1,46.2,22.5,46.2,50.3L46.2,50.3z M91.4,40.3
	c0,22-16.9,40.3-38.8,43.3V50.3c0-22,16.9-40.3,38.8-43.3V40.3z"/>
<path d="M0.9,0.2v32.1c0,36.6,38.8,32.1,38.8,32.1V32.4C39.7-4.2,0.9,0.2,0.9,0.2z M33.2,58.1c-7.5-0.4-25.8-2.7-25.8-25.8V6.6
	C14.8,7,33.2,9.3,33.2,32.4V58.1z"/>
</svg>
