<svg width="166" height="18" viewBox="0 0 166 18" fill="none" xmlns="http://www.w3.org/2000/svg">
<path d="M5.37592 2.24824C6.34501 4.86277 8.31348 10.1675 8.31348 10.1675C8.31348 10.1675 8.58603 11.0609 8.71222 11.5404C8.81317 11.0609 9.06553 10.1675 9.06553 10.1675C9.06553 10.1675 11.0491 4.85772 12.0233 2.2432C12.3413 1.39019 13.1539 0.82489 14.0675 0.82489H17.3785L10.6555 17.5972H6.72356L0.000488281 0.82489H3.33174C4.24531 0.82489 5.05794 1.39019 5.37592 2.2432V2.24824Z" fill="#404243"/>
<path d="M31.996 2.24824C32.9651 4.86277 34.9336 10.1675 34.9336 10.1675C34.9336 10.1675 35.2061 11.0609 35.3323 11.5404C35.4333 11.0609 35.6857 10.1675 35.6857 10.1675C35.6857 10.1675 37.6693 4.85772 38.6434 2.2432C38.9614 1.39019 39.774 0.82489 40.6876 0.82489H43.9986L37.2756 17.5972H33.3437L26.6206 0.82489H29.9519C30.8654 0.82489 31.6781 1.39019 31.996 2.2432V2.24824Z" fill="#404243"/>
<path d="M52.1904 0.829956H47.8194L41.3184 17.6023H44.6294C45.5379 17.6023 46.3506 17.037 46.6686 16.184C46.8856 15.6036 47.1531 14.8515 47.4358 14.0338H52.5639C52.8415 14.8515 53.1039 15.6036 53.3159 16.179C53.6339 17.032 54.4465 17.6023 55.3601 17.6023H58.6913L52.1904 0.829956ZM48.5916 10.6521C49.1872 8.8603 49.6616 7.4117 49.6616 7.4117C49.6616 7.4117 49.914 6.51832 50.015 6.03882C50.1411 6.51832 50.4137 7.4117 50.4137 7.4117C50.4137 7.4117 50.873 8.8603 51.4484 10.6521H48.5865H48.5916Z" fill="#404243"/>
<path d="M24.4097 0.829956H19.8267V17.6023H24.4097V0.829956Z" fill="#404243"/>
<path d="M63.4964 17.5973L70.3608 0.829956H71.8246L78.6839 17.5973H77.4524C77.2959 17.5973 77.1596 17.5518 77.0486 17.461C76.9527 17.3802 76.877 17.2793 76.8265 17.1531L74.9489 12.5348H67.2062L65.3438 17.148C65.2479 17.4105 64.9955 17.5922 64.7179 17.5922H63.4863L63.4964 17.5973ZM74.4391 11.2326L71.0927 2.79338L67.7463 11.2326H74.4441H74.4391Z" fill="#404243"/>
<path d="M81.3589 17.5973V0.829956H82.9589V16.1689H90.7116V17.5973H81.3589Z" fill="#404243"/>
<path d="M93.7905 17.5973V0.829956H95.3956V16.1689H103.143V17.5973H93.7905Z" fill="#404243"/>
<path d="M106.374 17.5973V0.829956H116.595V2.23312H107.989V8.41613H115.151V9.7991H107.989V16.189H116.595V17.5973H106.374Z" fill="#404243"/>
<path d="M131.605 17.5973C131.449 17.5973 131.307 17.567 131.191 17.5014C131.075 17.4408 130.964 17.3449 130.863 17.2137L125.629 10.5865C125.357 10.2534 125.205 10.213 124.67 10.2029H122.747V17.5973H121.142V0.829956H125.523C127.451 0.829956 128.915 1.21355 129.884 1.96561C131.393 3.02555 131.701 5.53913 131.025 7.12905C130.399 8.62307 128.92 9.67292 127.017 9.99595C127.073 10.0565 127.123 10.1171 127.174 10.1827L133.069 17.5922H131.6L131.605 17.5973ZM122.949 8.89562C123.176 8.89562 123.423 8.89563 123.681 8.90068C123.969 8.90068 124.277 8.90572 124.584 8.90572C125.493 8.90572 126.613 8.87544 127.254 8.64831C128.834 8.20919 129.818 6.93725 129.788 5.4079C129.768 2.71261 127.86 2.17255 124.796 2.17255C124.478 2.17255 124.165 2.17255 123.853 2.18264C123.555 2.18264 123.257 2.19274 122.974 2.19274C122.899 2.19274 122.823 2.19274 122.752 2.19274V8.90068C122.818 8.90068 122.883 8.90068 122.949 8.90068V8.89562Z" fill="#404243"/>
<path d="M142.512 17.784C139.09 17.784 136.178 15.7953 135.093 12.7215C134.31 10.6874 134.31 7.72967 135.093 5.69559C136.203 2.58137 139.146 0.643188 142.765 0.643188C142.815 0.643188 142.866 0.643188 142.916 0.643188C142.956 0.643188 143.002 0.643188 143.052 0.643188C145.298 0.643188 147.186 1.31953 148.66 2.65203L148.791 2.76812L148.387 3.42932C148.296 3.59588 148.115 3.70188 147.913 3.70188C147.817 3.70188 147.716 3.67665 147.625 3.63122C147.433 3.53532 147.252 3.40913 147.06 3.27286C146.813 3.0962 146.555 2.91954 146.247 2.78326C145.879 2.60156 145.42 2.44005 144.874 2.29872C144.259 2.15235 143.602 2.07663 142.941 2.07663C140.902 2.07663 139.09 2.76812 137.975 3.97949C135.951 6.05395 135.769 9.78394 136.627 12.242C137.5 14.8061 139.802 16.396 142.623 16.396C142.623 16.396 142.694 16.396 142.729 16.396C142.8 16.396 142.866 16.396 142.926 16.396C144.622 16.396 146.136 15.9922 147.555 15.1594V11.0912H144.627C144.491 11.0912 144.365 11.0458 144.269 10.9549C144.168 10.859 144.112 10.7429 144.112 10.6168V9.75871H149.054V15.8912L148.963 15.9569C147.272 17.1733 145.182 17.789 142.744 17.789H142.649C142.608 17.789 142.558 17.789 142.512 17.789V17.784Z" fill="#404243"/>
<path d="M157.306 17.5972V10.7025L151.093 0.829921H152.506C152.834 0.829921 152.991 1.01163 153.132 1.20847V1.21857L153.147 1.22866C153.238 1.39522 153.758 2.22299 154.419 3.26274C156.418 6.42743 157.654 8.42114 158.124 9.31957C158.538 8.52713 159.613 6.77066 161.834 3.24256C162.485 2.2028 163.005 1.38513 163.09 1.22361C163.242 0.956104 163.449 0.819824 163.706 0.819824H165.14L158.926 10.6924V17.5871H157.311L157.306 17.5972Z" fill="#404243"/>
</svg>
