<svg xmlns="http://www.w3.org/2000/svg" viewBox="0 0 254.82 237.84"><defs><style>.cls-1{fill:#5e7d61;}</style></defs><title>logo_icon-favicon</title><g id="Layer_2" data-name="Layer 2"><g id="Layer_1-2" data-name="Layer 1"><path class="cls-1" d="M118.91,132.13V237.84c75.44,0,135.91-59.59,135.91-132.13V0C179.76,0,118.91,59.16,118.91,132.14Zm118.93-26.42c0,57.92-44.38,106-101.93,114V132.14c0-57.9,44.38-106,101.93-114Z"/><path class="cls-1" d="M0,.45V84.94c0,96.28,101.94,84.48,101.92,84.48V84.94C101.92-11.29,0,.45,0,.45ZM85,152.72C65.34,151.6,17,145.58,17,85V17.19C36.56,18.32,85,24.45,85,85Z"/></g></g></svg>