<svg width="98" height="91" viewBox="0 0 98 91" fill="none" xmlns="http://www.w3.org/2000/svg">
<path d="M46.1599 50.3002V90.5021C74.8496 90.5021 97.8495 67.841 97.8495 40.2509V0.0539551C69.3021 0.0539551 46.1599 22.5482 46.1599 50.3051V50.3002ZM91.3889 40.2509C91.3889 62.2788 74.5109 80.551 52.6254 83.5997V50.3051C52.6254 28.2822 69.5034 10.005 91.3889 6.96128V40.2509Z" fill="white"/>
<path d="M0.936035 0.220907V32.352C0.936035 68.9701 39.7044 64.4831 39.6995 64.4831V32.352C39.6995 -4.24652 0.936035 0.220907 0.936035 0.220907ZM33.2438 58.1305C25.7867 57.7034 7.39662 55.4157 7.39662 32.3569V6.58821C14.839 7.01532 33.2438 9.34722 33.2438 32.3569V58.1305Z" fill="white"/>
</svg>
