<svg width="204" height="49" viewBox="0 0 204 49" fill="none" xmlns="http://www.w3.org/2000/svg">
<path d="M5.89563 31.0294C6.95851 33.8969 9.11747 39.715 9.11747 39.715C9.11747 39.715 9.4164 40.6949 9.5548 41.2208C9.66551 40.6949 9.94231 39.715 9.94231 39.715C9.94231 39.715 12.1179 33.8914 13.1863 31.0238C13.535 30.0883 14.4263 29.4683 15.4283 29.4683H19.0598L11.6861 47.8637H7.37369L0 29.4683H3.65363C4.65561 29.4683 5.54688 30.0883 5.89563 31.0238V31.0294Z" fill="white"/>
<path d="M35.0914 31.0294C36.1543 33.8969 38.3133 39.715 38.3133 39.715C38.3133 39.715 38.6122 40.6949 38.7506 41.2208C38.8613 40.6949 39.1381 39.715 39.1381 39.715C39.1381 39.715 41.3137 33.8914 42.3821 31.0238C42.7308 30.0883 43.6221 29.4683 44.6241 29.4683H48.2556L40.8819 47.8637H36.5695L29.1958 29.4683H32.8494C33.8514 29.4683 34.7427 30.0883 35.0914 31.0238V31.0294Z" fill="white"/>
<path d="M57.2405 29.4736H52.4465L45.3164 47.8691H48.9479C49.9443 47.8691 50.8356 47.2491 51.1844 46.3136C51.4224 45.6769 51.7158 44.8521 52.0258 43.9553H57.6502C57.9546 44.8521 58.2425 45.6769 58.475 46.308C58.8238 47.2436 59.715 47.8691 60.717 47.8691H64.3706L57.2405 29.4736ZM53.2935 40.2463C53.9467 38.2811 54.4671 36.6923 54.4671 36.6923C54.4671 36.6923 54.7439 35.7125 54.8546 35.1866C54.993 35.7125 55.2919 36.6923 55.2919 36.6923C55.2919 36.6923 55.7957 38.2811 56.4268 40.2463H53.288H53.2935Z" fill="white"/>
<path d="M26.7716 29.4736H21.7451V47.8691H26.7716V29.4736Z" fill="white"/>
<path d="M69.6405 47.8636L77.1692 29.4736H78.7745L86.2977 47.8636H84.947C84.7754 47.8636 84.6259 47.8138 84.5041 47.7141C84.3989 47.6255 84.3159 47.5148 84.2605 47.3764L82.2012 42.3112H73.7093L71.6666 47.3709C71.5614 47.6588 71.2846 47.858 70.9801 47.858H69.6294L69.6405 47.8636ZM81.6421 40.8829L77.9719 31.6271L74.3016 40.8829H81.6476H81.6421Z" fill="white"/>
<path d="M89.2319 47.8636V29.4736H90.9868V46.2969H99.4898V47.8636H89.2319Z" fill="white"/>
<path d="M102.866 47.8636V29.4736H104.627V46.2969H113.124V47.8636H102.866Z" fill="white"/>
<path d="M116.667 47.8636V29.4736H127.877V31.0126H118.439V37.7939H126.294V39.3108H118.439V46.3191H127.877V47.8636H116.667Z" fill="white"/>
<path d="M144.34 47.8636C144.169 47.8636 144.014 47.8304 143.887 47.7584C143.759 47.692 143.637 47.5868 143.527 47.4429L137.786 40.1743C137.487 39.809 137.321 39.7647 136.734 39.7536H134.625V47.8636H132.865V29.4736H137.67C139.784 29.4736 141.39 29.8944 142.453 30.7192C144.108 31.8817 144.446 34.6385 143.704 36.3823C143.017 38.0209 141.395 39.1724 139.308 39.5267C139.369 39.5931 139.425 39.6595 139.48 39.7315L145.946 47.858H144.335L144.34 47.8636ZM134.847 38.3198C135.096 38.3198 135.367 38.3199 135.649 38.3254C135.965 38.3254 136.302 38.3309 136.64 38.3309C137.637 38.3309 138.866 38.2977 139.569 38.0486C141.301 37.567 142.381 36.172 142.348 34.4946C142.325 31.5385 140.233 30.9462 136.873 30.9462C136.524 30.9462 136.181 30.9462 135.837 30.9572C135.511 30.9572 135.184 30.9683 134.874 30.9683C134.791 30.9683 134.708 30.9683 134.631 30.9683V38.3254C134.703 38.3254 134.775 38.3254 134.847 38.3254V38.3198Z" fill="white"/>
<path d="M156.304 48.0681C152.55 48.0681 149.356 45.887 148.166 42.5157C147.308 40.2848 147.308 37.0408 148.166 34.8099C149.384 31.3943 152.611 29.2686 156.58 29.2686C156.636 29.2686 156.691 29.2686 156.746 29.2686C156.791 29.2686 156.841 29.2686 156.896 29.2686C159.359 29.2686 161.43 30.0104 163.046 31.4718L163.19 31.5991L162.747 32.3243C162.648 32.507 162.448 32.6233 162.227 32.6233C162.122 32.6233 162.011 32.5956 161.911 32.5457C161.701 32.4406 161.502 32.3022 161.291 32.1527C161.02 31.959 160.738 31.7652 160.4 31.6157C159.996 31.4164 159.492 31.2393 158.894 31.0843C158.219 30.9238 157.499 30.8407 156.774 30.8407C154.538 30.8407 152.55 31.5991 151.327 32.9277C149.107 35.2029 148.908 39.2939 149.849 41.9898C150.807 44.802 153.331 46.5458 156.425 46.5458C156.425 46.5458 156.503 46.5458 156.542 46.5458C156.619 46.5458 156.691 46.5458 156.758 46.5458C158.618 46.5458 160.278 46.1029 161.834 45.1895V40.7277H158.623C158.474 40.7277 158.335 40.6778 158.23 40.5782C158.119 40.473 158.058 40.3457 158.058 40.2073V39.2662H163.478V45.9922L163.378 46.0642C161.524 47.3983 159.232 48.0737 156.558 48.0737H156.453C156.409 48.0737 156.353 48.0737 156.304 48.0737V48.0681Z" fill="white"/>
<path d="M172.529 47.8639V40.302L165.714 29.474H167.264C167.624 29.474 167.796 29.6733 167.951 29.8892V29.9002L167.967 29.9113C168.067 30.094 168.637 31.0018 169.362 32.1422C171.555 35.6132 172.911 37.7998 173.426 38.7852C173.88 37.9161 175.059 35.9896 177.495 32.1201C178.209 30.9797 178.779 30.0829 178.873 29.9058C179.039 29.6124 179.266 29.4629 179.548 29.4629H181.12L174.306 40.2909V47.8528H172.534L172.529 47.8639Z" fill="white"/>
<path d="M183.656 19.7804V35.6017C194.949 35.6017 204 26.6836 204 15.8223V0.000976562C192.762 0.000976562 183.656 8.85273 183.656 19.7804ZM201.459 15.8223C201.459 24.4914 194.816 31.6824 186.202 32.8837V19.7804C186.202 11.1113 192.845 3.92032 201.459 2.71905V15.8223Z" fill="white"/>
<path d="M165.858 0.06736V12.7167C165.858 27.1264 181.115 25.366 181.115 25.366V12.7167C181.115 -1.68749 165.858 0.06736 165.858 0.06736ZM178.574 22.8583C175.64 22.6867 168.399 21.7899 168.399 12.7167V2.57508C171.328 2.74115 178.574 3.6601 178.574 12.7167V22.8583Z" fill="white"/>
</svg>
