<svg xmlns="http://www.w3.org/2000/svg" viewBox="0 0 370.94 254"><defs><style>.cls-1{fill:#fff;}.cls-2{fill:#394c60;}.cls-3{fill:#fdc71b;}.cls-4{fill:#2c3138;}.cls-5{fill:#fdc81e;}.cls-6{fill:#fbfbfb;}.cls-7{fill:#f0f2f6;}.cls-8{fill:#4d6b87;}.cls-9{fill:#fcf7e5;}.cls-10{fill:#fcfcfb;}.cls-11{fill:#fcfcfc;}.cls-12{fill:#fac51a;}.cls-13{fill:#fbfbfa;}.cls-14{fill:#fafafa;}.cls-15{fill:#f9f9f9;}.cls-16{fill:#414141;}.cls-17{fill:#323232;}.cls-18{fill:#353535;}.cls-19{fill:#373737;}.cls-20{fill:#fecf3b;}.cls-21{fill:#fed657;}.cls-22{fill:#fed967;}</style></defs><title>next_time_illustration</title><g id="Layer_2" data-name="Layer 2"><g id="next_time_illustration"><g id="viva-ivon"><path class="cls-1" d="M254.93,140.1v75.28c54.16,0,97.58-42.44,97.58-94.1V46c-53.89,0-97.58,42.12-97.58,94.1Zm85.39-18.82c0,41.25-31.86,75.46-73.18,81.17V140.11c0-41.24,31.86-75.47,73.18-81.17Z"/><path class="cls-1" d="M169.56,46.32v60.17c0,68.57,73.19,60.17,73.18,60.17V106.49C242.74,38,169.56,46.32,169.56,46.32Zm61,108.44c-14.08-.8-48.8-5.08-48.8-48.26V58.25c14.05.79,48.8,5.16,48.8,48.25Z"/></g><path class="cls-2" d="M181.06,120.78a3.55,3.55,0,0,0,1.25-.24c2.15-1,4.47-1.58,6.7-2.4a13.43,13.43,0,0,1,3.67-.43c.89-.06,1.8.06,2.69,0,2.52-.25,4.84.53,7.17,1.28a13.8,13.8,0,0,1,5.55,2.85c1.21-.06,1.73,1.06,2.63,1.54s1.59,1.4,2.46,2a24.43,24.43,0,0,1,3.5,3.15c1.71,1.66,3.07,3.63,4.69,5.34,1.12,1.18,1.95,2.58,3.12,3.73a19.63,19.63,0,0,1,2.64,4.07c1.83,3,3.89,5.76,5.57,8.84,1.45,2.66,2.9,5.34,4.4,8,1.65,2.9,3,5.95,4.61,8.86a56.6,56.6,0,0,1,2.82,5.75c.95,2.32,2.31,4.41,3.18,6.76.67,1.83,2,3.41,2.28,5.4,1.09,1,1.33,2.42,1.85,3.66a40,40,0,0,1,1.68,3.72c.65,2.17,1.86,4.1,2.64,6.22a6.85,6.85,0,0,0,.76,1.22,2.51,2.51,0,0,0,0,.95c.45,1,1,2,1.46,3.05.33.76.34,1.79.88,2.29.82.79.71,1.93,1.39,2.75.2.23.61,1.27-.51,1.38a12.93,12.93,0,0,1-3.86,2.74c-.14.08-.11.45-.15.69a3.67,3.67,0,0,0-2.28.52,13.75,13.75,0,0,1-3.29,1.71,42.1,42.1,0,0,0-4.48,1.68c-1.53.61-3.12,1.09-4.65,1.71a21.26,21.26,0,0,1-3.67,1.27,33.64,33.64,0,0,0-5.89,2c-.75-.06-1.38.38-2.14.45-1.17.1-2.29.68-3.5.76-1.19,1.07-2.93.61-4.19,1.48a21.22,21.22,0,0,0-6.28,1.52c-.75.27-1.18,0-1.6-.83-.57-1.1-1.12-2.22-1.68-3.33-.81-1.58-1.64-3.16-2.44-4.75s-1.65-3.28-2.42-4.94-1.67-3.13-2.38-4.77-1.81-3.07-2.4-4.77a5.41,5.41,0,0,0-.53-.93c-1.33-2.18-2.2-4.61-3.5-6.81-.31-.52-.34-1.31-.85-1.74s-.38-1.41-1.13-1.73a4.35,4.35,0,0,0-.23-1.25c-.79-1.79-1.91-3.41-2.63-5.24-.56-1.42-1.36-2.74-1.94-4.17a24.67,24.67,0,0,0-3.08-5,34.79,34.79,0,0,1-2.14-3c-.33-.56-1.6-.88-1.79-.47a1.36,1.36,0,0,0,.17,1.56c.82,1,1.57,2,2.31,3.06a27.24,27.24,0,0,1,2.59,4.1,1.38,1.38,0,0,1-.27,1.84c-.48.42-1.12.82-1.32,1.37-.41,1.13-1.59,1.55-2.08,2.58a9.49,9.49,0,0,1-2,2.63c-.19.18-.2.55-.29.83-1.06,1.38-2.19,2.72-3.16,4.17-.52.79-1.39,1.35-1.75,2.15-.86,1.95-2.5,3.29-3.61,5a49.69,49.69,0,0,1-3,3.94c-.5.63-1.07,1.21-1.53,1.87q-2.16,3.09-4.53,6a26.83,26.83,0,0,0-2.38,2.87,44,44,0,0,1-3.88,4.93c-1,1.23-2,2.53-3,3.74-.49.57-.65,1.47-1.59,1.66-.18,0-.26.5-.42.75a9.07,9.07,0,0,1-.82,1.2c-.75.83-1.48,1.69-2.21,2.53-1.61,1.87-3.35,3.62-5,5.42a68.82,68.82,0,0,1-6.84,6.6,47.33,47.33,0,0,1-6,4.51,11.33,11.33,0,0,1-2.33,1.35,13.55,13.55,0,0,0-2.3,1,4.89,4.89,0,0,1-2.22.72c-.49,0-.25.48-.3.75a6.54,6.54,0,0,0-3.58.66c-.69.36-1.62-.14-2.29.49-1.82-.11-3.58.61-5.42.41a13.67,13.67,0,0,0-3.26,0c-1.17.15-2.19-.42-3.31-.44a9.06,9.06,0,0,1-3.09-.41c-1.22-.47-2.47-.86-3.7-1.28a37.33,37.33,0,0,1-8.46-4.19,65.17,65.17,0,0,1-5.39-4.19,29.86,29.86,0,0,1-3.57-3.73c-1.27-1.38-2.19-3.07-3.39-4.53-1.39-1.69-1.93-3.87-3.3-5.56a2,2,0,0,1-.41-.79c-.49-2.16-1.85-4-2.27-6.16-.35-1.77-.93-3.47-1.32-5.23-.48-2.17-.56-4.4-.86-6.58a69.64,69.64,0,0,1-.27-7.35,17,17,0,0,1,.37-2.91,10.59,10.59,0,0,1,.29-2.76,10,10,0,0,0,.43-2.69,33,33,0,0,1,1-4.23c.13-.56.08-1.1.2-1.63a2.59,2.59,0,0,0,.74-1.88,1.27,1.27,0,0,1,.7-1.2c1.62-.81,3-2.05,4.61-2.83a36.38,36.38,0,0,0,3.49-2.26c1.22-.75,2.24-1.85,3.69-2.23.17,0,.29-.23.43-.36,1.52-1.53,3.55-2.3,5.33-3.43,2.73-1.74,5.29-3.77,8.25-5.14,1.17-1.4,3-1.86,4.38-2.94,1.65-1.28,3.57-2.2,5.34-3.33a17,17,0,0,1,2.84-2c1.14-.43,1.8-1.47,2.9-1.82a11,11,0,0,0,2.89-1.83c.9-.64,2.06-.92,2.77-1.63,1.25-1.26,3.18-1.45,4.2-2.94,1.44-.38,2.5-1.43,3.7-2.21a41.38,41.38,0,0,0,3.69-2.33c1.07-.88,2.51-1.37,3.65-2.27s2.71-1.17,3.61-2.42a47.6,47.6,0,0,0,6.48-3.87c2.21-1.45,4.51-2.78,6.75-4.18a36.84,36.84,0,0,1,5.23-3.15c.41-.17.65-.73,1-1.11a1.71,1.71,0,0,0,1.92-1.16,2.89,2.89,0,0,0,1.08-.15,18.18,18.18,0,0,0,2.39-1.61c.8-.64,1.93-.75,2.56-1.69a1.57,1.57,0,0,1,1-.68c1.33-.06,2.07-1.17,3.12-1.7a16.43,16.43,0,0,0,3.12-1.77,5.84,5.84,0,0,1,2-1.17A2.25,2.25,0,0,0,181.06,120.78ZM106,187.94l.12,0c-.17-1.86-.29-3.73-.53-5.58a8.65,8.65,0,0,0-.74-1.8,30.12,30.12,0,0,0-1.88-4.61,3.15,3.15,0,0,0-.91-1.12c-.36-.2-.93,0-1.4,0,0,.35.09.7.17,1a1.26,1.26,0,0,0,.28.64c1,.8,1,2,1.47,3s1.36,2.05,1.11,3.38c.76.68.07,1.65.42,2.32.68,1.29.27,2.6.32,3.9a9.39,9.39,0,0,1-1.62,5.46c-.73,1.48-.33,2.2,1.21,2.4a24.77,24.77,0,0,1,2.81.63c.4.09,1.39-.29,1.48-.61a1,1,0,0,0-.87-1.19c-.84-.15-1.69-.27-2.54-.38-.59-.08-.49-.34-.28-.76A10.45,10.45,0,0,0,106,188.9C106,188.58,106,188.26,106,187.94Zm101.27-17.42c0-.34,0-.49,0-.59-.73-1.29-1.44-2.59-2.23-3.83a1.09,1.09,0,0,0-1-.27.81.81,0,0,0-.61,1,7.54,7.54,0,0,0,.73,1.41,15.92,15.92,0,0,1,1.51,2.42c.21.53.46.6.78.48A3.1,3.1,0,0,0,207.25,170.52ZM112.81,197c.86-.2,2.09-.45,3.31-.78.53-.15.8-.94.64-1.6s-.65-.34-.94-.29a20.34,20.34,0,0,0-3.3.79,2.83,2.83,0,0,0-1.13,1.12c-.23.32.07.74.46.76C112,197,112.24,197,112.81,197Zm86.94-38.85c-1,0-1.07.09-1,.86a4.07,4.07,0,0,0,.2.68c.36,1.26,1.41,2.07,2,3.16a.82.82,0,0,0,1.28,0,.88.88,0,0,0,.12-1.31c-.72-1-1.39-2.11-2.12-3.13C200.16,158.21,199.83,158.14,199.75,158.1Zm-75.3,32.74c0-.91-.5-1.24-1.17-1A18,18,0,0,0,120,192a1,1,0,0,0-.4.4.93.93,0,0,0,.2,1.18c.37.35.58.26.95,0,1-.73,2.13-1.36,3.18-2.07A2.67,2.67,0,0,0,124.45,190.84Zm90.42-3c.23-.15.38-.24.52-.35a1.11,1.11,0,0,0,.22-1.51c-.86-.73-.9-1.82-1.38-2.7a5.13,5.13,0,0,0-.74-1,.7.7,0,0,0-1.22.4c0,.27.14.57.18.86.23,1.47,1.4,2.46,1.9,3.79C214.42,187.5,214.67,187.63,214.87,187.82ZM197.3,154.76a2.59,2.59,0,0,0-.28-.89c-.77-1-1.58-1.9-2.42-2.81a.85.85,0,0,0-1.29,0c-.47.47-.53,1.11.07,1.4s.79.82,1.16,1.24.62.88,1,1.31,1.28.6,1.53.39S197.21,155,197.3,154.76Zm-14.65-5.65c-.12-.13-.27-.4-.46-.44a2.5,2.5,0,0,0-1.4-.06,20.75,20.75,0,0,1-2,.79,5.23,5.23,0,0,0-1.33.93c-.45.39-.38.85,0,1.3s.69.35,1.07,0a2.88,2.88,0,0,1,2-.83,2.89,2.89,0,0,0,2-1.2A1.81,1.81,0,0,0,182.65,149.11Zm28.9,29.09a11.67,11.67,0,0,0-2.45-4.2c-.27-.33-.54-.09-.79.14a1,1,0,0,0-.2,1.18c.39,1.35,1.42,2.33,2,3.55a.84.84,0,0,0,1,.38C211.76,179.17,211.36,178.66,211.55,178.2ZM223.42,204c.05-2.12-1-3.43-1.58-4.94-.05-.12-.45-.2-.67-.17a1,1,0,0,0-.77,1.39c.29.71.62,1.4.94,2.1a4.88,4.88,0,0,0,1.36,2.12c.14.09.38.18.5.12s.18-.29.21-.46S223.42,203.78,223.42,204ZM92.59,189.46a2.73,2.73,0,0,0-.28-.57c-.89-1-1.78-2.08-2.71-3.08-.18-.2-.6-.43-.76-.35-.38.2-.76.57-.56,1.07a5,5,0,0,0,.79,1.39,29.34,29.34,0,0,0,2.16,2.16c.18.17.62.31.76.21A2.85,2.85,0,0,0,92.59,189.46ZM134,182.37c.34,0,.57,0,.7-.1a28.57,28.57,0,0,0,2.66-1.92,3,3,0,0,0,.56-1.29c.16-.48-.29-.66-.55-.91a.57.57,0,0,0-.5.06q-1.63,1.41-3.24,2.85c-.16.15-.36.5-.3.62A3.4,3.4,0,0,0,134,182.37Zm82.48,9.45c.29.7.65,1.63,1.08,2.54a5.91,5.91,0,0,0,.8,1.19.76.76,0,0,0,1.16.08c.34-.27.61-.52.2-1.07a14.92,14.92,0,0,1-1.24-2.34c-.24-.48-.42-1-.69-1.43-.11-.18-.43-.39-.59-.35a1.74,1.74,0,0,0-.71.56C216.41,191.12,216.49,191.37,216.49,191.82Zm-50.07-34.59c.14-.66-.25-.73-.76-.68-.19,0-.44-.07-.57,0-1,.7-2,1.39-2.92,2.16a.94.94,0,1,0,1.27,1.39,7.54,7.54,0,0,1,2.37-1.65A1,1,0,0,0,166.42,157.23Zm-11,8.69a6.15,6.15,0,0,0,.68-.4l2.29-1.9.93-.93c.3-.29.2-.53-.06-.79s-.53-.51-.94-.15a12.76,12.76,0,0,1-1.2.83c-.44.31-.88.64-1.33.95a4.31,4.31,0,0,0-1,.7,1.17,1.17,0,0,0-.19,1C154.68,165.51,155.1,165.67,155.43,165.92Zm-28.66,21.49c0,.45,0,.76.58.71a1.69,1.69,0,0,0,1.19-.4,8.22,8.22,0,0,1,2.36-2.06c.65-.26.62-.73.11-1.51a.8.8,0,0,0-1.24,0,12.24,12.24,0,0,1-2.39,2A1,1,0,0,0,126.77,187.41Zm101.29,29.66c.14,1.67,1.15,3,2,4.36.22.36.52.11.78-.12a1.28,1.28,0,0,0,.18-1.56c-.39-1-1-1.91-1.3-2.92-.24-.84-.77-.65-1.28-.63S228,216.77,228.06,217.07Zm-87.43-41.63a4.35,4.35,0,0,0,0,.76c.15.71.78.88,1.33.38a9.07,9.07,0,0,1,2.11-1.78,3.64,3.64,0,0,0,1.16-1.21c.26-.36-.09-.85-.54-.88a2.64,2.64,0,0,0-2,.78c-.61.53-1.24,1-1.83,1.54A1.39,1.39,0,0,0,140.63,175.44Zm11-8.15c-.34.05-.68,0-.81.13a7.22,7.22,0,0,1-2,1.21,4.18,4.18,0,0,0-1.08,1.06.8.8,0,0,0,.09,1.16.63.63,0,0,0,.94.14A11.68,11.68,0,0,0,152,168.4a1.17,1.17,0,0,0,.11-.87C152.12,167.4,151.74,167.35,151.59,167.29ZM185.68,148c0,.8,0,.79.65.83,1.11.06,2.23-.19,3.3.35a1.46,1.46,0,0,0,1.05-.18c.51-.24.53-.68.1-1-.66-.57-3.47-1.38-4.12-1C186.32,147.21,185.34,147.13,185.68,148ZM95.52,191.9c-.22.07-.6.09-.64.22a1.21,1.21,0,0,0,.05.88,2.45,2.45,0,0,0,.79.81c.7.44,1.44.82,2.17,1.22a4.87,4.87,0,0,0,.8.38.9.9,0,0,0,1.07-.56c.08-.17-.15-.57-.33-.77A7.33,7.33,0,0,0,95.52,191.9ZM227.3,212a8.4,8.4,0,0,0-2-4.5c-.24-.32-.51-.22-.79,0a1.15,1.15,0,0,0-.26,1.53c.86.81,1,1.93,1.45,2.87.08.16.14.39.27.45a2.23,2.23,0,0,0,1,.28C227.14,212.68,227.23,212.19,227.3,212Zm-53.17-59.25c0-.87-.14-1-.75-.66a16.32,16.32,0,0,1-2.52,1.31c-.63.19-.9.65-1.31,1a.76.76,0,0,0,0,.72.73.73,0,0,0,.62.23,6.18,6.18,0,0,0,3.79-1.95C174.13,153.25,174.11,152.87,174.13,152.78Z"/><path class="cls-3" d="M181.06,120.78a2.25,2.25,0,0,1-1.68,1.23,5.84,5.84,0,0,0-2,1.17A16.43,16.43,0,0,1,174.3,125c-1.05.53-1.79,1.64-3.12,1.7a1.57,1.57,0,0,0-1,.68c-.63.94-1.76,1-2.56,1.69a18.18,18.18,0,0,1-2.39,1.61,2.89,2.89,0,0,1-1.08.15c-.71-.78-.07-1.95-.77-2.74.14-2.17-1.07-4.09-1.15-6.22-.55-.51-.31-1.42-1-1.89-.5-.33-1.21-.24-1.28.34a6,6,0,0,0,0,1.89c.14.68.51,1.32.69,2s.07,1.56.45,2.1c.51.71,0,1.53.46,2.11s0,1.36.3,1.78c.49.6.26,1.19.35,1.79-.32.38-.56.94-1,1.11A36.84,36.84,0,0,0,156,136.2c-2.24,1.4-4.54,2.73-6.75,4.18a47.6,47.6,0,0,1-6.48,3.87c-.9,1.25-2.47,1.51-3.61,2.42s-2.58,1.39-3.65,2.27a41.38,41.38,0,0,1-3.69,2.33c-1.2.78-2.26,1.83-3.7,2.21-1,1.49-3,1.68-4.2,2.94-.71.71-1.87,1-2.77,1.63a11,11,0,0,1-2.89,1.83c-1.1.35-1.76,1.39-2.9,1.82a17,17,0,0,0-2.84,2c-1.77,1.13-3.69,2.05-5.34,3.33-1.41,1.08-3.21,1.54-4.38,2.94-3,1.37-5.52,3.4-8.25,5.14-1.78,1.13-3.81,1.9-5.33,3.43-.14.13-.26.32-.43.36-1.45.38-2.47,1.48-3.69,2.23a36.38,36.38,0,0,1-3.49,2.26c-1.66.78-3,2-4.61,2.83a1.27,1.27,0,0,0-.7,1.2,2.59,2.59,0,0,1-.74,1.88c0-1.67.06-3.34,0-5-.12-2.72.58-5.38.43-8.12a47.46,47.46,0,0,1,0-8.26,67.63,67.63,0,0,0,.3-7,61.35,61.35,0,0,1,.07-6.92c.47-3.48,0-7,.4-10.42s.17-7.08.29-10.62c0-1.25.58-2.4.43-3.69a12,12,0,0,1,0-3.64,12.75,12.75,0,0,0,.33-2.74c0-.75-.35-1.35-.73-1.34A1.91,1.91,0,0,0,76,122.84a9.09,9.09,0,0,0,0,1.73c.24,1.84-.54,3.59-.42,5.42,0,.13-.31.4-.45.39A6.2,6.2,0,0,1,72.4,130c-.91-.62-2-.55-2.86-1a20.67,20.67,0,0,0-2.93-.82c-2.07-.73-4.11-1.55-6.17-2.29-.8-.29-1.3-1-2.21-1.21a6.8,6.8,0,0,1-2.18-1.2c-.41-.27-.8-.6-.22-1.21.44-.45.59-1.18,1-1.68s.19-.83.25-1.25c.44,0,.87.06.77-.62a7.06,7.06,0,0,1,0-.92,4.4,4.4,0,0,0,1-.82,31.83,31.83,0,0,0,1.7-2.93c.78-1.53,1.67-3,2.35-4.59a55.7,55.7,0,0,1,2.68-5.21c1.16-2.07,1.91-4.33,3.16-6.35a2.08,2.08,0,0,0,.29-.46,32.83,32.83,0,0,1,1.72-4.27,11.56,11.56,0,0,0,1.36-4.22c1.1-.31.7-1.21.77-1.92.2-.26.37-.69.61-.74a2.78,2.78,0,0,1,1.69,0c1.09.58,2.21.24,3.3.33.57,0,1.15,0,1.72,0a4.21,4.21,0,0,1,2.28,1,12.19,12.19,0,0,0,5.26,1.63c2,.15,4,.49,6-.31a7.56,7.56,0,0,0,4.46-1.29,2,2,0,0,1,1.58-.12c.22,0,.43.24.66.24,1.91.06,3.81.13,5.57-.92a1.31,1.31,0,0,1,2,.4,11.37,11.37,0,0,0,.84,1.18,16.16,16.16,0,0,0,2.71,2.27c.63.38,1.45.49,2.11.92a4.16,4.16,0,0,0,1,.35,11.43,11.43,0,0,0,3.7.82c1.15,0,2.3,0,3.46,0a13.58,13.58,0,0,0,2.74-.29,13.84,13.84,0,0,0,2.76-.82,4.51,4.51,0,0,0,3-4c0-.58,0-1.16,0-1.73s.35-.55.61-.35a4.58,4.58,0,0,0,2.21.74,11.49,11.49,0,0,0,2.35.35,19.67,19.67,0,0,0,2.74-.32,5.49,5.49,0,0,0,2.49-1,17.73,17.73,0,0,1,2.3-1.38c.14.75.72.36,1.07.36,4.72,0,9.45,0,14.17,0,1.34,0,2.68,0,4,0s2.4-.56,3.68-.43a33.79,33.79,0,0,0,3.63,0c0,.65-.08,1.32.77,1.54a3.81,3.81,0,0,0,.23,1.25c.5,1,1.05,2,1.51,3,1,2.27,1.92,4.59,2.73,6.94.89,2.59,2.13,5.07,2.47,7.83.73.39.22,1.15.52,1.71a20,20,0,0,1,1.45,5.18,17.27,17.27,0,0,0,.49,2.48,6.39,6.39,0,0,1,.63,2.82c0,.09.24.2.37.3a14.42,14.42,0,0,0,0,1.47c0,.16.23.3.36.46Z"/><path class="cls-4" d="M256.15,213.88c0-.24,0-.61.15-.69a12.93,12.93,0,0,0,3.86-2.74c1.12-.11.71-1.15.51-1.38-.68-.82-.57-2-1.39-2.75-.54-.5-.55-1.53-.88-2.29-.45-1-1-2-1.46-3.05a2.51,2.51,0,0,1,0-.95c.9-.28,1.66.38,2.53.41s1.65-.35,2.34.36c0,0,.13,0,.19,0a18.54,18.54,0,0,1,4.27.37,13.39,13.39,0,0,1,3.12.35c.9.33,2-.24,2.9.43,1.27-.28,2.44.43,3.68.39a5.9,5.9,0,0,1,2.35.36c.73.27,1.65-.33,2.34.4.06.06.25,0,.38,0,1.8.13,3.61.23,5.41.39.72.07,1.43.28,2.15.37s1.49-.16,2.17.37c.2.15.62,0,.94,0a4.6,4.6,0,0,1,2.17.35c.61.33,1.51-.31,2.13.41,0,0,.13,0,.19,0,1.64-.28,3.21.61,4.83.36,1-.15,1.8.38,2.73.43s1.89-.36,2.74.35c.11.1.37,0,.56,0a6.15,6.15,0,0,1,2.56.32c.64.35,1.61-.14,2.32.44.08.06.25,0,.38,0a29.58,29.58,0,0,1,4.82.44,28.83,28.83,0,0,0,3.89.35,13.33,13.33,0,0,0,2,.39,3.11,3.11,0,0,1,1.83.2c.56.29,1.38,0,2,.17a38.36,38.36,0,0,0,5.65.76,12.05,12.05,0,0,1,1.95.4c.13,0,.24.4.25.6q0,3.07,0,6.15c0,1-.1,1,.92.92,3.67-.17,7.31.67,11,.39,2,.68,4.12.27,6.18.38.55.55,1.24,1,1.16,1.92a14.7,14.7,0,0,1-2.55-.32,34.83,34.83,0,0,0-4.22-.07c-1.43-.07-2.84-.29-4.27-.36-1.15-.06-2.31,0-3.46,0-.38,0-.85.11-1.13-.06-1-.64-2.1-.22-3.14-.29a.83.83,0,0,0-.87,1c0,.39,0,.77,0,1.16v21.54c0,.76,0,1.53,0,2.29a11,11,0,0,1,2.23.19c1.86.56,3.75.31,5.63.35s3.85,0,5.77,0h6.35c0,.66.13,1.35-.38,1.92a61.18,61.18,0,0,1-8.46-.08c-3.18-.45-6.32-.13-9.48-.3-.38,0-.77,0-1.15,0s-.56.11-.55.53c0,1.73,0,3.46,0,5.19,0,.93-.28,1.2-1.25,1.2a52.12,52.12,0,0,1-7.5,0c-4.38-.62-8.76-.29-13.13-.3q-38.68-.08-77.38,0c-2.65,0-5.26-.66-7.92-.39-2.09-.76-4.26-.35-6.39-.36-8-.06-16.05.26-24.06-.09-11.56-.51-23.12-.22-34.68-.3s-23.23,0-34.84,0c0-.27-.19-.75.3-.75a4.89,4.89,0,0,0,2.22-.72,13.55,13.55,0,0,1,2.3-1,11.33,11.33,0,0,0,2.33-1.35,47.33,47.33,0,0,0,6-4.51,68.82,68.82,0,0,0,6.84-6.6c1.69-1.8,3.43-3.55,5-5.42.73-.84,1.46-1.7,2.21-2.53a9.07,9.07,0,0,0,.82-1.2c.16-.25.24-.72.42-.75.94-.19,1.1-1.09,1.59-1.66,1-1.21,2-2.51,3-3.74a44,44,0,0,0,3.88-4.93,26.83,26.83,0,0,1,2.38-2.87q2.37-2.93,4.53-6c.46-.66,1-1.24,1.53-1.87a49.69,49.69,0,0,0,3-3.94c1.11-1.75,2.75-3.09,3.61-5,.36-.8,1.23-1.36,1.75-2.15,1-1.45,2.1-2.79,3.16-4.17,1.68-.06,3.31.65,5,.39.07,0,.16,0,.19,0,.68.75,1.56.24,2.33.38a20.36,20.36,0,0,0,2.32.37c1,.06,1.91,0,2.87,0,.75.32.55,1.25,1.13,1.73s.54,1.22.85,1.74c1.3,2.2,2.17,4.63,3.5,6.81a5.41,5.41,0,0,1,.53.93c.59,1.7,1.69,3.15,2.4,4.77s1.64,3.15,2.38,4.77,1.6,3.3,2.42,4.94,1.63,3.17,2.44,4.75c.56,1.11,1.11,2.23,1.68,3.33.42.81.85,1.1,1.6.83a21.22,21.22,0,0,1,6.28-1.52c1.26-.87,3-.41,4.19-1.48,1.21-.08,2.33-.66,3.5-.76.76-.07,1.39-.51,2.14-.45.51.8,1,1.61,1.54,2.4,1.53,2.28,3.08,4.55,4.62,6.83a7.67,7.67,0,0,1-2.75-.34c-.89-.36-1.3.09-1.49,1.09a21.43,21.43,0,0,1-.8,3.52,11.87,11.87,0,0,0-.69,3.16c-.15,1.67-.69,3.32-.45,5,0,.21-.15.44-.22.67a7.36,7.36,0,0,0,.27,4c0,.1.42.22.47.17.65-.63,1.45-.36,2.17-.36q30,0,60.05,0c.39,0,.77,0,1.16,0,.92,0,1.08-.3,1.21-1.26.21-1.64-.77-2.81-1.63-3.94a13.59,13.59,0,0,0-3.33-3,19.47,19.47,0,0,1-3.34-2.16,5,5,0,0,1-3.1-1.3,10.21,10.21,0,0,0-3.88-1.34c-1.46-.37-2.4.72-3.22,1.78a4.23,4.23,0,0,1-.64.84c-.35.27-.87-.09-.9-.53a2.59,2.59,0,0,1,.79-2c.26-.27.61-.52.72-.85s.27-.77-.37-.86a13.68,13.68,0,0,0-2-.35,8.17,8.17,0,0,1-2.16-.4c-.14,0-.32.14-.49.18a3,3,0,0,0-2.32,1.87,1.09,1.09,0,0,1-.5.54,1,1,0,0,1-.72.07.79.79,0,0,1-.29-.57,1.68,1.68,0,0,1,.66-1.84,3.32,3.32,0,0,0,.82-.81.71.71,0,0,0-.4-1c-1.34-.32-2.73-.29-4-1.08a7,7,0,0,0-2.5-.46,1.75,1.75,0,0,0-.14-.7,16.3,16.3,0,0,1-1.49-3c-.77-1.73-1.77-3.35-2.66-5a44.76,44.76,0,0,0-2.82-5.17A10.49,10.49,0,0,1,256.15,213.88Z"/><path class="cls-4" d="M142.94,83.85a17.73,17.73,0,0,0-2.3,1.38,5.49,5.49,0,0,1-2.49,1,19.67,19.67,0,0,1-2.74.32,11.49,11.49,0,0,1-2.35-.35,4.58,4.58,0,0,1-2.21-.74c-.26-.2-.61-.13-.61.35s0,1.15,0,1.73a4.51,4.51,0,0,1-3,4,13.84,13.84,0,0,1-2.76.82,13.58,13.58,0,0,1-2.74.29c-1.16,0-2.31,0-3.46,0a11.43,11.43,0,0,1-3.7-.82,4.16,4.16,0,0,1-1-.35c-.66-.43-1.48-.54-2.11-.92a16.16,16.16,0,0,1-2.71-2.27,11.37,11.37,0,0,1-.84-1.18,1.31,1.31,0,0,0-2-.4c-1.76,1-3.66,1-5.57.92-.23,0-.44-.19-.66-.24a2,2,0,0,0-1.58.12,7.56,7.56,0,0,1-4.46,1.29c-2,.8-4,.46-6,.31a12.19,12.19,0,0,1-5.26-1.63,4.21,4.21,0,0,0-2.28-1c-.36-.43-.7-.88-1.09-1.27a20.76,20.76,0,0,1-3.29-4.8,16.15,16.15,0,0,1-1-3.06,9.66,9.66,0,0,1-.4-3.85,34.09,34.09,0,0,1,1-5.93,24.61,24.61,0,0,1,3.14-6.2c.65-1,1.31-2,1.9-3.07a7.91,7.91,0,0,1,1.08-1.86,3,3,0,0,0,.57-1.1,22.81,22.81,0,0,1,1.26-3.71c.82-1.52.93-3.2,1.44-4.79.43-1.36.82-2.73,1.23-4.1.28-.91.5-1.84.83-2.73.64-1.72,1.42-3.39,2-5.13.81-2.41,2.33-4.43,3.56-6.6.14-.26.32-.51.45-.78a20.15,20.15,0,0,1,3.49-4.7c.94-1,1.91-1.91,2.86-2.86a17.36,17.36,0,0,1,5.62-4.06c.89-.37,1.56-1.06,2.5-1.4,1.25-.46,2.56-.63,3.78-1.09a11.6,11.6,0,0,1,4.88-.78c1,.05,1.92,0,2.89,0a15.45,15.45,0,0,1,6.61,1.68A6.55,6.55,0,0,1,129,17.82a1.67,1.67,0,0,0,1.3,1.06A14,14,0,0,1,137,23.51c.53.64.77,1.48,1.35,2.14a5.53,5.53,0,0,1,1,2.08,18.81,18.81,0,0,1,.9,3.66,25.59,25.59,0,0,1,.46,5,11.4,11.4,0,0,0,.34,2.34,9.79,9.79,0,0,0,.33,2.36c.31.88.14,1.91.39,2.9.39,1.51.94,3,1.41,4.43.8,2.47,2.37,4.54,3.69,6.73.64,1.06,1.93,1.62,2.45,2.84.09.21.61.21.75.43,1.05,1.62,2.6,2.85,3.66,4.45a8.78,8.78,0,0,1,1.12,2.78c.45,2,1.07,4.12.77,6.19a14.58,14.58,0,0,1-.84,4.25,9.31,9.31,0,0,1-5.94,5,6.59,6.59,0,0,1-3.11.37,1.9,1.9,0,0,0-1.92.94A13.78,13.78,0,0,0,142.94,83.85ZM120,78.46c1.83-.11,4,.2,6.1-.36a17.67,17.67,0,0,0,5.68-2.55,18.43,18.43,0,0,0,5.36-8.16c.18-.51.24-1.06.4-1.57.29-1,.15-2,.47-2.89a10.06,10.06,0,0,0,.29-2.18,12,12,0,0,0,.36-2.34,54.08,54.08,0,0,0-.42-6.37c-.12-.78-.26-1.56-.33-2.35a11.23,11.23,0,0,0-.41-2.53,7.5,7.5,0,0,1-.35-2.73c-.8-.41-.13-1.28-.63-1.88-.38-.45-.35-1.24-.53-1.88s-.4-1.24-.6-1.86a5.08,5.08,0,0,1-.17-.51,17.74,17.74,0,0,0-4.75-8.61,5.45,5.45,0,0,0-1.05-.69.91.91,0,0,0-1.32.21,17.82,17.82,0,0,1-6.1,3.86c-.22.09-2.6.76-2.76.77-2.39.13-4.78-.26-7.17.33a16.54,16.54,0,0,1-2.91.36c-.83,0-1.12.7-1.79.88a10.32,10.32,0,0,0-5.09,3.48c-.38.43-.46,1.14-.85,1.54a14,14,0,0,0-1.12,1.85,8.78,8.78,0,0,0-.88,2.15c-.57,1.43-1.1,2.88-1.53,4.36-.22.74-.77.51-1,.36a7.87,7.87,0,0,1-1.38-1.33A3.4,3.4,0,0,0,92.27,47a2.21,2.21,0,0,0-1.28.56,5.52,5.52,0,0,0-1.1,1.83c-.26.73.09,1.62-.47,2.31.7.41.2,1.17.5,1.72.41.72.71,1.51,1.12,2.22a1.88,1.88,0,0,0,.74.53,8,8,0,0,0,3.56,1.17c1,0,1.33.45,1.41,1.42a6.85,6.85,0,0,0,.45,2.88c.47.78.22,1.55.49,2.3.51,1.41,1.32,2.66,1.84,4a8.38,8.38,0,0,0,.69,1.45,7.84,7.84,0,0,0,1.08,1.47c2.23,2.23,4.28,4.68,7.47,5.67.78.24,1.45,1,2.23,1.09,2,.32,4,.94,6,.82C117.92,78.42,118.82,78.46,120,78.46Zm.5,12.7c1.07,0,1.85,0,2.61,0a18.4,18.4,0,0,0,2.34-.38,2.76,2.76,0,0,0,1-.38c.64-.45,1.47-.84,1.79-1.47a2.83,2.83,0,0,0,.4-2.48,3.66,3.66,0,0,1-.32-2,3,3,0,0,0-.81-2c-.41-.52-1.06-1.09-1.07-1.64,0-1-.52-.83-1.08-.83-1.69,0-3.36.15-5,.31a34.3,34.3,0,0,1-5.8-.31c-.92-.07-1.86.22-2.75-.36a1.81,1.81,0,0,0-1.13,0,.71.71,0,0,0-.42.43c-.11.34-.07.74-.21,1.07-.47,1.15-.93,2.31-1.51,3.41-.23.42-.25.61.06,1a7,7,0,0,1,.56.92c1.4,2,3.8,2.61,5.67,4a2.27,2.27,0,0,0,1.18.39C117.6,90.79,119.17,91.51,120.52,91.16Z"/><path class="cls-5" d="M354,220c.08-.92-.61-1.37-1.16-1.92a9.07,9.07,0,0,1,.53-3,31.77,31.77,0,0,1,1-3.92l.39-1.16a1.08,1.08,0,0,1,1,.39,6,6,0,0,0,1.45,1.06c.73.36.87-.52,1.29-.81.08,0,0-.55-.2-.74-.5-.63-1.08-1.2-1.6-1.81-1-1.14-.78-2.52-.78-3.86a6.19,6.19,0,0,0,.77-2.69c.28.05.66-.18.78.29.23.94,1.06,1,1.79,1.25a1,1,0,0,0,1.24-.6c.09-.19-.27-.63-.5-.89-.37-.44-.8-.82-1.21-1.22a4.81,4.81,0,0,1-.61-1.07c-.59-1-.18-1.85.06-2.76-.08-.41.32-.73.33-1,.06-1.16,1.13-1.92,1.17-3,0-1.24.9-2.08,1.25-3.15a15.49,15.49,0,0,1,1.49-2.85,18.23,18.23,0,0,1,3.94-4.5,2.91,2.91,0,0,1,3-.35,1.78,1.78,0,0,1,1.14,1.42,5,5,0,0,1,0,1.34q0,17,0,34c0,2,.56,4,.42,6s0,4.1,0,6.15V242.8c0,2-.08,4.1,0,6.15s-.46,3.23-3,3c-1.81-.15-3.64-.14-5.42-.42a46.58,46.58,0,0,1-5.05-1.26c-1-.26-1.91-.66-2.89-.92-.5-.14-.73-.32-.66-.87a8.83,8.83,0,0,0,0-1.15c.51-.57.37-1.26.38-1.92.13-.21.38-.41.37-.61a20.32,20.32,0,0,1,.36-3.3c.27-1.94.37-3.9.78-5.83a19.86,19.86,0,0,0,.05-2.68c.06-.91.31-1.81.35-2.72a27.1,27.1,0,0,0,0-4,14.64,14.64,0,0,0-.81-4.07C355.12,221.45,355,220.37,354,220Z"/><path class="cls-4" d="M72.86,86.93c-.07.71.33,1.61-.77,1.92a54,54,0,0,1-5-2.73c-1.7-1.17-3.41-2.36-5.08-3.6-2.12-1.58-3.75-3.67-5.87-5.21-1.3-2.23-3.55-3.75-4.65-6.15-.28-.6-.92-1-1.31-1.58a3.13,3.13,0,0,1-.89-1.76c0-.6-.78-.86-1.06-1.43a68.81,68.81,0,0,1-3.33-6.51c-.42-1.12-1-2.17-1.47-3.23-.38-.84-.49-1.72-.86-2.54-1.26-2.81-2.12-5.79-3.17-8.68-.58-1.56-1.09-3.15-1.54-4.75-.4-1.43-1.1-2.76-1.43-4.22a31.21,31.21,0,0,0-.8-3.13,45.78,45.78,0,0,1-1.7-6A12.55,12.55,0,0,0,33,24.23c-.5-1.05-.58-2.2-1-3.26-.54-1.51-.41-3.22-1.43-4.6a4.46,4.46,0,0,1-.45-1.54c-.4-1.57-.77-3.14-1.16-4.71,0-.17-.07-.42-.19-.49a1.34,1.34,0,0,0-1.71.68c-.15.78-.53,1.47-.73,2.19A6,6,0,0,0,25.85,15c.1.76-.44,1.49-.38,2.34A3,3,0,0,1,24,20.16,6,6,0,0,0,21.62,24a13.84,13.84,0,0,0-.36,3.5c0,.21-.14.54-.28.58-.43.12-.35-.31-.52-.53-.65-.88-.35-1.85-.32-2.75a6.9,6.9,0,0,1,2.18-5.24,3.66,3.66,0,0,0,1.2-3.7,13.83,13.83,0,0,0-1.36-4.05,13.52,13.52,0,0,1-1.67-3.92,1.3,1.3,0,0,0-.29-.64,7.38,7.38,0,0,1-1.65-2.79,4.08,4.08,0,0,0-.94-1.33A10.46,10.46,0,0,0,16.15,2a.58.58,0,0,0-.51,0c-.56.39-1.22.75-1.3,1.53a8.24,8.24,0,0,0,.81,4.66,29.25,29.25,0,0,0,2.08,4.15A11.06,11.06,0,0,1,18.18,14a1.27,1.27,0,0,1-.54,1.31c-.48.19-.75-.21-.91-.49-1.08-1.86-2.14-3.73-3.15-5.62-.72-1.33-1.67-2.51-2.46-3.79A17.36,17.36,0,0,0,9.77,3.69c-.4-.48-1-.3-1.42-.18s-.58.55-.58,1.08a8.84,8.84,0,0,0,.71,3,39.9,39.9,0,0,0,1.89,4,22.73,22.73,0,0,0,2.17,4.11,1.26,1.26,0,0,1-.18,1.82,1,1,0,0,1-.62,0c-.1-.71-.84-.94-1.1-1.48A20.18,20.18,0,0,0,7.9,11.44s-.1-.1-.1-.15c0-1.59-1.58-2-2.39-3-.2-.25-1-.18-1.37,0-.24.07-.43.58-.47.91-.21,1.75.79,3.13,1.58,4.53S7.05,16.59,8,18.07a1.65,1.65,0,0,1,.19.88c0,.22-.11.6-.22.62a1.58,1.58,0,0,1-.85-.13c-.06-1-1.37-1-1.51-1.86S4.24,16.28,4,15.37a1,1,0,0,0-1.11-.77c-.69.05-.48.75-.8,1.08-.16.17-.11.64,0,.93a27.46,27.46,0,0,0,1,2.66c1,2.26,2.18,4.48,3.19,6.76a6.07,6.07,0,0,1,.85,2.56,6.17,6.17,0,0,0,.85,2.12A25.09,25.09,0,0,1,9.65,35a21.23,21.23,0,0,0,1.22,3.55c.15.39.26.79.39,1.19a39.33,39.33,0,0,0,1.28,4.08,27.54,27.54,0,0,1,1,3.23c.37,1.26.75,2.53,1,3.81.23,1.06.73,2.06.86,3.09a36.82,36.82,0,0,0,.89,4.47,6.38,6.38,0,0,0,1,2.88,5,5,0,0,1,.52,1.88c.34,1.27.62,2.56,1,3.81s1,2.54,1.48,3.81.63,2.82,1.64,3.94c.55,2.22,1.81,4.12,2.73,6.18.36.81.82,1.58,1.21,2.38A12.29,12.29,0,0,1,27,85.7c.23.92,1.07,1.29,1.48,2a11.22,11.22,0,0,0,2,3.2c.95.88.7,2.66,2.29,3.06.17,1.14,1.13,1.72,1.75,2.56,1,1.29,2,2.49,3,3.77a36.27,36.27,0,0,0,3.35,3.54c1,1,2.09,2.11,3.24,3.09,2,1.69,3.86,3.54,6,5.14,1.32,1,2.7,1.9,4,2.89s2.51,1.8,3.77,2.7a7.06,7.06,0,0,0,0,.92c.1.68-.33.65-.77.62-.85.28-1-.91-1.78-.81-.76-1.13-2.21-1.32-3.12-2.26a3.8,3.8,0,0,0-1.43-1.08c-.8-.26-1.14-1-1.73-1.4s-1.05-.85-1.62-1.22c-1.5-1-2.55-2.45-3.94-3.5a26.31,26.31,0,0,1-4.14-3.88c-1.48-1.73-3.16-3.27-4.63-5-1.62-1.91-3.09-4-4.51-6-1.7-2.48-3.38-5-4.86-7.61-.67-1.17-1.26-2.41-1.83-3.66s-1.17-2.47-1.85-3.65a15.09,15.09,0,0,1-1.14-2.8,3.51,3.51,0,0,0-.27-.66,19.74,19.74,0,0,1-1.79-4.45c-.62-1.8-1.32-3.56-2-5.35-.24-.69,0-1.35-.33-2-.4-.79-.59-1.66-1-2.48a22.07,22.07,0,0,1-.76-2.75c-.28-.86-.11-1.9-.5-2.68-1-2-.93-4.2-1.84-6.17.2-1.39-.68-2.56-.84-3.89a11.33,11.33,0,0,0-.73-1.8c-.47-1.42-.51-3-1.17-4.33.42-.92-.63-1.25-.82-2a28.27,28.27,0,0,0-1.44-4.21c-.19-.43-.13-.93-.56-1.31a2,2,0,0,1-.62-1.08,14.63,14.63,0,0,0-1.78-4.47C3.41,25.51,3.05,24,2.4,22.69a6.46,6.46,0,0,0-.55-1.12C.74,20.07.64,18.21.14,16.52a3.64,3.64,0,0,1,1.31-3.84c.92,0,.69-.73.45-1-.6-.74.14-1.79-.66-2.43a8.54,8.54,0,0,1,.71-2A5,5,0,0,1,4.41,5.76a1.06,1.06,0,0,1,.55,0c.89.23.85.23.92-.67a4.38,4.38,0,0,1,.34-2.36c1-1.6,2-2,3.61-1.26A7.13,7.13,0,0,1,12,3.23c.28.31.3.11.42-.17A4.92,4.92,0,0,1,13.76.71a3,3,0,0,1,3.7-.14,8.83,8.83,0,0,1,2.33,2.27c1.5,1.94,2.28,4.2,3.38,6.32a4.1,4.1,0,0,1,.81,2c0,.12.18.25.28.38.16-.13.42-.25.46-.41A5.76,5.76,0,0,1,26.52,8a2.8,2.8,0,0,1,3.22-.36A1.9,1.9,0,0,1,30.85,9.2,55.22,55.22,0,0,0,33,16.57c.33,1.08.19,2.3.93,3.27-.28,1.3,1,2.2.9,3.49a5.73,5.73,0,0,0,.66,2.21,5.89,5.89,0,0,1,.39,2.15,2.23,2.23,0,0,0,.38,1.18,5.8,5.8,0,0,1,.94,2.68c.22,1.38,1,2.6,1,4,0,.26.23.53.37.8a14.74,14.74,0,0,1,1.47,4.37A11.46,11.46,0,0,0,41,43.85c.68,1.37.68,2.92,1.45,4.22a9.78,9.78,0,0,1,.42,1.36,14,14,0,0,1,1.08,2.81c.15,1,.88,1.68.9,2.75A7.14,7.14,0,0,0,46,57.56c.49,1,1,2,1.5,3s.94,2,1.52,3c1.09,1.78,2.18,3.56,3.13,5.43.31.6,1.09.94,1.45,1.53a30.61,30.61,0,0,0,5,6.15c.78.76,1.52,1.56,2.32,2.3a22.49,22.49,0,0,0,2,1.63,45.18,45.18,0,0,0,4.28,3.14c.21.12.38.31.59.43Z"/><path class="cls-4" d="M170.28,85.39c-.85-.22-.8-.89-.77-1.54.05-.11.06-.29.14-.32a22.23,22.23,0,0,0,5.6-4.11c1.44-1.27,2.7-2.74,4.12-4,.57-.52.85-1.24,1.55-1.69s.73-1.47,1.33-1.88c1.51-1,2.06-2.76,3.14-4.1.9-1.12,1.38-2.56,2.48-3.58.1-.1,0-.35.13-.51.4-.8.82-1.58,1.24-2.37a11.74,11.74,0,0,0,1-2.07,8.15,8.15,0,0,1,1.28-2.55A21.86,21.86,0,0,0,193,53.4c.51-1,1.34-1.9,1.49-3s1.26-1.94,1.19-3.17c1.24-.71,1-2.12,1.54-3.18s1-2.29,1.56-3.38.75-2.37,1.4-3.47a12,12,0,0,0,1.31-3.3,20.5,20.5,0,0,1,1.12-2.61c.53-1.32,1-2.65,1.54-4,.06-.17-.07-.47,0-.55,1.49-1.35,1.28-3.47,2.3-5-.38-.91.57-1.3.83-2a29.23,29.23,0,0,1,2.56-6c.6-.9,2.34-1.47,3.12-.81a4.31,4.31,0,0,1,1.29,1.56,4.71,4.71,0,0,0,1,1.93c.58.52.59.74,1,.17a4.71,4.71,0,0,0,.28-.65A40.85,40.85,0,0,1,220,10.23a8.3,8.3,0,0,1,4.62-3.57,1.76,1.76,0,0,1,1,0A3.71,3.71,0,0,1,228,9.89c.08.56.31.63.73.33a15.52,15.52,0,0,1,1.35-.94,3.15,3.15,0,0,1,2.31-.43,3.56,3.56,0,0,1,1.57.8,2.16,2.16,0,0,1,.56,1.46c0,.84.43,1.78-.34,2.55-.06.06,0,.35.14.49a.35.35,0,0,0,.34.06c1-.86,1.79-.12,2.67.24a1.31,1.31,0,0,1,.9,1,5.17,5.17,0,0,1-.19,3.63,3.94,3.94,0,0,0-.39,1.37c-.06.36,0,.6.5.78.72.24.94,1.08,1,1.82a8.78,8.78,0,0,1-1,4.37,17.33,17.33,0,0,1-1.59,2.81c-1.11,1.62-1.87,3.47-2.92,5.13-1.25,2-2.11,4.14-3.32,6.12s-1.77,3.89-2.77,5.78a12.54,12.54,0,0,0-.69,1.83c-.37,1.14-1.29,2-1.56,3.21s-.84,2.22-1.08,3.38c-.14.65-.72.9-.88,1.58a40.3,40.3,0,0,1-1.42,4.58c-.83,2.22-1.57,4.49-2.42,6.7a13.89,13.89,0,0,0-1.07,2.43c-.16.84-1,1.42-.82,2.36-1.05.79-1.15,2.09-1.62,3.17-1.1,2.52-2.48,4.88-3.78,7.28a53.07,53.07,0,0,1-4,6.63c-.6.81-1,1.79-1.52,2.63-1.19,1.76-2.4,3.51-3.68,5.21-1,1.39-2.16,2.7-3.25,4-.59.72-1.17,1.44-1.77,2.15s-1,1.23-1.57,1.82a25.7,25.7,0,0,1-4.76,4.56c-.21.14-.47.31-.54.52-.16.49-.3.92-.91,1s-.28,1-1,.83c-1.44,1.17-2.83,2.41-4.32,3.51a10.77,10.77,0,0,1-3.9,2.2c-.13-.16-.35-.3-.36-.46a14.42,14.42,0,0,1,0-1.47c.19,0,.49.08.56,0,1-1.26,2.57-1.68,3.69-2.79s2.24-1.7,3.33-2.61,2-2,3.15-2.9a27.85,27.85,0,0,0,3.5-3.69c1.71-2,3.42-4,5.15-6,1.06-1.21,1.54-2.86,2.95-3.79.08-1.13,1.12-1.69,1.57-2.62s1.16-1.69,1.69-2.57c1.34-2.19,2.65-4.4,3.95-6.63.62-1.08,1.14-2.22,1.78-3.29s1-2.39,1.72-3.53,1.13-2.86,2-4.17a15.81,15.81,0,0,0,1.16-3.17,8.31,8.31,0,0,1,.8-2,8.12,8.12,0,0,0,.88-2.15c.86-2.15,1.66-4.31,2.31-6.54a20.24,20.24,0,0,1,1.76-4.27c.77-1.39,1-3,1.85-4.42a9.26,9.26,0,0,0,1.2-2.76,7.66,7.66,0,0,1,.82-2c.51-.93,1-1.91,1.39-2.88.27-.59.32-1.35.72-1.8a14.28,14.28,0,0,0,1.58-2.82c.29-.51.23-1.26.6-1.66a13.57,13.57,0,0,0,1.89-3.46,10.07,10.07,0,0,1,.66-1.08c1.18-1.94,2.38-3.87,3.52-5.84a2.65,2.65,0,0,0,.43-1.94c-.08-.33.26-.86-.3-.94a2.38,2.38,0,0,0-1.25.2c-.27.11-.46.43-.68.66a19.25,19.25,0,0,0-3,3.37.75.75,0,0,1-1.13.26c-.24-.23-.2-.82-.16-1.24,0-.2.35-.35.51-.55.95-1.2,1.91-2.39,2.83-3.6.66-.87,1.25-1.79,1.91-2.66a3.79,3.79,0,0,0,.48-2.68.75.75,0,0,0-1.08-.56c-.58.3-1.3.25-1.76.92a3.06,3.06,0,0,1-1.71,1.38c-.35,1.49-1.69,2.33-2.36,3.6a7.7,7.7,0,0,1-2,2.63,1.23,1.23,0,0,1-.88.13c-.1,0-.18-.41-.2-.64s-.06-.58.07-.73c.91-1,1.26-2.37,2.18-3.32a26.05,26.05,0,0,0,2.7-4.09,12.79,12.79,0,0,0,1.18-3.15,2.78,2.78,0,0,0,0-1.15c-.07-.55-.65-.74-1.22-.48a5.53,5.53,0,0,0-2.28,1.87c-.61.86-1.54,1.43-2.05,2.42A25.86,25.86,0,0,1,225.23,18a15.37,15.37,0,0,0-2.34,3.46c-.08.21-.56.49-.74.42a.83.83,0,0,1-.65-1c.09-.35.15-.8.39-1a7.57,7.57,0,0,0,1.67-2.6c.88-1.47,2.11-2.74,2.39-4.59.16-1.08.07-2.13.15-3.19,0-.09-.12-.29-.17-.29-.6.07-1-.7-1.72-.28-1,.57-1.54,1.53-2.32,2.28s-1.28,2.1-2.13,3A13.62,13.62,0,0,0,218,17.34c-.25.47-.6.9-.83,1.38A20.37,20.37,0,0,0,215.75,22a4.11,4.11,0,0,0,1.1,3.55,2.87,2.87,0,0,1,.44,1c.28.91.15,1.93.89,2.72.48.52.31,1.9-.15,2.69a2.72,2.72,0,0,1-.38-.29,5.84,5.84,0,0,1-.39-.48v-.77c.63-.69.59-.82-.39-1.53,0-1.29-1.06-1.91-1.78-2.68a4.33,4.33,0,0,1-1.32-3.32c.07-2.1.24-4.23-.75-6.21a7.63,7.63,0,0,0-.76-1.41c-.42-.52-.91-.31-1.17.33-.68,1.64-1.34,3.29-1.94,5-.52,1.45-1.26,2.81-1.84,4.24-.38.93-.58,1.93-1,2.86-.87,2.08-1.8,4.12-2.71,6.18a5.9,5.9,0,0,0-.23.67c-.81,2.8-2.22,5.36-3.21,8.09A35.32,35.32,0,0,0,198.37,47a4.49,4.49,0,0,1-.72,1.24,5.18,5.18,0,0,0-.66,1.06c-.8,2.57-2.29,4.82-3.23,7.31a8.55,8.55,0,0,1-1.53,2.83c-.27,2-1.78,3.49-2.59,5.27a6,6,0,0,1-.83,1.56c-1,1-1.49,2.36-2.34,3.47-1.26,1.65-2.44,3.37-3.76,5-.54.67-1.33,1.09-1.68,2s-1.32,1.11-1.88,1.86-1.66,1.31-2.36,2.09c-1.39,1.55-3.31,2.43-4.73,3.92C171.3,84.48,171.12,85.66,170.28,85.39Z"/><path class="cls-4" d="M355.87,204.26c0,1.34-.19,2.72.78,3.86.52.61,1.1,1.18,1.6,1.81.16.19.28.69.2.74-.42.29-.56,1.17-1.29.81a6,6,0,0,1-1.45-1.06,1.08,1.08,0,0,0-1-.39c0-.32.14-.76,0-.93-1-1.11-.74-2.44-.74-3.72C354,203.79,354.38,203.56,355.87,204.26Z"/><path class="cls-4" d="M358.19,196.57c-.24.91-.65,1.76-.06,2.76a4.81,4.81,0,0,0,.61,1.07c.41.4.84.78,1.21,1.22.23.26.59.7.5.89a1,1,0,0,1-1.24.6c-.73-.22-1.56-.31-1.79-1.25-.12-.47-.5-.24-.78-.29,0-.19.09-.46,0-.56-1.09-1.14-.72-2.55-.74-3.88,0-.58.75-1.19,1.31-1.35C358,195.55,357.57,196.68,358.19,196.57Z"/><path class="cls-6" d="M238.05,232c-1.54-2.28-3.09-4.55-4.62-6.83-.53-.79-1-1.6-1.54-2.4a33.64,33.64,0,0,1,5.89-2,21.26,21.26,0,0,0,3.67-1.27c1.53-.62,3.12-1.1,4.65-1.71a42.1,42.1,0,0,1,4.48-1.68,13.75,13.75,0,0,0,3.29-1.71,3.67,3.67,0,0,1,2.28-.52,10.49,10.49,0,0,0,1,2.64,44.76,44.76,0,0,1,2.82,5.17c.89,1.66,1.89,3.28,2.66,5a16.3,16.3,0,0,0,1.49,3,1.75,1.75,0,0,1,.14.7c0,.24,0,.57-.14.7a13.51,13.51,0,0,1-8.45,3.13c-3,.34-6-.57-9-.37a.72.72,0,0,1-.35-.06,11,11,0,0,0-3.54-.66A17.42,17.42,0,0,1,238.05,232Z"/><path class="cls-7" d="M196.85,192.34c-1,0-1.91,0-2.87,0a20.36,20.36,0,0,1-2.32-.37c-.77-.14-1.65.37-2.33-.38,0,0-.12,0-.19,0-1.69.26-3.32-.45-5-.39.09-.28.1-.65.29-.83a9.49,9.49,0,0,0,2-2.63c.49-1,1.67-1.45,2.08-2.58.2-.55.84-.95,1.32-1.37a1.38,1.38,0,0,0,.27-1.84,27.24,27.24,0,0,0-2.59-4.1c-.74-1.05-1.49-2.08-2.31-3.06a1.36,1.36,0,0,1-.17-1.56c.19-.41,1.46-.09,1.79.47a34.79,34.79,0,0,0,2.14,3,24.67,24.67,0,0,1,3.08,5c.58,1.43,1.38,2.75,1.94,4.17.72,1.83,1.84,3.45,2.63,5.24A4.35,4.35,0,0,1,196.85,192.34Z"/><path class="cls-8" d="M106,187.94c0,.32,0,.64,0,1a10.45,10.45,0,0,1-1.38,5.76c-.21.42-.31.68.28.76.85.11,1.7.23,2.54.38a1,1,0,0,1,.87,1.19c-.09.32-1.08.7-1.48.61A24.77,24.77,0,0,0,104,197c-1.54-.2-1.94-.92-1.21-2.4a9.39,9.39,0,0,0,1.62-5.46c0-1.3.36-2.61-.32-3.9-.35-.67.34-1.64-.42-2.32.25-1.33-.59-2.3-1.11-3.38s-.5-2.25-1.47-3a1.26,1.26,0,0,1-.28-.64c-.08-.34-.12-.69-.17-1,.47,0,1-.17,1.4,0a3.15,3.15,0,0,1,.91,1.12,30.12,30.12,0,0,1,1.88,4.61,8.65,8.65,0,0,1,.74,1.8c.24,1.85.36,3.72.53,5.58Z"/><path class="cls-9" d="M162.2,131.94c-.09-.6.14-1.19-.35-1.79-.33-.42.17-1.17-.3-1.78s0-1.4-.46-2.11c-.38-.54-.26-1.4-.45-2.1s-.55-1.32-.69-2a6,6,0,0,1,0-1.89c.07-.58.78-.67,1.28-.34.71.47.47,1.38,1,1.89.08,2.13,1.29,4.05,1.15,6.22.7.79.06,2,.77,2.74A1.71,1.71,0,0,1,162.2,131.94Z"/><path class="cls-8" d="M207.25,170.52a3.1,3.1,0,0,1-.82.63c-.32.12-.57,0-.78-.48a15.92,15.92,0,0,0-1.51-2.42,7.54,7.54,0,0,1-.73-1.41.81.81,0,0,1,.61-1,1.09,1.09,0,0,1,1,.27c.79,1.24,1.5,2.54,2.23,3.83C207.29,170,207.25,170.18,207.25,170.52Z"/><path class="cls-8" d="M112.81,197c-.57,0-.77,0-1,0-.39,0-.69-.44-.46-.76a2.83,2.83,0,0,1,1.13-1.12,20.34,20.34,0,0,1,3.3-.79c.29-.05.79-.28.94.29s-.11,1.45-.64,1.6C114.9,196.5,113.67,196.75,112.81,197Z"/><path class="cls-8" d="M199.75,158.1c.08,0,.41.11.55.31.73,1,1.4,2.09,2.12,3.13a.88.88,0,0,1-.12,1.31.82.82,0,0,1-1.28,0c-.63-1.09-1.68-1.9-2-3.16a4.07,4.07,0,0,1-.2-.68C198.68,158.19,198.78,158.09,199.75,158.1Z"/><path class="cls-8" d="M124.45,190.84a2.67,2.67,0,0,1-.56.7c-1,.71-2.15,1.34-3.18,2.07-.37.27-.58.36-.95,0a.93.93,0,0,1-.2-1.18,1,1,0,0,1,.4-.4,18,18,0,0,1,3.32-2.19C124,189.6,124.5,189.93,124.45,190.84Z"/><path class="cls-8" d="M214.87,187.82c-.2-.19-.45-.32-.52-.53-.5-1.33-1.67-2.32-1.9-3.79,0-.29-.22-.59-.18-.86a.7.7,0,0,1,1.22-.4,5.13,5.13,0,0,1,.74,1c.48.88.52,2,1.38,2.7a1.11,1.11,0,0,1-.22,1.51C215.25,187.58,215.1,187.67,214.87,187.82Z"/><path class="cls-8" d="M197.3,154.76c-.09.21-.12.49-.28.63s-1.3-.08-1.53-.39-.6-.91-1-1.31-.56-.95-1.16-1.24-.54-.93-.07-1.4a.85.85,0,0,1,1.29,0c.84.91,1.65,1.85,2.42,2.81A2.59,2.59,0,0,1,197.3,154.76Z"/><path class="cls-8" d="M182.65,149.11a1.81,1.81,0,0,1-.18.45,2.89,2.89,0,0,1-2,1.2,2.88,2.88,0,0,0-2,.83c-.38.39-.68.51-1.07,0s-.43-.91,0-1.3a5.23,5.23,0,0,1,1.33-.93,20.75,20.75,0,0,0,2-.79,2.5,2.5,0,0,1,1.4.06C182.38,148.71,182.53,149,182.65,149.11Z"/><path class="cls-8" d="M211.55,178.2c-.19.46.21,1-.43,1.05a.84.84,0,0,1-1-.38c-.61-1.22-1.64-2.2-2-3.55a1,1,0,0,1,.2-1.18c.25-.23.52-.47.79-.14A11.67,11.67,0,0,1,211.55,178.2Z"/><path class="cls-8" d="M223.42,204c0-.22,0,0,0,.16s-.09.41-.21.46-.36,0-.5-.12a4.88,4.88,0,0,1-1.36-2.12c-.32-.7-.65-1.39-.94-2.1a1,1,0,0,1,.77-1.39c.22,0,.62.05.67.17C222.37,200.57,223.47,201.88,223.42,204Z"/><path class="cls-8" d="M92.59,189.46a2.85,2.85,0,0,1-.6.83c-.14.1-.58,0-.76-.21a29.34,29.34,0,0,1-2.16-2.16,5,5,0,0,1-.79-1.39c-.2-.5.18-.87.56-1.07.16-.08.58.15.76.35.93,1,1.82,2,2.71,3.08A2.73,2.73,0,0,1,92.59,189.46Z"/><path class="cls-8" d="M134,182.37a3.4,3.4,0,0,1-.67-.69c-.06-.12.14-.47.3-.62q1.61-1.44,3.24-2.85a.57.57,0,0,1,.5-.06c.26.25.71.43.55.91a3,3,0,0,1-.56,1.29,28.57,28.57,0,0,1-2.66,1.92C134.58,182.36,134.35,182.33,134,182.37Z"/><path class="cls-8" d="M216.49,191.82c0-.45-.08-.7,0-.82a1.74,1.74,0,0,1,.71-.56c.16,0,.48.17.59.35.27.45.45,1,.69,1.43a14.92,14.92,0,0,0,1.24,2.34c.41.55.14.8-.2,1.07a.76.76,0,0,1-1.16-.08,5.91,5.91,0,0,1-.8-1.19C217.14,193.45,216.78,192.52,216.49,191.82Z"/><path class="cls-8" d="M166.42,157.23a1,1,0,0,1-.61,1.24,7.54,7.54,0,0,0-2.37,1.65.94.94,0,1,1-1.27-1.39c.93-.77,1.93-1.46,2.92-2.16.13-.09.38,0,.57,0C166.17,156.5,166.56,156.57,166.42,157.23Z"/><path class="cls-8" d="M155.43,165.92c-.33-.25-.75-.41-.86-.69a1.17,1.17,0,0,1,.19-1,4.31,4.31,0,0,1,1-.7c.45-.31.89-.64,1.33-.95a12.76,12.76,0,0,0,1.2-.83c.41-.36.65-.14.94.15s.36.5.06.79l-.93.93-2.29,1.9A6.15,6.15,0,0,1,155.43,165.92Z"/><path class="cls-8" d="M126.77,187.41a1,1,0,0,1,.61-1.23,12.24,12.24,0,0,0,2.39-2,.8.8,0,0,1,1.24,0c.51.78.54,1.25-.11,1.51a8.22,8.22,0,0,0-2.36,2.06,1.69,1.69,0,0,1-1.19.4C126.78,188.17,126.73,187.86,126.77,187.41Z"/><path class="cls-8" d="M228.06,217.07c0-.3-.28-.84.36-.87s1-.21,1.28.63c.29,1,.91,1.93,1.3,2.92a1.28,1.28,0,0,1-.18,1.56c-.26.23-.56.48-.78.12C229.21,220.05,228.2,218.74,228.06,217.07Z"/><path class="cls-8" d="M140.63,175.44a1.39,1.39,0,0,1,.28-.41c.59-.53,1.22-1,1.83-1.54a2.64,2.64,0,0,1,2-.78c.45,0,.8.52.54.88a3.64,3.64,0,0,1-1.16,1.21,9.07,9.07,0,0,0-2.11,1.78c-.55.5-1.18.33-1.33-.38A4.35,4.35,0,0,1,140.63,175.44Z"/><path class="cls-8" d="M151.59,167.29c.15.06.53.11.56.24a1.17,1.17,0,0,1-.11.87,11.68,11.68,0,0,1-3.29,2.59.63.63,0,0,1-.94-.14.8.8,0,0,1-.09-1.16,4.18,4.18,0,0,1,1.08-1.06,7.22,7.22,0,0,0,2-1.21C150.91,167.28,151.25,167.34,151.59,167.29Z"/><path class="cls-8" d="M185.68,148c-.34-.91.64-.83,1-1,.65-.39,3.46.42,4.12,1,.43.36.41.8-.1,1a1.46,1.46,0,0,1-1.05.18c-1.07-.54-2.19-.29-3.3-.35C185.67,148.83,185.67,148.84,185.68,148Z"/><path class="cls-8" d="M95.52,191.9a7.33,7.33,0,0,1,3.91,2.18c.18.2.41.6.33.77a.9.9,0,0,1-1.07.56,4.87,4.87,0,0,1-.8-.38c-.73-.4-1.47-.78-2.17-1.22a2.45,2.45,0,0,1-.79-.81,1.21,1.21,0,0,1-.05-.88C94.92,192,95.3,192,95.52,191.9Z"/><path class="cls-8" d="M227.3,212c-.07.16-.16.65-.28.65a2.23,2.23,0,0,1-1-.28c-.13-.06-.19-.29-.27-.45-.49-.94-.59-2.06-1.45-2.87a1.15,1.15,0,0,1,.26-1.53c.28-.24.55-.34.79,0A8.4,8.4,0,0,1,227.3,212Z"/><path class="cls-8" d="M174.13,152.78c0,.09,0,.47-.18.66a6.18,6.18,0,0,1-3.79,1.95.73.73,0,0,1-.62-.23.76.76,0,0,1,0-.72c.41-.36.68-.82,1.31-1a16.32,16.32,0,0,0,2.52-1.31C174,151.81,174.14,151.91,174.13,152.78Z"/><path class="cls-10" d="M57.85,117.7c-1.26-.9-2.54-1.76-3.77-2.7s-2.7-1.89-4-2.89c-2.1-1.6-4-3.45-6-5.14-1.15-1-2.21-2-3.24-3.09a36.27,36.27,0,0,1-3.35-3.54c-1-1.28-2-2.48-3-3.77-.62-.84-1.58-1.42-1.75-2.56-1.59-.4-1.34-2.18-2.29-3.06a11.22,11.22,0,0,1-2-3.2c-.41-.76-1.25-1.13-1.48-2a12.29,12.29,0,0,0-1.12-2.42c-.39-.8-.85-1.57-1.21-2.38-.92-2.06-2.18-4-2.73-6.18-1-1.12-1.13-2.61-1.64-3.94s-1-2.52-1.48-3.81-.69-2.54-1-3.81a5,5,0,0,0-.52-1.88,6.38,6.38,0,0,1-1-2.88,36.82,36.82,0,0,1-.89-4.47c-.13-1-.63-2-.86-3.09-.27-1.28-.65-2.55-1-3.81a27.54,27.54,0,0,0-1-3.23,39.33,39.33,0,0,1-1.28-4.08c-.13-.4-.24-.8-.39-1.19A21.23,21.23,0,0,1,9.65,35a25.09,25.09,0,0,0-1.72-4.27,6.17,6.17,0,0,1-.85-2.12A6.07,6.07,0,0,0,6.23,26c-1-2.28-2.14-4.5-3.19-6.76a27.46,27.46,0,0,1-1-2.66c-.1-.29-.15-.76,0-.93.32-.33.11-1,.8-1.08A1,1,0,0,1,4,15.37c.29.91,1.47,1.19,1.63,2.21s1.45.86,1.51,1.86a1.58,1.58,0,0,0,.85.13c.11,0,.22-.4.22-.62A1.65,1.65,0,0,0,8,18.07c-.92-1.48-2-2.89-2.82-4.41S3.36,10.88,3.57,9.13c0-.33.23-.84.47-.91.42-.14,1.17-.21,1.37,0,.81,1,2.34,1.44,2.39,3,0,.05.06.1.1.15a20.18,20.18,0,0,1,2.74,4.63c.26.54,1,.77,1.1,1.48a1,1,0,0,0,.62,0,1.26,1.26,0,0,0,.18-1.82,22.73,22.73,0,0,1-2.17-4.11,39.9,39.9,0,0,1-1.89-4,8.84,8.84,0,0,1-.71-3c0-.53.2-1,.58-1.08s1-.3,1.42.18a17.36,17.36,0,0,1,1.35,1.75c.79,1.28,1.74,2.46,2.46,3.79,1,1.89,2.07,3.76,3.15,5.62.16.28.43.68.91.49A1.27,1.27,0,0,0,18.18,14a11.06,11.06,0,0,0-.95-1.72,29.25,29.25,0,0,1-2.08-4.15,8.24,8.24,0,0,1-.81-4.66c.08-.78.74-1.14,1.3-1.53a.58.58,0,0,1,.51,0,10.46,10.46,0,0,1,1.46,1.09,4.08,4.08,0,0,1,.94,1.33A7.38,7.38,0,0,0,20.2,7.21a1.3,1.3,0,0,1,.29.64,13.52,13.52,0,0,0,1.67,3.92,13.83,13.83,0,0,1,1.36,4.05,3.66,3.66,0,0,1-1.2,3.7,6.9,6.9,0,0,0-2.18,5.24c0,.9-.33,1.87.32,2.75.17.22.09.65.52.53.14,0,.27-.37.28-.58a13.84,13.84,0,0,1,.36-3.5A6,6,0,0,1,24,20.16a3,3,0,0,0,1.48-2.8c-.06-.85.48-1.58.38-2.34a6,6,0,0,1,.49-2.52c.2-.72.58-1.41.73-2.19a1.34,1.34,0,0,1,1.71-.68c.12.07.14.32.19.49.39,1.57.76,3.14,1.16,4.71a4.46,4.46,0,0,0,.45,1.54c1,1.38.89,3.09,1.43,4.6.39,1.06.47,2.21,1,3.26a12.55,12.55,0,0,1,.93,3.06,45.78,45.78,0,0,0,1.7,6,31.21,31.21,0,0,1,.8,3.13c.33,1.46,1,2.79,1.43,4.22.45,1.6,1,3.19,1.54,4.75,1,2.89,1.91,5.87,3.17,8.68.37.82.48,1.7.86,2.54.49,1.06,1.05,2.11,1.47,3.23a68.81,68.81,0,0,0,3.33,6.51c.28.57,1,.83,1.06,1.43a3.13,3.13,0,0,0,.89,1.76c.39.56,1,1,1.31,1.58,1.1,2.4,3.35,3.92,4.65,6.15,2.12,1.54,3.75,3.63,5.87,5.21,1.67,1.24,3.38,2.43,5.08,3.6a54,54,0,0,0,5,2.73,11.56,11.56,0,0,1-1.36,4.22A32.83,32.83,0,0,0,69,97.34a2.08,2.08,0,0,1-.29.46c-1.25,2-2,4.28-3.16,6.35a55.7,55.7,0,0,0-2.68,5.21c-.68,1.59-1.57,3.06-2.35,4.59a31.83,31.83,0,0,1-1.7,2.93A4.4,4.4,0,0,1,57.85,117.7Z"/><path class="cls-11" d="M170.28,85.39c.84.27,1-.91,1.78-.82,1.42-1.49,3.34-2.37,4.73-3.92.7-.78,1.75-1.26,2.36-2.09s1.55-1,1.88-1.86,1.14-1.32,1.68-2c1.32-1.61,2.5-3.33,3.76-5,.85-1.11,1.37-2.43,2.34-3.47a6,6,0,0,0,.83-1.56c.81-1.78,2.32-3.22,2.59-5.27a8.55,8.55,0,0,0,1.53-2.83c.94-2.49,2.43-4.74,3.23-7.31a5.18,5.18,0,0,1,.66-1.06,4.49,4.49,0,0,0,.72-1.24,35.32,35.32,0,0,1,1.82-4.44c1-2.73,2.4-5.29,3.21-8.09a5.9,5.9,0,0,1,.23-.67c.91-2.06,1.84-4.1,2.71-6.18.39-.93.59-1.93,1-2.86.58-1.43,1.32-2.79,1.84-4.24.6-1.67,1.26-3.32,1.94-5,.26-.64.75-.85,1.17-.33a7.63,7.63,0,0,1,.76,1.41c1,2,.82,4.11.75,6.21a4.33,4.33,0,0,0,1.32,3.32c.72.77,1.8,1.39,1.78,2.68a6.47,6.47,0,0,0,0,1.08c0,.17.24.3.37.45v.77c-.13.1-.36.19-.37.3,0,.62,0,1.25,0,1.87,0,.4.13.53.53.54s.68-.12.64-.62,0-.88,0-1.32c.46-.79.63-2.17.15-2.69-.74-.79-.61-1.81-.89-2.72a2.87,2.87,0,0,0-.44-1,4.11,4.11,0,0,1-1.1-3.55,20.37,20.37,0,0,1,1.44-3.25c.23-.48.58-.91.83-1.38a13.62,13.62,0,0,1,1.74-3.12c.85-.89,1.21-2.1,2.13-3s1.29-1.71,2.32-2.28c.75-.42,1.12.35,1.72.28,0,0,.18.2.17.29-.08,1.06,0,2.11-.15,3.19-.28,1.85-1.51,3.12-2.39,4.59a7.57,7.57,0,0,1-1.67,2.6c-.24.18-.3.63-.39,1a.83.83,0,0,0,.65,1c.18.07.66-.21.74-.42A15.37,15.37,0,0,1,225.23,18a25.86,25.86,0,0,0,1.87-2.69c.51-1,1.44-1.56,2.05-2.42A5.53,5.53,0,0,1,231.43,11c.57-.26,1.15-.07,1.22.48a2.78,2.78,0,0,1,0,1.15,12.79,12.79,0,0,1-1.18,3.15,26.05,26.05,0,0,1-2.7,4.09c-.92.95-1.27,2.33-2.18,3.32-.13.15-.09.49-.07.73s.1.62.2.64a1.23,1.23,0,0,0,.88-.13,7.7,7.7,0,0,0,2-2.63c.67-1.27,2-2.11,2.36-3.6a3.06,3.06,0,0,0,1.71-1.38c.46-.67,1.18-.62,1.76-.92a.75.75,0,0,1,1.08.56,3.79,3.79,0,0,1-.48,2.68c-.66.87-1.25,1.79-1.91,2.66-.92,1.21-1.88,2.4-2.83,3.6-.16.2-.49.35-.51.55,0,.42-.08,1,.16,1.24a.75.75,0,0,0,1.13-.26,19.25,19.25,0,0,1,3-3.37c.22-.23.41-.55.68-.66a2.38,2.38,0,0,1,1.25-.2c.56.08.22.61.3.94a2.65,2.65,0,0,1-.43,1.94c-1.14,2-2.34,3.9-3.52,5.84a10.07,10.07,0,0,0-.66,1.08A13.57,13.57,0,0,1,230.78,36c-.37.4-.31,1.15-.6,1.66a14.28,14.28,0,0,1-1.58,2.82c-.4.45-.45,1.21-.72,1.8-.43,1-.88,2-1.39,2.88a7.66,7.66,0,0,0-.82,2,9.26,9.26,0,0,1-1.2,2.76c-.87,1.38-1.08,3-1.85,4.42a20.24,20.24,0,0,0-1.76,4.27c-.65,2.23-1.45,4.39-2.31,6.54a8.12,8.12,0,0,1-.88,2.15,8.31,8.31,0,0,0-.8,2,15.81,15.81,0,0,1-1.16,3.17c-.86,1.31-1.2,2.88-2,4.17S212.67,79,212,80.08s-1.16,2.21-1.78,3.29c-1.3,2.23-2.61,4.44-3.95,6.63-.53.88-1.25,1.66-1.69,2.57s-1.49,1.49-1.57,2.62c-1.41.93-1.89,2.58-2.95,3.79-1.73,2-3.44,4-5.15,6a27.85,27.85,0,0,1-3.5,3.69c-1.12.9-2,2-3.15,2.9s-2.35,1.64-3.33,2.61-2.72,1.53-3.69,2.79c-.07.09-.37,0-.56,0s-.38-.21-.37-.3a6.39,6.39,0,0,0-.63-2.82,17.27,17.27,0,0,1-.49-2.48,20,20,0,0,0-1.45-5.18c-.3-.56.21-1.32-.52-1.71-.34-2.76-1.58-5.24-2.47-7.83-.81-2.35-1.72-4.67-2.73-6.94-.46-1-1-2-1.51-3A3.81,3.81,0,0,1,170.28,85.39Z"/><path class="cls-12" d="M238.05,232a17.42,17.42,0,0,0,4.68,1.2,11,11,0,0,1,3.54.66.72.72,0,0,0,.35.06c3-.2,6,.71,9,.37a13.51,13.51,0,0,0,8.45-3.13c.14-.13.1-.46.14-.7a7,7,0,0,1,2.5.46c1.26.79,2.65.76,4,1.08a.71.71,0,0,1,.4,1,3.32,3.32,0,0,1-.82.81,1.68,1.68,0,0,0-.66,1.84.79.79,0,0,0,.29.57,1,1,0,0,0,.72-.07,1.09,1.09,0,0,0,.5-.54,3,3,0,0,1,2.32-1.87c.17,0,.35-.21.49-.18a8.17,8.17,0,0,0,2.16.4,13.68,13.68,0,0,1,2,.35c.64.09.45.6.37.86s-.46.58-.72.85a2.59,2.59,0,0,0-.79,2c0,.44.55.8.9.53a4.23,4.23,0,0,0,.64-.84c.82-1.06,1.76-2.15,3.22-1.78a10.21,10.21,0,0,1,3.88,1.34,5,5,0,0,0,3.1,1.3,19.47,19.47,0,0,0,3.34,2.16,13.59,13.59,0,0,1,3.33,3c.86,1.13,1.84,2.3,1.63,3.94-.13,1-.29,1.22-1.21,1.26-.39,0-.77,0-1.16,0q-30,0-60.05,0c-.72,0-1.52-.27-2.17.36,0,.05-.44-.07-.47-.17a7.36,7.36,0,0,1-.27-4c.07-.23.25-.46.22-.67-.24-1.71.3-3.36.45-5a11.87,11.87,0,0,1,.69-3.16,21.43,21.43,0,0,0,.8-3.52c.19-1,.6-1.45,1.49-1.09A7.67,7.67,0,0,0,238.05,232Z"/><path class="cls-13" d="M354,220c1,.34,1.17,1.42,1.47,2.16a14.64,14.64,0,0,1,.81,4.07,27.1,27.1,0,0,1,0,4c0,.91-.29,1.81-.35,2.72a19.86,19.86,0,0,1-.05,2.68c-.41,1.93-.51,3.89-.78,5.83a20.32,20.32,0,0,0-.36,3.3c0,.2-.24.4-.37.61H348c-1.92,0-3.85,0-5.77,0s-3.77.21-5.63-.35a11,11,0,0,0-2.23-.19c0-.76,0-1.53,0-2.29V221.05c0-.39,0-.77,0-1.16a.83.83,0,0,1,.87-1c1,.07,2.13-.35,3.14.29.28.17.75.06,1.13.06,1.15,0,2.31,0,3.46,0,1.43.07,2.84.29,4.27.36a34.83,34.83,0,0,1,4.22.07A14.7,14.7,0,0,0,354,220Z"/><path class="cls-14" d="M120,78.46c-1.2,0-2.1,0-3,0-2.07.12-4-.5-6-.82-.78-.12-1.45-.85-2.23-1.09-3.19-1-5.24-3.44-7.47-5.67a7.84,7.84,0,0,1-1.08-1.47A8.38,8.38,0,0,1,99.53,68c-.52-1.39-1.33-2.64-1.84-4-.27-.75,0-1.52-.49-2.3a6.85,6.85,0,0,1-.45-2.88c-.08-1-.37-1.39-1.41-1.42a8,8,0,0,1-3.56-1.17,1.88,1.88,0,0,1-.74-.53c-.41-.71-.71-1.5-1.12-2.22-.3-.55.2-1.31-.5-1.72.56-.69.21-1.58.47-2.31A5.52,5.52,0,0,1,91,47.54,2.21,2.21,0,0,1,92.27,47a3.4,3.4,0,0,1,3.26.84,7.87,7.87,0,0,0,1.38,1.33c.24.15.79.38,1-.36.43-1.48,1-2.93,1.53-4.36a8.78,8.78,0,0,1,.88-2.15,14,14,0,0,1,1.12-1.85c.39-.4.47-1.11.85-1.54a10.32,10.32,0,0,1,5.09-3.48c.67-.18,1-.83,1.79-.88a16.54,16.54,0,0,0,2.91-.36c2.39-.59,4.78-.2,7.17-.33.16,0,2.54-.68,2.76-.77a17.82,17.82,0,0,0,6.1-3.86.91.91,0,0,1,1.32-.21,5.45,5.45,0,0,1,1.05.69,17.74,17.74,0,0,1,4.75,8.61,5.08,5.08,0,0,0,.17.51c.2.62.42,1.24.6,1.86s.15,1.43.53,1.88c.5.6-.17,1.47.63,1.88a7.5,7.5,0,0,0,.35,2.73,11.23,11.23,0,0,1,.41,2.53c.07.79.21,1.57.33,2.35a54.08,54.08,0,0,1,.42,6.37,12,12,0,0,1-.36,2.34,10.06,10.06,0,0,1-.29,2.18c-.32.85-.18,1.93-.47,2.89-.16.51-.22,1.06-.4,1.57a18.43,18.43,0,0,1-5.36,8.16,17.67,17.67,0,0,1-5.68,2.55C124,78.66,121.85,78.35,120,78.46Zm-2.49-11.18c-.27,1,.25,1.73,1.07,2.47a6.24,6.24,0,0,0,3.59,2c.81.25,1.72,0,2.47.54.77-.57,1.74-.31,2.61-.65,2.48-1,2.55-.87,4-2.87a4.9,4.9,0,0,0,.91-3.82,1.07,1.07,0,0,0-.72-.71c-1.6-.06-3.2,0-4.8,0-.55.68-1.32.44-2,.35-.81-.12-1.41.4-2.15.44-1.36.06-2.72.22-4.07.37a.89.89,0,0,0-.91,1Zm6.16-14.4a9.32,9.32,0,0,0,0,2.48c.3,1-.12,2.55,1.66,2.74.25,0,.52.38.67.64a1.48,1.48,0,0,1,.29,1,.89.89,0,0,1-1,.65,2.73,2.73,0,0,0-2,.61c-.17.12-.38.45-.33.6s.34.63.58.67a7.59,7.59,0,0,0,1.72,0,3,3,0,0,0,2.63-2.18c.09-.41.65-.63.29-1.32-.49-.94-.83-1.85-1.91-2.29a1.22,1.22,0,0,1-.62-.83,18,18,0,0,1-.41-4.26c0-.25.11-.6,0-.74-.36-.41-.81-1-1.22-1-.6,0-.25.7-.28,1.09C123.65,51.47,123.69,52.18,123.69,52.88Zm8.37-5.31c-.83.13-1.69-.06-2.35.51a25.78,25.78,0,0,0-2.16,2.15c-.27.3.1.9.51.92a2.18,2.18,0,0,0,2-.78,2.28,2.28,0,0,1,2-.78,3.48,3.48,0,0,1,2.75,1.26.91.91,0,0,0,1.44-.08.79.79,0,0,0-.17-1.29A2.63,2.63,0,0,1,135,48.41a1,1,0,0,0-.61-.33C133.6,47.89,132.83,47.73,132.06,47.57ZM115,50.4c-1.11-.25-1.81.66-2.73,1.09-1.38.65-1.16,2-1.59,3-.08.19.31.65.59.83.12.08.57-.18.74-.4a9.45,9.45,0,0,0,.56-1.1,2.44,2.44,0,0,1,3.81-1,.93.93,0,0,0,1.44-.22,1,1,0,0,0-.26-1.31A2.9,2.9,0,0,0,115,50.4Zm-3.17-5.48c-.74.26-1.71.56-2.63,1-.67.28-.57,1-.46,1.5s.89.4,1.1.27c.7-.45,1.59-.06,2.13-.42.81-.54,1.6-.15,2.37-.32.19,0,.52-.24.51-.34,0-.4.32-1-.24-1.17A24.35,24.35,0,0,0,111.79,44.92Zm21.27.36v.1a4.29,4.29,0,0,0,.95,0,.67.67,0,0,0,.44-.41c.16-.81,0-1-.8-1.35-.38-.15-.77-.28-1.17-.4a3.78,3.78,0,0,0-4,1.09.81.81,0,0,0-.12.51c0,.07.19.18.29.19ZM93.38,53.07c.87,0,1.32-.22,1.41-1s.23-1.69-.69-2.18c-.3-.16-.79-.36-1-.23a2,2,0,0,0-1,2.05C92.2,52.81,92.34,53,93.38,53.07Zm22.09,7.33c-.14.18-.59.49-.59.8s.38.73.92.73a.91.91,0,0,0,.94-.74C116.85,60.8,116.21,60.34,115.47,60.4Zm-3,.79c0-.83,0-.78-.85-.82-.64,0-.72.25-.7.77,0,.8,0,.75.87.79C112.48,62,112.61,61.69,112.52,61.19Zm19.65-2.73c.75,0,.76,0,.75-.68,0-.39.22-1-.56-.86a1,1,0,0,0-1,1.07C131.37,58.65,131.84,58.41,132.17,58.46Zm3.51-1.54c.4,0,.79.06.72-.54s-.45-1.05-.84-1-.75.65-.71,1.14S135.39,56.83,135.68,56.92Zm-5.61-1.17c.14-.2.46-.45.53-.75s-.71-.92-1.21-.75a.64.64,0,0,0-.29.53A.92.92,0,0,0,130.07,55.75ZM117.41,57.4c.28-.91-.15-.85-.55-.87s-.47.21-.5.57c0,.57.26.67.68.57A.72.72,0,0,0,117.41,57.4Zm-3.81,1.05c.78,0,.86,0,.84-.57,0-.2-.18-.38-.28-.58-.29.26-.59.52-.85.8A3.29,3.29,0,0,0,113.6,58.45Zm19.52-4.16c-.26-.2-.4-.42-.57-.43-.51,0-.41.38-.37.65s.24.32.36.49Z"/><path class="cls-15" d="M120.52,91.16c-1.35.35-2.92-.37-4.54-.4a2.27,2.27,0,0,1-1.18-.39c-1.87-1.34-4.27-1.93-5.67-4a7,7,0,0,0-.56-.92c-.31-.34-.29-.53-.06-1,.58-1.1,1-2.26,1.51-3.41.14-.33.1-.73.21-1.07a.71.71,0,0,1,.42-.43,1.81,1.81,0,0,1,1.13,0c.89.58,1.83.29,2.75.36a34.3,34.3,0,0,0,5.8.31c1.68-.16,3.35-.3,5-.31.56,0,1.07-.14,1.08.83,0,.55.66,1.12,1.07,1.64a3,3,0,0,1,.81,2,3.66,3.66,0,0,0,.32,2,2.83,2.83,0,0,1-.4,2.48c-.32.63-1.15,1-1.79,1.47a2.76,2.76,0,0,1-1,.38,18.4,18.4,0,0,1-2.34.38C122.37,91.21,121.59,91.16,120.52,91.16Z"/><path class="cls-16" d="M218,31.91c0,.44,0,.88,0,1.32s-.17.63-.64.62-.55-.14-.53-.54c0-.62,0-1.25,0-1.87,0-.11.24-.2.37-.3a5.84,5.84,0,0,0,.39.48A2.72,2.72,0,0,0,218,31.91Z"/><path class="cls-16" d="M217.26,30.37c-.13-.15-.34-.28-.37-.45a6.47,6.47,0,0,1,0-1.08C217.85,29.55,217.89,29.68,217.26,30.37Z"/><path class="cls-4" d="M117.53,67.28v-.93a.89.89,0,0,1,.91-1c1.35-.15,2.71-.31,4.07-.37.74,0,1.34-.56,2.15-.44.63.09,1.4.33,2-.35,1.6,0,3.2,0,4.8,0a1.07,1.07,0,0,1,.72.71,4.9,4.9,0,0,1-.91,3.82c-1.4,2-1.47,1.91-4,2.87-.87.34-1.84.08-2.61.65-.75-.52-1.66-.29-2.47-.54a6.24,6.24,0,0,1-3.59-2C117.78,69,117.26,68.25,117.53,67.28Z"/><path class="cls-17" d="M123.69,52.88c0-.7,0-1.41,0-2.11,0-.39-.32-1.1.28-1.09.41,0,.86.59,1.22,1,.13.14.05.49,0,.74a18,18,0,0,0,.41,4.26,1.22,1.22,0,0,0,.62.83c1.08.44,1.42,1.35,1.91,2.29.36.69-.2.91-.29,1.32a3,3,0,0,1-2.63,2.18,7.59,7.59,0,0,1-1.72,0c-.24,0-.49-.4-.58-.67s.16-.48.33-.6a2.73,2.73,0,0,1,2-.61.89.89,0,0,0,1-.65,1.48,1.48,0,0,0-.29-1c-.15-.26-.42-.61-.67-.64-1.78-.19-1.36-1.73-1.66-2.74A9.32,9.32,0,0,1,123.69,52.88Z"/><path class="cls-18" d="M132.06,47.57c.77.16,1.54.32,2.3.51a1,1,0,0,1,.61.33A2.63,2.63,0,0,0,136,49.48a.79.79,0,0,1,.17,1.29.91.91,0,0,1-1.44.08A3.48,3.48,0,0,0,132,49.59a2.28,2.28,0,0,0-2,.78,2.18,2.18,0,0,1-2,.78c-.41,0-.78-.62-.51-.92a25.78,25.78,0,0,1,2.16-2.15C130.37,47.51,131.23,47.7,132.06,47.57Z"/><path class="cls-19" d="M115,50.4a2.9,2.9,0,0,1,2.56.91,1,1,0,0,1,.26,1.31.93.93,0,0,1-1.44.22,2.44,2.44,0,0,0-3.81,1,9.45,9.45,0,0,1-.56,1.1c-.17.22-.62.48-.74.4-.28-.18-.67-.64-.59-.83.43-1,.21-2.37,1.59-3C113.15,51.06,113.85,50.15,115,50.4Z"/><path class="cls-18" d="M111.79,44.92a24.35,24.35,0,0,1,2.78.48c.56.17.2.77.24,1.17,0,.1-.32.29-.51.34-.77.17-1.56-.22-2.37.32-.54.36-1.43,0-2.13.42-.21.13-1,.36-1.1-.27s-.21-1.22.46-1.5C110.08,45.48,111.05,45.18,111.79,44.92Z"/><path class="cls-17" d="M133.06,45.28,128.62,45c-.1,0-.29-.12-.29-.19a.81.81,0,0,1,.12-.51,3.78,3.78,0,0,1,4-1.09c.4.12.79.25,1.17.4.83.35,1,.54.8,1.35a.67.67,0,0,1-.44.41,4.29,4.29,0,0,1-.95,0Z"/><path class="cls-16" d="M93.38,53.07c-1,0-1.18-.26-1.28-1.37a2,2,0,0,1,1-2.05c.22-.13.71.07,1,.23.92.49.78,1.39.69,2.18S94.25,53.1,93.38,53.07Z"/><path class="cls-20" d="M115.47,60.4c.74-.06,1.38.4,1.27.79a.91.91,0,0,1-.94.74c-.54,0-.92-.32-.92-.73S115.33,60.58,115.47,60.4Z"/><path class="cls-21" d="M112.52,61.19c.09.5,0,.78-.68.74-.85,0-.83,0-.87-.79,0-.52.06-.81.7-.77C112.52,60.41,112.52,60.36,112.52,61.19Z"/><path class="cls-21" d="M132.17,58.46c-.33-.05-.8.19-.78-.47a1,1,0,0,1,1-1.07c.78-.1.56.47.56.86C132.93,58.46,132.92,58.46,132.17,58.46Z"/><path class="cls-22" d="M135.68,56.92c-.29-.09-.77.23-.83-.4s.32-1.09.71-1.14.77.43.84,1S136.08,56.94,135.68,56.92Z"/><path class="cls-22" d="M130.07,55.75a.92.92,0,0,1-1-1,.64.64,0,0,1,.29-.53c.5-.17,1.3.32,1.21.75S130.21,55.55,130.07,55.75Z"/><path class="cls-21" d="M117.41,57.4a.72.72,0,0,1-.37.27c-.42.1-.72,0-.68-.57,0-.36.06-.59.5-.57S117.69,56.49,117.41,57.4Z"/><path class="cls-22" d="M113.6,58.45a3.29,3.29,0,0,1-.29-.35c.26-.28.56-.54.85-.8.1.2.27.38.28.58C114.46,58.43,114.38,58.49,113.6,58.45Z"/><path class="cls-22" d="M133.12,54.29l-.58.71c-.12-.17-.33-.32-.36-.49s-.14-.7.37-.65C132.72,53.87,132.86,54.09,133.12,54.29Z"/></g></g></svg>