<svg width="384" height="334" viewBox="0 0 384 334" fill="none" xmlns="http://www.w3.org/2000/svg">
<path d="M0.000131427 196.3C-0.299869 168.7 7.90013 142.6 24.1001 119.1C37.7001 99.1002 56.5001 83.2002 78.5001 73.1002C81.2001 71.8002 81.8001 70.5002 81.1001 67.9002C77.9001 55.6002 78.0001 55.6002 65.8001 59.3002C56.4001 62.2002 48.3001 58.4002 45.5001 49.7002C42.7001 41.0002 46.7001 33.4002 56.3001 30.1002C72.1001 24.8002 88.0001 19.7002 103.8 14.7002C113 11.8002 122 15.9002 124.4 24.0002C127 32.5002 122.3 40.7002 113.3 43.8002C102 47.7002 102.3 47.6002 105.6 58.8002C106.9 63.1002 109.1 62.8002 112.4 62.3002C142.6 56.9002 171.6 61.0002 198.6 75.2002C238.9 96.4002 264 130 271 174.9C278.6 224.1 263.3 266.5 226.1 300.1C206.6 317.9 182.1 329.2 155.9 332.4C107.5 338.6 66.5001 323.4 33.8001 287.3C15.7001 267.3 5.40013 243.3 1.10013 216.7C0.100131 210.2 0.500131 203.7 0.000131427 196.3ZM248.4 198.4C249.7 135.8 197.9 83.6002 136.4 83.6002C72.8001 83.5002 23.8001 134.7 24.1001 196.6C24.4001 261.2 75.0001 309.8 136.3 310.4C198.1 311 248.9 259.3 248.4 198.4Z" fill="#333334"/>
<path d="M248.4 198.4C249 259.3 198.2 311 136.2 310.3C75 309.7 24.4 261.2 24.1 196.5C23.8 134.6 72.8 83.4001 136.4 83.5001C197.8 83.6001 249.6 135.8 248.4 198.4ZM136 89.7001C131.1 89.8001 126.2 90.1001 121.3 90.7001C91 95.2001 67.1 110.2 49.5 134.9C32.9 158.3 27 184.6 31.8 213.1C38.1 250.4 59.3 277 92.8 292.9C114.4 303.2 137.8 304.9 161.6 299.1C167 297.8 171.9 296.9 177.2 294.2C196.8 284.2 213.4 271.4 225.9 252.9C228.8 248.5 231.3 243.8 233.2 238.9C240.8 220.7 243.5 200.9 241.1 181.3C238.5 159.9 229.2 139.9 214.5 124.2C193.5 101.4 167.1 89.9001 136 89.7001Z" fill="#D6D6D6"/>
<path d="M136 89.7002C167.1 89.9002 193.4 101.4 214.4 124.2C229.1 139.9 238.4 159.9 241 181.3C243.4 200.8 240.7 220.7 233.1 238.9C231.2 243.8 228.7 248.5 225.8 252.9C213.3 271.4 196.8 284.2 177.1 294.2C171.8 296.9 166.9 297.7 161.5 299.1C137.7 304.9 114.4 303.2 92.6999 292.9C59.2999 277 37.9999 250.5 31.6999 213.1C26.8999 184.6 32.7999 158.3 49.3999 134.9C66.8999 110.2 90.8999 95.2002 121.2 90.7002C126.2 90.1002 131.1 89.8002 136 89.7002ZM156.6 196.3C156.7 194.3 156.5 192.3 155.8 190.5C155.1 188.6 154.1 186.9 152.7 185.5C151.3 184.1 149.7 182.9 147.9 182.1C146.1 181.3 144.1 180.9 142.1 180.9C140.1 180.9 138.2 181.4 136.3 182.2C134.5 183 132.9 184.2 131.5 185.7C130.2 187.2 129.2 188.9 128.5 190.8C127.9 192.7 127.6 194.7 127.8 196.7C128.1 200.3 129.8 203.7 132.5 206.1C135.2 208.5 138.7 209.9 142.3 209.8C145.9 209.8 149.4 208.4 152 205.9C154.7 203.3 156.3 199.9 156.6 196.3ZM133.9 138.4C132.2 126.7 130.6 115.5 129 104.2C128.8 102.4 128.1 101 126.1 101.3C124.1 101.6 123.8 103.2 124.1 104.9C125.7 116.1 127.4 127.4 129 138.6C129.2 140.1 129.9 141.5 131.6 141.4C132 141.4 132.3 141.3 132.6 141.1C132.9 140.9 133.2 140.7 133.4 140.4C133.6 140.1 133.8 139.8 133.8 139.4C134 139.2 134 138.8 133.9 138.4ZM77.2999 262.2C78.2999 261.5 79.2999 260.7 80.1999 259.9C84.6999 255.7 89.0999 251.4 93.5999 247.2C96.7999 244.2 99.9999 241.2 103.2 238.2C104.6 236.9 105.8 235.4 104.2 233.7C102.6 232 101 233.5 99.6999 234.6C98.3999 235.8 97.3999 236.8 96.2999 237.9L75.9999 257.1C74.9999 258.1 73.7999 259 74.2999 260.6C74.6999 261.8 75.5999 262.2 77.2999 262.2ZM86.5999 190.5C86.8999 190.6 87.2999 190.7 87.5999 190.6C87.8999 190.6 88.2999 190.4 88.5999 190.3C88.8999 190.1 89.0999 189.9 89.2999 189.6C89.4999 189.3 89.5999 189 89.5999 188.6C89.9999 186.2 87.9999 185.9 86.1999 185.6L53.5999 179.9C51.8999 179.6 50.1999 179.5 49.6999 181.5C49.0999 183.8 50.8999 184.5 52.6999 184.8L86.5999 190.5ZM234 212.2C235.6 212.4 236.9 212 237.3 210.4C237.7 208.8 236.4 207.8 235 207.5C223.6 205.5 212.2 203.5 200.8 201.6C199.4 201.4 197.9 201.5 197.5 203.4C197.4 203.7 197.4 204.1 197.5 204.5C197.6 204.8 197.7 205.2 197.9 205.5C198.1 205.8 198.4 206 198.7 206.2C199 206.4 199.4 206.5 199.7 206.5C211.2 208.4 222.6 210.3 234 212.2ZM158.6 284.8C157.1 274 155.5 262.8 154 251.7C153.8 250.1 153.1 248.5 151 248.9C148.9 249.3 148.9 251 149.2 252.6C150.8 263.7 152.4 274.9 154 286C154.2 287.7 154.9 289.3 156.9 288.9C158.9 288.6 158.8 286.7 158.6 284.8ZM183.1 157.3C183.7 157.1 184.2 156.8 184.7 156.4C193.3 148.4 201.8 140.4 210.4 132.3C211.6 131.2 211.9 129.9 210.7 128.6C209.5 127.3 208.1 127.8 207 128.8C203.3 132.2 199.6 135.7 195.9 139.2L182.2 152.1C181.1 153.1 180.3 154.2 181 155.8C181.2 156.2 181.5 156.6 181.9 156.9C182.1 157.2 182.6 157.3 183.1 157.3Z" fill="white"/>
<path d="M156.6 196.3C156.3 199.9 154.7 203.3 152.1 205.8C149.5 208.3 146 209.7 142.4 209.7C138.8 209.7 135.3 208.4 132.6 206C129.9 203.6 128.2 200.2 127.9 196.6C127.7 194.6 128 192.6 128.6 190.7C129.2 188.8 130.2 187.1 131.6 185.6C133 184.1 134.6 182.9 136.4 182.1C138.2 181.3 140.2 180.9 142.2 180.8C144.2 180.8 146.2 181.2 148 182C149.8 182.8 151.5 183.9 152.8 185.4C154.2 186.8 155.2 188.6 155.9 190.4C156.4 192.4 156.7 194.3 156.6 196.3Z" fill="#333334"/>
<path d="M133.9 138.4C134 138.8 134 139.1 133.9 139.5C133.8 139.9 133.7 140.2 133.4 140.5C133.2 140.8 132.9 141 132.6 141.2C132.3 141.4 131.9 141.4 131.6 141.5C129.9 141.6 129.3 140.2 129 138.7C127.4 127.5 125.7 116.2 124.1 105C123.9 103.3 124.1 101.7 126.1 101.4C128.1 101.1 128.7 102.6 129 104.3C130.6 115.5 132.3 126.8 133.9 138.4Z" fill="#3C3C3D"/>
<path d="M77.3 262.2C75.6 262.3 74.6999 261.8 74.3999 260.7C73.8999 259 75.0999 258.1 76.0999 257.2L96.3999 238C97.5999 236.9 98.6999 235.8 99.7999 234.7C101 233.7 102.6 232 104.3 233.8C106 235.6 104.6 237 103.3 238.3C100.1 241.3 96.8999 244.3 93.6999 247.3C89.1999 251.5 84.8 255.8 80.3 260C79.3 260.7 78.3 261.5 77.3 262.2Z" fill="#3B3B3C"/>
<path d="M86.5999 190.5L52.8999 184.7C50.9999 184.4 49.2999 183.7 49.8999 181.4C50.3999 179.4 52.0999 179.5 53.7999 179.8L86.2999 185.5C88.0999 185.8 90.0999 186.2 89.6999 188.5C89.6999 188.9 89.4999 189.2 89.3999 189.5C89.1999 189.8 88.9999 190.1 88.5999 190.2C88.2999 190.4 87.9999 190.5 87.5999 190.5C87.2999 190.7 86.8999 190.7 86.5999 190.5Z" fill="#3C3D3D"/>
<path d="M234 212.2C222.6 210.3 211.2 208.3 199.7 206.3C199.3 206.3 199 206.2 198.7 206C198.4 205.8 198.1 205.6 197.9 205.3C197.7 205 197.5 204.7 197.5 204.3C197.4 204 197.4 203.6 197.5 203.2C197.8 201.3 199.3 201.2 200.8 201.4C212.2 203.3 223.6 205.3 235 207.3C236.5 207.6 237.8 208.4 237.3 210.2C236.9 212.2 235.6 212.5 234 212.2Z" fill="#3C3D3E"/>
<path d="M158.6 284.8C158.7 286.7 158.9 288.6 156.8 288.9C154.7 289.2 154.1 287.7 153.9 286C152.3 274.9 150.7 263.7 149.1 252.6C148.9 251 148.8 249.2 150.9 248.9C153 248.5 153.7 250.1 153.9 251.7C155.6 262.8 157.2 274 158.6 284.8Z" fill="#3C3D3E"/>
<path d="M183.1 157.2C182.6 157.3 182.1 157.2 181.7 156.9C181.3 156.7 181 156.3 180.8 155.9C180.1 154.3 181 153.3 182 152.2L195.8 139.2C199.5 135.7 203.2 132.2 206.9 128.8C208 127.7 209.3 127.3 210.6 128.6C211.9 129.9 211.5 131.2 210.3 132.3C201.8 140.3 193.2 148.4 184.6 156.4C184.2 156.7 183.7 157 183.1 157.2Z" fill="#3D3D3E"/>
<path d="M296.7 288.5L326.4 309.3C329.1 311.2 332.2 312.6 335.5 313.3C338.7 314 342 314 345.2 313.3C348.3 312.6 351.3 311.3 353.8 309.3C356.4 307.3 358.4 304.9 359.9 302C376 269.3 384.2 233.3 383.8 196.8C383.7 162.3 376.3 128.3 362.1 96.8001C346.9 62.2001 324.1 31.5001 295.5 6.80014C293 4.60014 290 3.00014 286.8 2.00014C283.7 1.00014 280.4 0.70014 277.1 1.10014C273.9 1.50014 270.9 2.60014 268.1 4.30014C265.3 6.00014 263.1 8.30014 261.3 11.0001L242.4 40.2001C239.3 45.0001 238 50.7001 238.8 56.4001C239.7 62.2001 242.5 67.6001 246.8 71.5001C255.5 79.4001 263.4 88.2001 270.2 97.8001C272.9 101.6 276.5 104.5 280.8 106.4C284.9 108.2 289.5 108.8 294 108.1L314.6 104.6C330.4 135.5 337.9 169.9 336.3 204.5L315.7 208C311.4 208.8 307.3 210.8 304.2 213.9C301 217 298.9 221 298 225.4C295.7 236.5 292.1 247.3 287.3 257.6C284.9 262.9 284.6 268.9 286.3 274.5C288.1 280.2 291.8 285.2 296.7 288.5Z" fill="#2F2F2F"/>
</svg>
