<svg width="46" height="48" viewBox="0 0 46 48" fill="none" xmlns="http://www.w3.org/2000/svg">
<path d="M6.71965 31.276V30.2598C6.71965 20.7752 6.71965 11.2828 6.71965 1.78243C6.66959 1.48026 6.69702 1.1707 6.79948 0.881401C6.97997 0.596865 7.37567 0.203934 7.62211 0.251357C8.01937 0.359902 8.35864 0.613381 8.56969 0.95931C8.72588 1.19981 8.63216 1.59952 8.63216 1.93147C8.63216 11.3415 8.63216 20.7504 8.63216 30.1581V31.1303C9.45132 31.5232 10.1906 31.862 10.9161 32.2244C14.099 33.8063 14.8938 37.5222 13.7276 40.354C13.3962 41.2242 12.8542 42.0034 12.1477 42.625C11.4412 43.2467 10.5911 43.6924 9.66999 43.9243C8.97579 44.1139 8.47944 44.4324 8.62869 45.2792C8.6669 45.635 8.6669 45.9938 8.62869 46.3496C8.58357 47.1592 8.19482 47.6266 7.5874 47.5555C6.85155 47.4742 6.7856 46.878 6.74742 46.3259C6.7023 45.6958 6.74742 45.0624 6.74742 44.3544C4.67871 43.8633 2.95016 42.8843 1.8325 41.1263C1.16807 39.9971 0.86807 38.6985 0.971698 37.4002C1.09318 34.4533 3.44304 31.9331 6.71965 31.276ZM12.3114 37.8033C12.4121 35.0359 9.9442 33.1695 7.60822 33.1593C5.21671 33.1593 2.85644 35.2324 2.86339 37.7932C2.89065 39.0134 3.40728 40.1745 4.30227 41.027C5.19727 41.8796 6.39922 42.3555 7.64987 42.3525C10.2601 42.3356 12.3947 40.3269 12.3114 37.8033Z" fill="white"/>
<path d="M22.5751 23.0245C17.7991 21.4663 16.6085 18.7734 16.848 15.7282C17.0806 12.7575 19.2985 10.6641 22.5751 9.8579V4.20444C22.5751 3.23905 22.5751 2.27705 22.5751 1.31504C22.5751 0.72226 22.7452 0.26497 23.4255 0.210773C24.1058 0.156576 24.4668 0.525795 24.4668 1.30488C24.4668 4.13331 24.4668 6.96512 24.4668 9.77322C25.161 10.0713 25.7962 10.3592 26.4453 10.637C29.885 12.1173 30.732 16.0567 29.59 18.9122C29.2693 19.7577 28.7509 20.5186 28.0761 21.1342C27.4012 21.7499 26.5885 22.2034 25.7025 22.4588C24.8139 22.7332 24.4182 23.1024 24.4252 24.1321C24.4877 31.3946 24.4599 38.6536 24.4529 45.9127C24.4803 46.2915 24.4149 46.6712 24.262 47.0203C24.1665 47.155 24.0435 47.2691 23.9008 47.3553C23.758 47.4416 23.5986 47.4982 23.4325 47.5217C23.292 47.4989 23.1592 47.4437 23.045 47.3606C22.9309 47.2775 22.8388 47.169 22.7765 47.0441C22.6346 46.6905 22.5685 46.3124 22.5821 45.933C22.5821 38.6186 22.5821 31.3042 22.5821 23.9899L22.5751 23.0245ZM23.5262 11.7209C21.034 11.7751 18.7258 13.838 18.6946 16.2938C18.6871 16.9079 18.8058 17.5172 19.0438 18.0857C19.2818 18.6542 19.6341 19.1703 20.0801 19.6036C20.526 20.0369 21.0564 20.3785 21.64 20.6083C22.2236 20.838 22.8484 20.9513 23.4776 20.9413C26.1884 20.8938 28.1252 19.0816 28.1495 16.4666C28.1773 13.479 26.0184 12.0597 23.5262 11.7209Z" fill="white"/>
<path d="M40.3118 37.014V44.4018C40.3118 45.0352 40.3431 45.6687 40.3118 46.2987C40.2806 46.9288 40.1591 47.5656 39.3122 47.5453C38.4653 47.5249 38.4271 46.8678 38.4236 46.2953C38.3993 43.5482 38.4236 40.7977 38.4236 38.0472V37.0581C37.3823 36.55 36.341 36.1706 35.4282 35.571C34.4887 34.9815 33.7336 34.1511 33.2457 33.1706C32.7577 32.1901 32.5557 31.0975 32.6618 30.0124C32.8388 27.2822 34.2203 25.3548 36.886 24.3759C37.3044 24.2505 37.7072 24.0801 38.0869 23.8678C38.1807 23.7845 38.2557 23.6831 38.3071 23.5699C38.3585 23.4568 38.3852 23.3344 38.3854 23.2107C38.4132 21.8557 38.3854 20.5008 38.3854 19.1662C38.3854 14.6497 38.3854 10.1401 38.3854 5.63716C38.3854 5.10874 38.3577 4.55322 39.0241 4.34998C39.6905 4.14674 40.2494 4.54306 40.2806 5.28488C40.3188 6.1351 40.2806 6.97855 40.2806 7.84232C40.2806 12.8759 40.2806 17.9083 40.2806 22.9397C40.2806 23.4952 40.3153 23.8136 41.0199 24.0507C42.4083 24.5216 43.7516 25.1753 44.6263 26.4218C44.9337 26.9106 45.2029 27.4213 45.4315 27.9495C46.4347 29.9819 46.0112 31.9771 44.9317 33.7859C44.418 34.6429 43.4566 35.2865 42.6027 35.8962C41.9675 36.3569 41.1553 36.6143 40.3118 37.014ZM34.5569 30.3512C34.5669 31.5738 35.0688 32.7438 35.9544 33.6087C36.8401 34.4736 38.0385 34.9642 39.2914 34.9749C39.9154 34.9855 40.5353 34.873 41.1137 34.6441C41.6921 34.4152 42.2172 34.0747 42.6574 33.6428C43.0976 33.211 43.4439 32.6969 43.6754 32.1312C43.907 31.5656 44.0191 30.9601 44.005 30.3512C44.005 27.8886 41.8217 25.5276 39.3816 25.6868C36.7992 25.8494 34.6854 27.4448 34.5569 30.3512Z" fill="white"/>
<path d="M38.4028 1.34559C38.4028 0.739261 38.5521 0.234548 39.3018 0.20745C39.9682 0.180351 40.3084 0.586831 40.3119 1.34221C40.3119 1.98919 40.0481 2.39905 39.3504 2.44309C38.7499 2.47696 38.4098 2.07726 38.4028 1.34559Z" fill="white"/>
</svg>
