<svg width="29" height="29" viewBox="0 0 29 29" fill="none" xmlns="http://www.w3.org/2000/svg">
<path d="M27.2895 20.5046V24.4265C27.291 24.7905 27.2164 25.1509 27.0705 25.4845C26.9247 25.8181 26.7107 26.1175 26.4425 26.3637C26.1742 26.6098 25.8575 26.7972 25.5126 26.9138C25.1677 27.0304 24.8022 27.0738 24.4396 27.041C20.4169 26.6039 16.5528 25.2293 13.1579 23.0277C9.99926 21.0206 7.32132 18.3426 5.31422 15.184C3.1049 11.7736 1.73 7.89075 1.30089 3.84998C1.26823 3.48848 1.31119 3.12413 1.42705 2.78014C1.5429 2.43615 1.72912 2.12005 1.97383 1.85197C2.21855 1.58389 2.5164 1.3697 2.84843 1.22305C3.18046 1.07639 3.53939 1.00047 3.90237 1.00013H7.82419C8.45861 0.993883 9.07367 1.21854 9.5547 1.63224C10.0357 2.04593 10.3499 2.62042 10.4387 3.24864C10.6043 4.5037 10.9112 5.73602 11.3538 6.92207C11.5297 7.38998 11.5678 7.89849 11.4635 8.38737C11.3592 8.87624 11.117 9.32498 10.7655 9.68042L9.10531 11.3407C10.9663 14.6135 13.6761 17.3233 16.9489 19.1843L18.6092 17.5241C18.9646 17.1726 19.4134 16.9304 19.9022 16.8261C20.3911 16.7218 20.8996 16.7599 21.3675 16.9358C22.5536 17.3784 23.7859 17.6853 25.041 17.8509C25.676 17.9405 26.2559 18.2603 26.6705 18.7496C27.0851 19.2389 27.3054 19.8635 27.2895 20.5046Z" stroke="#282828" stroke-width="2" stroke-linecap="round" stroke-linejoin="round"/>
</svg>
