<svg width="79" height="78" viewBox="0 0 79 78" fill="none" xmlns="http://www.w3.org/2000/svg">
<path d="M1.75005 77.5247C0.757262 76.6682 0.734255 76.1069 1.67529 75.1745C4.96708 71.9123 8.261 68.6516 11.5567 65.392C11.7376 65.2144 11.9106 65.0283 12.0812 64.8503C10.7866 63.1225 10.7846 63.1225 12.3521 61.5611C13.1378 60.7803 13.9435 60.021 14.6952 59.2103C14.7779 59.1029 14.8352 58.9783 14.8622 58.8454C14.8894 58.7128 14.8859 58.5756 14.8517 58.4444C13.5431 55.1041 14.1416 52.1366 16.6946 49.6049C21.7962 44.5472 26.9013 39.4938 32.0095 34.4443C37.5027 29.0101 42.9952 23.5776 48.4868 18.1459C48.6675 17.9684 48.8407 17.7801 48.9348 17.6802C48.6365 16.951 48.2406 16.3179 48.1263 15.6403C47.8857 14.2122 48.7174 12.8373 50.0642 12.1736C51.306 11.5686 52.675 11.8207 53.7373 12.8814C55.1256 14.2598 56.4948 15.6499 57.9443 17.1166L67.723 7.45274L67.4692 7.39099C67.5191 6.74126 67.5014 6.07286 67.6413 5.44221C67.8176 4.6419 68.1719 3.88261 68.3625 3.08476C68.6435 1.90635 69.2689 1.05249 70.3993 0.579815L71.6347 0.619615C72.2022 1.05003 72.8187 1.4306 73.3242 1.92502C74.9227 3.49365 76.4873 5.09838 78.0538 6.699C79.6204 8.29963 79.1042 10.4431 76.9616 11.1098C75.9807 11.4186 74.9853 11.6648 74.0137 12.0107C73.3447 12.2407 72.7226 12.3506 72.115 11.8258L62.321 21.5205L65.1973 24.4411C65.6503 24.899 66.1142 25.3468 66.5569 25.8146C67.801 27.1264 67.843 28.8921 66.6673 30.1963C65.3524 31.6589 63.617 31.8482 62.1329 30.6916L61.7852 30.4144C60.1603 32.0138 58.5437 33.6054 56.9359 35.189C47.8046 44.2271 38.6727 53.2663 29.54 62.3059C26.9252 64.9014 23.9449 65.595 20.5008 64.1753C20.3668 64.144 20.2272 64.144 20.0932 64.1754C19.9592 64.2069 19.8344 64.2689 19.7282 64.3566C18.7505 65.2691 17.8126 66.2304 16.8611 67.1687C15.9095 68.1068 15.3883 68.0942 14.4638 67.1657C14.264 66.9696 14.064 66.7818 13.8139 66.5428L9.28776 71.0083C7.34883 72.9275 5.40802 74.8433 3.46512 76.7554C3.17355 77.0408 2.82978 77.2812 2.52233 77.5497L1.75005 77.5247ZM50.7484 19.2906L47.1524 22.8419C47.3876 23.0331 47.6011 23.1802 47.7808 23.3591C48.6737 24.2515 49.5558 25.1517 50.4421 26.0483C50.9353 26.5484 51.0758 27.1136 50.6647 27.7168C50.2187 28.3786 49.4065 28.3833 48.741 27.733C47.6682 26.668 46.6106 25.5867 45.5065 24.4731L41.2101 28.7214C41.4772 28.936 41.7066 29.1104 41.9064 29.3086C42.7812 30.1797 43.656 31.0532 44.5137 31.9422C45.0781 32.5295 45.1091 33.2375 44.6315 33.727C44.1541 34.2167 43.4393 34.1979 42.8446 33.6532C42.6185 33.4398 42.407 33.2267 42.1897 32.9991C41.3231 32.124 40.4588 31.2469 39.5687 30.3444L35.3357 34.5368L38.3305 37.5583C39.1288 38.3693 39.2429 39.0595 38.676 39.6308C38.1094 40.202 37.4393 40.0731 36.6271 39.2474L35.6467 38.2595C34.9836 37.5928 34.3187 36.9283 33.6298 36.2381L29.4093 40.4311C30.5352 41.5722 31.6057 42.6394 32.6629 43.7372C33.3586 44.4686 33.1926 45.4031 32.3461 45.7633C31.7508 46.0124 31.3013 45.7586 30.8959 45.3499L27.7018 42.1181L23.4732 46.3107C24.6068 47.4604 25.6878 48.5298 26.7368 49.6252C27.3668 50.2843 27.3067 51.1277 26.6151 51.5444C25.9843 51.9365 25.4427 51.7252 24.9577 51.2295C23.9159 50.1651 22.8636 49.1109 21.7416 47.9782C20.3326 49.4213 18.8933 50.7827 17.5983 52.2684C16.725 53.271 16.461 54.557 16.6426 55.8965C16.9764 58.3356 18.8082 59.7013 20.4461 61.199C20.8379 61.5663 21.2861 61.8682 21.7738 62.0932C23.8489 63.0071 25.9804 62.4923 27.8177 60.6755C35.3574 53.2228 42.8961 45.7629 50.4333 38.2963L60.091 28.7395L50.7484 19.2906ZM51.4045 14.14C51.0988 14.4207 50.7439 14.6258 50.5814 14.9381C50.5392 15.0751 50.5299 15.2201 50.5543 15.3611C50.579 15.5022 50.6362 15.6358 50.7222 15.7505C51.2986 16.4082 51.9475 16.998 52.5624 17.6219C56.1768 21.2835 59.7907 24.9474 63.4037 28.6133C63.8587 29.0753 64.2936 29.2005 64.7885 28.6909C65.2531 28.2131 65.143 27.7952 64.7095 27.3609C60.5183 23.1295 56.3346 18.9051 52.158 14.688C51.9209 14.4869 51.6689 14.3039 51.4045 14.14ZM70.9487 2.91654C70.6089 3.98991 70.3018 4.88501 70.054 5.79426C70.0437 5.90792 70.0577 6.02239 70.095 6.1303C70.1324 6.23822 70.1925 6.3369 70.271 6.41957C71.2102 7.40432 72.1728 8.36897 73.1397 9.32561C73.2694 9.45567 73.4967 9.6317 73.6255 9.59477C74.597 9.32704 75.5552 9.01172 76.6378 8.67342L70.9487 2.91654ZM60.6129 19.8267L70.4454 10.1005L69.4465 9.10773L59.7437 18.7207C60.0547 19.1142 60.3062 19.4355 60.6129 19.8267ZM15.6191 65.0241L18.1915 62.4664L16.5342 60.7989L14.1559 63.1547L15.6191 65.0241Z" fill="white"/>
</svg>
