<svg width="378" height="378" viewBox="0 0 378 378" fill="none" xmlns="http://www.w3.org/2000/svg">
<path d="M189.43 1.88809C193.937 1.5559 195.361 2.86776 195.34 7.43369C195.268 23.407 195.187 39.3817 195.099 55.3579C195.091 56.2317 195.123 57.1069 195.141 57.9565C202.507 59.0125 202.512 59.0076 202.497 66.6333C202.485 70.4509 202.372 74.2654 202.516 78.073C202.576 78.5362 202.74 78.9796 202.998 79.3693C203.255 79.759 203.598 80.0846 204.001 80.3212C215.331 85.2726 221.105 93.9637 221.053 106.356C220.946 131.116 220.82 155.874 220.677 180.63C220.533 207.262 220.387 233.888 220.241 260.51C220.233 261.383 220.27 262.264 220.284 262.737C222.788 263.787 225.296 264.365 227.226 265.738C231.293 268.632 232.617 274.01 230.952 278.91C229.4 283.411 225.449 286.133 220.275 286.137C213.532 286.161 206.807 286.11 199.7 286.068L199.42 333.453L200.189 332.985C201.651 334.69 203.323 336.276 204.519 338.154C206.04 340.534 207.027 343.248 208.507 345.657C210.694 349.214 211.251 352.819 209.648 356.726L206.54 359.64C204.108 359.974 201.678 360.549 199.241 360.576C191.522 360.649 183.798 360.551 176.079 360.468C168.36 360.385 164.394 353.903 167.991 347.056C169.629 343.913 171.455 340.887 172.98 337.676C174.05 335.485 175.298 333.701 178.058 333.499L178.3 286.002L164.172 285.894C161.952 285.882 159.73 285.921 157.511 285.86C151.282 285.695 146.876 281.494 146.563 275.45C146.203 268.681 149.971 263.99 156.407 263.192L157.93 263.02C157.992 255.162 158.053 247.343 158.112 239.565C158.339 195.283 158.565 150.997 158.792 106.708C158.839 94.0093 164.412 85.0554 176.266 80.1218C176.669 79.8714 177.009 79.5313 177.259 79.128C177.509 78.7248 177.662 78.2693 177.707 77.797C177.866 73.1902 177.809 68.5615 177.841 63.9557C177.874 59.35 179.175 58.1108 183.691 58.1205C184.656 58.1114 185.601 58.0815 186.793 58.0545L186.941 36.1405C186.989 26.7375 187.05 17.3383 187.125 7.94292C187.14 6.53675 187.392 5.11307 187.487 3.70948L189.43 1.88809ZM211.939 263.232L212.048 245.813C211.009 245.92 210.13 246.082 209.256 246.084C204.905 246.085 200.561 246.041 196.216 246.016C193.795 245.999 192.075 244.964 191.607 242.492C191.081 239.792 193.049 237.801 196.256 237.764C201.466 237.745 206.679 237.803 212.084 237.826L212.201 217.001C211.027 217.129 210.043 217.263 209.073 217.267C204.818 217.276 200.557 217.279 196.3 217.203C193.493 217.147 191.692 215.497 191.663 213.14C191.633 210.783 193.421 209.087 196.198 208.965C197.269 208.934 198.304 208.938 199.388 208.963C203.633 208.984 207.877 209.015 212.246 209.045L212.345 188.511L197.682 188.446C193.76 188.415 191.8 187.011 191.789 184.237C191.778 181.464 193.725 180.145 197.717 180.178L202.514 180.196C205.755 180.205 208.995 180.204 212.356 180.207L212.423 159.702C206.898 159.665 201.688 159.673 196.436 159.574C192.958 159.487 191.085 156.805 192.27 153.864C193.114 151.806 194.828 151.329 196.812 151.337L212.473 151.429L212.561 130.905C206.996 130.866 201.755 130.894 196.529 130.781C193.387 130.71 191.478 128.508 192.148 125.807C192.73 123.314 194.565 122.509 196.955 122.535C202.088 122.59 207.222 122.595 212.717 122.621C212.634 115.67 212.824 108.844 212.359 102.067C212.044 97.4952 209.553 93.7175 205.846 90.8954C199.088 85.7646 191.295 86.9003 183.653 87.2421C181.803 87.3017 179.975 87.6584 178.238 88.2987C170.953 91.1287 167.013 97.578 166.963 106.484C166.751 143.023 166.559 179.577 166.387 216.144L166.141 262.973L211.939 263.232ZM222.893 277.384C222.954 275.955 223.319 274.59 222.954 273.433C222.723 272.996 222.392 272.62 221.989 272.336C221.585 272.052 221.12 271.866 220.631 271.796C217.623 271.598 214.604 271.742 211.585 271.72C193.852 271.605 176.115 271.483 158.375 271.354C156.14 271.337 154.775 272.092 154.811 274.54C154.843 276.837 156.13 277.587 158.245 277.589C178.772 277.687 199.264 277.786 219.721 277.885C220.789 277.797 221.849 277.629 222.893 277.384ZM202.614 352.37C200.826 348.926 199.393 345.996 197.781 343.176C197.529 342.874 197.216 342.629 196.862 342.457C196.508 342.285 196.121 342.191 195.728 342.181C191.039 342.07 186.342 342.065 181.654 342.09C181.021 342.089 180.038 342.214 179.814 342.618C178.099 345.638 176.532 348.742 174.718 352.205L202.614 352.37ZM186.591 285.967L186.332 333.635L191.186 333.62L191.405 286.544C189.688 286.343 188.292 286.173 186.591 285.967ZM186.095 66.1555L186.059 78.6586L194.162 78.6833L194.217 67.1454L186.095 66.1555Z" fill="white"/>
</svg>
