<svg width="607" height="378" viewBox="0 0 607 378" fill="none" xmlns="http://www.w3.org/2000/svg">
<path d="M188.475 1.88809C192.982 1.5559 194.407 2.86776 194.386 7.43369C194.314 23.407 194.233 39.3817 194.144 55.3579C194.136 56.2317 194.168 57.1069 194.186 57.9565C201.552 59.0125 201.557 59.0076 201.543 66.6333C201.531 70.4509 201.418 74.2654 201.562 78.073C201.621 78.5362 201.786 78.9796 202.043 79.3693C202.301 79.759 202.644 80.0846 203.047 80.3212C214.377 85.2726 220.151 93.9637 220.098 106.356C219.991 131.116 219.866 155.874 219.722 180.63C219.578 207.262 219.433 233.888 219.286 260.51C219.278 261.383 219.315 262.264 219.33 262.737C221.833 263.787 224.342 264.365 226.272 265.738C230.338 268.632 231.662 274.01 229.997 278.91C228.446 283.411 224.495 286.133 219.32 286.137C212.578 286.161 205.852 286.11 198.745 286.068L198.466 333.453L199.235 332.985C200.697 334.69 202.369 336.276 203.564 338.154C205.085 340.534 206.073 343.248 207.553 345.657C209.739 349.214 210.297 352.819 208.694 356.726L205.586 359.64C203.153 359.974 200.724 360.549 198.286 360.576C190.567 360.649 182.844 360.551 175.125 360.468C167.406 360.385 163.44 353.903 167.036 347.056C168.675 343.913 170.5 340.887 172.025 337.676C173.096 335.485 174.344 333.701 177.103 333.499L177.346 286.002L163.218 285.894C160.997 285.882 158.776 285.921 156.557 285.86C150.328 285.695 145.922 281.494 145.609 275.45C145.249 268.681 149.017 263.99 155.453 263.192L156.976 263.02C157.038 255.162 157.099 247.343 157.158 239.565C157.384 195.283 157.611 150.997 157.837 106.708C157.884 94.0093 163.458 85.0554 175.312 80.1218C175.715 79.8714 176.054 79.5313 176.304 79.128C176.554 78.7248 176.708 78.2693 176.753 77.797C176.911 73.1902 176.854 68.5615 176.887 63.9557C176.92 59.35 178.221 58.1108 182.737 58.1205C183.702 58.1114 184.647 58.0815 185.839 58.0545L185.986 36.1405C186.034 26.7375 186.096 17.3383 186.17 7.94292C186.186 6.53675 186.437 5.11307 186.533 3.70948L188.475 1.88809ZM210.985 263.232L211.093 245.813C210.055 245.92 209.176 246.082 208.301 246.084C203.951 246.085 199.607 246.041 195.262 246.016C192.841 245.999 191.121 244.964 190.653 242.492C190.127 239.792 192.095 237.801 195.301 237.764C200.512 237.745 205.724 237.803 211.129 237.826L211.247 217.001C210.072 217.129 209.088 217.263 208.119 217.267C203.863 217.276 199.603 217.279 195.345 217.203C192.539 217.147 190.738 215.497 190.708 213.14C190.679 210.783 192.467 209.087 195.244 208.965C196.315 208.934 197.349 208.938 198.434 208.963C202.678 208.984 206.922 209.015 211.292 209.045L211.39 188.511L196.728 188.446C192.805 188.415 190.846 187.011 190.835 184.237C190.824 181.464 192.77 180.145 196.763 180.178L201.56 180.196C204.8 180.205 208.041 180.204 211.401 180.207L211.469 159.702C205.944 159.665 200.734 159.673 195.482 159.574C192.003 159.487 190.13 156.805 191.315 153.864C192.16 151.806 193.874 151.329 195.858 151.337L211.519 151.429L211.607 130.905C206.042 130.866 200.801 130.894 195.575 130.781C192.432 130.71 190.524 128.508 191.193 125.807C191.776 123.314 193.611 122.509 196.001 122.535C201.134 122.59 206.268 122.595 211.763 122.621C211.68 115.67 211.87 108.844 211.405 102.067C211.09 97.4952 208.599 93.7175 204.892 90.8954C198.134 85.7646 190.341 86.9003 182.699 87.2421C180.849 87.3017 179.021 87.6584 177.284 88.2987C169.999 91.1287 166.059 97.578 166.008 106.484C165.797 143.023 165.605 179.577 165.432 216.144L165.186 262.973L210.985 263.232ZM221.938 277.384C221.999 275.955 222.365 274.59 222 273.433C221.769 272.996 221.438 272.62 221.034 272.336C220.631 272.052 220.165 271.866 219.677 271.796C216.669 271.598 213.65 271.742 210.631 271.72C192.898 271.605 175.161 271.483 157.421 271.354C155.186 271.337 153.82 272.092 153.857 274.54C153.889 276.837 155.176 277.587 157.291 277.589C177.818 277.687 198.31 277.786 218.767 277.885C219.835 277.797 220.895 277.629 221.938 277.384ZM201.66 352.37C199.872 348.926 198.439 345.996 196.827 343.176C196.575 342.874 196.262 342.629 195.908 342.457C195.554 342.285 195.167 342.191 194.774 342.181C190.085 342.07 185.388 342.065 180.7 342.09C180.067 342.089 179.083 342.214 178.859 342.618C177.145 345.638 175.578 348.742 173.763 352.205L201.66 352.37ZM185.636 285.967L185.378 333.635L190.232 333.62L190.451 286.544C188.734 286.343 187.338 286.173 185.636 285.967ZM185.141 66.1555L185.105 78.6586L193.208 78.6833L193.262 67.1454L185.141 66.1555Z" fill="white"/>
<path d="M303.475 1.88809C307.982 1.5559 309.407 2.86776 309.386 7.43369C309.314 23.407 309.233 39.3817 309.144 55.3579C309.136 56.2317 309.168 57.1069 309.186 57.9565C316.552 59.0125 316.557 59.0076 316.543 66.6333C316.531 70.4509 316.418 74.2654 316.562 78.073C316.621 78.5362 316.786 78.9796 317.043 79.3693C317.301 79.759 317.644 80.0846 318.047 80.3212C329.377 85.2726 335.151 93.9637 335.098 106.356C334.991 131.116 334.866 155.874 334.722 180.63C334.578 207.262 334.433 233.888 334.286 260.51C334.278 261.383 334.315 262.264 334.33 262.737C336.833 263.787 339.342 264.365 341.272 265.738C345.338 268.632 346.662 274.01 344.997 278.91C343.446 283.411 339.495 286.133 334.32 286.137C327.578 286.161 320.852 286.11 313.745 286.068L313.466 333.453L314.235 332.985C315.697 334.69 317.369 336.276 318.564 338.154C320.085 340.534 321.073 343.248 322.553 345.657C324.739 349.214 325.297 352.819 323.694 356.726L320.586 359.64C318.153 359.974 315.724 360.549 313.286 360.576C305.567 360.649 297.844 360.551 290.125 360.468C282.406 360.385 278.44 353.903 282.036 347.056C283.675 343.913 285.5 340.887 287.025 337.676C288.096 335.485 289.344 333.701 292.103 333.499L292.346 286.002L278.218 285.894C275.997 285.882 273.776 285.921 271.557 285.86C265.328 285.695 260.922 281.494 260.609 275.45C260.249 268.681 264.017 263.99 270.453 263.192L271.976 263.02C272.038 255.162 272.099 247.343 272.158 239.565C272.384 195.283 272.611 150.997 272.837 106.708C272.884 94.0093 278.458 85.0554 290.312 80.1218C290.715 79.8714 291.054 79.5313 291.304 79.128C291.554 78.7248 291.708 78.2693 291.753 77.797C291.911 73.1902 291.854 68.5615 291.887 63.9557C291.92 59.35 293.221 58.1108 297.737 58.1205C298.702 58.1114 299.647 58.0815 300.839 58.0545L300.986 36.1405C301.034 26.7375 301.096 17.3383 301.17 7.94292C301.186 6.53675 301.437 5.11307 301.533 3.70948L303.475 1.88809ZM325.985 263.232L326.093 245.813C325.055 245.92 324.176 246.082 323.301 246.084C318.951 246.085 314.607 246.041 310.262 246.016C307.841 245.999 306.121 244.964 305.653 242.492C305.127 239.792 307.095 237.801 310.301 237.764C315.512 237.745 320.724 237.803 326.129 237.826L326.247 217.001C325.072 217.129 324.088 217.263 323.119 217.267C318.863 217.276 314.603 217.279 310.345 217.203C307.539 217.147 305.738 215.497 305.708 213.14C305.679 210.783 307.467 209.087 310.244 208.965C311.315 208.934 312.349 208.938 313.434 208.963C317.678 208.984 321.922 209.015 326.292 209.045L326.39 188.511L311.728 188.446C307.805 188.415 305.846 187.011 305.835 184.237C305.824 181.464 307.77 180.145 311.763 180.178L316.56 180.196C319.8 180.205 323.041 180.204 326.401 180.207L326.469 159.702C320.944 159.665 315.734 159.673 310.482 159.574C307.003 159.487 305.13 156.805 306.315 153.864C307.16 151.806 308.874 151.329 310.858 151.337L326.519 151.429L326.607 130.905C321.042 130.866 315.801 130.894 310.575 130.781C307.432 130.71 305.524 128.508 306.193 125.807C306.776 123.314 308.611 122.509 311.001 122.535C316.134 122.59 321.268 122.595 326.763 122.621C326.68 115.67 326.87 108.844 326.405 102.067C326.09 97.4952 323.599 93.7175 319.892 90.8954C313.134 85.7646 305.341 86.9003 297.699 87.2421C295.849 87.3017 294.021 87.6584 292.284 88.2987C284.999 91.1287 281.059 97.578 281.008 106.484C280.797 143.023 280.605 179.577 280.432 216.144L280.186 262.973L325.985 263.232ZM336.938 277.384C336.999 275.955 337.365 274.59 337 273.433C336.769 272.996 336.438 272.62 336.034 272.336C335.631 272.052 335.165 271.866 334.677 271.796C331.669 271.598 328.65 271.742 325.631 271.72C307.898 271.605 290.161 271.483 272.421 271.354C270.186 271.337 268.82 272.092 268.857 274.54C268.889 276.837 270.176 277.587 272.291 277.589C292.818 277.687 313.31 277.786 333.767 277.885C334.835 277.797 335.895 277.629 336.938 277.384ZM316.66 352.37C314.872 348.926 313.439 345.996 311.827 343.176C311.575 342.874 311.262 342.629 310.908 342.457C310.554 342.285 310.167 342.191 309.774 342.181C305.085 342.07 300.388 342.065 295.7 342.09C295.067 342.089 294.083 342.214 293.859 342.618C292.145 345.638 290.578 348.742 288.763 352.205L316.66 352.37ZM300.636 285.967L300.378 333.635L305.232 333.62L305.451 286.544C303.734 286.343 302.338 286.173 300.636 285.967ZM300.141 66.1555L300.105 78.6586L308.208 78.6833L308.262 67.1454L300.141 66.1555Z" fill="white"/>
<path d="M418.475 1.88809C422.982 1.5559 424.407 2.86776 424.386 7.43369C424.314 23.407 424.233 39.3817 424.144 55.3579C424.136 56.2317 424.168 57.1069 424.186 57.9565C431.552 59.0125 431.557 59.0076 431.543 66.6333C431.531 70.4509 431.418 74.2654 431.562 78.073C431.621 78.5362 431.786 78.9796 432.043 79.3693C432.301 79.759 432.644 80.0846 433.047 80.3212C444.377 85.2726 450.151 93.9637 450.098 106.356C449.991 131.116 449.866 155.874 449.722 180.63C449.578 207.262 449.433 233.888 449.286 260.51C449.278 261.383 449.315 262.264 449.33 262.737C451.833 263.787 454.342 264.365 456.272 265.738C460.338 268.632 461.662 274.01 459.997 278.91C458.446 283.411 454.495 286.133 449.32 286.137C442.578 286.161 435.852 286.11 428.745 286.068L428.466 333.453L429.235 332.985C430.697 334.69 432.369 336.276 433.564 338.154C435.085 340.534 436.073 343.248 437.553 345.657C439.739 349.214 440.297 352.819 438.694 356.726L435.586 359.64C433.153 359.974 430.724 360.549 428.286 360.576C420.567 360.649 412.844 360.551 405.125 360.468C397.406 360.385 393.44 353.903 397.036 347.056C398.675 343.913 400.5 340.887 402.025 337.676C403.096 335.485 404.344 333.701 407.103 333.499L407.346 286.002L393.218 285.894C390.997 285.882 388.776 285.921 386.557 285.86C380.328 285.695 375.922 281.494 375.609 275.45C375.249 268.681 379.017 263.99 385.453 263.192L386.976 263.02C387.038 255.162 387.099 247.343 387.158 239.565C387.384 195.283 387.611 150.997 387.837 106.708C387.884 94.0093 393.458 85.0554 405.312 80.1218C405.715 79.8714 406.054 79.5313 406.304 79.128C406.554 78.7248 406.708 78.2693 406.753 77.797C406.911 73.1902 406.854 68.5615 406.887 63.9557C406.92 59.35 408.221 58.1108 412.737 58.1205C413.702 58.1114 414.647 58.0815 415.839 58.0545L415.986 36.1405C416.034 26.7375 416.096 17.3383 416.17 7.94292C416.186 6.53675 416.437 5.11307 416.533 3.70948L418.475 1.88809ZM440.985 263.232L441.093 245.813C440.055 245.92 439.176 246.082 438.301 246.084C433.951 246.085 429.607 246.041 425.262 246.016C422.841 245.999 421.121 244.964 420.653 242.492C420.127 239.792 422.095 237.801 425.301 237.764C430.512 237.745 435.724 237.803 441.129 237.826L441.247 217.001C440.072 217.129 439.088 217.263 438.119 217.267C433.863 217.276 429.603 217.279 425.345 217.203C422.539 217.147 420.738 215.497 420.708 213.14C420.679 210.783 422.467 209.087 425.244 208.965C426.315 208.934 427.349 208.938 428.434 208.963C432.678 208.984 436.922 209.015 441.292 209.045L441.39 188.511L426.728 188.446C422.805 188.415 420.846 187.011 420.835 184.237C420.824 181.464 422.77 180.145 426.763 180.178L431.56 180.196C434.8 180.205 438.041 180.204 441.401 180.207L441.469 159.702C435.944 159.665 430.734 159.673 425.482 159.574C422.003 159.487 420.13 156.805 421.315 153.864C422.16 151.806 423.874 151.329 425.858 151.337L441.519 151.429L441.607 130.905C436.042 130.866 430.801 130.894 425.575 130.781C422.432 130.71 420.524 128.508 421.193 125.807C421.776 123.314 423.611 122.509 426.001 122.535C431.134 122.59 436.268 122.595 441.763 122.621C441.68 115.67 441.87 108.844 441.405 102.067C441.09 97.4952 438.599 93.7175 434.892 90.8954C428.134 85.7646 420.341 86.9003 412.699 87.2421C410.849 87.3017 409.021 87.6584 407.284 88.2987C399.999 91.1287 396.059 97.578 396.008 106.484C395.797 143.023 395.605 179.577 395.432 216.144L395.186 262.973L440.985 263.232ZM451.938 277.384C451.999 275.955 452.365 274.59 452 273.433C451.769 272.996 451.438 272.62 451.034 272.336C450.631 272.052 450.165 271.866 449.677 271.796C446.669 271.598 443.65 271.742 440.631 271.72C422.898 271.605 405.161 271.483 387.421 271.354C385.186 271.337 383.82 272.092 383.857 274.54C383.889 276.837 385.176 277.587 387.291 277.589C407.818 277.687 428.31 277.786 448.767 277.885C449.835 277.797 450.895 277.629 451.938 277.384ZM431.66 352.37C429.872 348.926 428.439 345.996 426.827 343.176C426.575 342.874 426.262 342.629 425.908 342.457C425.554 342.285 425.167 342.191 424.774 342.181C420.085 342.07 415.388 342.065 410.7 342.09C410.067 342.089 409.083 342.214 408.859 342.618C407.145 345.638 405.578 348.742 403.763 352.205L431.66 352.37ZM415.636 285.967L415.378 333.635L420.232 333.62L420.451 286.544C418.734 286.343 417.338 286.173 415.636 285.967ZM415.141 66.1555L415.105 78.6586L423.208 78.6833L423.262 67.1454L415.141 66.1555Z" fill="white"/>
</svg>
