<svg width="335" height="337" viewBox="0 0 335 337" fill="none" xmlns="http://www.w3.org/2000/svg">
<path d="M0.00770482 180.353C-0.275151 155.153 7.23337 131.419 21.9804 110.024C34.4226 91.8141 51.5632 77.3125 71.583 68.0589C74.0258 66.9146 74.553 65.7189 73.923 63.2632C71.0044 52.0776 71.043 52.0776 59.9988 55.4719C51.436 58.1204 44.0431 54.649 41.4589 46.7419C38.8746 38.8348 42.5517 31.802 51.3331 28.9349C65.7587 24.1521 80.2058 19.4378 94.6743 14.7921C103.044 12.1178 111.286 15.9235 113.497 23.3163C115.798 31.0306 111.607 38.5134 103.34 41.3162C93.0543 44.8391 93.3371 44.7619 96.3457 55.0219C97.5157 58.9818 99.5728 58.7118 102.543 58.1847C130.07 53.2476 156.542 56.989 181.164 69.9618C217.883 89.3245 240.808 119.963 247.159 160.874C254.115 205.694 240.139 244.445 206.196 275.019C188.423 291.224 166.053 301.503 142.181 304.436C98.0814 310.067 60.6673 296.259 30.8389 263.293C14.3305 245.126 4.93196 223.269 1.03627 198.97C0.0848472 193.03 0.470559 187.154 0.00770482 180.353ZM226.421 182.32C227.578 125.247 180.341 77.6889 124.284 77.6117C66.3116 77.5346 21.6204 124.206 21.929 180.648C22.2504 239.572 68.3173 283.775 124.117 284.366C180.624 284.932 226.961 237.824 226.433 182.32H226.421Z" fill="#282218"/>
<path d="M226.434 182.319C226.961 237.823 180.624 284.932 124.117 284.34C68.3176 283.749 22.2507 239.546 21.9293 180.622C21.6208 124.205 66.3119 77.5343 124.297 77.6114C180.354 77.6886 227.578 125.247 226.434 182.319ZM124.002 83.2042C119.514 83.2685 115.033 83.5776 110.579 84.13C82.9489 88.2185 61.1305 101.911 45.1363 124.437C30.0036 145.78 24.6422 169.732 28.9879 195.691C34.7221 229.736 54.1234 253.933 84.6332 268.436C104.33 277.822 125.686 279.377 147.35 274.067C152.274 272.859 156.748 272.087 161.608 269.632C179.608 260.529 194.613 248.893 205.991 231.986C208.671 227.957 210.9 223.645 212.638 219.129C219.527 202.549 221.986 184.464 219.774 166.647C217.44 147.156 208.94 128.921 195.513 114.601C176.381 93.8756 152.351 83.41 124.002 83.2042Z" fill="#D6D6D6"/>
<path d="M124.002 83.2041C152.287 83.4098 176.381 93.8755 195.513 114.665C208.94 128.985 217.44 147.22 219.774 166.711C221.99 184.536 219.531 202.632 212.638 219.219C210.9 223.735 208.671 228.046 205.991 232.076C194.613 248.983 179.557 260.619 161.608 269.722C156.748 272.177 152.274 272.949 147.35 274.157C125.686 279.467 104.33 277.911 84.6332 268.526C54.1234 253.933 34.7221 229.736 29.0136 195.691C24.6679 169.732 30.0293 145.779 45.162 124.437C61.1562 101.911 82.9747 88.2184 110.579 84.1298C115.033 83.5774 119.514 83.2684 124.002 83.2041ZM142.721 180.416C142.756 178.663 142.439 176.921 141.788 175.293C141.138 173.665 140.167 172.184 138.933 170.938C137.7 169.692 136.229 168.706 134.608 168.039C132.986 167.372 131.247 167.037 129.494 167.055C127.741 167.072 126.009 167.441 124.401 168.139C122.793 168.838 121.342 169.853 120.133 171.123C118.924 172.393 117.982 173.892 117.364 175.533C116.745 177.174 116.462 178.922 116.532 180.674C116.666 184.078 118.122 187.296 120.59 189.645C123.058 191.994 126.344 193.289 129.751 193.256C133.158 193.222 136.418 191.863 138.84 189.466C141.261 187.069 142.654 183.823 142.721 180.416ZM122.06 127.702C120.53 117.057 119.039 106.81 117.586 96.5497C117.354 94.9555 116.776 93.644 115.014 93.8883C113.253 94.1326 112.906 95.5855 113.15 97.0769L117.624 127.805C117.83 129.181 118.434 130.377 119.964 130.377C121.764 130.274 122.15 128.872 122.073 127.651L122.06 127.702ZM70.4647 240.459C71.3956 239.797 72.2925 239.089 73.1519 238.337C77.2404 234.48 81.2904 230.623 85.3661 226.766C88.2803 224.015 91.2075 221.28 94.1475 218.563C95.4332 217.393 96.526 215.992 95.0989 214.462C93.6717 212.932 92.1803 214.282 90.9718 215.336C89.7632 216.39 88.8889 217.329 87.8475 218.319L69.3333 235.83C68.4076 236.717 67.289 237.54 67.7776 239.057C68.1505 240.073 68.9476 240.51 70.4647 240.459ZM78.9375 175.158C79.2396 175.265 79.5621 175.302 79.8805 175.265C80.1989 175.229 80.5048 175.12 80.775 174.948C81.0452 174.776 81.2726 174.544 81.4399 174.271C81.6071 173.998 81.7099 173.69 81.7404 173.371C82.0747 171.211 80.2618 170.902 78.6418 170.619L48.9934 165.399C47.4892 165.129 45.9335 165.065 45.4835 166.852C44.9435 168.974 46.5249 169.591 48.2349 169.886L78.9375 175.158ZM213.435 194.932C214.862 195.138 216.11 194.765 216.457 193.273C216.804 191.782 215.672 190.882 214.335 190.702C203.93 188.876 193.524 187.089 183.118 185.341C181.833 185.122 180.431 185.251 180.135 186.948C180.061 187.265 180.058 187.594 180.126 187.912C180.195 188.231 180.333 188.53 180.531 188.788C180.729 189.046 180.982 189.257 181.272 189.406C181.561 189.555 181.88 189.637 182.205 189.648C192.577 191.413 202.987 193.175 213.435 194.932ZM144.701 261.069C143.326 251.194 141.924 241.037 140.459 230.88C140.253 229.389 139.636 227.949 137.707 228.309C135.779 228.669 135.817 230.276 136.023 231.729C137.48 241.877 138.95 252.026 140.433 262.174C140.664 263.73 141.281 265.17 143.107 264.849C144.933 264.527 144.779 262.83 144.637 261.069H144.701ZM166.996 144.764C167.505 144.552 167.984 144.275 168.423 143.941C176.24 136.638 184.044 129.322 191.835 121.994C192.106 121.815 192.332 121.577 192.495 121.297C192.658 121.017 192.755 120.703 192.777 120.38C192.8 120.056 192.747 119.732 192.624 119.432C192.501 119.133 192.31 118.865 192.067 118.651C190.923 117.494 189.727 117.905 188.698 118.857C185.304 122.007 181.935 125.195 178.567 128.358L166.006 140.161C165.041 141.074 164.27 142.089 164.887 143.529C165.052 143.926 165.339 144.259 165.707 144.481C166.075 144.703 166.504 144.802 166.931 144.764H166.996Z" fill="white"/>
<path d="M142.721 180.417C142.693 183.007 141.898 185.53 140.436 187.668C138.975 189.806 136.912 191.463 134.509 192.43C132.106 193.396 129.471 193.629 126.936 193.098C124.4 192.567 122.08 191.297 120.266 189.447C118.453 187.598 117.228 185.253 116.747 182.708C116.266 180.163 116.55 177.532 117.564 175.149C118.577 172.765 120.274 170.735 122.441 169.316C124.607 167.897 127.146 167.151 129.736 167.174C133.201 167.248 136.5 168.675 138.927 171.149C141.353 173.624 142.715 176.951 142.721 180.417Z" fill="#333334"/>
<path d="M122.073 127.651C122.163 128.936 121.764 130.222 119.938 130.376C118.408 130.479 117.804 129.232 117.598 127.805L113.15 97.0767C112.931 95.5338 113.15 94.0296 114.988 93.7853C116.827 93.541 117.393 94.8524 117.56 96.4467C119.051 106.758 120.543 117.005 122.073 127.651Z" fill="#3C3C3D"/>
<path d="M70.4645 240.459C68.9474 240.459 68.1117 240.073 67.7774 239.057C67.2888 237.54 68.4074 236.718 69.3331 235.83L87.8473 218.319C88.8887 217.329 89.8915 216.288 90.9715 215.336C92.0515 214.385 93.5429 212.868 95.0986 214.462C96.6543 216.056 95.4072 217.393 94.1472 218.563C91.2158 221.289 88.2887 224.023 85.3658 226.766C81.2902 230.623 77.2402 234.48 73.1516 238.337C72.2923 239.089 71.3954 239.798 70.4645 240.459Z" fill="#3B3B3C"/>
<path d="M78.9374 175.158L48.2348 169.886C46.5248 169.591 44.9434 168.974 45.4834 166.852C45.9333 165.065 47.4891 165.129 48.9933 165.399L78.6417 170.619C80.2617 170.902 82.0746 171.211 81.7403 173.371C81.7098 173.69 81.607 173.998 81.4397 174.271C81.2725 174.544 81.0451 174.776 80.7749 174.948C80.5047 175.12 80.1988 175.229 79.8804 175.265C79.562 175.302 79.2395 175.265 78.9374 175.158Z" fill="#3C3D3D"/>
<path d="M213.435 194.932C202.986 193.123 192.555 191.362 182.141 189.648C181.816 189.637 181.497 189.555 181.207 189.406C180.917 189.257 180.665 189.046 180.466 188.788C180.268 188.53 180.13 188.231 180.062 187.912C179.993 187.594 179.997 187.265 180.071 186.948C180.367 185.251 181.742 185.122 183.054 185.341C193.451 187.055 203.856 188.842 214.271 190.702C215.556 190.934 216.778 191.718 216.392 193.273C216.006 194.829 214.798 195.138 213.435 194.932Z" fill="#3C3D3E"/>
<path d="M144.637 261.068C144.778 262.83 144.907 264.501 143.043 264.836C141.178 265.17 140.6 263.717 140.368 262.161C138.886 252.013 137.416 241.864 135.958 231.716C135.753 230.263 135.688 228.656 137.643 228.296C139.597 227.936 140.214 229.389 140.394 230.867C141.86 241.076 143.261 251.194 144.637 261.068Z" fill="#3C3D3E"/>
<path d="M166.931 144.764C166.487 144.813 166.039 144.713 165.657 144.481C165.276 144.248 164.982 143.895 164.823 143.478C164.206 142.038 164.977 141.022 165.941 140.109L178.503 128.307C181.871 125.144 185.24 121.955 188.634 118.805C189.663 117.854 190.858 117.442 192.003 118.599C192.246 118.814 192.437 119.081 192.56 119.381C192.683 119.681 192.736 120.005 192.713 120.328C192.691 120.651 192.594 120.965 192.431 121.245C192.267 121.525 192.042 121.764 191.771 121.942C183.98 129.271 176.176 136.586 168.358 143.889C167.923 144.242 167.443 144.536 166.931 144.764Z" fill="#3D3D3E"/>
<path d="M165.722 297.274C162.765 297.377 160.579 299.485 158.085 300.553C154.221 302.169 150.236 303.48 146.167 304.474C141.564 305.605 137.038 305.361 132.538 305.168C127.953 304.918 123.409 304.168 118.987 302.931C116.814 302.365 114.397 302.314 112.404 300.668C110.784 299.383 108.547 298.753 106.644 297.75C102.619 295.515 99.2223 292.3 96.7699 288.403C92.5656 282.141 90.5471 275.018 89.4542 267.394C88.1685 257.816 89.1971 248.289 88.6057 238.762C88.3742 235.149 90.4056 231.806 89.6342 228.167C91.5628 227.705 90.2513 226.149 90.6371 225.172V222.163C92.0385 221.289 92.2313 219.862 92.7328 218.409C94.1085 214.397 95.3042 210.296 98.2356 206.94C99.0713 205.976 99.1999 204.369 99.6499 203.083C101.287 203.392 101.956 202.723 101.656 201.078C103.558 199.663 105.513 198.326 107.377 196.835C112.263 192.862 118.19 191.139 124.091 190.252C129.787 189.39 135.662 190.059 141.551 190.072C141.862 190.105 142.166 190.187 142.451 190.316C145.434 191.422 148.648 191.358 151.708 192.065L154.717 193.068C155.771 192.9 156.478 193.762 157.288 193.98C167.432 196.758 176.882 201.142 186.191 205.912C187.901 206.786 189.546 208.277 191.745 208.097C193.301 209.563 195.486 210.026 197.132 211.183C203.008 215.323 209.809 217.702 215.788 221.61C220.468 224.657 225.778 226.612 230.316 229.967C230.923 230.491 231.642 230.867 232.418 231.068C233.194 231.269 234.006 231.288 234.79 231.124C234.49 232.77 235.159 233.439 236.796 233.13C236.912 233.413 236.963 233.889 237.156 233.953C244.138 236.344 249.923 240.96 256.3 244.432C262.986 248.044 269.35 252.339 275.972 256.17C278.8 257.816 281.693 259.371 284.342 261.313C285.537 262.174 287.299 263.1 286.913 265.17L285.91 272.177C285.487 272.747 285.181 273.394 285.009 274.083C284.836 274.771 284.802 275.487 284.907 276.188C283.416 276.266 284.059 277.474 283.904 278.181C281.192 284.07 278.183 289.753 273.349 294.253C273.349 296.31 270.392 296.914 270.893 299.215C270.135 299.37 268.977 298.727 268.887 300.218C268.283 300.334 267.46 300.218 267.087 300.591C265.609 302.057 264.272 303.664 262.883 305.233C260.633 305.438 260.093 305.991 259.875 308.228C258.023 307.868 256.57 308.948 255.002 309.617C252.199 310.8 249.602 312.368 246.658 313.397C245.054 314.007 243.337 314.265 241.625 314.154C239.912 314.043 238.244 313.566 236.732 312.754C234.829 311.841 233.209 310.08 230.843 310.183C230.728 309.9 230.689 309.463 230.483 309.36C214.438 301.285 198.379 293.237 182.308 285.214C181.167 284.756 179.988 284.399 178.785 284.147C176.612 281.087 173.077 279.917 170.029 278.246C164.395 275.288 158.923 272.03 153.637 268.487C151.168 266.777 148.815 264.9 146.308 263.267C145.781 262.92 144.778 263.267 143.994 263.357C144.056 264.066 144.257 264.757 144.585 265.389C145.252 266.064 146.009 266.644 146.835 267.111C149.69 269.001 152.801 270.609 155.501 272.601C162.187 277.538 169.888 280.624 176.792 285.124C177.024 285.278 177.448 285.124 177.782 285.124V286.127L175.777 288.12L174.774 289.123L173.771 290.126C171.312 291.984 168.972 293.993 166.764 296.143L165.722 297.274Z" fill="#383121"/>
<path d="M234.804 231.177C234.019 231.34 233.207 231.321 232.432 231.12C231.656 230.92 230.936 230.543 230.329 230.02C225.791 226.664 220.481 224.71 215.801 221.663C209.822 217.805 203.021 215.375 197.145 211.235C195.5 210.078 193.288 209.615 191.758 208.15C192.598 207.777 193.457 207.446 194.33 207.16C196.901 206.453 199.473 205.874 201.967 205.116C204.461 204.357 204.911 203.971 204.718 201.053C204.577 198.674 204.228 196.312 203.677 193.994C203.499 193.572 203.232 193.192 202.895 192.882C202.558 192.571 202.158 192.337 201.723 192.194C200.743 192.006 199.74 191.98 198.753 192.117V190.111C202.79 190.111 206.672 191.821 210.774 191.114V192.117H210.272L205.914 192.464C205.914 194.251 205.914 196.038 205.991 197.826C205.991 198.224 206.634 198.571 206.737 198.996C207.084 200.281 205.965 202.248 207.482 203.007C208.305 203.418 209.81 202.48 210.992 202.133C216.958 200.358 223.104 199.304 228.992 197.376C230.947 196.746 232.978 197.183 235.048 196.283C237.427 195.254 240.371 195.511 243.045 195.1C244.434 194.894 245.771 194.406 247.147 194.136C248.522 193.866 250.168 194.766 251.261 193.184C251.261 193.094 251.569 193.094 251.724 193.12C255.516 193.827 259.065 192.066 262.806 192.104C266.548 192.143 270.611 191.474 274.249 192.323C277.142 192.991 280.163 192.708 283.018 194.007C285.512 195.151 288.276 195.717 290.732 197.106C297.533 200.963 303.512 207.558 305.042 215.787C305.924 219.926 306.141 224.179 305.685 228.387C305.051 233.638 303.539 238.745 301.21 243.494C297.988 250.112 294.048 256.355 289.459 262.111C288.598 263.165 288.636 264.965 286.888 265.235C287.325 263.114 285.602 262.188 284.316 261.378C281.668 259.475 278.775 257.919 275.946 256.235C269.325 252.378 262.961 248.11 256.275 244.497C249.847 241.025 244.112 236.41 237.131 234.018C236.938 233.954 236.887 233.478 236.771 233.195C238.995 230.47 241.335 227.834 243.405 224.993C245.321 222.421 246.967 219.528 248.664 216.751C248.844 216.443 248.587 215.864 248.535 215.465C247.969 215.53 247.121 215.388 246.889 215.697C245.758 217.188 244.807 218.808 243.778 220.364C241.145 224.252 238.14 227.873 234.804 231.177Z" fill="#282218"/>
<path d="M93.6456 91.9344C93.5299 91.3173 93.6456 90.533 93.2599 90.1087C90.7533 87.1892 89.4564 83.4226 89.6342 79.5788C89.7437 78.0808 89.7437 76.5768 89.6342 75.0788C88.9528 70.116 91.2928 66.2203 93.7613 62.2218C97.4116 56.6287 100.13 50.4802 101.81 44.0162C103.546 36.8291 105.667 29.7063 109.601 23.2263C112.173 19.022 114.615 14.6764 117.971 11.2692C122.625 6.31198 128.569 2.75014 135.135 0.983589C138.272 0.212165 141.744 0.752162 145.061 0.765019C146.983 0.576942 148.921 0.882281 150.692 1.65216C153 2.7479 155.071 4.28546 156.787 6.17784C157.824 7.40729 159.149 8.36129 160.644 8.95497C163.783 10.124 166.4 12.3767 168.024 15.3064C170.595 19.6897 171.928 24.6889 171.881 29.7706C171.778 33.3577 174.259 44.6976 175.905 48.1047C176.639 49.493 177.537 50.788 178.579 51.9618C180.881 54.7004 183.375 57.2975 185.599 60.0875C187.218 61.8158 188.523 63.8127 189.456 65.9889C190.433 68.3412 190.944 70.8606 190.961 73.4074C190.941 76.7412 189.779 79.9676 187.669 82.5488C186.255 84.1688 186.795 84.7088 188.569 85.0173C188.736 85.0173 188.814 85.5573 188.929 85.8402L187.939 86.8431C186.256 86.3786 184.535 86.0645 182.796 85.9045C180.752 85.9045 178.939 87.4345 176.689 86.8945C176.509 86.8945 176.021 87.4345 175.892 87.8073C174.748 90.893 171.585 91.3945 169.207 92.7316C167.921 93.4387 165.722 92.3973 164.359 93.053C162.997 93.7087 162.675 95.8816 161.415 96.6658C158.9 98.2608 156.094 99.3421 153.16 99.8474C150.225 100.353 147.219 100.272 144.315 99.6101C140.06 98.6587 135.611 97.0387 132.268 93.7859C131.201 92.7316 130.25 92.9502 128.823 93.1816C126.251 93.6059 123.68 96.3701 120.838 93.9016C120.53 93.6316 119.553 93.9016 119.013 94.1716C117.914 94.7145 116.764 95.1452 115.58 95.4573C112.905 95.7658 110.283 97.6173 107.66 96.743C104.304 95.5858 100.511 95.7144 97.5799 93.2459C96.9627 92.7316 95.7284 92.9502 94.777 92.8344L93.6456 91.9344ZM167.728 44.8647V43.8619C167.522 42.3062 168.152 40.7248 166.815 39.1948C166.005 38.2562 165.928 36.5591 165.748 35.1834C165.118 30.362 162.624 26.402 159.911 22.5835C158.201 20.1792 157.044 20.2178 154.768 22.2877C153.166 23.844 151.263 25.0581 149.177 25.856C147.09 26.6539 144.863 27.019 142.631 26.9291C139.246 26.7647 135.856 27.1158 132.577 27.9706C130.005 28.7034 127.203 29.4748 125.133 31.8277C122.32 34.8273 120.416 38.5634 119.643 42.6019C119.421 43.4951 119.093 44.3585 118.665 45.1733C118.203 46.2019 117.508 46.1376 116.763 45.4819C116.435 45.1026 116.074 44.754 115.683 44.4405C114.397 43.6433 110.54 43.6433 109.64 44.4405C108.007 45.9447 106.966 48.2204 107.788 50.0461C108.868 52.5147 109.55 55.9347 113.42 55.9347C113.973 55.9347 114.487 56.6675 115.065 56.7447C116.184 56.899 116.557 57.259 116.737 58.5189C117.727 65.4103 120.118 71.646 125.595 76.3774C130.16 80.3631 135.187 83.0245 141.435 82.9345C144.099 82.793 146.769 82.793 149.432 82.9345C151.518 83.0001 153.594 82.6279 155.527 81.8417C157.745 81.2024 159.802 80.1008 161.564 78.6095C163.325 77.1181 164.751 75.2708 165.748 73.1889C167.819 69.2566 168.862 64.8651 168.782 60.4218C168.435 55.2918 169.464 50.0076 167.728 44.8905V44.8647ZM149.42 97.9773C150.412 98.061 151.41 98.061 152.402 97.9773C155.668 97.4116 158.831 96.6916 161.209 93.9916C161.968 93.1302 162.161 92.5002 160.682 91.9473C159.312 91.5376 158.051 90.8277 156.99 89.8691C155.929 88.9105 155.096 87.7274 154.55 86.4059C154.302 85.8847 153.893 85.4571 153.384 85.1861C152.875 84.9152 152.291 84.8155 151.721 84.9016C147.08 85.0302 142.425 85.0173 137.784 84.9016C136.588 84.9016 134.865 83.6159 134.338 84.0788C133.4 84.8631 133.207 86.5088 132.718 87.8073C132.603 88.0902 132.641 88.5145 132.448 88.6816C131.073 89.7745 131.728 90.623 132.718 91.4587C137.284 95.6285 143.236 97.9519 149.42 97.9773Z" fill="#383121"/>
<path d="M210.787 191.114C206.685 191.821 202.802 190.111 198.765 190.111C197.042 190.664 195.757 189.314 194.188 189.07C187.399 188.041 181.087 185.47 174.902 182.641C170.841 180.703 166.896 178.531 163.087 176.136C160.04 174.297 156.851 172.69 153.868 170.71C150.885 168.73 147.774 166.853 144.727 165.04C139.07 160.964 135.238 160.244 129.453 161.71C127.522 162.12 125.535 162.202 123.577 161.954C123.291 161.921 123.015 161.831 122.764 161.69C122.514 161.548 122.294 161.358 122.118 161.13C121.942 160.903 121.813 160.642 121.739 160.364C121.665 160.086 121.647 159.796 121.687 159.511C121.603 157.85 121.603 156.185 121.687 154.523C121.795 152.653 122.295 150.826 123.153 149.161C124.316 147.112 126.019 145.422 128.077 144.276C131.536 142.771 135.11 140.419 139.276 142.99C140.561 143.761 142.297 143.71 143.827 144.057C147.517 144.906 151.078 146.5 155 146.063C156.465 147.631 158.381 146.834 160.143 147.079C161.904 147.323 163.871 147.734 165.735 148.069C166.894 148.513 168.096 148.831 169.322 149.02C172.37 149.187 175.378 149.521 178.412 149.881C183.041 150.421 187.682 151.797 192.452 151.09C193.082 150.987 194.008 150.884 194.342 151.231C195.911 152.851 197.814 151.784 199.485 152.016C199.858 152.016 200.321 151.386 200.771 151.051C200.383 150.679 199.951 150.356 199.485 150.087C198.519 149.602 197.482 149.272 196.412 149.11C194.239 148.93 193.841 147.696 193.751 145.819C193.529 142.64 193.125 139.476 192.542 136.343C192.092 133.772 192.324 133.154 194.548 133.052C196.374 132.974 198.315 133.424 200.025 132.962C204.135 131.729 208.399 131.084 212.689 131.046C213.173 131.141 213.674 131.105 214.139 130.942C214.605 130.779 215.018 130.496 215.338 130.12C215.882 130.164 216.393 130.401 216.778 130.789C217.33 131.544 217.676 132.43 217.781 133.36C217.781 136.883 220.635 139.789 219.825 143.517C221.496 145.806 221.111 148.66 221.702 151.231C222.554 153.997 222.988 156.875 222.988 159.769C223.04 161.814 223.422 163.837 224.119 165.76C224.119 166.017 225.276 166.017 225.894 166.133V172.137C225.225 172.381 224.016 172.536 223.965 172.87C223.489 175.943 223.219 179.054 222.885 182.153C222.141 182.663 221.478 183.283 220.918 183.991C219.169 187.025 216.894 189.134 213.204 189.134C212.627 189.105 212.06 189.292 211.613 189.658C211.167 190.024 210.872 190.543 210.787 191.114Z" fill="#FBFBFB"/>
<g filter="url(#filter0_d_1338_2130)">
<path d="M284.869 276.254C284.764 275.552 284.798 274.836 284.97 274.148C285.142 273.46 285.449 272.812 285.872 272.242C289.562 271.792 292.416 274.081 295.605 275.251C303.717 278.247 311.2 282.579 318.992 286.269C323.363 288.339 327.233 291.052 329.534 295.449C330.389 296.771 330.894 298.289 331 299.859C331 306.288 330.833 307.368 327.914 312.305L326.924 313.308L325.921 314.311V315.314C324.314 314.941 323.247 316.162 322.064 316.766C317.24 318.971 311.902 319.803 306.636 319.171C305.582 319.081 304.334 318.399 303.049 318.284C300.194 318.039 297.122 318.194 294.55 317.165C291.735 316.046 288.79 315.879 285.987 314.941C283.185 314.002 280.022 313.295 277.116 312.279C272.026 310.705 267.211 308.35 262.845 305.298C264.233 303.729 265.57 302.122 267.049 300.656C267.422 300.296 268.245 300.399 268.849 300.284C271.099 301.322 273.506 301.978 275.972 302.225C277.532 302.437 279.119 302.317 280.63 301.874C282.141 301.431 283.542 300.675 284.74 299.654C287.607 297.301 291.169 294.987 290.873 290.358C292.776 287.671 291.529 284.997 290.873 282.258C290.45 280.837 289.679 279.544 288.631 278.496C287.583 277.448 286.29 276.677 284.869 276.254ZM294.885 300.348C294.827 300.831 294.827 301.318 294.885 301.801C295.118 302.312 295.38 302.81 295.669 303.292C296.067 302.932 296.71 302.624 296.826 302.186C297.302 300.374 297.302 298.329 298.112 296.696C299.397 293.752 300.027 290.384 302.599 288.057C302.741 287.878 302.836 287.667 302.877 287.443C302.917 287.218 302.901 286.988 302.83 286.771C302.65 286.462 302.033 286.334 301.544 286.295C300.734 286.218 300.194 286.295 299.809 287.388C299.05 289.573 298.054 291.669 296.839 293.637C295.476 295.861 295.643 298.445 294.885 300.348ZM304.887 302.765C304.887 303.099 304.887 303.421 304.887 303.755C304.81 304.668 304.964 305.516 306.173 305.234C306.533 305.144 306.97 304.256 306.919 303.794C306.784 301.731 307.4 299.689 308.654 298.046C309.466 296.749 310.159 295.38 310.724 293.958C310.904 293.508 310.57 292.852 310.467 292.287C310.03 292.389 309.452 292.364 309.182 292.634C306.006 295.321 305.042 298.934 304.887 302.791V302.765Z" fill="#C4A341"/>
</g>
<g filter="url(#filter1_d_1338_2130)">
<path d="M166.725 296.284C168.934 294.134 171.274 292.125 173.732 290.266L174.735 289.264L175.738 288.261H177.744C178.547 289.096 179.203 290.061 179.685 291.115C181.121 296.48 183.498 301.547 186.705 306.081C188.942 309.411 191.102 312.908 194.419 315.171C196.143 316.247 197.638 317.654 198.816 319.311C194.074 322.654 188.85 325.255 183.324 327.025C180.945 327.861 177.988 327.771 175.339 328.311C172.691 328.851 170.197 327.719 167.779 327.128C165.918 326.607 164.217 325.628 162.831 324.28C161.445 322.933 160.419 321.259 159.847 319.413C157.275 312.368 159.024 306.016 164.012 300.514C164.874 299.562 166.211 298.881 165.774 297.235L166.725 296.284ZM175.969 302.044C175.442 302.416 174.928 302.596 174.787 302.931C174.6 303.397 174.6 303.917 174.787 304.384C176.701 308.895 179.575 312.936 183.208 316.225C183.799 316.726 184.776 316.071 184.751 315.145C184.751 314.425 185.149 313.538 183.864 313.255C183.097 313.072 182.425 312.615 181.974 311.969C180.161 309.115 178.489 306.171 176.831 303.252C176.522 302.854 176.278 302.519 175.969 302.044Z" fill="#C4A341"/>
</g>
<path d="M198.765 319.312C197.586 317.656 196.092 316.249 194.368 315.172C191.102 312.909 188.942 309.412 186.654 306.082C183.447 301.548 181.07 296.481 179.634 291.116C179.152 290.062 178.496 289.097 177.692 288.262V285.267L178.695 284.264C179.898 284.516 181.077 284.873 182.218 285.331C198.307 293.345 214.365 301.394 230.393 309.476C230.599 309.579 230.638 310.016 230.753 310.299C225.366 312.973 219.992 315.661 214.605 318.309C212.628 319.496 210.512 320.433 208.305 321.099C206.389 321.485 204.178 322.102 202.211 320.431C201.401 319.698 199.948 319.659 198.765 319.312Z" fill="#282218"/>
<path d="M165.723 148.055C163.858 147.721 162.007 147.335 160.13 147.065C158.253 146.795 156.504 147.618 154.987 146.05C151.13 146.487 147.504 144.892 143.814 144.044C142.284 143.697 140.523 143.748 139.263 142.977C135.097 140.405 131.549 142.81 128.064 144.262C126.006 145.409 124.303 147.099 123.14 149.148C122.282 150.813 121.783 152.64 121.674 154.509C121.591 156.171 121.591 157.836 121.674 159.498C121.635 159.783 121.652 160.073 121.726 160.351C121.8 160.629 121.929 160.889 122.105 161.117C122.281 161.345 122.501 161.535 122.752 161.676C123.002 161.818 123.279 161.908 123.564 161.941C125.523 162.189 127.509 162.106 129.44 161.697C135.226 160.231 139.057 160.951 144.714 165.027L143.711 166.029C143.21 166.029 142.426 166.248 142.258 166.029C140.098 163.651 137.283 164.075 134.544 164.062C130.044 164.062 125.544 164.062 121.07 164.062C120.003 164.062 119.527 163.741 119.656 162.661C119.656 162.507 119.656 162.327 119.656 162.172C120.414 154.599 118.087 147.168 118.679 139.621C118.781 138.258 118.229 137.975 116.981 137.988C109.666 137.988 102.337 138.142 95.0216 137.988C89.9559 137.86 85.0703 139.698 79.966 139.094C79.6394 139.059 79.309 139.099 79.0004 139.212C78.6918 139.324 78.4131 139.506 78.1858 139.743C77.9585 139.98 77.7887 140.267 77.6894 140.58C77.5901 140.893 77.5641 141.225 77.6132 141.55V144.044H76.6103C76.6103 140.38 76.6103 136.715 76.6103 133.038C76.5332 128.217 77.896 123.64 79.1817 119.075C80.4674 114.293 82.036 109.6 83.7588 104.933C84.2988 103.441 84.5817 101.423 86.6902 100.934C86.7174 102.231 86.5879 103.526 86.3045 104.791C85.4303 107.247 84.0931 109.523 83.2703 111.978C82.4609 113.829 81.8989 115.779 81.5988 117.777C81.4188 120.245 80.4931 122.637 80.146 125.093C79.6831 128.217 78.4746 131.2 78.6289 134.44C78.6289 135.725 79.1174 136.06 80.3517 136.06C87.796 136.06 95.253 136.06 102.71 136.06C103.096 136.394 103.456 136.947 103.893 137.011C104.83 137.088 105.772 137.088 106.709 137.011C108.972 137.011 111.234 137.011 113.484 137.011C113.909 137.011 114.307 136.394 114.77 136.06C118.756 136.06 118.769 136.06 118.769 132.28C118.769 128.114 118.769 123.961 118.769 119.795C118.704 118.798 118.704 117.797 118.769 116.8C118.769 116.504 119.411 116.08 119.746 116.08C120.08 116.08 120.684 116.568 120.684 116.838C120.684 122.83 120.607 128.821 120.774 134.838C120.877 138.695 121.379 142.552 121.751 146.41C121.751 146.628 122.111 146.821 122.304 147.027C122.42 146.911 122.639 146.782 122.639 146.68C122.549 144.018 125.326 144.262 126.496 142.822C128.103 140.997 130.687 140.534 132.821 140.251C135.372 139.806 137.995 140.032 140.433 140.907C146.591 143.157 153.29 143.761 159.718 145.047C160.837 145.278 162.058 144.957 163.19 145.124C164.406 145.364 165.604 145.686 166.777 146.088L165.723 148.055Z" fill="#383121"/>
<path d="M165.723 148.055L166.726 146.05C169.155 145.818 171.444 146.577 173.797 146.962C177.924 147.618 182.141 147.708 186.32 148.068C186.759 148.158 187.189 148.287 187.605 148.454C192.594 149.74 191.617 149.097 191.707 145.15C191.707 144.982 191.784 144.725 191.707 144.661C189.598 142.848 191.591 140.174 190.421 138.233C188.994 135.905 190.125 133.411 189.753 131.02C189.907 130.261 189.264 129.104 190.755 129.027C190.833 129.914 190.331 131.123 192.041 131.033C194.42 130.93 196.772 130.48 199.1 130.21C204.165 129.644 209.154 128.705 214.194 128.114C216.084 127.883 216.058 126.828 215.724 125.877C214.721 122.791 213.435 119.873 212.15 116.89C209.788 111.504 206.948 106.34 203.664 101.461C202.015 98.6713 199.861 96.2124 197.312 94.2099C194.407 92.1271 191.938 89.3371 188.441 88.0643C188.107 87.9485 187.965 87.3057 187.734 86.9071L188.724 85.9043C190.601 85.3771 191.192 87.19 192.401 87.91C200.308 92.6157 205.862 99.3913 209.951 107.568C212.15 111.978 214.515 116.298 216.315 120.94C217.726 124.713 218.873 128.579 219.748 132.511C220.404 135.237 221.497 137.808 222.075 140.585C222.615 143.157 223.027 145.805 223.734 148.364C224.518 151.141 224.299 154.227 225.019 156.875C225.842 160 225.495 162.995 225.804 166.029C225.187 165.914 224.094 165.914 224.029 165.657C223.332 163.734 222.95 161.71 222.898 159.665C222.898 156.771 222.465 153.894 221.612 151.128C221.021 148.557 221.407 145.728 219.735 143.414C220.545 139.737 217.742 136.78 217.691 133.257C217.586 132.327 217.24 131.441 216.688 130.685C216.303 130.298 215.792 130.061 215.248 130.017C214.929 130.392 214.515 130.676 214.049 130.839C213.584 131.001 213.083 131.037 212.6 130.943C208.309 130.981 204.045 131.626 199.935 132.858C198.225 133.321 196.284 132.858 194.458 132.948C192.234 133.051 192.002 133.733 192.452 136.24C193.035 139.373 193.439 142.536 193.661 145.715C193.79 147.592 194.15 148.827 196.322 149.007C197.392 149.169 198.429 149.499 199.395 149.984C199.861 150.252 200.293 150.576 200.681 150.948C200.257 151.282 199.794 151.964 199.395 151.912C197.685 151.681 195.782 152.748 194.252 151.128C193.918 150.781 192.967 150.884 192.362 150.987C187.593 151.694 182.951 150.318 178.323 149.778C175.288 149.418 172.28 149.084 169.233 148.917C168.036 148.752 166.86 148.463 165.723 148.055Z" fill="#383121"/>
<path d="M262.845 305.362C267.211 308.415 272.026 310.77 277.116 312.344C280.022 313.359 283.043 314.067 285.987 315.005C288.932 315.944 291.734 316.111 294.55 317.229C297.122 318.258 300.194 318.104 303.049 318.348C304.334 318.464 305.62 319.145 306.636 319.235C311.902 319.868 317.24 319.036 322.064 316.831C323.273 316.227 324.34 315.005 325.921 315.378C325.921 315.699 326.05 316.124 325.921 316.355C324.731 318.322 323.09 319.977 321.134 321.184C319.178 322.391 316.963 323.116 314.671 323.298C310.532 323.69 306.365 323.69 302.226 323.298C298.157 322.915 294.131 322.175 290.192 321.086C285.293 319.801 280.549 317.911 275.702 316.394C270.605 314.65 265.667 312.474 260.942 309.888C260.453 309.631 260.222 308.885 259.862 308.358C260.055 306.057 260.595 305.504 262.845 305.362Z" fill="#383121"/>
<path d="M101.656 201.129C101.947 202.775 101.279 203.444 99.65 203.135C98.1965 202.637 96.7789 202.04 95.4072 201.348C93.2601 200.062 91.2286 198.571 89.1587 197.144C88.7827 196.841 88.4302 196.51 88.1044 196.154C87.8987 196.743 87.748 197.35 87.6544 197.967C87.4358 201.528 89.2872 204.909 88.6315 208.522C90.4701 210.489 89.3129 212.906 89.6344 215.092C89.9558 217.278 90.3029 219.811 90.6372 222.164V225.172H89.6344C89.1662 224.197 88.8497 223.157 88.6958 222.086C88.7318 218.89 88.0921 215.722 86.8187 212.791C86.7058 212.495 86.645 212.182 86.6387 211.865C86.2915 207.841 86.2401 203.752 85.5458 199.792C84.9287 196.218 84.8258 192.554 83.6301 189.082L84.633 188.092C85.8287 189.455 87.5772 190.664 88.1172 192.232C89.1844 195.331 91.9744 196.269 94.1729 197.928C96.2842 199.73 98.8942 200.847 101.656 201.129Z" fill="#383121"/>
<path d="M76.6231 144.043H77.626C78.0631 151.359 76.5974 158.765 78.6288 166.003C77.9088 169.14 79.1945 172.085 79.7731 175.003C80.2355 176.661 80.52 178.364 80.6217 180.082L79.6188 181.085C79.1747 180.28 78.854 179.413 78.6674 178.513C78.3345 175.729 77.6786 172.994 76.7131 170.362C75.8951 168.114 75.5069 165.733 75.5689 163.342C75.9674 158.829 73.9874 154.445 74.566 149.842C74.836 147.721 75.0546 145.676 76.6231 144.043Z" fill="#383121"/>
<path d="M210.786 191.114C210.867 190.561 211.144 190.055 211.566 189.689C211.989 189.323 212.529 189.121 213.088 189.121C216.804 189.121 219.079 186.974 220.802 183.978C221.362 183.27 222.025 182.65 222.769 182.14L223.772 183.142C223.104 188.62 217.575 191.5 213.216 192.142C212.399 192.2 211.578 192.2 210.761 192.142L210.786 191.114Z" fill="#383121"/>
<path d="M79.6187 181.098L80.6215 180.095C82.5751 182.414 83.95 185.163 84.6329 188.118L83.6301 189.108C82.9615 188.49 82.0101 187.989 81.6886 187.218C80.8529 185.25 80.2872 183.219 79.6187 181.098Z" fill="#383121"/>
<path d="M223.798 183.103L222.795 182.101C223.129 179.002 223.399 175.891 223.875 172.818C223.875 172.484 225.161 172.329 225.804 172.085C225.469 175.235 225.174 178.398 224.762 181.535C224.685 182.088 224.132 182.589 223.798 183.103Z" fill="#383121"/>
<path d="M88.6316 97.9766C88.6316 95.2381 90.843 94.2738 92.643 92.9624V93.9653C92.3544 94.7785 92.0152 95.5729 91.6273 96.3438C91.3808 96.9105 90.9523 97.3787 90.4097 97.6745C89.8672 97.9702 89.2414 98.0766 88.6316 97.9766Z" fill="#2C2A21"/>
<path d="M86.6386 100.934C86.5599 100.606 86.5499 100.265 86.609 99.9323C86.6681 99.5998 86.7951 99.2831 86.9821 99.002C87.1692 98.7209 87.4122 98.4813 87.6959 98.2983C87.9797 98.1153 88.2982 97.9928 88.6314 97.9385C88.6314 100.793 88.6314 100.793 86.6386 100.934Z" fill="#2C2A21"/>
<path d="M92.6431 93.9657V92.9628L93.6459 91.96L94.6488 92.9628C94.5588 94.5057 93.4016 93.8114 92.6431 93.9657Z" fill="#2E2B22"/>
<path d="M89.6343 225.171H90.6371C90.2514 226.148 91.5628 227.742 89.6343 228.167V225.171Z" fill="#313131"/>
<path d="M325.921 315.314V314.362L326.744 315.031L325.921 315.314Z" fill="#24221C"/>
<path d="M84.6329 188.118C83.95 185.164 82.5751 182.414 80.6215 180.095C80.5198 178.377 80.2353 176.674 79.7729 175.016C79.1944 172.085 77.9086 169.141 78.6286 166.016C76.5972 158.778 78.0629 151.372 77.6258 144.057V141.562C77.5767 141.237 77.6028 140.906 77.7021 140.593C77.8013 140.279 77.9712 139.993 78.1984 139.756C78.4257 139.519 78.7044 139.337 79.013 139.224C79.3217 139.112 79.652 139.071 79.9786 139.107C85.1215 139.711 89.9686 137.821 95.0343 138.001C102.35 138.181 109.678 138.078 116.994 138.001C118.28 138.001 118.794 138.271 118.691 139.634C118.1 147.181 120.427 154.612 119.668 162.185C119.668 162.339 119.668 162.519 119.668 162.674C119.54 163.754 120.016 164.088 121.083 164.075C125.57 164.075 130.083 164.075 134.557 164.075C137.27 164.075 140.085 163.664 142.271 166.042C142.49 166.299 143.223 166.042 143.724 166.042C145.1 168.806 147.941 169.642 150.294 171.185C155.437 174.476 160.438 177.858 165.825 180.686C166.661 181.123 166.88 181.792 165.902 182.435C161.989 185.281 157.886 187.858 153.624 190.149C152.865 190.509 152.338 191.435 151.734 192.103C148.674 191.396 145.46 191.461 142.477 190.355C142.192 190.226 141.888 190.143 141.577 190.111C135.753 190.111 129.813 189.429 124.117 190.291C118.216 191.178 112.288 192.862 107.403 196.873C105.564 198.365 103.546 199.702 101.681 201.116C98.9227 200.841 96.313 199.734 94.1985 197.941C92.0643 196.282 89.21 195.369 88.1429 192.245C87.5772 190.663 85.8286 189.481 84.6329 188.118Z" fill="#FBFCFC"/>
<g filter="url(#filter2_d_1338_2130)">
<path d="M198.765 192.116C199.753 191.98 200.756 192.006 201.735 192.193C202.171 192.336 202.571 192.571 202.908 192.881C203.245 193.192 203.512 193.571 203.69 193.993C204.241 196.311 204.589 198.673 204.731 201.052C204.924 203.97 204.731 204.292 201.98 205.115C199.228 205.938 196.837 206.4 194.342 207.159C193.469 207.446 192.611 207.776 191.771 208.149C189.572 208.329 187.914 206.863 186.217 205.963C176.908 201.193 167.458 196.809 157.314 194.032C156.491 193.813 155.784 192.952 154.743 193.119C155.291 192.39 155.921 191.725 156.62 191.139C158.818 189.699 161.107 188.375 163.357 186.999C165.126 186.026 166.842 184.962 168.5 183.811C168.982 183.414 169.581 183.189 170.205 183.17C170.829 183.152 171.441 183.341 171.945 183.708C175.263 185.302 178.67 186.691 182.064 188.105C187.338 190.456 192.999 191.815 198.765 192.116Z" fill="#C4A341"/>
</g>
<path d="M270.855 299.28C270.353 296.979 273.285 296.374 273.311 294.317C278.145 289.83 281.153 284.135 283.866 278.246C286.283 278.117 287.029 279.84 287.903 281.653C289.755 285.51 289.022 292.119 286.142 295.5C283.969 298.072 281.41 299.704 277.798 299.357C275.486 299.209 273.169 299.184 270.855 299.28Z" fill="#F5F6F8"/>
<path d="M198.765 192.116C192.995 191.817 187.329 190.457 182.051 188.105C178.657 186.691 175.25 185.302 171.932 183.708C171.428 183.341 170.816 183.152 170.192 183.17C169.568 183.189 168.969 183.414 168.487 183.811C166.829 184.962 165.113 186.027 163.344 186.999C161.094 188.375 158.805 189.699 156.607 191.139C155.908 191.726 155.278 192.39 154.73 193.119L151.721 192.116C152.351 191.448 152.853 190.522 153.611 190.162C157.874 187.871 161.976 185.294 165.89 182.448C166.867 181.805 166.648 181.162 165.812 180.699C160.425 177.871 155.385 174.489 150.281 171.198C147.928 169.681 145.138 168.845 143.711 166.055L144.714 165.052C147.761 166.929 150.873 168.742 153.855 170.722C156.838 172.702 160.027 174.309 163.074 176.148C166.883 178.543 170.828 180.716 174.89 182.654C181.1 185.444 187.412 188.015 194.175 189.082C195.744 189.326 197.029 190.676 198.752 190.124L198.765 192.116Z" fill="#383121"/>
<g filter="url(#filter3_d_1338_2130)">
<path d="M90.6374 222.163C90.3031 219.81 89.9817 217.444 89.6345 215.091C89.2874 212.738 90.4702 210.488 88.6317 208.521C89.2874 204.908 87.436 201.527 87.6545 197.966C87.7482 197.349 87.8988 196.742 88.1045 196.153C88.4304 196.509 88.7828 196.84 89.1588 197.143C91.2288 198.57 93.2602 200.061 95.4073 201.347C96.779 202.039 98.1966 202.636 99.6502 203.134C99.2002 204.42 99.0716 205.976 98.2359 206.991C95.3559 210.347 94.1088 214.448 92.7331 218.46C92.2316 219.861 92.0388 221.288 90.6374 222.163Z" fill="#C4A341"/>
</g>
<path d="M178.721 284.264L177.718 285.266C177.384 285.266 176.959 285.395 176.728 285.266C169.824 280.766 162.122 277.681 155.437 272.744C152.737 270.751 149.625 269.144 146.771 267.254C145.945 266.786 145.188 266.206 144.521 265.531C144.193 264.899 143.992 264.209 143.93 263.499C144.714 263.499 145.717 263.062 146.244 263.409C148.751 265.042 151.104 266.919 153.572 268.629C158.868 272.165 164.348 275.413 169.991 278.362C173.038 280.034 176.574 281.204 178.721 284.264Z" fill="#D7DEED"/>
<path d="M270.855 299.279C273.167 299.157 275.485 299.157 277.797 299.279C281.41 299.652 283.969 297.993 286.142 295.422C289.022 292.04 289.754 285.406 287.903 281.575C287.029 279.762 286.283 278.039 283.866 278.168C284.02 277.409 283.377 276.252 284.869 276.175C286.301 276.596 287.605 277.37 288.661 278.426C289.716 279.481 290.49 280.785 290.912 282.218C291.529 284.956 292.776 287.63 290.912 290.318C291.22 294.946 287.646 297.26 284.779 299.613C283.58 300.634 282.18 301.391 280.669 301.834C279.158 302.277 277.57 302.397 276.01 302.185C273.545 301.937 271.137 301.281 268.887 300.243C268.939 298.79 270.096 299.433 270.855 299.279Z" fill="#3F3928"/>
<path d="M234.803 231.177C238.152 227.854 241.166 224.211 243.803 220.3C244.832 218.744 245.783 217.124 246.915 215.633C247.146 215.324 247.995 215.466 248.56 215.401C248.56 215.851 248.869 216.43 248.689 216.687C246.992 219.464 245.346 222.306 243.43 224.928C241.361 227.77 239.021 230.406 236.796 233.131C235.168 233.474 234.503 232.823 234.803 231.177Z" fill="#D5D5D6"/>
<path d="M177.744 286.27V288.262H175.738L177.744 286.27Z" fill="#D5D5D6"/>
<g filter="url(#filter4_d_1338_2130)">
<path d="M92.6431 93.9658C93.4017 93.8115 94.5588 94.4672 94.6488 92.9629C95.6002 93.0786 96.8345 92.8601 97.4516 93.3743C100.383 95.7915 104.15 95.7143 107.532 96.8715C110.103 97.7843 112.777 95.9329 115.452 95.5858C116.636 95.2737 117.786 94.8429 118.884 94.3001C119.476 94.0943 120.401 93.7601 120.71 94.0301C123.616 96.4986 126.097 93.7343 128.694 93.3101C130.121 93.0786 131.073 92.8601 132.14 93.9143C135.483 97.2186 139.931 98.7872 144.187 99.7386C147.091 100.401 150.096 100.481 153.031 99.9759C155.966 99.4705 158.772 98.3892 161.287 96.7943C162.573 96.01 162.971 93.7858 164.231 93.1815C165.491 92.5772 167.805 93.5672 169.078 92.8601C171.457 91.5744 174.62 91.0215 175.764 87.9358C175.893 87.563 176.381 86.9715 176.561 87.023C178.773 87.563 180.624 85.9815 182.668 86.033C184.407 86.193 186.128 86.5071 187.811 86.9715C188.043 87.3701 188.184 88.013 188.518 88.1287C192.015 89.4144 194.484 92.1915 197.39 94.2743C199.938 96.2768 202.092 98.7357 203.741 101.526C207.025 106.404 209.865 111.568 212.227 116.954C213.448 119.937 214.734 122.894 215.775 125.954C216.109 126.906 216.135 127.96 214.245 128.191C209.205 128.783 204.217 129.721 199.151 130.287C196.824 130.557 194.471 131.007 192.092 131.11C190.382 131.2 190.884 129.991 190.807 129.104V128.603C190.807 124.167 188.557 120.053 188.775 115.566C188.775 115.45 188.582 115.296 188.441 115.218L186.435 113.997C186.176 114.523 185.973 115.074 185.831 115.643C185.638 116.45 185.638 117.291 185.831 118.098C187.099 120.96 187.744 124.059 187.721 127.188C189.38 127.947 187.785 130.403 189.714 131.046C190.087 133.437 188.955 135.931 190.382 138.258C191.591 140.2 189.598 142.874 191.668 144.687C191.758 144.687 191.668 145.008 191.668 145.175C191.578 149.123 192.555 149.817 187.567 148.48C187.151 148.313 186.72 148.184 186.281 148.094C182.103 147.734 177.885 147.644 173.758 146.988C171.405 146.603 169.117 145.844 166.687 146.075C165.514 145.673 164.316 145.351 163.1 145.111C161.968 144.944 160.747 145.265 159.628 145.034C153.2 143.748 146.527 143.144 140.343 140.894C137.905 140.02 135.283 139.794 132.731 140.238C130.597 140.573 128.013 141.035 126.406 142.81C125.21 144.185 122.433 143.941 122.549 146.667C122.549 146.77 122.33 146.898 122.214 147.014C122.021 146.808 121.674 146.615 121.661 146.397C121.289 142.54 120.787 138.683 120.684 134.826C120.517 128.834 120.684 122.843 120.594 116.826C120.594 116.556 119.99 116.08 119.656 116.067C119.322 116.054 118.717 116.491 118.679 116.787C118.614 117.785 118.614 118.785 118.679 119.783C118.679 123.948 118.679 128.101 118.679 132.267C118.679 135.983 118.679 135.983 114.68 136.047H102.659C95.2017 136.047 87.7446 136.047 80.3003 136.047C79.0146 136.047 78.6418 135.764 78.5775 134.427C78.4232 131.187 79.6318 128.204 80.0946 125.08C80.4417 122.624 81.3803 120.233 81.5475 117.764C81.8475 115.766 82.4095 113.817 83.2189 111.966C84.0417 109.51 85.3789 107.234 86.2531 104.779C86.5365 103.513 86.666 102.218 86.6388 100.921C88.6317 100.741 88.6317 100.741 88.6317 97.9258C89.2415 98.0257 89.8673 97.9193 90.4099 97.6236C90.9524 97.3278 91.3809 96.8596 91.6274 96.2929C92.0134 95.5387 92.3526 94.7616 92.6431 93.9658Z" fill="#C4A341"/>
</g>
<path d="M167.728 44.89C169.464 50.0328 168.436 55.2913 168.744 60.4984C168.824 64.9417 167.78 69.3333 165.71 73.2655C164.713 75.3474 163.287 77.1948 161.525 78.6861C159.764 80.1774 157.706 81.279 155.488 81.9183C153.556 82.7045 151.48 83.0768 149.394 83.0111C146.745 82.8453 144.088 82.8195 141.436 82.934C135.226 82.934 130.199 80.3626 125.634 76.364C120.157 71.6326 117.766 65.397 116.776 58.5056C116.596 57.2199 116.223 56.8856 115.104 56.7313C114.526 56.6542 114.012 55.9342 113.459 55.9213C109.602 55.9213 108.907 52.4885 107.827 50.0199C107.004 48.1428 107.982 45.9185 109.679 44.4014C110.566 43.6171 114.474 43.6171 115.722 44.4014C116.112 44.715 116.474 45.0635 116.802 45.4428C117.547 46.0985 118.242 46.1628 118.704 45.1342C119.132 44.3194 119.46 43.4561 119.682 42.5628C120.455 38.5243 122.359 34.7882 125.171 31.7886C127.241 29.4743 130.019 28.7029 132.616 27.9315C135.895 27.0767 139.285 26.7256 142.67 26.8901C144.902 26.98 147.129 26.6148 149.216 25.8169C151.302 25.019 153.204 23.805 154.807 22.2487C157.083 20.1787 158.24 20.1401 159.95 22.5444C162.663 26.4015 165.093 30.3229 165.787 35.1443C165.967 36.52 166.044 38.2171 166.854 39.1557C168.14 40.6857 167.561 42.2671 167.767 43.8228C167.6 43.8228 167.381 43.9 167.278 43.8228C163.241 40.5186 161.004 40.0814 156.427 41.8685C156.246 41.9895 156.095 42.1514 155.988 42.3413C155.881 42.5311 155.82 42.7436 155.81 42.9614C155.81 43.2828 156.414 43.8357 156.671 43.7971C160.438 43.1928 164 44.9928 167.728 44.89ZM138.787 41.8943C134.184 41.8171 129.929 44.2471 128.733 47.3842C128.681 47.6078 128.682 47.8403 128.735 48.0635C128.789 48.2866 128.894 48.4943 129.041 48.6699C129.299 48.9014 129.903 48.7599 130.327 48.6699C130.456 48.6699 130.584 48.4642 130.674 48.3356C133.117 45.2499 136.357 44.4142 140.111 44.8C140.613 44.8 141.153 44.3757 141.68 44.1571C141.294 43.4885 141.05 42.6143 140.471 42.2285C139.945 41.9819 139.367 41.8672 138.787 41.8943ZM154.73 58.6084C154.611 57.9122 154.334 57.2525 153.92 56.6799C152.506 55.2399 151.207 53.8899 151.657 51.6399C151.657 51.4599 151.027 50.9456 150.693 50.9456C150.358 50.9456 149.767 51.3956 149.754 51.6785C149.613 53.787 149.394 55.9727 151.618 57.3099C153.328 58.3256 152.184 59.0584 151.348 59.727C150.886 60.087 150.178 60.1256 149.754 60.4984C149.7 60.7247 149.703 60.961 149.764 61.1856C149.824 61.4103 149.94 61.6161 150.101 61.7841C150.616 61.9205 151.153 61.9445 151.677 61.8544C152.202 61.7643 152.7 61.5624 153.14 61.2622C153.579 60.9621 153.948 60.5709 154.223 60.1151C154.497 59.6594 154.67 59.1499 154.73 58.6213V58.6084ZM155.758 69.2669C155.424 67.5827 153.187 65.6412 151.991 65.937C150.913 66.1518 149.891 66.59 148.992 67.2232C148.093 67.8565 147.337 68.6709 146.771 69.6141C146.476 70.1284 147.003 71.1055 147.144 71.8641C147.71 71.6712 148.43 71.6584 148.803 71.2726C150.5 69.3055 152.223 67.8655 154.846 69.8841C154.936 69.9612 155.488 69.4598 155.758 69.2798V69.2669ZM137.116 55.9342C138.299 55.8323 139.436 55.4228 140.412 54.7462C141.389 54.0696 142.172 53.1495 142.683 52.077C142.703 51.9254 142.687 51.7713 142.638 51.6264C142.589 51.4816 142.508 51.3499 142.4 51.2413C142.287 51.1386 142.151 51.065 142.003 51.0269C141.855 50.9889 141.7 50.9874 141.551 51.0228C141.007 51.339 140.502 51.7188 140.047 52.1542C137.81 54.1599 137.823 54.1727 135.316 52.9899L133.889 52.2956C133.714 52.9006 133.661 53.5344 133.734 54.1599C133.838 54.4994 134.009 54.8149 134.235 55.0882C134.462 55.3615 134.741 55.5872 135.055 55.7522C135.369 55.9172 135.713 56.0182 136.067 56.0494C136.421 56.0807 136.777 56.0415 137.116 55.9342ZM161.801 54.9313C162.664 54.8506 163.486 54.5243 164.17 53.9912C164.853 53.458 165.37 52.7402 165.658 51.9228C165.658 51.6656 164.99 50.9456 164.951 50.9713C163.965 51.6168 162.813 51.9607 161.634 51.9607C160.456 51.9607 159.303 51.6168 158.317 50.9713C158.111 51.3571 157.636 51.8328 157.738 52.1156C158.088 52.9134 158.654 53.5976 159.372 54.0906C160.09 54.5837 160.931 54.866 161.801 54.9056V54.9313ZM114.629 48.3356C114.114 47.9499 113.459 47.1399 112.662 46.9599C111.556 46.7157 110.27 48.7856 110.72 50.0971C110.873 50.326 111.08 50.5145 111.321 50.6466C111.563 50.7787 111.833 50.8504 112.109 50.8556C112.445 50.8742 112.78 50.8218 113.095 50.7017C113.409 50.5817 113.694 50.3967 113.932 50.1589C114.17 49.921 114.355 49.6357 114.475 49.3216C114.595 49.0074 114.647 48.6715 114.629 48.3356Z" fill="#FAFAFA"/>
<path d="M149.42 97.9769C143.234 97.9582 137.276 95.6393 132.706 91.4712C131.716 90.6355 131.06 89.7869 132.436 88.6941C132.628 88.5269 132.59 88.1027 132.706 87.8198C133.194 86.5341 133.387 84.8755 134.326 84.0913C134.853 83.6413 136.576 84.8755 137.771 84.9141C142.413 85.017 147.067 85.0298 151.708 84.9141C152.28 84.82 152.867 84.9131 153.381 85.1795C153.895 85.446 154.31 85.8715 154.563 86.3927C155.111 87.7169 155.949 88.9017 157.015 89.8605C158.08 90.8193 159.346 91.5277 160.721 91.9341C162.2 92.4869 162.007 93.1169 161.248 93.9783C158.921 96.6397 155.707 97.3983 152.441 97.964C151.436 98.0542 150.425 98.0585 149.42 97.9769Z" fill="#F3F3F3"/>
<path d="M167.728 44.8903C164 44.9932 160.438 43.1932 156.632 43.8489C156.375 43.8489 155.81 43.3346 155.771 43.0132C155.781 42.7954 155.842 42.5829 155.949 42.3931C156.056 42.2032 156.207 42.0413 156.388 41.9203C160.965 40.1332 163.202 40.5704 167.24 43.8746C167.342 43.9646 167.561 43.8746 167.728 43.8746V44.8903Z" fill="#191818"/>
<path d="M294.884 300.346C295.643 298.444 295.476 295.859 296.839 293.622C298.054 291.654 299.05 289.559 299.809 287.374C300.194 286.229 300.734 286.204 301.544 286.281C301.994 286.281 302.612 286.448 302.83 286.756C302.901 286.973 302.917 287.204 302.877 287.429C302.836 287.653 302.741 287.864 302.599 288.042C300.027 290.369 299.436 293.738 298.112 296.682C297.353 298.354 297.353 300.359 296.826 302.172C296.71 302.609 296.067 302.918 295.669 303.278C295.38 302.796 295.118 302.298 294.884 301.786C294.828 301.308 294.828 300.825 294.884 300.346Z" fill="#3E3415"/>
<path d="M304.888 302.79C305.042 298.933 306.058 295.346 309.079 292.659C309.387 292.389 309.966 292.414 310.365 292.312C310.467 292.877 310.802 293.533 310.622 293.983C310.056 295.405 309.363 296.774 308.552 298.071C307.298 299.714 306.681 301.756 306.816 303.819C306.816 304.281 306.43 305.169 306.07 305.259C304.926 305.541 304.785 304.693 304.785 303.78C304.913 303.42 304.888 303.099 304.888 302.79Z" fill="#3E3415"/>
<path d="M175.97 302.045C176.278 302.521 176.522 302.855 176.741 303.215C178.464 306.133 180.135 309.078 181.884 311.932C182.335 312.578 183.007 313.035 183.774 313.218C185.059 313.501 184.648 314.388 184.661 315.108C184.661 316.033 183.709 316.689 183.118 316.188C179.485 312.899 176.611 308.858 174.697 304.346C174.51 303.88 174.51 303.36 174.697 302.893C174.928 302.598 175.442 302.418 175.97 302.045Z" fill="#3E3415"/>
<path d="M106.721 136.034H114.731C114.32 136.368 113.921 136.972 113.446 136.985C111.196 137.088 108.933 136.985 106.67 136.985L106.721 136.034Z" fill="#2E2B22"/>
<path d="M106.721 136.034V137.037C105.784 137.114 104.843 137.114 103.906 137.037C103.469 136.972 103.109 136.419 102.723 136.085L106.721 136.034Z" fill="#4B401D"/>
<path d="M189.752 131.02C187.824 130.403 189.418 127.947 187.76 127.163C187.758 124.027 187.087 120.928 185.792 118.073C185.599 117.265 185.599 116.424 185.792 115.617C185.935 115.048 186.137 114.497 186.397 113.971L188.402 115.115C188.544 115.193 188.75 115.347 188.737 115.463C188.518 119.95 190.717 124.064 190.768 128.5V129.001C189.264 129.104 189.907 130.261 189.752 131.02Z" fill="#3E3415"/>
<path d="M138.787 41.8947C139.376 41.8815 139.959 42.014 140.484 42.2804C141.063 42.6661 141.307 43.5661 141.693 44.209C141.165 44.4276 140.625 44.9033 140.124 44.8518C136.37 44.4661 133.13 45.3018 130.687 48.3875C130.597 48.5161 130.468 48.709 130.34 48.7218C129.903 48.7218 129.298 48.9018 129.054 48.7218C128.906 48.5462 128.802 48.3385 128.748 48.1154C128.695 47.8922 128.694 47.6597 128.746 47.4361C129.928 44.2476 134.184 41.7919 138.787 41.8947Z" fill="#191818"/>
<path d="M154.73 58.6215C154.665 59.1467 154.488 59.6519 154.212 60.103C153.935 60.5542 153.565 60.9408 153.126 61.2369C152.688 61.5329 152.191 61.7316 151.669 61.8193C151.147 61.9071 150.612 61.882 150.101 61.7457C149.94 61.5777 149.824 61.3719 149.763 61.1472C149.703 60.9226 149.699 60.6863 149.754 60.46C150.178 60.0872 150.885 60.0486 151.348 59.6886C152.184 59.02 153.328 58.2872 151.618 57.2715C149.394 55.9858 149.613 53.7486 149.754 51.6401C149.754 51.3572 150.358 50.9072 150.693 50.9072C151.027 50.9072 151.695 51.4215 151.657 51.6015C151.207 53.8515 152.505 55.2015 153.92 56.6415C154.341 57.2292 154.618 57.9073 154.73 58.6215Z" fill="#191818"/>
<path d="M155.758 69.28C155.488 69.46 154.935 69.9614 154.845 69.8971C152.274 67.8786 150.5 69.3185 148.803 71.2857C148.468 71.6714 147.71 71.6843 147.144 71.8771C147.003 71.1185 146.476 70.1414 146.771 69.6271C147.337 68.684 148.093 67.8696 148.992 67.2363C149.891 66.603 150.913 66.1648 151.991 65.95C153.251 65.6543 155.424 67.5957 155.758 69.28Z" fill="#191818"/>
<path d="M137.116 55.9346C136.77 56.0423 136.407 56.0792 136.047 56.0431C135.687 56.007 135.339 55.8987 135.022 55.7246C134.705 55.5506 134.426 55.3143 134.203 55.0301C133.979 54.7458 133.816 54.4194 133.721 54.0703C133.648 53.4448 133.701 52.811 133.876 52.206L135.303 52.9003C137.874 54.0832 137.797 54.0703 140.034 52.0646C140.489 51.6292 140.994 51.2494 141.538 50.9332C141.687 50.8979 141.842 50.8993 141.99 50.9374C142.138 50.9755 142.274 51.0491 142.387 51.1518C142.495 51.2603 142.576 51.392 142.625 51.5368C142.674 51.6817 142.689 51.8358 142.67 51.9875C142.172 53.075 141.396 54.0123 140.421 54.7051C139.446 55.398 138.306 55.822 137.116 55.9346Z" fill="#191818"/>
<path d="M161.801 54.9059C160.931 54.8582 160.092 54.568 159.379 54.0681C158.665 53.5683 158.106 52.8787 157.764 52.0774C157.661 51.7945 158.137 51.3188 158.342 50.9331C159.328 51.5786 160.481 51.9224 161.66 51.9224C162.838 51.9224 163.991 51.5786 164.977 50.9331C164.977 50.9331 165.748 51.6274 165.684 51.8845C165.396 52.7081 164.876 53.4311 164.187 53.967C163.499 54.5029 162.67 54.8289 161.801 54.9059Z" fill="#191818"/>
<path d="M114.629 48.3361C114.656 48.6806 114.608 49.027 114.488 49.3513C114.368 49.6755 114.18 49.97 113.936 50.2144C113.691 50.4588 113.397 50.6473 113.072 50.767C112.748 50.8866 112.402 50.9346 112.057 50.9075C111.782 50.9022 111.512 50.8305 111.27 50.6985C111.028 50.5664 110.822 50.3779 110.669 50.1489C110.219 48.8632 111.504 46.7675 112.61 47.0118C113.459 47.1404 114.114 47.9504 114.629 48.3361Z" fill="#444444"/>
<path d="M192.44 19.4914C192.44 18.6677 191.772 18 190.948 18C190.125 18 189.457 18.6677 189.457 19.4914V36.6042C189.457 37.4279 190.125 38.0956 190.948 38.0956C191.772 38.0956 192.44 37.4279 192.44 36.6042V19.4914Z" fill="#282218"/>
<path d="M199.986 25.5212C199.986 24.6975 199.319 24.0298 198.495 24.0298C197.671 24.0298 197.004 24.6975 197.004 25.5212V42.634C197.004 43.4576 197.671 44.1254 198.495 44.1254C199.319 44.1254 199.986 43.4576 199.986 42.634V25.5212Z" fill="#282218"/>
<path d="M207.534 31.5383C207.534 30.7146 206.866 30.0469 206.042 30.0469C205.219 30.0469 204.551 30.7146 204.551 31.5383V48.651C204.551 49.4747 205.219 50.1425 206.042 50.1425C206.866 50.1425 207.534 49.4747 207.534 48.651V31.5383Z" fill="#282218"/>
<defs>
<filter id="filter0_d_1338_2130" x="258.845" y="272.185" width="76.1553" height="55.1924" filterUnits="userSpaceOnUse" color-interpolation-filters="sRGB">
<feFlood flood-opacity="0" result="BackgroundImageFix"/>
<feColorMatrix in="SourceAlpha" type="matrix" values="0 0 0 0 0 0 0 0 0 0 0 0 0 0 0 0 0 0 127 0" result="hardAlpha"/>
<feOffset dy="4"/>
<feGaussianBlur stdDeviation="2"/>
<feComposite in2="hardAlpha" operator="out"/>
<feColorMatrix type="matrix" values="0 0 0 0 0 0 0 0 0 0 0 0 0 0 0 0 0 0 0.25 0"/>
<feBlend mode="normal" in2="BackgroundImageFix" result="effect1_dropShadow_1338_2130"/>
<feBlend mode="normal" in="SourceGraphic" in2="effect1_dropShadow_1338_2130" result="shape"/>
</filter>
<filter id="filter1_d_1338_2130" x="154.668" y="288.261" width="48.1479" height="48.1914" filterUnits="userSpaceOnUse" color-interpolation-filters="sRGB">
<feFlood flood-opacity="0" result="BackgroundImageFix"/>
<feColorMatrix in="SourceAlpha" type="matrix" values="0 0 0 0 0 0 0 0 0 0 0 0 0 0 0 0 0 0 127 0" result="hardAlpha"/>
<feOffset dy="4"/>
<feGaussianBlur stdDeviation="2"/>
<feComposite in2="hardAlpha" operator="out"/>
<feColorMatrix type="matrix" values="0 0 0 0 0 0 0 0 0 0 0 0 0 0 0 0 0 0 0.25 0"/>
<feBlend mode="normal" in2="BackgroundImageFix" result="effect1_dropShadow_1338_2130"/>
<feBlend mode="normal" in="SourceGraphic" in2="effect1_dropShadow_1338_2130" result="shape"/>
</filter>
<filter id="filter2_d_1338_2130" x="150.743" y="183.169" width="58.0425" height="32.9951" filterUnits="userSpaceOnUse" color-interpolation-filters="sRGB">
<feFlood flood-opacity="0" result="BackgroundImageFix"/>
<feColorMatrix in="SourceAlpha" type="matrix" values="0 0 0 0 0 0 0 0 0 0 0 0 0 0 0 0 0 0 127 0" result="hardAlpha"/>
<feOffset dy="4"/>
<feGaussianBlur stdDeviation="2"/>
<feComposite in2="hardAlpha" operator="out"/>
<feColorMatrix type="matrix" values="0 0 0 0 0 0 0 0 0 0 0 0 0 0 0 0 0 0 0.25 0"/>
<feBlend mode="normal" in2="BackgroundImageFix" result="effect1_dropShadow_1338_2130"/>
<feBlend mode="normal" in="SourceGraphic" in2="effect1_dropShadow_1338_2130" result="shape"/>
</filter>
<filter id="filter3_d_1338_2130" x="83.6365" y="196.153" width="20.0137" height="34.0103" filterUnits="userSpaceOnUse" color-interpolation-filters="sRGB">
<feFlood flood-opacity="0" result="BackgroundImageFix"/>
<feColorMatrix in="SourceAlpha" type="matrix" values="0 0 0 0 0 0 0 0 0 0 0 0 0 0 0 0 0 0 127 0" result="hardAlpha"/>
<feOffset dy="4"/>
<feGaussianBlur stdDeviation="2"/>
<feComposite in2="hardAlpha" operator="out"/>
<feColorMatrix type="matrix" values="0 0 0 0 0 0 0 0 0 0 0 0 0 0 0 0 0 0 0.25 0"/>
<feBlend mode="normal" in2="BackgroundImageFix" result="effect1_dropShadow_1338_2130"/>
<feBlend mode="normal" in="SourceGraphic" in2="effect1_dropShadow_1338_2130" result="shape"/>
</filter>
<filter id="filter4_d_1338_2130" x="74.564" y="86.0317" width="145.385" height="71.0698" filterUnits="userSpaceOnUse" color-interpolation-filters="sRGB">
<feFlood flood-opacity="0" result="BackgroundImageFix"/>
<feColorMatrix in="SourceAlpha" type="matrix" values="0 0 0 0 0 0 0 0 0 0 0 0 0 0 0 0 0 0 127 0" result="hardAlpha"/>
<feOffset dy="4"/>
<feGaussianBlur stdDeviation="2"/>
<feComposite in2="hardAlpha" operator="out"/>
<feColorMatrix type="matrix" values="0 0 0 0 0 0 0 0 0 0 0 0 0 0 0 0 0 0 0.25 0"/>
<feBlend mode="normal" in2="BackgroundImageFix" result="effect1_dropShadow_1338_2130"/>
<feBlend mode="normal" in="SourceGraphic" in2="effect1_dropShadow_1338_2130" result="shape"/>
</filter>
</defs>
</svg>
