<svg width="301" height="326" viewBox="0 0 301 326" fill="none" xmlns="http://www.w3.org/2000/svg">
<path d="M135.455 294.941C134.614 295.074 133.797 295.329 133.03 295.697C126.284 300.177 124.322 300.071 117.722 301.9C116.052 302.363 114.329 302.045 112.871 302.602C111.285 303.09 109.623 303.283 107.967 303.172C106.26 303.384 104.532 303.384 102.825 303.172C99.6042 302.469 96.2776 302.523 93.0967 301.847C89.9483 301.2 86.8484 300.337 83.8193 299.262C80.8476 298.122 77.9972 296.688 75.3105 294.981C71.1622 292.331 66.6693 286.658 63.9788 280.88C62.2815 277.194 61.0826 273.298 60.4136 269.296C59.7112 265.32 59.4726 261.198 58.969 257.156C58.5581 253.789 58.5449 250.463 58.4653 247.123C58.3461 242.391 59.4196 237.739 59.2208 232.981C59.1413 230.781 60.0558 228.555 60.5461 226.355V223.611C61.5932 222.736 61.5534 221.411 61.8715 220.258C62.6917 217.294 63.6649 214.374 64.7873 211.511C65.9667 208.635 67.5317 205.933 69.4392 203.479C70.8979 201.376 72.597 199.45 74.5021 197.74C76.4503 196.243 78.1865 194.347 80.6119 193.486C80.8372 193.406 80.9433 192.969 81.1023 192.691C82.2819 192.691 83.4614 192.837 83.8458 191.365C86.4965 191.206 88.7893 190.04 91.3605 189.629C93.4943 189.324 95.5354 188.516 97.762 188.595C101.181 188.701 104.614 188.595 108.033 188.595C108.709 188.595 109.584 188.317 110.048 188.595C111.281 189.47 112.699 188.821 113.865 189.311C115.104 189.744 116.41 189.955 117.722 189.934C118.133 189.934 118.517 190.239 118.928 190.292C121.711 190.663 124.229 192.094 127.132 191.975C127.317 192.2 127.476 192.611 127.675 192.638C129.661 192.993 131.568 193.698 133.308 194.719H135.375C135.964 195.249 136.625 195.695 137.337 196.044C141.592 197.537 145.76 199.267 149.822 201.226C151.651 202.034 153.241 203.36 155.295 203.625C157.045 204.712 158.635 206.13 160.796 206.382C161.65 207.13 162.563 207.808 163.526 208.409C168.403 210.981 173.307 213.485 178.211 215.99C179.193 216.385 180.142 216.86 181.047 217.409C184.493 219.98 188.522 221.491 192.18 223.677C195.016 225.374 197.839 227.097 200.715 228.753C201.667 229.495 202.867 229.846 204.068 229.734C204.068 230.503 203.949 231.325 205.168 231.06C205.491 231.04 205.814 231.04 206.136 231.06C206.513 231.562 206.959 232.008 207.461 232.385C208.548 233.021 209.82 233.366 210.854 234.068C214.207 236.335 217.706 238.376 221.258 240.311C223.312 241.424 225.433 242.431 227.368 243.703C230.748 245.943 234.233 247.984 237.772 249.959C239.535 250.953 241.231 252.04 242.967 253.087C246.427 255.168 249.846 257.355 253.385 259.316C254.869 260.138 256.035 260.906 255.651 262.802C255.651 262.934 256.075 263.16 256.314 263.332C256.021 263.767 255.797 264.246 255.651 264.75C255.545 265.638 255.717 266.552 255.651 267.401C255.493 268.113 255.271 268.809 254.988 269.482C254.988 270.886 253.822 272.132 254.299 273.603C252.974 273.921 253.875 274.929 253.61 275.671C252.072 277.5 251.503 279.886 250.19 281.874C248.733 284.087 247.54 286.459 245.949 288.633C244.392 290.656 242.662 292.54 240.781 294.266C240.438 294.609 240.179 295.027 240.023 295.486C239.866 295.946 239.817 296.435 239.879 296.916C237.944 296.916 237.944 296.916 237.812 298.242C237.586 298.242 237.282 298.149 237.162 298.242C235.373 299.912 233.027 300.892 231.636 303.039C230.125 302.933 229.489 303.994 228.879 305.107C228.039 305.226 227.224 305.481 226.467 305.862C222.927 308.446 218.929 310.335 214.684 311.429C213.558 311.72 212.511 312.277 211.398 312.582C211.066 312.675 210.589 312.41 210.244 312.211C207.461 310.66 204.347 309.772 201.722 307.89C201.338 307.612 200.609 307.89 200.026 307.89C199.787 307.082 199.178 306.843 198.436 306.472C182.929 298.741 167.467 290.965 152.048 283.146C151.208 282.638 150.231 282.402 149.252 282.47C149.172 282.046 149.252 281.33 148.987 281.237C146.469 280.063 144.026 278.735 141.671 277.261C137.072 274.77 132.393 272.305 128.126 269.309C125.475 267.56 122.679 266.248 120.266 264.14C118.742 262.815 116.754 261.98 115.27 260.469C115.027 260.358 114.759 260.311 114.492 260.332C114.226 260.353 113.969 260.441 113.746 260.588C113.601 260.816 113.516 261.075 113.498 261.344C113.479 261.612 113.528 261.881 113.64 262.126C114.217 262.983 114.95 263.725 115.8 264.313C121.645 268.116 127.49 271.92 133.507 275.459C138 278.11 142.625 280.522 147.184 283.04V283.729C146.763 284.336 146.293 284.908 145.779 285.439C145.523 285.638 145.326 285.905 145.212 286.209C145.097 286.513 145.069 286.843 145.13 287.162C144.6 287.268 143.805 286.817 143.805 287.851L143.115 288.54L142.426 289.216L141.75 289.905C140.624 289.693 140.16 290.157 140.425 291.231C139.908 291.337 139.1 290.886 139.1 291.92C137.973 291.708 137.522 292.172 137.774 293.245L137.085 293.934C136.303 294.358 135.508 293.921 135.455 294.941Z" fill="#2E3A2E"/>
<path d="M160.875 206.316C158.715 206.064 157.125 204.646 155.375 203.559V194.626C155.375 171.883 155.375 149.127 155.375 126.384C155.352 125.418 155.524 124.458 155.88 123.56C156.236 122.662 156.77 121.846 157.449 121.159C158.129 120.473 158.939 119.93 159.833 119.564C160.727 119.198 161.686 119.015 162.651 119.028C165.951 119.161 169.278 119.028 172.591 119.028H264.862C266.177 118.953 267.492 119.161 268.719 119.638C270.034 120.147 271.149 121.067 271.899 122.261C272.649 123.455 272.993 124.859 272.881 126.265C272.881 151.194 272.881 176.124 272.881 201.041C272.753 202.656 272.269 204.222 271.463 205.627C270.071 205.149 269.713 203.771 268.918 202.777C264.849 197.635 259.031 195.13 253.266 192.572C250.84 192.572 248.627 191.247 246.294 191.247C243.643 191.247 241.231 190.491 238.687 190.504C236.243 190.33 233.788 190.513 231.397 191.048C228.998 191.75 226.374 191.26 223.79 191.684C220.251 192.254 216.659 192.824 213.081 193.235C212.246 193.327 211.451 193.765 210.616 193.884C209.709 193.827 208.799 193.858 207.899 193.977C204.943 195.09 201.802 195.302 198.807 196.097C197.482 196.468 196.024 196.442 194.672 196.826C190.696 197.953 186.72 199.172 182.638 200.047C177.933 201.041 173.466 202.698 168.867 204.023C166.23 204.898 163.539 205.587 160.875 206.316ZM216.262 174.653C218.246 174.887 220.257 174.56 222.065 173.71C223.874 172.86 225.408 171.52 226.493 169.842C227.256 168.835 227.791 167.676 228.063 166.443C228.336 165.21 228.338 163.933 228.071 162.698C227.777 161.562 227.194 160.52 226.379 159.675C225.564 158.829 224.544 158.209 223.419 157.874C222.504 157.602 221.637 157.191 220.847 156.655C219.708 155.913 218.356 155.489 217.812 153.872C217.301 152.845 216.499 151.993 215.506 151.42C215.047 151.015 214.49 150.737 213.89 150.614C213.29 150.49 212.669 150.526 212.087 150.717C209.94 151.87 207.488 152.798 206.547 155.462C205.739 157.089 205.13 158.806 204.731 160.578C204.276 162.544 204.276 164.589 204.731 166.555C205.233 168.667 206.451 170.541 208.177 171.857C210.417 173.871 213.213 175.462 216.262 174.653Z" fill="#5E7D61"/>
<path d="M175.295 119.055H172.552C172.909 117.372 171.77 116.165 171.226 114.827C168.78 109.128 165.297 103.933 160.955 99.5058C157.07 95.8662 152.666 92.8244 147.887 90.4802C146.934 89.8654 145.819 89.5496 144.686 89.5732C143.552 89.5968 142.452 89.9588 141.525 90.6127C140.703 91.1561 140.293 91.4477 140.293 92.5079C140.293 95.8743 141.499 99.1347 141.022 102.528C141.022 102.634 141.022 102.793 141.022 102.859C142.453 104.569 141.366 106.583 141.697 108.425C141.896 109.499 141.181 109.486 140.452 109.433C140.003 109.447 139.556 109.389 139.126 109.26C136.82 108.2 134.527 107.1 132.248 105.987C131.386 105.576 130.565 105.059 129.716 104.661C127.834 103.694 125.913 102.806 124.057 101.785C123.627 101.453 123.105 101.261 122.563 101.234C122.02 101.208 121.482 101.35 121.022 101.64C119.312 103.071 117.616 104.516 115.959 106C113.308 108.333 110.817 110.705 108.219 113.024C107.835 113.369 107.172 113.422 106.894 113.78C105.847 114.933 105.224 114.005 104.747 113.329C103.078 110.726 101.573 108.022 100.241 105.231C98.7694 102.497 97.481 99.6674 96.3838 96.7623C96.1054 95.9671 95.9199 95.1321 95.5886 94.3502C95.456 94.0454 95.0584 93.6212 94.7933 93.6212C91.9041 93.6212 89.0016 93.3297 86.2051 94.3899C84.9464 94.9857 83.6066 95.3921 82.229 95.596C77.6247 96.0649 72.9806 95.2435 68.8165 93.2236C68.6088 93.0656 68.3551 92.9801 68.0942 92.9801C67.8332 92.9801 67.5795 93.0656 67.3718 93.2236C65.8476 93.9727 64.3654 94.8045 62.9319 95.7153C59.8173 98.1407 56.4907 100.274 53.5087 102.899C51.4676 104.701 49.0688 106.119 47.0807 108.041C45.0927 109.963 42.6673 111.898 40.6263 113.992C37.8693 116.489 35.3247 119.211 33.0188 122.13C31.3621 124.502 28.9499 126.344 27.3065 128.756C23.8606 133.726 19.805 138.272 17.0483 143.719C16.4031 144.954 15.677 146.145 14.8747 147.285C12.1391 151.331 9.98016 155.738 8.46002 160.379C6.61779 165.681 4.35144 170.982 4.24541 176.84C2.84054 178.444 3.80804 180.471 3.33092 182.287C2.96502 184.24 2.81391 186.226 2.8803 188.211C2.8803 189.537 3.01283 190.968 2.8803 192.32C2.70377 195.219 2.99464 198.128 3.74178 200.935C4.40476 204.734 5.98327 208.314 8.34074 211.365C8.9504 212.121 9.3215 213.181 10.077 213.698C12.0832 215.3 14.3523 216.542 16.7832 217.369C18.2941 217.767 19.6062 219.039 21.1039 219.291C22.7707 219.641 24.4167 220.083 26.0342 220.616C28.0222 221.173 30.3416 220.749 32.2103 221.504C34.079 222.26 36.4117 221.504 38.2009 222.763C42.0179 222.591 45.7421 223.744 49.5989 223.492C53.2436 223.267 56.9148 223.492 60.5728 223.492V226.236C58.0546 226.236 55.5365 226.117 53.0183 226.236C48.3928 226.501 43.8469 225.507 39.2347 225.374C35.0001 225.228 30.8028 224.529 26.7499 223.294C21.6208 221.743 16.3061 220.418 11.6541 217.502C9.08176 215.952 6.92912 213.795 5.38521 211.22C3.91051 208.528 2.68605 205.706 1.72724 202.79C1.23686 201.465 2.03207 199.848 0.812752 198.708C0.574189 195.249 0.242851 191.803 0.16333 188.344C0.251266 186.709 0.463941 185.083 0.799498 183.48C0.998301 181.969 0.65371 180.485 1.38265 178.908C1.80331 177.445 2.03492 175.936 2.07183 174.415C2.75337 170.398 3.76405 166.444 5.09363 162.592C6.38222 158.671 7.95471 154.848 9.79863 151.155C11.3493 148 13.4433 145.111 15.2061 142.063C18.4929 136.417 22.7871 131.46 26.4318 126.159C27.9392 124.074 29.6386 122.135 31.5079 120.367C33.1827 118.489 34.9521 116.697 36.8093 114.999C37.8961 114.124 38.4262 112.441 39.5792 111.779C40.7728 110.978 41.8751 110.049 42.8661 109.009C43.9662 108.001 44.9072 106.835 46.047 105.881C48.4856 103.813 50.9375 101.759 53.5219 99.8769C55.1919 98.6443 56.9281 97.531 58.5185 96.1924C60.0621 95.0188 61.6778 93.9432 63.356 92.9718C63.6211 92.7995 63.9127 92.6802 64.191 92.5079L66.0863 91.3019C65.4898 90.891 64.6549 90.626 64.3235 90.0561C62.9982 87.856 61.3282 85.8812 60.6391 83.3498C60.3701 82.6588 60.1487 81.9503 59.9764 81.2292C59.9233 80.3155 59.9233 79.3995 59.9764 78.4857C59.9764 77.1604 60.0824 75.729 59.9764 74.3639C59.5523 69.5264 61.5005 65.4575 64.1777 61.6803C67.3718 57.0018 69.2538 51.7004 71.5599 46.5581C71.1226 45.0472 72.1829 43.8146 72.3552 42.4097C72.5275 41.0048 73.5347 40.0241 73.548 38.8313C73.548 36.1806 75.2444 34.219 75.7878 31.8069C76.4474 29.4842 77.4052 27.2567 78.6373 25.1801C80.9735 20.3726 83.9714 15.916 87.5437 11.9399C91.5641 7.61124 96.4318 4.15561 101.844 1.78772C102.851 1.35035 104.203 2.19858 104.893 0.873226C106.483 1.17806 107.914 0.329832 109.425 0.223804C111.81 -0.0746014 114.223 -0.0746014 116.609 0.223804C120.863 1.07203 125.104 2.11906 127.304 6.67826C128.007 8.10964 129.955 8.44098 131.439 9.01088C132.063 9.16077 132.647 9.4458 133.149 9.84585C134.01 10.6941 135.217 11.3567 135.879 12.152C136.726 13.0087 137.493 13.9403 138.172 14.9352C139.031 16.3982 139.72 17.9545 140.226 19.5739C141.053 22.2823 141.543 25.0822 141.684 27.9104C141.79 33.2463 142.716 38.5343 144.428 43.5893C145.678 47.2539 147.538 50.6816 149.928 53.7282C152.287 56.6837 155.349 59.0296 157.376 62.2635C158.073 63.457 158.625 64.7295 159.02 66.054C160.623 70.918 160.836 76.8291 158.132 80.9111C157.387 82.0681 156.416 83.0625 155.277 83.8346C154.139 84.6067 152.855 85.1406 151.505 85.4041C149.888 85.5764 148.284 85.8944 146.694 86.2125C146.416 86.2125 146.204 86.6764 145.965 86.915C146.217 87.0873 146.469 87.2861 146.734 87.4451C150.219 89.5392 154.143 90.8645 157.231 93.6212C157.708 94.0453 158.357 94.2707 158.834 94.6948C159.921 95.6225 161.14 96.484 162.121 97.4383C164.357 99.7309 166.404 102.2 168.244 104.82C169.431 106.464 170.482 108.201 171.385 110.016C172.353 111.898 173.055 113.899 173.943 115.821C174.434 116.894 175.361 117.756 175.295 119.055ZM138.888 53.092C138.826 52.7638 138.859 52.4246 138.983 52.1146C139.108 51.8046 139.318 51.5367 139.59 51.3426C140.107 50.8578 140.497 50.2544 140.728 49.5847C140.959 48.915 141.023 48.1992 140.916 47.4991C140.916 46.5978 140.916 45.6833 140.916 44.8484C140.932 43.8776 140.75 42.9138 140.381 42.0158C140.012 41.1179 139.463 40.3048 138.768 39.6265C137.83 38.6921 136.945 37.7053 136.118 36.6709C136.303 34.7359 135.177 33.1588 134.713 31.3695C133.598 27.2366 131.294 23.5222 128.086 20.6872C127.291 19.9715 126.84 20.051 126.151 20.7667C121.963 25.1934 116.569 26.8103 110.605 26.9826C109.001 26.9826 107.397 26.9826 105.807 26.9826C102.313 27.0473 98.9611 28.375 96.3705 30.7201C92.5667 34.1263 90.6582 37.877 89.3727 43.2712C89.1871 44.0531 89.2269 45.2592 88.0473 45.5243C87.0798 45.7363 86.6159 45.0472 86.0593 44.4905C85.8775 44.3508 85.7168 44.1857 85.5822 44.0001C84.7339 42.529 83.3158 42.6748 81.964 42.7941C81.2217 42.9185 80.5299 43.2511 79.9692 43.7532C79.4085 44.2553 79.0018 44.9062 78.7964 45.6303C78.1775 47.5477 78.2957 49.6269 79.1277 51.4618C79.8964 52.8932 80.3205 54.4571 82.1097 54.9608C83.2363 55.2789 84.3761 55.5837 85.5291 55.8223C87.0798 56.1403 87.4907 56.4187 87.3979 57.9561C87.3551 60.04 87.7244 62.1119 88.4847 64.0527C89.3843 67.1405 90.8878 70.0191 92.9081 72.5217C94.9283 75.0242 97.4251 77.1009 100.254 78.6315C103.418 80.6869 107.085 81.8331 110.857 81.9449C111.853 81.7759 112.878 81.9388 113.772 82.4088C114.218 82.6336 114.711 82.7508 115.21 82.7508C115.71 82.7508 116.202 82.6336 116.648 82.4088C117.329 82.0414 118.106 81.889 118.875 81.9714C121.94 82.2034 125.002 81.4762 127.636 79.8906C129.054 80.2617 129.61 79.0954 130.459 78.393C131.307 77.6905 132.659 77.0676 133.268 76.1531C135.015 73.7416 136.403 71.0899 137.39 68.2805C138.424 65.2698 138.943 62.1067 138.928 58.9236C138.782 57.0018 138.888 55.0403 138.888 53.092ZM119.988 99.5456C119.578 98.8881 119.073 98.2943 118.491 97.7828C114.086 95.0583 110.005 91.8438 106.324 88.2006C105.709 87.5212 105.049 86.8837 104.349 86.2921C104.17 86.2275 103.979 86.2024 103.789 86.2185C103.599 86.2345 103.415 86.2912 103.249 86.3848C102.295 89.02 100.503 91.2691 98.1465 92.7863C97.864 92.9893 97.6651 93.2884 97.587 93.6274C97.509 93.9665 97.5571 94.3223 97.7224 94.6285C99.4056 97.8226 100.519 101.255 102.07 104.502C102.944 106.331 104.455 107.895 105.105 109.804C105.582 111.222 106.258 110.904 107.053 110.692C107.665 110.493 108.23 110.167 108.71 109.738C110.896 107.829 113.043 105.841 115.23 103.932C116.397 102.912 117.179 101.467 118.822 100.964C119.233 100.818 119.445 100.155 119.988 99.5456ZM121.314 97.2129C121.751 96.9479 122.215 96.6961 122.639 96.4177C124.826 95.0924 125.29 92.4417 126.946 90.6657C127.463 90.1223 127.264 89.2741 126.615 88.5849C125.696 87.8082 124.969 86.8281 124.494 85.7222C124.057 84.092 123.169 83.9727 121.844 83.9992C120.028 83.9992 118.199 84.092 116.37 83.9992C112.712 83.8136 108.975 84.5956 105.37 83.3365C105.197 83.3365 104.959 83.416 104.747 83.4558C104.853 83.6944 104.893 84.0125 105.065 84.1715C107.265 86.239 109.346 88.3994 111.692 90.3079C114.501 92.561 117.523 94.5092 120.346 96.7358C120.665 96.9276 121.003 97.0874 121.353 97.2129H121.314ZM138.994 101.481C138.715 98.9624 138.45 96.431 138.159 93.9128C138.155 93.4687 137.976 93.044 137.661 92.7312C137.346 92.4184 136.92 92.2429 136.476 92.2429C134.62 92.0573 132.5 92.2429 131.015 91.4212C129.531 90.5994 129.16 91.1163 128.577 91.9115C126.986 94.0851 125.475 96.325 124.004 98.5383C123.898 98.6841 124.229 99.2937 124.494 99.466C128.921 102.408 133.891 104.317 138.649 106.636C138.751 106.672 138.859 106.683 138.966 106.667C139.072 106.651 139.173 106.608 139.259 106.543C139.418 106.278 139.617 105.761 139.511 105.655C138.185 104.463 139.232 102.872 139.034 101.481H138.994Z" fill="#232B23"/>
<path d="M160.875 206.316C163.526 205.587 166.177 204.898 168.827 204.129C173.426 202.803 177.893 201.081 182.598 200.153C186.653 199.278 190.643 198.059 194.632 196.932C195.957 196.548 197.389 196.574 198.767 196.203C201.762 195.421 204.903 195.196 207.859 194.083C208.759 193.964 209.669 193.933 210.576 193.99C211.411 193.871 212.206 193.433 213.041 193.34C216.619 192.93 220.211 192.36 223.75 191.79C226.334 191.366 228.958 191.79 231.357 191.154C233.748 190.619 236.203 190.436 238.647 190.61C241.191 190.61 243.657 191.326 246.254 191.352C248.587 191.352 250.8 192.678 253.226 192.678C258.991 195.236 264.809 197.741 268.878 202.883C269.673 203.877 270.031 205.255 271.423 205.733C271.427 206.494 271.571 207.249 271.847 207.959C273.934 211.893 274.974 216.297 274.869 220.749C274.869 222.008 274.869 223.267 274.869 224.526C274.537 229.1 273.523 233.598 271.86 237.872C271.055 240.053 270.089 242.17 268.971 244.207C266.335 249.493 263.183 254.505 259.561 259.171C258.448 260.496 257.454 261.941 256.406 263.332C256.168 263.16 255.731 262.935 255.744 262.802C256.062 260.907 254.962 260.151 253.477 259.316C249.939 257.355 246.519 255.168 243.06 253.087C241.324 252.04 239.628 250.953 237.865 249.959C234.326 247.985 230.84 245.983 227.461 243.704C225.526 242.378 223.405 241.424 221.351 240.311C217.799 238.376 214.3 236.335 210.947 234.069C209.913 233.366 208.641 233.021 207.554 232.385C207.052 232.009 206.605 231.562 206.229 231.06C207.236 229.947 208.283 228.86 209.224 227.694C210.881 225.653 212.524 223.598 214.062 221.478C215.599 219.357 216.712 217.303 218.223 215.341C219.005 214.321 218.329 213.923 217.773 213.433C216.991 212.73 216.447 213.433 216.156 213.95C214.851 216.303 213.376 218.558 211.742 220.696C210.96 221.584 210.417 222.724 209.635 223.572C207.74 225.546 206.375 227.998 204.161 229.682C202.959 229.793 201.76 229.442 200.808 228.701C197.932 227.044 195.109 225.321 192.273 223.625C188.615 221.438 184.586 219.927 181.14 217.356C180.234 216.807 179.286 216.333 178.304 215.938C173.4 213.433 168.496 210.928 163.619 208.357C162.651 207.752 161.733 207.069 160.875 206.316Z" fill="#202620"/>
<path d="M254.299 273.643C253.822 272.146 254.988 270.926 254.988 269.521C257.281 270.33 259.614 271.059 261.867 271.947C271.714 275.857 281.018 280.906 290.521 285.518C292.893 286.658 298.168 291.721 299.242 295.538C300.845 301.211 300.567 301.224 298.566 306.698C298.234 307.586 297.333 308.275 297.585 309.348L296.896 310.037L294.152 312.794C292.827 313.483 291.502 314.239 290.176 314.835C287.843 315.888 285.363 316.576 282.821 316.876C280.782 317.108 278.723 317.108 276.684 316.876C274.723 316.638 272.708 316.465 270.826 316.094C269.315 315.789 267.433 316.174 266.4 315.418C265.074 314.438 263.59 315.418 262.291 314.451C261.244 313.709 259.64 313.841 258.315 313.483C255.346 312.688 252.377 311.88 249.435 310.978C246.365 310.194 243.36 309.17 240.449 307.917C237.48 306.446 234.26 305.359 231.662 303.185C232.987 301.078 235.4 300.058 237.189 298.388C237.308 298.282 237.613 298.388 237.838 298.388C238.637 298.672 239.457 298.893 240.29 299.05C241.258 299.196 242.212 299.501 243.1 299.647C246.051 300.305 249.134 300.037 251.927 298.878C254.675 297.462 256.971 295.304 258.553 292.649C260.687 289.163 260.608 285.532 260.462 281.834C260.425 280.553 259.99 279.316 259.216 278.295C257.676 276.643 256.034 275.089 254.299 273.643ZM263.736 300.031C264.04 300.402 264.279 300.985 264.637 301.078C265.207 301.224 265.962 301.396 265.962 300.23C266.003 299.043 266.236 297.87 266.651 296.757C267.38 294.981 267.367 293.046 268.414 291.297C269.461 289.548 269.951 287.838 270.892 286.181C271.135 285.709 271.309 285.205 271.409 284.683C271.409 284.498 271.33 284.153 271.211 284.114C271.091 284.074 270.455 283.928 270.309 284.114C269.713 284.75 269.262 285.518 268.666 286.155C267.5 287.361 267.407 289.123 266.559 290.409C264.663 293.325 265.048 296.81 263.736 300.031ZM279.878 290.899L279.428 289.574C278.964 289.773 278.288 289.839 278.102 290.197C277.008 291.762 276.046 293.415 275.226 295.14C274.524 296.907 273.987 298.735 273.623 300.601C273.464 301.277 273.238 302.205 274.113 302.761C274.378 302.92 274.736 303.278 274.908 303.212C275.241 303.037 275.496 302.744 275.624 302.39C275.964 301.614 276.192 300.792 276.3 299.952C276.554 297.291 277.514 294.747 279.083 292.583C279.375 291.986 279.627 291.403 279.878 290.899Z" fill="#9BC99B"/>
<path d="M141.645 290.131L142.32 289.441L143.01 288.766L143.699 288.076C144.216 287.97 145.024 288.408 145.024 287.387C145.523 287.275 146.01 287.119 146.482 286.923C146.949 286.657 147.392 286.351 147.807 286.009C148.715 287.373 149.404 288.871 149.848 290.449C150.829 292.901 151.32 295.644 152.711 297.818C154.805 301.078 156.502 304.577 159.179 307.559C161.856 310.541 164.348 313.576 167.9 315.511C168.642 315.922 168.311 316.426 168.417 316.916C164.378 319.942 159.857 322.263 155.044 323.781C151.493 325.143 147.727 325.857 143.924 325.889C140.061 325.667 136.321 324.448 133.07 322.35C132.041 321.386 131.22 320.223 130.657 318.931C129.54 316.744 128.852 314.364 128.63 311.919C128.179 307.943 129.955 304.338 131.85 300.972C132.649 299.655 133.625 298.456 134.753 297.407C135.574 296.625 135.402 295.803 135.442 294.928C135.959 294.822 136.767 295.273 136.767 294.239H137.456C137.681 294.197 137.895 294.11 138.085 293.982C138.275 293.854 138.437 293.69 138.561 293.497C138.685 293.305 138.769 293.089 138.807 292.864C138.845 292.638 138.836 292.407 138.782 292.185C139.299 292.079 140.107 292.516 140.107 291.496L141.645 290.131ZM145.621 299.408C145.13 300.19 144.415 300.813 144.468 301.37C144.696 302.296 145.048 303.188 145.515 304.02C146.84 307.307 149.186 309.852 151.333 312.529C151.77 313.086 152.658 313.298 153.188 313.775C153.718 314.252 154.182 314.57 154.514 313.934C154.621 313.687 154.676 313.421 154.676 313.152C154.676 312.883 154.621 312.617 154.514 312.37C154.203 311.895 153.808 311.482 153.347 311.151C150.72 308.673 148.65 305.664 147.277 302.324C146.986 301.648 146.734 300.999 146.403 300.296C146.31 300.044 146.058 299.872 145.621 299.408Z" fill="#9BC99B"/>
<path d="M168.483 316.929C168.377 316.439 168.708 315.935 167.966 315.524C164.414 313.576 161.909 310.554 159.245 307.572C156.581 304.59 154.871 301.091 152.777 297.831C151.452 295.657 150.895 292.914 149.915 290.462C149.47 288.885 148.781 287.387 147.874 286.022C147.608 285.346 148.51 284.286 147.184 283.968V283.279L149.252 282.59C150.231 282.522 151.208 282.758 152.048 283.265C167.511 291.067 182.973 298.843 198.436 306.592C199.178 306.963 199.761 307.201 200.026 308.01C197.892 309.945 195.109 310.74 192.644 312.092C187.851 314.558 182.932 316.77 177.906 318.719C176.024 319.514 174.208 320.044 172.22 318.44C171.197 317.502 169.87 316.966 168.483 316.929Z" fill="#202620"/>
<path d="M231.636 303.185C234.287 305.359 237.454 306.445 240.423 307.917C243.334 309.17 246.338 310.193 249.409 310.978C252.351 311.879 255.32 312.688 258.289 313.483C259.614 313.841 261.271 313.708 262.265 314.451C263.59 315.378 265.008 314.451 266.373 315.418C267.407 316.173 269.289 315.789 270.8 316.094C272.695 316.465 274.697 316.637 276.658 316.876C278.697 317.108 280.756 317.108 282.794 316.876C285.336 316.576 287.817 315.888 290.15 314.835C291.475 314.238 292.801 313.51 294.126 312.794L294.802 313.483C294.709 315.604 292.947 316.571 291.582 317.525C289.719 318.96 287.601 320.026 285.339 320.666C284.613 320.868 283.866 320.988 283.113 321.024C279.216 321.024 275.333 321.024 271.449 321.024C269.488 321.024 267.659 320.136 265.764 319.884C263.285 319.553 260.926 318.851 258.514 318.294C253.85 317.256 249.287 315.81 244.876 313.973C242.822 313.112 240.728 312.264 238.674 311.575C235.917 310.634 233.544 309.043 230.907 307.956C229.767 307.492 228.72 306.75 228.853 305.239C229.449 304.139 230.125 303.079 231.636 303.185Z" fill="#232B23"/>
<path d="M294.829 313.497L294.153 312.808L296.896 310.064C297.03 310.79 296.894 311.54 296.513 312.173C296.132 312.805 295.533 313.276 294.829 313.497Z" fill="#232B23"/>
<path d="M60.5729 223.492C56.9149 223.492 53.2437 223.307 49.599 223.492C45.7422 223.744 42.018 222.591 38.201 222.763C36.4117 221.438 34.2249 222.299 32.2104 221.504C30.1958 220.709 28.0223 221.173 26.0342 220.616C24.4167 220.083 22.7707 219.641 21.1039 219.291C19.6063 219.039 18.2942 217.767 16.7833 217.369C14.343 216.567 12.0604 215.347 10.0373 213.764C9.28181 213.247 8.91071 212.187 8.30105 211.431C5.94357 208.38 4.36507 204.8 3.70209 201.001C2.95495 198.194 2.66408 195.285 2.84061 192.386C3.0129 191.061 2.84061 189.643 2.84061 188.278C2.76836 186.266 2.91949 184.252 3.29123 182.274C3.76835 180.458 2.80085 178.43 4.20572 176.827C4.35151 170.982 6.61786 165.68 8.46009 160.379C9.97796 155.728 12.137 151.312 14.8748 147.258C15.6771 146.119 16.4032 144.928 17.0484 143.693C19.8051 138.246 23.8607 133.7 27.3066 128.73C28.95 126.357 31.3621 124.515 33.0188 122.103C35.3259 119.193 37.8705 116.48 40.6263 113.992C42.6674 111.911 45 110.135 47.1073 108.12C49.2146 106.106 51.4942 104.781 53.5353 102.978C56.5173 100.327 59.8439 98.22 62.9585 95.7947C64.392 94.8838 65.8742 94.052 67.3984 93.303C67.6061 93.145 67.8598 93.0594 68.1207 93.0594C68.3817 93.0594 68.6354 93.145 68.8431 93.303C73.0072 95.3228 77.6512 96.1442 82.2556 95.6754C83.6331 95.4715 84.973 95.0651 86.2317 94.4693C89.0281 93.409 91.9306 93.6874 94.8199 93.7006C95.085 93.7006 95.4826 94.1247 95.6151 94.4295C95.9465 95.2115 96.132 96.0465 96.4103 96.8417C97.4806 99.7173 98.738 102.52 100.174 105.231C101.507 108.021 103.012 110.726 104.681 113.329C105.158 114.005 105.781 114.933 106.828 113.78C107.159 113.422 107.822 113.369 108.153 113.024C110.804 110.705 113.295 108.332 115.893 106C117.55 104.515 119.246 103.071 120.956 101.639C121.416 101.35 121.953 101.208 122.496 101.234C123.039 101.26 123.561 101.453 123.991 101.785C125.846 102.806 127.768 103.694 129.65 104.661C130.498 105.099 131.32 105.615 132.182 105.987C134.461 107.1 136.754 108.2 139.06 109.26C139.49 109.389 139.937 109.447 140.385 109.433C141.114 109.433 141.83 109.433 141.631 108.425C141.3 106.583 142.387 104.568 140.955 102.859C140.955 102.859 140.955 102.633 140.955 102.527C141.432 99.1345 140.2 95.9007 140.226 92.5078C140.226 91.4475 140.637 91.1824 141.459 90.6125C142.385 89.9586 143.486 89.5966 144.62 89.573C145.753 89.5494 146.868 89.8653 147.821 90.48C152.6 92.8243 157.004 95.8661 160.889 99.5056C165.221 103.935 168.695 109.13 171.134 114.827C171.743 116.152 172.883 117.371 172.459 119.055C169.146 119.055 165.832 119.161 162.519 119.055C161.553 119.042 160.595 119.224 159.701 119.59C158.807 119.956 157.996 120.499 157.317 121.186C156.638 121.872 156.104 122.689 155.748 123.587C155.391 124.484 155.219 125.445 155.243 126.41C155.335 149.153 155.243 171.91 155.243 194.653H140.955V193.963C141.201 194.025 141.457 194.028 141.703 193.975C141.95 193.921 142.182 193.811 142.379 193.653C142.576 193.495 142.735 193.294 142.842 193.065C142.949 192.836 143.002 192.586 142.996 192.333C143.089 191.313 142.996 190.266 142.996 189.245C143.052 189.067 143.152 188.905 143.286 188.776C143.42 188.646 143.585 188.552 143.765 188.503C145.624 188.285 147.505 188.651 149.146 189.55C150.856 190.398 152.075 189.457 153.361 188.688C154.032 187.642 154.407 186.433 154.447 185.19C153.941 183.07 152.932 181.102 151.507 179.453C150.082 177.804 148.281 176.522 146.257 175.713C142.824 174.494 139.378 173.063 135.548 173.341C130.737 173.712 125.873 172.758 121.062 173.99C119.392 174.414 117.603 174.057 115.84 174.653C114.077 175.249 112.394 174.547 110.618 175.329C109.067 176.018 107.225 175.196 105.383 175.965C103.779 176.641 101.752 176.243 99.8695 176.707C97.4756 177.145 95.0522 177.402 92.6198 177.476C92.2925 177.484 91.9674 177.533 91.6523 177.622C89.5841 178.258 87.4495 178.654 85.2907 178.801C83.763 178.864 82.2346 178.694 80.758 178.298C78.544 177.984 76.2895 178.124 74.1312 178.709C71.7721 179.345 69.1214 178.801 66.6032 178.881C65.5694 178.881 65.2779 178.603 65.2779 177.556C65.2779 174.414 66.6032 171.379 65.967 168.278C65.8614 167.713 65.9524 167.129 66.2248 166.622C66.4973 166.116 66.9348 165.718 67.4647 165.495C68.8853 164.616 70.1672 163.53 71.2684 162.274C71.87 161.586 72.5307 160.952 73.2432 160.379C75.6288 158.961 77.4711 156.867 79.6844 155.223C80.0284 154.956 80.2751 154.584 80.3869 154.163C80.4511 153.731 80.362 153.29 80.135 152.917C80.029 152.745 79.4989 152.771 79.1808 152.811C78.8657 152.864 78.5692 152.996 78.3193 153.196C75.8277 155.21 73.283 157.172 70.8841 159.279C68.4852 161.386 66.6165 163.547 64.1513 165.389C61.9964 166.916 60.1258 168.809 58.6246 170.982C57.18 173.261 54.6486 174.573 53.5883 177.105C53.4498 177.242 53.2786 177.343 53.0908 177.396C52.9031 177.449 52.7049 177.454 52.5147 177.41C50.3279 176.084 47.6109 175.939 45.5964 174.149C44.7511 173.675 43.7955 173.433 42.8264 173.447C42.6439 173.476 42.4717 173.551 42.3258 173.665C42.1798 173.778 42.0648 173.927 41.9915 174.096C41.9252 174.573 41.6866 175.13 42.4818 175.501C44.5961 176.709 46.7877 177.776 49.0423 178.695C52.6473 179.782 56.1727 181.213 60.1355 181.028C65.4369 180.789 70.6588 181.028 75.9204 180.962C76.6962 180.982 77.4714 180.902 78.2265 180.723C79.6712 180.352 80.5194 180.723 80.3736 181.942C79.9627 185.574 81.4604 189.046 81.1025 192.651C80.9435 192.93 80.8375 193.367 80.6122 193.446C78.1868 194.308 76.4506 196.203 74.5023 197.701C72.5972 199.41 70.8982 201.336 69.4395 203.44C67.5319 205.894 65.9669 208.596 64.7875 211.471C63.6651 214.335 62.6919 217.254 61.8717 220.219C61.5801 221.345 61.6199 222.67 60.5729 223.492Z" fill="#9BC99B"/>
<path d="M127.212 191.883C124.336 192.002 121.791 190.557 119.008 190.2C118.597 190.2 118.212 189.855 117.802 189.842C116.489 189.863 115.184 189.652 113.945 189.219C112.818 188.728 111.36 189.378 110.128 188.503C109.664 188.172 108.802 188.503 108.113 188.503C104.694 188.503 101.261 188.583 97.8418 188.503C95.6152 188.424 93.5741 189.232 91.4403 189.537C88.8691 189.895 86.5233 191.114 83.9256 191.273C83.3544 190.46 83.1086 189.462 83.2364 188.477C83.3994 187.007 83.3548 185.521 83.1039 184.063C82.9183 183.361 82.2556 182.552 82.693 181.982C83.1304 181.413 84.0184 181.426 84.7208 181.214C85.1554 181.098 85.5986 181.019 86.0461 180.975C88.1331 180.939 90.2092 180.667 92.2355 180.167C93.7994 179.61 95.3766 180.021 96.755 179.517C98.3381 179.035 99.9924 178.829 101.646 178.908C101.99 178.908 102.467 179.053 102.64 178.908C103.581 178.006 104.734 178.364 105.807 178.232C106.881 178.099 108.126 177.688 109.293 177.582C112.169 177.291 115.045 177.105 117.921 176.88C118.146 176.88 118.491 176.973 118.583 176.88C119.71 175.647 121.155 176.442 122.44 176.217C123.685 175.861 124.965 175.643 126.257 175.568C130.618 175.78 134.965 175.183 139.365 176.071C142.182 176.647 144.891 177.657 147.397 179.067C149.273 180.107 150.755 181.738 151.611 183.705C152.778 186.462 152.221 187.35 149.292 187.204C148.84 187.21 148.391 187.133 147.966 186.979C146.351 186.39 144.66 186.033 142.943 185.919C140.784 185.706 138.609 185.706 136.449 185.919C136.118 185.919 135.508 186.33 135.521 186.475C135.6 186.898 135.82 187.281 136.144 187.562C136.51 187.774 136.917 187.906 137.337 187.946C138.745 188.273 139.987 189.097 140.836 190.266C140.958 190.436 141.03 190.637 141.046 190.846C141.061 191.055 141.018 191.264 140.922 191.45C140.826 191.636 140.681 191.793 140.502 191.902C140.323 192.011 140.118 192.068 139.908 192.068L127.212 191.883Z" fill="#F9F9FA"/>
<path d="M127.212 191.883H139.895C140.105 191.883 140.31 191.825 140.489 191.716C140.668 191.607 140.813 191.451 140.909 191.265C141.005 191.078 141.048 190.869 141.032 190.66C141.017 190.451 140.945 190.251 140.823 190.08C139.974 188.911 138.731 188.088 137.324 187.761C136.903 187.72 136.497 187.589 136.131 187.377C135.806 187.095 135.587 186.712 135.508 186.29C135.508 186.144 136.105 185.746 136.436 185.733C138.596 185.521 140.771 185.521 142.93 185.733C144.646 185.847 146.338 186.204 147.953 186.793C148.378 186.948 148.827 187.024 149.279 187.019C152.208 187.165 152.764 186.277 151.598 183.52C150.742 181.552 149.26 179.922 147.383 178.881C144.878 177.472 142.168 176.461 139.352 175.886C134.952 174.998 130.604 175.594 126.244 175.382C124.952 175.457 123.672 175.675 122.427 176.032C121.102 176.257 119.697 175.462 118.57 176.694C118.478 176.814 118.133 176.694 117.908 176.694C115.032 176.92 112.156 177.105 109.28 177.397C108.113 177.503 106.973 177.9 105.794 178.046C104.614 178.192 103.567 177.821 102.626 178.722C102.454 178.894 101.977 178.722 101.632 178.722C99.9792 178.643 98.3249 178.849 96.7418 179.332C95.4164 179.835 93.7863 179.424 92.2223 179.981C90.1961 180.482 88.1199 180.753 86.033 180.79C85.5854 180.833 85.1422 180.913 84.7076 181.028C84.0052 181.24 83.0509 181.306 82.6798 181.797C82.3087 182.287 82.9051 183.122 83.0907 183.878C83.3416 185.335 83.3862 186.821 83.2232 188.291C83.0954 189.277 83.3413 190.274 83.9124 191.088C83.528 192.612 82.3485 192.519 81.1689 192.413C81.5268 188.808 80.0291 185.336 80.44 181.704C80.5858 180.458 79.7376 180.114 78.2929 180.485C77.5378 180.664 76.7626 180.744 75.9868 180.723C70.6854 180.723 65.4503 180.551 60.2019 180.79C56.2258 180.975 52.7137 179.544 49.1087 178.457C46.8672 177.588 44.6845 176.574 42.5747 175.422C41.7795 175.051 42.0181 174.494 42.0844 174.017C42.1577 173.847 42.2727 173.699 42.4187 173.585C42.5646 173.472 42.7368 173.397 42.9193 173.368C43.8884 173.354 44.844 173.596 45.6893 174.07C47.7038 175.859 50.4208 176.005 52.6076 177.33C52.7977 177.375 52.996 177.37 53.1837 177.317C53.3715 177.263 53.5427 177.163 53.6812 177.026C54.768 174.494 57.2729 173.182 58.7175 170.902C60.2187 168.73 62.0893 166.837 64.2442 165.31C66.7094 163.467 68.7106 161.201 70.977 159.2C73.2433 157.198 75.9073 155.078 78.3592 153.116C78.6091 152.917 78.9055 152.785 79.2207 152.732C79.5387 152.732 80.0689 152.732 80.1749 152.838C80.4018 153.211 80.4909 153.652 80.4267 154.084C80.315 154.505 80.0682 154.877 79.7243 155.144C77.511 156.788 75.6687 158.882 73.2831 160.3C72.5706 160.872 71.9098 161.507 71.3083 162.195C70.2071 163.451 68.9252 164.537 67.5046 165.416C66.9747 165.639 66.5372 166.037 66.2647 166.543C65.9923 167.049 65.9013 167.634 66.0069 168.199C66.5768 171.353 65.3045 174.388 65.3177 177.476C65.3177 178.523 65.6093 178.802 66.6431 178.802C69.1613 178.722 71.812 179.265 74.1711 178.629C76.3293 178.045 78.5839 177.905 80.7978 178.218C82.2745 178.615 83.8028 178.785 85.3305 178.722C87.4893 178.574 89.6239 178.179 91.6922 177.542C92.0073 177.453 92.3324 177.404 92.6597 177.397C95.0921 177.323 97.5155 177.066 99.9094 176.628C101.791 176.164 103.885 176.562 105.423 175.886C107.265 175.117 109.107 175.886 110.658 175.25C112.434 174.468 114.263 175.117 115.88 174.574C117.497 174.03 119.432 174.335 121.102 173.911C125.913 172.678 130.777 173.633 135.588 173.262C139.418 172.97 142.864 174.415 146.297 175.634C148.321 176.442 150.121 177.725 151.547 179.374C152.972 181.023 153.981 182.99 154.487 185.11C154.447 186.353 154.072 187.562 153.401 188.609C152.075 189.378 150.896 190.319 149.186 189.471C147.544 188.571 145.664 188.205 143.805 188.424C143.625 188.473 143.46 188.567 143.326 188.696C143.191 188.826 143.092 188.988 143.036 189.166C142.944 190.186 143.036 191.233 143.036 192.254C143.042 192.507 142.989 192.757 142.882 192.986C142.775 193.215 142.616 193.416 142.419 193.574C142.221 193.731 141.99 193.841 141.743 193.895C141.496 193.949 141.24 193.945 140.995 193.884C138.755 193.884 136.529 193.884 134.289 193.884C133.997 193.884 133.719 194.308 133.427 194.533C131.687 193.513 129.78 192.808 127.795 192.453C127.556 192.519 127.397 192.108 127.212 191.883ZM63.1972 174.547H63.4622L62.9719 169.908L59.8043 173.05C58.8368 174.017 57.8163 174.945 56.915 175.979C56.4809 176.564 56.1037 177.19 55.7885 177.847C56.5704 178.179 57.3524 178.523 58.1343 178.815C58.3572 178.862 58.5874 178.862 58.8103 178.815L63.1707 178.59L63.1972 174.547Z" fill="#232B23"/>
<path d="M239.879 297.009C239.817 296.528 239.866 296.039 240.023 295.579C240.179 295.12 240.438 294.702 240.781 294.358C242.662 292.633 244.392 290.748 245.949 288.726C247.54 286.552 248.733 284.18 250.191 281.966C251.516 279.978 252.073 277.593 253.61 275.764C254.776 276.811 255.956 277.858 257.109 278.918C257.347 279.143 257.665 279.395 257.719 279.687C258.381 283.04 259.044 286.473 257.719 289.733C255.479 294.955 251.821 297.579 246.48 297.685C244.267 297.599 242.063 297.373 239.879 297.009Z" fill="#F6F7F8"/>
<path d="M149.199 282.576L147.131 283.266C142.572 280.747 137.947 278.322 133.454 275.685C127.437 272.146 121.592 268.342 115.747 264.538C114.897 263.951 114.164 263.209 113.587 262.352C113.475 262.107 113.426 261.838 113.445 261.569C113.463 261.301 113.548 261.041 113.693 260.814C113.916 260.667 114.173 260.578 114.439 260.558C114.706 260.537 114.974 260.584 115.217 260.695C116.701 262.206 118.689 263.028 120.213 264.366C122.626 266.473 125.515 267.786 128.073 269.535C132.407 272.477 137.019 274.942 141.618 277.487C143.973 278.961 146.416 280.288 148.934 281.463C149.146 281.437 149.119 282.152 149.199 282.576Z" fill="#E2E7F2"/>
<path d="M140.955 194.626H155.375V203.559C153.321 203.294 151.73 201.968 149.901 201.16C145.84 199.201 141.672 197.471 137.417 195.978C136.704 195.629 136.044 195.183 135.455 194.652L140.955 194.626Z" fill="#202620"/>
<path d="M239.879 297.009C242.073 297.361 244.286 297.573 246.506 297.645C251.808 297.526 255.505 294.902 257.745 289.693C259.15 286.433 258.434 283 257.745 279.647C257.745 279.355 257.374 279.103 257.136 278.878C255.982 277.818 254.803 276.771 253.637 275.724C253.902 275.048 253 273.974 254.326 273.656C256.047 275.099 257.676 276.649 259.203 278.295C259.977 279.316 260.412 280.553 260.449 281.834C260.595 285.531 260.674 289.163 258.54 292.649C256.958 295.304 254.662 297.462 251.914 298.878C249.121 300.037 246.038 300.305 243.087 299.646C242.199 299.501 241.245 299.196 240.277 299.05C239.444 298.893 238.624 298.671 237.825 298.387C237.944 297.009 237.944 297.009 239.879 297.009Z" fill="#232B23"/>
<path d="M204.148 229.668C206.361 227.985 207.726 225.533 209.622 223.558C210.443 222.71 210.947 221.57 211.729 220.682C213.363 218.544 214.838 216.29 216.142 213.936C216.461 213.433 216.977 212.717 217.759 213.419C218.316 213.91 218.992 214.307 218.21 215.328C216.726 217.289 215.493 219.463 214.048 221.464C212.604 223.465 210.868 225.639 209.211 227.68C208.27 228.846 207.223 229.933 206.216 231.046C205.893 231.027 205.57 231.027 205.248 231.046C204.029 231.259 204.135 230.437 204.148 229.668Z" fill="#E4E4E5"/>
<path d="M147.132 283.955C148.457 284.273 147.556 285.28 147.821 286.009C147.406 286.351 146.962 286.657 146.495 286.924C146.024 287.12 145.536 287.275 145.038 287.388C144.976 287.069 145.005 286.739 145.119 286.435C145.234 286.131 145.43 285.864 145.687 285.665C146.215 285.136 146.698 284.564 147.132 283.955Z" fill="#2E3A2E"/>
<path d="M140.955 194.627H133.388C133.679 194.402 133.958 193.978 134.249 193.978C136.489 193.978 138.716 193.978 140.955 193.978V194.627Z" fill="#9BC99B"/>
<path d="M138.888 292.197C138.942 292.42 138.951 292.651 138.913 292.876C138.875 293.102 138.791 293.318 138.667 293.51C138.543 293.702 138.381 293.867 138.191 293.995C138.001 294.122 137.787 294.21 137.562 294.252V293.563C137.311 292.449 137.761 291.985 138.888 292.197Z" fill="#2E3A2E"/>
<path d="M141.644 290.131L140.319 291.457C140.054 290.383 140.518 289.919 141.644 290.131Z" fill="#2E3A2E"/>
<path d="M145.077 287.387C145.077 288.407 144.216 287.97 143.752 288.076C143.752 287.042 144.547 287.493 145.077 287.387Z" fill="#2E3A2E"/>
<path d="M140.266 291.508C140.266 292.529 139.405 292.091 138.941 292.198C138.954 291.164 139.749 291.588 140.266 291.508Z" fill="#2E3A2E"/>
<path d="M136.834 294.239C136.767 295.273 135.972 294.822 135.508 294.928C135.508 293.921 136.304 294.359 136.834 294.239Z" fill="#2E3A2E"/>
<path d="M137.523 293.563V294.239H136.833L137.523 293.563Z" fill="#2E3A2E"/>
<path d="M216.261 174.653C213.213 175.461 210.417 173.871 208.203 171.843C206.477 170.527 205.259 168.654 204.757 166.542C204.302 164.575 204.302 162.531 204.757 160.564C205.156 158.793 205.766 157.075 206.573 155.449C207.514 152.798 209.966 151.857 212.113 150.704C212.695 150.513 213.316 150.477 213.916 150.6C214.516 150.723 215.073 151.001 215.532 151.406C216.525 151.979 217.328 152.832 217.839 153.858C218.382 155.475 219.734 155.899 220.874 156.641C221.663 157.178 222.53 157.589 223.445 157.861C224.57 158.196 225.59 158.816 226.405 159.661C227.22 160.507 227.803 161.548 228.097 162.685C228.364 163.919 228.362 165.196 228.09 166.429C227.817 167.662 227.282 168.822 226.52 169.829C225.434 171.513 223.896 172.859 222.082 173.712C220.268 174.565 218.252 174.891 216.261 174.653ZM216.473 172.638C217.867 172.678 219.254 172.434 220.55 171.921C221.846 171.408 223.025 170.638 224.015 169.656C225.261 168.331 225.247 166.727 225.751 165.216C225.923 164.686 226.427 164.262 225.844 163.798C224.995 163.109 225.963 161.718 224.651 161.148C223.575 160.467 222.46 159.852 221.311 159.305C219.762 158.815 218.383 157.896 217.335 156.655C216.557 155.824 215.749 155.016 214.91 154.229C214.345 153.702 213.601 153.409 212.829 153.409C212.056 153.409 211.313 153.702 210.748 154.229C208.959 156.257 206.865 158.205 206.957 161.227C205.182 163.242 207.329 165.124 207.143 167.098C209.356 170.2 212.007 172.811 216.473 172.638Z" fill="#232B23"/>
<path d="M138.888 53.0916C138.888 55.0399 138.782 56.9881 138.888 58.9231C138.904 62.1063 138.384 65.2694 137.35 68.2801C136.364 71.0895 134.975 73.7411 133.229 76.1527C132.619 77.1069 131.333 77.6238 130.419 78.3925C129.504 79.1612 129.014 80.2613 127.596 79.8902C124.962 81.4757 121.901 82.2029 118.835 81.971C118.066 81.8885 117.29 82.041 116.609 82.4083C116.163 82.6332 115.67 82.7504 115.171 82.7504C114.671 82.7504 114.179 82.6332 113.733 82.4083C112.838 81.9384 111.813 81.7754 110.817 81.9445C107.046 81.8326 103.378 80.6864 100.214 78.6311C97.3854 77.1005 94.8886 75.0238 92.8684 72.5212C90.8482 70.0187 89.3447 67.1401 88.445 64.0522C87.6848 62.1114 87.3154 60.0396 87.3582 57.9556C87.451 56.4182 87.0401 56.1399 85.4895 55.8218C84.3364 55.5833 83.1966 55.2784 82.0701 54.9603C80.2809 54.4567 79.8567 52.8928 79.088 51.4614C78.256 49.6265 78.1378 47.5473 78.7567 45.6299C78.9621 44.9058 79.3688 44.2549 79.9295 43.7528C80.4903 43.2507 81.182 42.9181 81.9243 42.7936C83.2496 42.6611 84.6943 42.5286 85.5425 43.9997C85.6771 44.1852 85.8378 44.3504 86.0196 44.4901C86.5763 45.0467 87.0401 45.7359 88.0076 45.5239C89.2535 45.2588 89.2137 44.0527 89.333 43.2708C90.6583 37.8766 92.5271 34.1258 96.3308 30.7197C98.9214 28.3746 102.274 27.0469 105.767 26.9822C107.358 26.9822 108.961 26.9822 110.565 26.9822C116.529 26.8099 121.923 25.1797 126.178 20.7398C126.867 20.0241 127.318 19.9446 128.113 20.6603C131.32 23.4952 133.624 27.2097 134.739 31.3426C135.203 33.0921 136.33 34.6692 136.144 36.644C134.99 36.3645 133.822 36.1433 132.645 35.9813C131.4 35.862 130.127 35.9813 128.881 35.9813C128.338 35.9517 127.794 36.0314 127.282 36.2158C126.769 36.4002 126.299 36.6855 125.899 37.0549C124.434 38.4542 123.04 39.9273 121.725 41.4683C121.526 41.6803 121.42 42.1177 121.208 42.1707C119.392 42.6213 117.51 43.2973 115.681 42.8069C114.713 42.5418 113.945 41.4815 113.03 40.7791C112.858 40.6333 112.712 40.461 112.54 40.302C110.992 38.6659 108.921 37.6221 106.684 37.351C104.448 37.08 102.188 37.5987 100.294 38.8176C94.3163 42.396 93.0705 49.4204 96.5827 55.2122C97.6725 56.7721 99.1596 58.0122 100.89 58.8039C102.325 59.5862 103.934 59.9963 105.569 59.9967C107.725 59.9717 109.811 59.2251 111.493 57.8761C114.342 55.7821 116.463 53.1976 116.198 49.3276C116.118 48.1878 116.198 47.0348 116.198 45.8949C116.198 45.2323 116.277 44.7817 117.086 44.8347C117.655 44.8873 118.227 44.8873 118.796 44.8347C119.882 44.7154 120.121 45.06 120.479 46.16C120.837 47.2601 120.611 48.8107 121.128 49.9903C122.613 53.3169 126.337 57.0544 129.955 56.4845C130.639 56.438 131.325 56.438 132.009 56.4845C132.155 56.9361 132.328 57.3786 132.526 57.8099C132.526 57.8099 132.924 57.8098 133.136 57.7303C133.056 57.4918 133.003 57.2532 132.924 57.0146C132.844 56.7761 132.765 56.6435 132.698 56.4447C133.115 56.4151 133.528 56.344 133.931 56.2327C135.722 55.4227 137.391 54.3654 138.888 53.0916ZM120.479 72.9719L120.571 73.2634C121.598 72.9941 122.607 72.6621 123.593 72.2694C125.25 71.4875 125.343 70.1356 124.176 68.8633C123.01 67.5909 121.619 68.2934 120.359 68.2138C120.001 68.1977 119.644 68.2544 119.308 68.3803C118.973 68.5063 118.666 68.699 118.408 68.9468C118.149 69.1945 117.943 69.4922 117.802 69.8218C117.661 70.1515 117.589 70.5062 117.589 70.8645C117.589 72.5345 118.067 72.9586 120.147 72.9984C120.257 73.0094 120.368 73.0138 120.479 73.0116V72.9719ZM123.779 61.11C123.779 60.6594 123.964 59.9304 123.779 59.7846C122.082 58.6448 122.745 56.5375 121.751 55.1326C121.632 54.9736 121.645 54.682 121.512 54.5627C121.329 54.4426 121.105 54.3997 120.89 54.4435C120.704 54.4435 120.373 54.7085 120.399 54.7748C120.929 56.5905 119.074 58.9894 121.725 60.3678C121.817 60.3678 122.347 61.8919 120.876 62.0377C120.002 62.1305 120.479 63.1378 120.452 63.7342C120.452 63.8402 120.81 64.039 120.982 64.0257C121.726 63.989 122.428 63.6719 122.947 63.1382C123.466 62.6045 123.763 61.894 123.779 61.1497V61.11ZM82.8123 46.2263C81.7785 46.2263 81.1821 47.0082 81.1821 48.2806C81.1821 49.5529 81.7785 50.2951 82.8123 50.3481C83.846 50.4011 84.681 49.5794 84.6147 48.1083C84.5617 46.8625 83.8991 46.1733 82.8123 46.2263ZM132.195 64.039C132.403 63.7363 132.568 63.4062 132.685 63.0582C132.924 62.0775 132.288 62.0112 131.519 62.0112C130.75 62.0112 130.671 62.3956 130.618 63.045C130.538 64.0522 131.068 64.1715 132.195 64.039ZM103.687 66.7957C104.773 66.9017 105.436 66.7957 105.211 65.8282C105.131 65.4571 104.985 64.927 104.72 64.8077C104.19 64.5956 103.17 65.4969 103.196 66.133C103.209 66.4379 103.607 66.7162 103.687 66.7957ZM108.484 66.7957C109.584 66.9017 110.247 66.7957 110.022 65.8282C109.942 65.4571 109.796 64.927 109.531 64.8077C109.001 64.5956 107.981 65.4969 108.007 66.133C108.02 66.4379 108.418 66.7162 108.484 66.7957ZM134.991 61.6534C135.495 61.269 135.985 61.0835 136.052 60.7919C136.237 60.0232 135.667 59.8509 135.044 59.9834C134.683 60.11 134.34 60.2838 134.024 60.5003L134.991 61.6534ZM129.08 58.6183C128.828 58.7774 128.55 58.8701 128.55 58.9497C128.594 59.2557 128.665 59.5572 128.762 59.8509C128.921 59.7714 129.186 59.6918 129.2 59.5991C129.206 59.2708 129.184 58.9427 129.133 58.6183H129.08Z" fill="#FBFBF9"/>
<path d="M119.988 99.5452C119.498 100.155 119.233 100.871 118.822 100.937C117.179 101.44 116.397 102.885 115.23 103.906C113.044 105.814 110.896 107.802 108.71 109.711C108.23 110.141 107.666 110.466 107.053 110.665C106.258 110.877 105.582 111.195 105.105 109.777C104.455 107.908 102.944 106.344 102.07 104.476C100.519 101.228 99.4189 97.8488 97.7225 94.6017C97.5646 94.2983 97.5205 93.9484 97.5983 93.6153C97.6761 93.2822 97.8706 92.988 98.1466 92.786C100.505 91.2654 102.298 89.0114 103.249 86.3713C103.415 86.2776 103.599 86.2209 103.789 86.2049C103.979 86.1889 104.17 86.214 104.349 86.2785C105.049 86.8701 105.709 87.5077 106.324 88.187C110.005 91.8302 114.086 95.0448 118.491 97.7693C119.074 98.2848 119.579 98.8831 119.988 99.5452Z" fill="#F8F8F8"/>
<path d="M132.023 56.5247C131.339 56.4782 130.652 56.4782 129.968 56.5247C126.35 57.0946 122.626 53.3571 121.141 50.0305C120.625 48.8775 120.929 47.5123 120.492 46.2002C120.055 44.8881 119.896 44.7026 118.809 44.8749C118.24 44.9275 117.668 44.9275 117.099 44.8749C116.291 44.8749 116.185 45.2725 116.211 45.9352C116.211 47.075 116.211 48.228 116.211 49.3678C116.476 53.2379 114.356 55.8223 111.506 57.9163C109.806 59.2794 107.695 60.0268 105.516 60.0369C103.881 60.0365 102.272 59.6264 100.837 58.8441C99.1293 58.013 97.6744 56.741 96.6225 55.1596C93.1103 49.4076 94.3562 42.3435 100.333 38.765C102.228 37.5462 104.488 37.0274 106.724 37.2985C108.96 37.5695 111.032 38.6133 112.58 40.2494C112.752 40.4085 112.898 40.5808 113.07 40.7265C113.918 41.429 114.687 42.4893 115.721 42.7543C117.55 43.2447 119.432 42.5688 121.248 42.1182C121.46 42.1182 121.566 41.6278 121.764 41.4157C123.08 39.8747 124.474 38.4017 125.939 37.0023C126.339 36.633 126.809 36.3477 127.321 36.1633C127.834 35.9789 128.378 35.8991 128.921 35.9288C130.167 36.0216 131.439 35.8625 132.685 35.9288C133.862 36.0907 135.03 36.3119 136.184 36.5915C137.011 37.6258 137.896 38.6126 138.835 39.547C139.529 40.2254 140.078 41.0384 140.447 41.9364C140.817 42.8343 140.998 43.7981 140.982 44.7689C140.982 45.6701 140.982 46.5846 140.982 47.4196C141.09 48.1197 141.026 48.8356 140.795 49.5052C140.564 50.1749 140.173 50.7783 139.657 51.2631C139.385 51.4572 139.174 51.7251 139.05 52.0351C138.925 52.3451 138.892 52.6843 138.954 53.0125C137.466 54.3133 135.802 55.3975 134.011 56.2331C133.608 56.3445 133.195 56.4155 132.778 56.4452L132.023 56.5247ZM132.712 53.7812C133.438 53.7976 134.16 53.6664 134.834 53.3956C135.508 53.1249 136.12 52.7201 136.633 52.2059C137.146 51.6917 137.549 51.0787 137.818 50.404C138.087 49.7294 138.217 49.0072 138.199 48.281C139.922 47.5919 139.829 46.3593 139.312 44.9014C139.115 44.2069 138.973 43.4978 138.888 42.7808L137.563 41.4555C135.959 38.5795 133.441 37.7843 130.286 37.9831C128.373 38.09 126.571 38.9178 125.243 40.2997C123.915 41.6817 123.16 43.5153 123.13 45.4315C123.13 46.1075 123.13 46.7569 123.13 47.4858C123.227 49.2902 123.977 50.9976 125.24 52.29C126.503 53.5823 128.193 54.3713 129.995 54.5102H131.32C131.85 54.3511 132.699 54.8018 132.699 53.7812H132.712ZM97.0069 48.5726C96.7806 50.3803 97.2548 52.2061 98.3322 53.6752C99.0192 54.9139 100.018 55.9518 101.229 56.6863C102.44 57.4208 103.821 57.8265 105.237 57.8633C106.743 57.818 108.216 57.4144 109.534 56.686C110.853 55.9577 111.978 54.9256 112.818 53.6752C114.886 50.4546 114.276 47.3665 113.083 44.0532C112.023 41.1109 107.053 38.8445 104.654 39.4012C99.9756 40.488 96.1586 43.7483 97.0069 48.5726Z" fill="#5E7D61"/>
<path d="M121.353 97.2128C121.013 97.0942 120.684 96.9433 120.373 96.7622C117.55 94.5356 114.528 92.5874 111.718 90.3343C109.346 88.4258 107.265 86.2655 105.091 84.1979C104.919 84.0389 104.879 83.7208 104.773 83.4822C104.985 83.4822 105.224 83.2967 105.396 83.3629C109.001 84.6883 112.739 83.8401 116.397 84.0256C118.225 84.1184 120.054 84.0256 121.87 84.0256C123.196 84.0256 124.15 84.1184 124.521 85.7486C124.996 86.8545 125.722 87.8346 126.641 88.6113C127.291 89.3005 127.49 90.1487 126.973 90.6921C125.29 92.4548 124.852 95.1055 122.665 96.4441C122.255 96.7622 121.791 96.9478 121.353 97.2128Z" fill="#F5F5F5"/>
<path d="M139.033 101.481C139.232 102.806 138.185 104.463 139.55 105.695C139.656 105.801 139.458 106.318 139.299 106.583C139.213 106.648 139.112 106.69 139.005 106.706C138.899 106.723 138.79 106.712 138.689 106.676C133.931 104.357 128.961 102.448 124.534 99.5058C124.269 99.3335 123.938 98.7238 124.044 98.578C125.515 96.3249 127.026 94.0851 128.616 91.9513C129.199 91.1561 129.703 90.7319 131.055 91.4609C132.407 92.1898 134.66 92.0971 136.515 92.2826C136.959 92.2826 137.386 92.4581 137.701 92.7709C138.016 93.0837 138.195 93.5084 138.198 93.9525C138.49 96.4309 138.755 98.9624 139.033 101.481Z" fill="#F8F8F8"/>
<path d="M263.736 300.031C265.061 296.81 264.664 293.325 266.612 290.382C267.46 289.057 267.553 287.334 268.719 286.128C269.316 285.492 269.766 284.723 270.363 284.087C270.508 283.928 270.972 284.021 271.264 284.087C271.555 284.153 271.502 284.471 271.463 284.657C271.362 285.178 271.188 285.682 270.946 286.154C270.005 287.811 269.422 289.68 268.467 291.27C267.513 292.861 267.434 294.955 266.705 296.731C266.289 297.843 266.056 299.016 266.015 300.203C266.015 301.369 265.207 301.197 264.69 301.051C264.279 300.985 264.041 300.402 263.736 300.031Z" fill="#232B23"/>
<path d="M279.879 290.899C279.627 291.403 279.375 291.986 279.044 292.516C277.475 294.68 276.514 297.225 276.26 299.885C276.152 300.726 275.925 301.547 275.585 302.324C275.457 302.677 275.201 302.97 274.869 303.146C274.697 303.212 274.339 302.854 274.074 302.695C273.199 302.138 273.424 301.211 273.583 300.535C273.948 298.669 274.485 296.841 275.187 295.074C276.006 293.349 276.968 291.696 278.063 290.131C278.288 289.773 278.964 289.707 279.388 289.508L279.879 290.899Z" fill="#232B23"/>
<path d="M145.621 299.409C146.058 299.873 146.31 300.045 146.429 300.297C146.76 300.96 147.012 301.623 147.304 302.325C148.67 305.647 150.725 308.642 153.334 311.112C153.795 311.443 154.19 311.857 154.5 312.331C154.608 312.578 154.663 312.844 154.663 313.113C154.663 313.382 154.608 313.649 154.5 313.895C154.116 314.531 153.599 314.134 153.175 313.736C152.751 313.339 151.757 313.047 151.32 312.49C149.172 309.84 146.787 307.269 145.501 303.982C145.035 303.149 144.682 302.258 144.454 301.331C144.414 300.867 145.13 300.191 145.621 299.409Z" fill="#232B23"/>
<path d="M216.473 172.639C212.007 172.811 209.356 170.2 207.09 166.993C207.276 165.018 205.128 163.136 206.904 161.121C206.812 158.06 208.906 156.151 210.695 154.123C211.259 153.596 212.003 153.303 212.776 153.303C213.548 153.303 214.292 153.596 214.857 154.123C215.687 154.91 216.496 155.718 217.282 156.549C218.33 157.79 219.709 158.709 221.258 159.199C222.407 159.746 223.522 160.362 224.598 161.042C225.923 161.598 224.942 162.99 225.791 163.692C226.374 164.156 225.87 164.58 225.698 165.111C225.194 166.621 225.208 168.278 223.962 169.55C222.987 170.545 221.821 171.331 220.534 171.862C219.247 172.392 217.866 172.657 216.473 172.639Z" fill="#F8F8F8"/>
<path d="M120.479 73.0123C120.368 73.0189 120.258 73.0189 120.147 73.0123C118.066 73.0123 117.497 72.5484 117.589 70.8785C117.589 70.5201 117.661 70.1654 117.802 69.8358C117.942 69.5062 118.148 69.2085 118.407 68.9607C118.666 68.7129 118.973 68.5202 119.308 68.3943C119.644 68.2683 120.001 68.2117 120.359 68.2278C121.685 68.3073 123.01 67.6049 124.176 68.8772C125.343 70.1495 125.25 71.5279 123.593 72.2834C122.607 72.6761 121.598 73.008 120.571 73.2774L120.479 73.0123Z" fill="#232B23"/>
<path d="M123.779 61.15C123.772 61.91 123.472 62.6379 122.941 63.1814C122.41 63.7249 121.689 64.0419 120.929 64.0658C120.757 64.0658 120.399 63.8802 120.399 63.7742C120.399 63.1778 119.948 62.1705 120.823 62.0778C122.294 61.932 121.764 60.4476 121.671 60.4078C119.021 59.0825 120.903 56.6306 120.346 54.8148C120.346 54.7486 120.651 54.5233 120.836 54.4835C121.052 54.4398 121.276 54.4826 121.459 54.6028C121.592 54.7221 121.579 55.0136 121.698 55.1727C122.692 56.5776 122.029 58.6849 123.726 59.8247C123.964 59.9705 123.779 60.6994 123.779 61.15Z" fill="#232B23"/>
<path d="M82.8121 46.2266C83.8989 46.2266 84.5615 46.8627 84.6145 48.1086C84.6808 49.5797 84.0314 50.4014 82.8121 50.3484C81.5927 50.2954 81.1819 49.5532 81.1819 48.2809C81.1819 47.0085 81.7783 46.2663 82.8121 46.2266Z" fill="#393939"/>
<path d="M132.195 64.0393C131.068 64.1719 130.538 64.0393 130.617 63.0453C130.617 62.3959 130.737 61.9983 131.519 62.0116C132.301 62.0248 132.924 62.0116 132.685 63.0586C132.568 63.4066 132.403 63.7366 132.195 64.0393Z" fill="#9BC99B"/>
<path d="M103.686 66.7962C103.607 66.7167 103.209 66.4384 103.196 66.1468C103.196 65.4974 104.19 64.5961 104.72 64.8215C104.985 64.9407 105.131 65.4709 105.211 65.842C105.436 66.8492 104.773 66.9022 103.686 66.7962Z" fill="#9BC99B"/>
<path d="M108.484 66.7962C108.484 66.7167 108.021 66.4384 108.007 66.1468C108.007 65.4974 109.001 64.5961 109.531 64.8215C109.797 64.9407 109.942 65.4709 110.022 65.842C110.247 66.8492 109.584 66.9022 108.484 66.7962Z" fill="#9BC99B"/>
<path d="M135.044 61.6535L134.077 60.5005C134.393 60.284 134.736 60.1102 135.097 59.9836C135.72 59.8511 136.29 59.9836 136.104 60.7921C136.038 61.0836 135.548 61.2692 135.044 61.6535Z" fill="#9BC99B"/>
<path d="M132.022 56.5249H132.698C132.698 56.7237 132.857 56.9093 132.924 57.0948C132.99 57.2804 133.056 57.5719 133.136 57.8105C132.924 57.8105 132.553 57.943 132.526 57.89C132.331 57.4455 132.163 56.9897 132.022 56.5249Z" fill="#9BC99B"/>
<path d="M129.133 58.6191C129.202 58.9419 129.242 59.2701 129.252 59.5999C129.252 59.6927 128.974 59.7722 128.815 59.8517C128.718 59.5581 128.647 59.2565 128.603 58.9505C128.603 58.871 128.881 58.7782 129.133 58.6191Z" fill="#9BC99B"/>
<path d="M102.321 44.6496C96.1585 43.7086 99.9755 40.488 104.654 39.3482C107.053 38.7915 112.023 41.0579 113.083 44.0002C114.276 47.3135 114.886 50.4016 112.818 53.6222C111.978 54.8725 110.853 55.9047 109.534 56.633C108.216 57.3614 106.743 57.7649 105.237 57.8103C103.821 57.7735 102.439 57.3678 101.228 56.6333C100.017 55.8987 99.0191 54.8608 98.3321 53.6222C97.3513 51.9655 96.6357 50.3221 102.308 44.5966C107.61 40.6205 107.61 40.5145 107.61 40.435C106.119 40.6384 104.673 41.0862 103.329 41.7603C101.558 42.9497 100.128 44.5806 99.1803 46.4918C99.0339 46.9215 99.0339 47.3875 99.1803 47.8172C99.2539 47.9447 99.3604 48.0501 99.4886 48.1223C99.6168 48.1946 99.7621 48.2311 99.9093 48.228C100.313 48.0567 100.672 47.7935 100.956 47.4593C102.746 45.6038 104.482 43.8676 107.477 44.0664C109.001 44.1725 109.478 43.1122 109.465 41.4157C109.465 40.8193 109.346 40.6205 108.749 40.7133C108.325 40.7663 107.981 40.7265 102.321 44.6496ZM110.035 52.6017C110.035 50.8655 109.505 50.3088 107.967 50.3221C107.314 50.3505 106.689 50.597 106.191 51.0222C105.694 51.4473 105.354 52.0267 105.224 52.6679C105.298 53.3881 105.652 54.0503 106.21 54.5115C106.768 54.9728 107.485 55.196 108.206 55.1331C109.69 55.0668 110.061 54.5367 110.035 52.6282V52.6017Z" fill="#FAF9F5"/>
<path d="M138.199 48.2809C138.217 49.0081 138.087 49.7315 137.817 50.4071C137.547 51.0826 137.142 51.6962 136.628 52.2106C136.114 52.725 135.5 53.1295 134.824 53.3995C134.149 53.6694 133.426 53.7993 132.698 53.7811C132.743 52.8981 132.743 52.0134 132.698 51.1304C132.592 50.0701 131.89 49.6593 130.538 49.699C129.186 49.7388 128.881 50.3219 128.563 51.369C128.086 52.9461 129.703 53.3835 129.968 54.51C128.166 54.3712 126.477 53.5821 125.214 52.2898C123.951 50.9975 123.2 49.2901 123.103 47.4857C123.103 46.7965 123.103 46.1603 123.103 45.4314C123.133 43.5151 123.888 41.6815 125.216 40.2996C126.544 38.9176 128.346 38.0899 130.26 37.9829C133.414 37.7841 135.932 38.5793 137.536 41.4553C137.271 42.1313 138.172 43.1915 136.847 43.5096C136.303 41.9457 134.766 41.7337 133.52 41.2698C132.013 40.7274 130.454 40.341 128.868 40.1167C128.646 40.0984 128.424 40.1288 128.215 40.2058C128.006 40.2828 127.817 40.4044 127.66 40.5623C127.504 40.7202 127.384 40.9104 127.308 41.1196C127.233 41.3288 127.205 41.552 127.225 41.7734C127.212 41.993 127.244 42.2128 127.319 42.4196C127.393 42.6265 127.509 42.8161 127.659 42.977C127.809 43.138 127.99 43.267 128.19 43.3562C128.391 43.4455 128.608 43.4932 128.828 43.4964C129.623 43.4498 130.419 43.4498 131.214 43.4964C132.476 43.6747 133.699 44.0645 134.832 44.6494C136.025 45.3916 136.767 46.77 138.199 47.3001C138.305 47.3399 138.199 47.9363 138.199 48.2809Z" fill="#F7F6F1"/>
<path d="M138.198 48.2807C138.198 47.9361 138.304 47.3397 138.198 47.2999C136.767 46.7698 136.025 45.3914 134.832 44.6492C133.699 44.0643 132.476 43.6745 131.214 43.4962C130.419 43.4495 129.623 43.4495 128.828 43.4962C128.608 43.4929 128.391 43.4453 128.19 43.356C127.989 43.2668 127.809 43.1378 127.659 42.9768C127.509 42.8158 127.393 42.6262 127.319 42.4194C127.244 42.2125 127.212 41.9927 127.224 41.7732C127.204 41.5517 127.233 41.3286 127.308 41.1194C127.384 40.9101 127.504 40.7199 127.66 40.5621C127.817 40.4042 128.006 40.2825 128.215 40.2056C128.423 40.1286 128.646 40.0982 128.868 40.1165C130.454 40.3408 132.013 40.7271 133.52 41.2696C134.766 41.7334 136.303 41.9455 136.847 43.5094L137.96 44.8348C138.012 44.3331 138.105 43.8367 138.238 43.3504C138.318 43.1383 138.676 43.019 138.901 42.86C138.986 43.5769 139.128 44.286 139.325 44.9805C139.829 46.3987 139.921 47.5915 138.198 48.2807Z" fill="#232B23"/>
<path d="M129.955 54.4704C129.69 53.3438 128.073 52.9065 128.55 51.3293C128.868 50.2823 129.305 49.6991 130.525 49.6594C131.744 49.6196 132.579 50.0305 132.685 51.0907C132.73 51.9737 132.73 52.8584 132.685 53.7414C132.155 53.8475 131.36 53.3968 131.36 54.4306L129.955 54.4704Z" fill="#232B23"/>
<path d="M138.888 42.7808C138.662 42.9399 138.305 43.0592 138.225 43.2712C138.092 43.7575 137.999 44.254 137.947 44.7556L136.833 43.4303C138.159 43.1122 137.258 42.1049 137.523 41.376L138.888 42.7808Z" fill="#232B23"/>
<path d="M131.373 54.47C131.373 53.4362 132.221 53.8868 132.698 53.7808C132.698 54.8013 131.85 54.3507 131.373 54.47Z" fill="#F7F6F1"/>
<path d="M107.636 40.7261C107.976 40.7527 108.317 40.7527 108.656 40.7261C109.253 40.6333 109.359 40.8321 109.372 41.4285C109.372 43.1382 108.908 44.1985 107.384 44.0792C104.389 43.8804 102.653 45.6166 100.863 47.4721C100.579 47.8062 100.22 48.0694 99.8163 48.2408C99.6691 48.2439 99.5239 48.2074 99.3956 48.1351C99.2674 48.0628 99.1609 47.9575 99.0874 47.83C98.9409 47.4003 98.9409 46.9343 99.0874 46.5046C100.035 44.5934 101.465 42.9625 103.236 41.7731C104.58 41.099 106.026 40.6512 107.517 40.4478L107.636 40.7261Z" fill="#232B23"/>
<path d="M110.035 52.6281C110.035 54.5366 109.69 55.0667 108.206 55.1595C107.485 55.2225 106.768 54.9992 106.21 54.538C105.652 54.0767 105.298 53.4145 105.224 52.6944C105.359 52.058 105.702 51.4846 106.198 51.0647C106.695 50.6447 107.317 50.4021 107.967 50.375C109.505 50.375 110.008 50.8919 110.035 52.6281Z" fill="#232B23"/>
<path d="M228.739 20.946C230.501 22.6479 231.882 24.7232 232.787 27.0282C233.691 29.3332 234.099 31.8129 233.98 34.2957C233.98 40.171 232.233 44.573 228.547 47.5556C224.363 50.7118 219.246 52.28 214.065 51.9936L213.786 58.8032H205.33L204.911 45.1121H207.706C212.017 45.3492 216.324 44.5751 220.302 42.8482C223.225 41.3389 224.68 38.4641 224.669 34.2238C224.734 32.9082 224.538 31.5927 224.094 30.3573C223.649 29.1218 222.965 27.9922 222.083 27.0369C221.118 26.1342 219.988 25.4388 218.758 24.9914C217.528 24.5441 216.223 24.3537 214.921 24.4316C212.289 24.271 209.701 25.1736 207.706 26.9471C206.809 27.8667 206.112 28.9716 205.66 30.1887C205.208 31.4059 205.013 32.7076 205.086 34.0082H196.002C195.954 30.7344 196.763 27.5076 198.343 24.6652C199.879 21.924 202.162 19.7063 204.911 18.2868C208.008 16.7279 211.422 15.9518 214.869 16.0229C219.935 15.7755 224.9 17.5378 228.739 20.946ZM205.051 76.3213C204.177 75.4292 203.581 74.2895 203.338 73.0476C203.096 71.8057 203.219 70.5177 203.691 69.3478C204.164 68.178 204.964 67.1792 205.99 66.4788C207.016 65.7784 208.222 65.4082 209.453 65.4152C210.256 65.3958 211.055 65.5452 211.799 65.8542C212.544 66.1631 213.22 66.6251 213.786 67.2119C214.901 68.4261 215.523 70.0332 215.523 71.7037C215.523 73.3742 214.901 74.9814 213.786 76.1956C213.22 76.7824 212.544 77.2444 211.799 77.5533C211.055 77.8623 210.256 78.0116 209.453 77.9923C208.648 78.0338 207.842 77.9071 207.086 77.62C206.329 77.3328 205.637 76.891 205.051 76.3213Z" fill="#2E3A2E"/>
<path d="M191.676 48.0804C192.785 49.1517 193.655 50.4553 194.225 51.9018C194.794 53.3482 195.051 54.9034 194.977 56.4606C195.082 58.0268 194.825 59.5962 194.227 61.0424C193.629 62.4887 192.707 63.7713 191.534 64.7868C188.902 66.7585 185.685 67.7449 182.425 67.5803L182.124 71.8875H176.828L176.563 63.291H178.329C181.052 63.433 183.772 62.9528 186.291 61.8853C187.22 61.3601 187.976 60.5671 188.466 59.6056C188.956 58.644 189.157 57.5564 189.045 56.4787C189.099 55.6452 188.982 54.8094 188.703 54.0244C188.423 53.2394 187.987 52.5224 187.421 51.9191C186.81 51.3506 186.094 50.9126 185.315 50.631C184.535 50.3493 183.709 50.2297 182.884 50.2791C181.221 50.1817 179.587 50.7507 178.329 51.865C177.757 52.4394 177.313 53.1325 177.027 53.8975C176.74 54.6624 176.618 55.4812 176.669 56.2984H171.002C170.965 54.2435 171.464 52.2156 172.45 50.4232C173.418 48.7076 174.862 47.322 176.598 46.4403C178.556 45.452 180.718 44.9634 182.901 45.0166C186.103 44.8497 189.245 45.9467 191.676 48.0804ZM176.687 82.845C175.962 82.0818 175.557 81.0605 175.557 79.9975C175.557 78.9345 175.962 77.9132 176.687 77.15C177.051 76.7746 177.486 76.4788 177.965 76.2805C178.445 76.0822 178.959 75.9856 179.476 75.9966C180.247 76.0119 180.996 76.2577 181.631 76.7037C182.266 77.1496 182.759 77.7761 183.049 78.5053C183.338 79.2345 183.412 80.0345 183.26 80.8059C183.108 81.5773 182.738 82.2864 182.195 82.845C181.844 83.2183 181.422 83.5135 180.954 83.712C180.486 83.9105 179.983 84.008 179.476 83.9984C178.958 84.0137 178.443 83.9191 177.963 83.7205C177.483 83.522 177.048 83.2238 176.687 82.845Z" fill="#2E3A2E"/>
</svg>
